M48
; DRILL file {KiCad 8.0.7-8.0.7-0~ubuntu22.04.1} date 2024-12-07T17:10:43+0100
; FORMAT={-:-/ absolute / inch / decimal}
; #@! TF.CreationDate,2024-12-07T17:10:43+01:00
; #@! TF.GenerationSoftware,Kicad,Pcbnew,8.0.7-8.0.7-0~ubuntu22.04.1
; #@! TF.FileFunction,Plated,1,2,PTH
FMAT,2
INCH
; #@! TA.AperFunction,Plated,PTH,ViaDrill
T1C0.0138
; #@! TA.AperFunction,Plated,PTH,ComponentDrill
T2C0.0197
; #@! TA.AperFunction,Plated,PTH,ComponentDrill
T3C0.0236
; #@! TA.AperFunction,Plated,PTH,ComponentDrill
T4C0.1260
%
G90
G05
T1
X3.6902Y-2.4049
X3.7047Y-2.1772
X3.7047Y-2.3465
X3.7087Y-2.3819
X3.7146Y-2.2165
X3.7244Y-2.3228
X3.7323Y-2.1929
X3.7598Y-2.1772
X3.7984Y-2.3857
X3.7991Y-2.452
X3.8019Y-2.4226
X3.8241Y-2.4003
X3.8521Y-2.391
X3.9213Y-1.8898
X3.9213Y-1.9213
X3.9228Y-2.0484
X3.9685Y-1.8898
X3.9685Y-1.9213
X3.9961Y-1.7953
X3.9969Y-1.9988
X4.0079Y-1.6929
X4.0354Y-2.0041
X4.0394Y-2.0906
X4.0472Y-2.0591
X4.065Y-2.0039
X4.0685Y-2.0954
X4.0768Y-2.187
X4.0916Y-1.7043
X4.1013Y-2.1706
X4.1028Y-2.0016
X4.1122Y-2.4882
X4.1177Y-1.6906
X4.1417Y-2.4882
X4.1647Y-2.2252
X4.1654Y-2.2874
X4.1657Y-2.2547
X4.1674Y-1.6906
X4.1732Y-2.4882
X4.1811Y-2.1654
X4.1845Y-1.7146
X4.189Y-1.8878
X4.189Y-1.9173
X4.1969Y-2.2126
X4.2013Y-2.2653
X4.2047Y-2.4882
X4.2165Y-1.9331
X4.2205Y-1.8898
X4.2618Y-1.6929
X4.315Y-2.2598
X4.3425Y-2.8173
X4.3425Y-2.8465
X4.3563Y-2.1693
X4.372Y-2.8169
X4.372Y-2.8465
X4.4016Y-2.8169
X4.4016Y-2.8465
X4.4252Y-2.0827
X4.5354Y-1.9882
X4.5748Y-1.9882
X4.6142Y-1.9882
T2
X3.6969Y-2.8028
X3.6976Y-2.5992
X3.7362Y-2.8028
X3.737Y-2.5992
X3.7756Y-2.8028
X3.7764Y-2.5992
X3.815Y-2.8028
X3.8157Y-2.5992
X3.8543Y-2.8028
X3.8551Y-2.5992
X4.4287Y-2.6039
X4.4681Y-2.6039
X4.5075Y-2.6039
X4.5469Y-2.6039
X4.5862Y-2.6039
T4
X3.7008Y-1.7323
X3.7008Y-3.9764
X4.5669Y-1.7323
X4.5669Y-3.9764
T3
G00X3.9638Y-1.4656
M15
G01X3.9638Y-1.4341
M16
G05
G00X3.9638Y-1.6368
M15
G01X3.9638Y-1.5935
M16
G05
G00X4.3039Y-1.4656
M15
G01X4.3039Y-1.4341
M16
G05
G00X4.3039Y-1.6368
M15
G01X4.3039Y-1.5935
M16
G05
M30
