%TF.GenerationSoftware,KiCad,Pcbnew,8.0.7-8.0.7-0~ubuntu22.04.1*%
%TF.CreationDate,2024-12-07T17:10:43+01:00*%
%TF.ProjectId,camera_360,63616d65-7261-45f3-9336-302e6b696361,rev?*%
%TF.SameCoordinates,Original*%
%TF.FileFunction,Copper,L1,Top*%
%TF.FilePolarity,Positive*%
%FSLAX46Y46*%
G04 Gerber Fmt 4.6, Leading zero omitted, Abs format (unit mm)*
G04 Created by KiCad (PCBNEW 8.0.7-8.0.7-0~ubuntu22.04.1) date 2024-12-07 17:10:43*
%MOMM*%
%LPD*%
G01*
G04 APERTURE LIST*
G04 Aperture macros list*
%AMRoundRect*
0 Rectangle with rounded corners*
0 $1 Rounding radius*
0 $2 $3 $4 $5 $6 $7 $8 $9 X,Y pos of 4 corners*
0 Add a 4 corners polygon primitive as box body*
4,1,4,$2,$3,$4,$5,$6,$7,$8,$9,$2,$3,0*
0 Add four circle primitives for the rounded corners*
1,1,$1+$1,$2,$3*
1,1,$1+$1,$4,$5*
1,1,$1+$1,$6,$7*
1,1,$1+$1,$8,$9*
0 Add four rect primitives between the rounded corners*
20,1,$1+$1,$2,$3,$4,$5,0*
20,1,$1+$1,$4,$5,$6,$7,0*
20,1,$1+$1,$6,$7,$8,$9,0*
20,1,$1+$1,$8,$9,$2,$3,0*%
G04 Aperture macros list end*
%TA.AperFunction,SMDPad,CuDef*%
%ADD10RoundRect,0.250000X0.250000X0.475000X-0.250000X0.475000X-0.250000X-0.475000X0.250000X-0.475000X0*%
%TD*%
%TA.AperFunction,SMDPad,CuDef*%
%ADD11RoundRect,0.225000X-0.225000X-0.250000X0.225000X-0.250000X0.225000X0.250000X-0.225000X0.250000X0*%
%TD*%
%TA.AperFunction,SMDPad,CuDef*%
%ADD12RoundRect,0.250000X0.475000X-0.250000X0.475000X0.250000X-0.475000X0.250000X-0.475000X-0.250000X0*%
%TD*%
%TA.AperFunction,SMDPad,CuDef*%
%ADD13RoundRect,0.200000X0.275000X-0.200000X0.275000X0.200000X-0.275000X0.200000X-0.275000X-0.200000X0*%
%TD*%
%TA.AperFunction,SMDPad,CuDef*%
%ADD14RoundRect,0.140000X-0.170000X0.140000X-0.170000X-0.140000X0.170000X-0.140000X0.170000X0.140000X0*%
%TD*%
%TA.AperFunction,ComponentPad*%
%ADD15C,5.600000*%
%TD*%
%TA.AperFunction,SMDPad,CuDef*%
%ADD16RoundRect,0.135000X-0.185000X0.135000X-0.185000X-0.135000X0.185000X-0.135000X0.185000X0.135000X0*%
%TD*%
%TA.AperFunction,SMDPad,CuDef*%
%ADD17RoundRect,0.250000X-0.250000X-0.475000X0.250000X-0.475000X0.250000X0.475000X-0.250000X0.475000X0*%
%TD*%
%TA.AperFunction,SMDPad,CuDef*%
%ADD18RoundRect,0.375000X0.625000X0.375000X-0.625000X0.375000X-0.625000X-0.375000X0.625000X-0.375000X0*%
%TD*%
%TA.AperFunction,SMDPad,CuDef*%
%ADD19RoundRect,0.500000X0.500000X1.400000X-0.500000X1.400000X-0.500000X-1.400000X0.500000X-1.400000X0*%
%TD*%
%TA.AperFunction,SMDPad,CuDef*%
%ADD20RoundRect,0.075000X-0.650000X-0.075000X0.650000X-0.075000X0.650000X0.075000X-0.650000X0.075000X0*%
%TD*%
%TA.AperFunction,SMDPad,CuDef*%
%ADD21RoundRect,0.150000X0.150000X0.625000X-0.150000X0.625000X-0.150000X-0.625000X0.150000X-0.625000X0*%
%TD*%
%TA.AperFunction,SMDPad,CuDef*%
%ADD22RoundRect,0.250000X0.350000X0.650000X-0.350000X0.650000X-0.350000X-0.650000X0.350000X-0.650000X0*%
%TD*%
%TA.AperFunction,ComponentPad*%
%ADD23R,0.850000X0.850000*%
%TD*%
%TA.AperFunction,ComponentPad*%
%ADD24O,0.850000X0.850000*%
%TD*%
%TA.AperFunction,SMDPad,CuDef*%
%ADD25RoundRect,0.135000X-0.135000X-0.185000X0.135000X-0.185000X0.135000X0.185000X-0.135000X0.185000X0*%
%TD*%
%TA.AperFunction,SMDPad,CuDef*%
%ADD26RoundRect,0.200000X-0.275000X0.200000X-0.275000X-0.200000X0.275000X-0.200000X0.275000X0.200000X0*%
%TD*%
%TA.AperFunction,SMDPad,CuDef*%
%ADD27R,0.600000X1.240000*%
%TD*%
%TA.AperFunction,SMDPad,CuDef*%
%ADD28R,0.300000X1.240000*%
%TD*%
%TA.AperFunction,ComponentPad*%
%ADD29O,1.000000X2.100000*%
%TD*%
%TA.AperFunction,ComponentPad*%
%ADD30O,1.000000X1.800000*%
%TD*%
%TA.AperFunction,SMDPad,CuDef*%
%ADD31RoundRect,0.140000X0.140000X0.170000X-0.140000X0.170000X-0.140000X-0.170000X0.140000X-0.170000X0*%
%TD*%
%TA.AperFunction,SMDPad,CuDef*%
%ADD32RoundRect,0.135000X0.135000X0.185000X-0.135000X0.185000X-0.135000X-0.185000X0.135000X-0.185000X0*%
%TD*%
%TA.AperFunction,SMDPad,CuDef*%
%ADD33RoundRect,0.250000X-0.475000X0.250000X-0.475000X-0.250000X0.475000X-0.250000X0.475000X0.250000X0*%
%TD*%
%TA.AperFunction,SMDPad,CuDef*%
%ADD34RoundRect,0.100000X-0.712500X-0.100000X0.712500X-0.100000X0.712500X0.100000X-0.712500X0.100000X0*%
%TD*%
%TA.AperFunction,SMDPad,CuDef*%
%ADD35RoundRect,0.250000X1.000000X0.650000X-1.000000X0.650000X-1.000000X-0.650000X1.000000X-0.650000X0*%
%TD*%
%TA.AperFunction,SMDPad,CuDef*%
%ADD36R,1.200000X1.400000*%
%TD*%
%TA.AperFunction,ViaPad*%
%ADD37C,0.650000*%
%TD*%
%TA.AperFunction,ViaPad*%
%ADD38C,0.550000*%
%TD*%
%TA.AperFunction,Conductor*%
%ADD39C,0.750000*%
%TD*%
%TA.AperFunction,Conductor*%
%ADD40C,0.508000*%
%TD*%
%TA.AperFunction,Conductor*%
%ADD41C,0.200000*%
%TD*%
%TA.AperFunction,Conductor*%
%ADD42C,0.254000*%
%TD*%
%TA.AperFunction,Conductor*%
%ADD43C,1.000000*%
%TD*%
%TA.AperFunction,Conductor*%
%ADD44C,0.300000*%
%TD*%
G04 APERTURE END LIST*
D10*
%TO.P,C7,1*%
%TO.N,GND*%
X112750000Y-58400000D03*
%TO.P,C7,2*%
%TO.N,Net-(U2-VDD33)*%
X110850000Y-58400000D03*
%TD*%
D11*
%TO.P,C11,1*%
%TO.N,+3V3*%
X91225000Y-59400000D03*
%TO.P,C11,2*%
%TO.N,GND*%
X92775000Y-59400000D03*
%TD*%
D12*
%TO.P,C14,1*%
%TO.N,/SHIELD_CONN*%
X100850000Y-67199999D03*
%TO.P,C14,2*%
%TO.N,GND*%
X100850000Y-65300001D03*
%TD*%
D13*
%TO.P,R15,1*%
%TO.N,/SHIELD_CONN*%
X102650000Y-67275000D03*
%TO.P,R15,2*%
%TO.N,GND*%
X102650000Y-65625000D03*
%TD*%
D14*
%TO.P,C3,1*%
%TO.N,+3V3*%
X108100000Y-51800000D03*
%TO.P,C3,2*%
%TO.N,GND*%
X108100000Y-52760000D03*
%TD*%
D15*
%TO.P,H3,1*%
%TO.N,N/C*%
X94000000Y-101000000D03*
%TD*%
D16*
%TO.P,R14,1*%
%TO.N,/USB_PORT2_D-*%
X106100000Y-66690001D03*
%TO.P,R14,2*%
%TO.N,Net-(J5-Pin_2)*%
X106100000Y-67709999D03*
%TD*%
D17*
%TO.P,C13,1*%
%TO.N,+3V3*%
X91250000Y-57600000D03*
%TO.P,C13,2*%
%TO.N,GND*%
X93150000Y-57600000D03*
%TD*%
D15*
%TO.P,H4,1*%
%TO.N,N/C*%
X116000000Y-101000000D03*
%TD*%
D18*
%TO.P,U3,1,GND*%
%TO.N,GND*%
X97999999Y-53300000D03*
%TO.P,U3,2,VO*%
%TO.N,+3V3*%
X97999998Y-51000000D03*
D19*
X91700000Y-51000000D03*
D18*
%TO.P,U3,3,VI*%
%TO.N,+5V*%
X97999999Y-48700000D03*
%TD*%
D20*
%TO.P,U1,1,S*%
%TO.N,/VBUS*%
X100800000Y-52000000D03*
%TO.P,U1,2,D1+*%
%TO.N,/USB_PORT1_D+*%
X100800000Y-52500001D03*
%TO.P,U1,3,D2+*%
%TO.N,/USB_PORT2_D+*%
X100800000Y-53000000D03*
%TO.P,U1,4,D+*%
%TO.N,/USB_UPSTREAM_D+*%
X100800000Y-53499999D03*
%TO.P,U1,5,GND*%
%TO.N,GND*%
X100800000Y-54000000D03*
%TO.P,U1,6,D-*%
%TO.N,/USB_UPSTREAM_D-*%
X105200000Y-54000000D03*
%TO.P,U1,7,D2-*%
%TO.N,/USB_PORT2_D-*%
X105200000Y-53499999D03*
%TO.P,U1,8,D1-*%
%TO.N,/USB_PORT1_D-*%
X105200000Y-53000000D03*
%TO.P,U1,9,~{OE}*%
%TO.N,Net-(U1-~{OE})*%
X105200000Y-52500001D03*
%TO.P,U1,10,VCC*%
%TO.N,+3V3*%
X105200000Y-52000000D03*
%TD*%
D21*
%TO.P,J5,1,Pin_1*%
%TO.N,+5V*%
X107100000Y-69475000D03*
%TO.P,J5,2,Pin_2*%
%TO.N,Net-(J5-Pin_2)*%
X106100000Y-69475000D03*
%TO.P,J5,3,Pin_3*%
%TO.N,Net-(J5-Pin_3)*%
X105100000Y-69475001D03*
%TO.P,J5,4,Pin_4*%
%TO.N,GND*%
X104100000Y-69475000D03*
%TO.P,J5,5,Pin_5*%
%TO.N,/SHIELD_CONN*%
X103100000Y-69475000D03*
D22*
%TO.P,J5,MP*%
%TO.N,N/C*%
X108400000Y-72000001D03*
X101800000Y-72000001D03*
%TD*%
D23*
%TO.P,J3,1,Pin_1*%
%TO.N,+5V*%
X97920000Y-66020000D03*
D24*
%TO.P,J3,2,Pin_2*%
%TO.N,/USB_CAM2-*%
X96920000Y-66020000D03*
%TO.P,J3,3,Pin_3*%
%TO.N,/USB_CAM2+*%
X95919999Y-66020000D03*
%TO.P,J3,4,Pin_4*%
%TO.N,GND*%
X94920000Y-66020000D03*
%TO.P,J3,5,Pin_5*%
X93920000Y-66020000D03*
%TD*%
D25*
%TO.P,R8,1*%
%TO.N,/USB_CAM3+*%
X98717026Y-57489973D03*
%TO.P,R8,2*%
%TO.N,Net-(U2-DP3)*%
X99737026Y-57489973D03*
%TD*%
D15*
%TO.P,H1,1*%
%TO.N,N/C*%
X94000000Y-44000000D03*
%TD*%
D26*
%TO.P,R1,1*%
%TO.N,/SHIELD_USBC*%
X109100000Y-44175000D03*
%TO.P,R1,2*%
%TO.N,GND*%
X109100000Y-45825000D03*
%TD*%
D16*
%TO.P,R3,1*%
%TO.N,Net-(J1-D+-PadA6)*%
X105500000Y-44690001D03*
%TO.P,R3,2*%
%TO.N,/USB_PORT1_D+*%
X105500000Y-45709999D03*
%TD*%
D17*
%TO.P,C8,1*%
%TO.N,+5V*%
X98050000Y-44500000D03*
%TO.P,C8,2*%
%TO.N,GND*%
X99950000Y-44500000D03*
%TD*%
D25*
%TO.P,R12,1*%
%TO.N,/USB_CAM1+*%
X98717026Y-61999973D03*
%TO.P,R12,2*%
%TO.N,Net-(U2-DP1)*%
X99737026Y-61999973D03*
%TD*%
D27*
%TO.P,J1,A1,GND*%
%TO.N,GND*%
X108200000Y-41625000D03*
%TO.P,J1,A4,VBUS*%
%TO.N,/VBUS*%
X107400000Y-41625000D03*
D28*
%TO.P,J1,A5,CC1*%
%TO.N,Net-(J1-CC1)*%
X106250000Y-41625000D03*
%TO.P,J1,A6,D+*%
%TO.N,Net-(J1-D+-PadA6)*%
X105250000Y-41625000D03*
%TO.P,J1,A7,D-*%
%TO.N,Net-(J1-D--PadA7)*%
X104750000Y-41625000D03*
%TO.P,J1,A8*%
%TO.N,N/C*%
X103750000Y-41625000D03*
D27*
%TO.P,J1,A9,VBUS*%
%TO.N,/VBUS*%
X102600000Y-41625000D03*
%TO.P,J1,A12,GND*%
%TO.N,GND*%
X101800000Y-41625000D03*
%TO.P,J1,B1,GND*%
X101800000Y-41625000D03*
%TO.P,J1,B4,VBUS*%
%TO.N,/VBUS*%
X102600000Y-41625000D03*
D28*
%TO.P,J1,B5,CC2*%
%TO.N,Net-(J1-CC2)*%
X103250000Y-41625000D03*
%TO.P,J1,B6,D+*%
%TO.N,Net-(J1-D+-PadA6)*%
X104250000Y-41625000D03*
%TO.P,J1,B7,D-*%
%TO.N,Net-(J1-D--PadA7)*%
X105750000Y-41625000D03*
%TO.P,J1,B8*%
%TO.N,N/C*%
X106750000Y-41625000D03*
D27*
%TO.P,J1,B9,VBUS*%
%TO.N,/VBUS*%
X107400000Y-41625000D03*
%TO.P,J1,B12,GND*%
%TO.N,GND*%
X108200000Y-41625000D03*
D29*
%TO.P,J1,S1,SHIELD*%
%TO.N,/SHIELD_USBC*%
X109320000Y-41025000D03*
D30*
X109320000Y-36825000D03*
D29*
X100680000Y-41025000D03*
D30*
X100680000Y-36825000D03*
%TD*%
D31*
%TO.P,C9,1*%
%TO.N,GND*%
X111580000Y-56900000D03*
%TO.P,C9,2*%
%TO.N,Net-(U2-VDD33)*%
X110620000Y-56900000D03*
%TD*%
D25*
%TO.P,R10,1*%
%TO.N,/USB_CAM2+*%
X98717026Y-59719973D03*
%TO.P,R10,2*%
%TO.N,Net-(U2-DP2)*%
X99737026Y-59719973D03*
%TD*%
D31*
%TO.P,C5,1*%
%TO.N,GND*%
X111510000Y-63900000D03*
%TO.P,C5,2*%
%TO.N,+5V*%
X110550000Y-63900000D03*
%TD*%
D23*
%TO.P,J4,1,Pin_1*%
%TO.N,+5V*%
X112490000Y-66140000D03*
D24*
%TO.P,J4,2,Pin_2*%
%TO.N,/USB_CAM3-*%
X113490000Y-66140000D03*
%TO.P,J4,3,Pin_3*%
%TO.N,/USB_CAM3+*%
X114490001Y-66140000D03*
%TO.P,J4,4,Pin_4*%
%TO.N,GND*%
X115490000Y-66140000D03*
%TO.P,J4,5,Pin_5*%
X116490000Y-66140000D03*
%TD*%
D14*
%TO.P,C2,1*%
%TO.N,+3V3*%
X107100000Y-51800000D03*
%TO.P,C2,2*%
%TO.N,GND*%
X107100000Y-52760000D03*
%TD*%
D32*
%TO.P,R4,1*%
%TO.N,GND*%
X107709999Y-53800000D03*
%TO.P,R4,2*%
%TO.N,Net-(U1-~{OE})*%
X106690001Y-53800000D03*
%TD*%
%TO.P,R7,1*%
%TO.N,Net-(U2-DM3)*%
X99737025Y-56489973D03*
%TO.P,R7,2*%
%TO.N,/USB_CAM3-*%
X98717027Y-56489973D03*
%TD*%
D10*
%TO.P,C6,1*%
%TO.N,GND*%
X112749999Y-60400000D03*
%TO.P,C6,2*%
%TO.N,Net-(U2-VDD33)*%
X110850001Y-60400000D03*
%TD*%
D11*
%TO.P,C10,1*%
%TO.N,+5V*%
X98225000Y-46500000D03*
%TO.P,C10,2*%
%TO.N,GND*%
X99775000Y-46500000D03*
%TD*%
D32*
%TO.P,R11,1*%
%TO.N,Net-(U2-DM1)*%
X99737025Y-60989973D03*
%TO.P,R11,2*%
%TO.N,/USB_CAM1-*%
X98717027Y-60989973D03*
%TD*%
D25*
%TO.P,R9,1*%
%TO.N,/USB_CAM2-*%
X98717026Y-58689973D03*
%TO.P,R9,2*%
%TO.N,Net-(U2-DM2)*%
X99737026Y-58689973D03*
%TD*%
D16*
%TO.P,R2,1*%
%TO.N,Net-(J1-D--PadA7)*%
X104500000Y-44690001D03*
%TO.P,R2,2*%
%TO.N,/USB_PORT1_D-*%
X104500000Y-45709999D03*
%TD*%
D33*
%TO.P,C1,1*%
%TO.N,/SHIELD_USBC*%
X111000000Y-44150000D03*
%TO.P,C1,2*%
%TO.N,GND*%
X111000000Y-46050000D03*
%TD*%
D17*
%TO.P,C12,1*%
%TO.N,+3V3*%
X91250000Y-55600000D03*
%TO.P,C12,2*%
%TO.N,GND*%
X93150000Y-55600000D03*
%TD*%
D34*
%TO.P,U2,1,DM4*%
%TO.N,unconnected-(U2-DM4-Pad1)*%
X102779526Y-56267473D03*
%TO.P,U2,2,DP4*%
%TO.N,unconnected-(U2-DP4-Pad2)*%
X102779526Y-56902473D03*
%TO.P,U2,3,DM3*%
%TO.N,Net-(U2-DM3)*%
X102779526Y-57537473D03*
%TO.P,U2,4,DP3*%
%TO.N,Net-(U2-DP3)*%
X102779526Y-58172473D03*
%TO.P,U2,5,DM2*%
%TO.N,Net-(U2-DM2)*%
X102779526Y-58807473D03*
%TO.P,U2,6,DP2*%
%TO.N,Net-(U2-DP2)*%
X102779526Y-59442473D03*
%TO.P,U2,7,DM1*%
%TO.N,Net-(U2-DM1)*%
X102779526Y-60077473D03*
%TO.P,U2,8,DP1*%
%TO.N,Net-(U2-DP1)*%
X102779526Y-60712473D03*
%TO.P,U2,9,RESET#/CDP*%
%TO.N,unconnected-(U2-RESET#{slash}CDP-Pad9)*%
X108054526Y-60712473D03*
%TO.P,U2,10,DMU*%
%TO.N,/USB_UPSTREAM_D-*%
X108054526Y-60077473D03*
%TO.P,U2,11,DPU*%
%TO.N,/USB_UPSTREAM_D+*%
X108054526Y-59442473D03*
%TO.P,U2,12,V5*%
%TO.N,+5V*%
X108054526Y-58807473D03*
%TO.P,U2,13,VDD33*%
%TO.N,Net-(U2-VDD33)*%
X108054526Y-58172473D03*
%TO.P,U2,14,GND*%
%TO.N,GND*%
X108054526Y-57537473D03*
%TO.P,U2,15,XO*%
%TO.N,Net-(U2-XO)*%
X108054526Y-56902473D03*
%TO.P,U2,16,XI*%
%TO.N,Net-(U2-XI)*%
X108054526Y-56267473D03*
%TD*%
D16*
%TO.P,R13,1*%
%TO.N,/USB_PORT2_D+*%
X105100000Y-66690001D03*
%TO.P,R13,2*%
%TO.N,Net-(J5-Pin_3)*%
X105100000Y-67709999D03*
%TD*%
D15*
%TO.P,H2,1*%
%TO.N,N/C*%
X116000000Y-44000000D03*
%TD*%
D10*
%TO.P,C4,1*%
%TO.N,GND*%
X112739999Y-62400000D03*
%TO.P,C4,2*%
%TO.N,+5V*%
X110840001Y-62400000D03*
%TD*%
D16*
%TO.P,R5,1*%
%TO.N,Net-(J1-CC2)*%
X103000000Y-43790001D03*
%TO.P,R5,2*%
%TO.N,GND*%
X103000000Y-44809999D03*
%TD*%
D35*
%TO.P,D1,1,K*%
%TO.N,+5V*%
X116100001Y-49200000D03*
%TO.P,D1,2,A*%
%TO.N,/VBUS*%
X112099999Y-49200000D03*
%TD*%
D36*
%TO.P,Y1,1,1*%
%TO.N,Net-(U2-XO)*%
X112350000Y-55100000D03*
%TO.P,Y1,2,2*%
%TO.N,GND*%
X112350000Y-52900000D03*
%TO.P,Y1,3,3*%
%TO.N,Net-(U2-XI)*%
X110650000Y-52900000D03*
%TO.P,Y1,4,4*%
%TO.N,GND*%
X110650000Y-55100000D03*
%TD*%
D23*
%TO.P,J2,1,Pin_1*%
%TO.N,+5V*%
X97900000Y-71190000D03*
D24*
%TO.P,J2,2,Pin_2*%
%TO.N,/USB_CAM1-*%
X96900000Y-71190000D03*
%TO.P,J2,3,Pin_3*%
%TO.N,/USB_CAM1+*%
X95899999Y-71190000D03*
%TO.P,J2,4,Pin_4*%
%TO.N,GND*%
X94900000Y-71190000D03*
%TO.P,J2,5,Pin_5*%
X93900000Y-71190000D03*
%TD*%
D16*
%TO.P,R6,1*%
%TO.N,Net-(J1-CC1)*%
X107300000Y-44190001D03*
%TO.P,R6,2*%
%TO.N,GND*%
X107300000Y-45209999D03*
%TD*%
D37*
%TO.N,GND*%
X109600000Y-57400000D03*
X112400000Y-52900000D03*
D38*
%TO.N,+5V*%
X111800000Y-71550000D03*
D37*
X100800000Y-48000000D03*
X100800000Y-48800000D03*
D38*
X111050000Y-72300000D03*
X116200000Y-50500000D03*
X111050000Y-71550000D03*
X115200000Y-50500000D03*
D37*
X99600000Y-48800000D03*
D38*
X117200000Y-50500000D03*
X110300000Y-71560000D03*
D37*
X99600000Y-48000000D03*
D38*
X111800000Y-72300000D03*
X110300000Y-72300000D03*
D37*
%TO.N,GND*%
X108250000Y-43000000D03*
D38*
X104449997Y-63200000D03*
X106200000Y-55000000D03*
X107200000Y-48000000D03*
X97844431Y-60730205D03*
X102800000Y-52300000D03*
X104210000Y-50840000D03*
D37*
X106712527Y-57537473D03*
D38*
X95500000Y-55300000D03*
X94100000Y-55300000D03*
X96480480Y-60597122D03*
D37*
X110650000Y-55100000D03*
D38*
X107100000Y-49100000D03*
X106286483Y-43551333D03*
X93731477Y-61085654D03*
X105800000Y-58100000D03*
X101520000Y-50770000D03*
X96497230Y-62279579D03*
X94600000Y-59000000D03*
X106600000Y-56200000D03*
X106800000Y-63200000D03*
D37*
X101800000Y-43000000D03*
D38*
X103926065Y-43288847D03*
%TO.N,/USB_CAM2-*%
X94100000Y-59600000D03*
%TO.N,/USB_CAM2+*%
X94200000Y-60500000D03*
%TO.N,/USB_CAM3-*%
X94800000Y-55700000D03*
%TO.N,/USB_CAM3+*%
X94349998Y-56300002D03*
%TO.N,/USB_CAM1-*%
X97132843Y-60967157D03*
%TO.N,/USB_CAM1+*%
X96567157Y-61532843D03*
%TO.N,/USB_UPSTREAM_D-*%
X104174040Y-55133974D03*
X105784591Y-56520428D03*
%TO.N,/USB_UPSTREAM_D+*%
X105810000Y-57270000D03*
X103550000Y-55550000D03*
%TO.N,/VBUS*%
X101500000Y-45600000D03*
X99640000Y-52030000D03*
%TO.N,/USB_PORT1_D-*%
X103249993Y-50899083D03*
X106400000Y-48700000D03*
%TO.N,/USB_PORT1_D+*%
X106400000Y-47949997D03*
X102500001Y-50903015D03*
%TO.N,/USB_PORT2_D-*%
X103339798Y-53223300D03*
X106000000Y-63200000D03*
%TO.N,/USB_PORT2_D+*%
X102600000Y-53100000D03*
X105200000Y-63200000D03*
%TO.N,Net-(J1-D--PadA7)*%
X105852000Y-42940000D03*
X104590000Y-42940000D03*
%TD*%
D39*
%TO.N,+5V*%
X97900000Y-71190000D02*
X98590000Y-70500000D01*
X98590000Y-70500000D02*
X101100000Y-70500000D01*
D40*
%TO.N,GND*%
X104100000Y-69475000D02*
X104100000Y-67700000D01*
D41*
%TO.N,/USB_CAM3+*%
X114490001Y-66114696D02*
X114490001Y-66140000D01*
D40*
%TO.N,Net-(U2-VDD33)*%
X110795000Y-58430000D02*
X110620000Y-58255000D01*
X110620000Y-58255000D02*
X110620000Y-56900000D01*
D42*
%TO.N,/VBUS*%
X101500000Y-45600000D02*
X102300000Y-44800000D01*
X102300000Y-44800000D02*
X102300000Y-43512893D01*
X102300000Y-43512893D02*
X102600000Y-43212893D01*
X102600000Y-43212893D02*
X102600000Y-41625000D01*
D43*
X110700000Y-39300000D02*
X112425000Y-41025000D01*
X112425000Y-41025000D02*
X112425000Y-48874999D01*
X112425000Y-48874999D02*
X112099999Y-49200000D01*
D42*
%TO.N,/USB_UPSTREAM_D-*%
X104174040Y-55133974D02*
X103900000Y-54859934D01*
X103900000Y-54859934D02*
X103900000Y-54200000D01*
X103900000Y-54200000D02*
X104100000Y-54000000D01*
X104100000Y-54000000D02*
X105200000Y-54000000D01*
%TO.N,/USB_UPSTREAM_D+*%
X103550000Y-55550000D02*
X103300000Y-55300000D01*
X103300000Y-55300000D02*
X103300000Y-54100000D01*
X103300000Y-54100000D02*
X102902000Y-53702000D01*
X102902000Y-53702000D02*
X101797592Y-53702000D01*
X101797592Y-53702000D02*
X101595591Y-53499999D01*
X101595591Y-53499999D02*
X100800000Y-53499999D01*
D44*
%TO.N,/USB_UPSTREAM_D-*%
X105784591Y-56520428D02*
X105637019Y-56668000D01*
X104400000Y-56900000D02*
X104400000Y-59100000D01*
X105637019Y-56668000D02*
X104632000Y-56668000D01*
X104632000Y-56668000D02*
X104400000Y-56900000D01*
X104400000Y-59100000D02*
X105300000Y-60000000D01*
X105300000Y-60000000D02*
X107977053Y-60000000D01*
X107977053Y-60000000D02*
X108054526Y-60077473D01*
%TO.N,/USB_UPSTREAM_D+*%
X105810000Y-57270000D02*
X105740000Y-57200000D01*
X104900000Y-58892894D02*
X105507106Y-59500000D01*
X105740000Y-57200000D02*
X104900000Y-57200000D01*
X104900000Y-57200000D02*
X104900000Y-58892894D01*
X105507106Y-59500000D02*
X107996999Y-59500000D01*
X107996999Y-59500000D02*
X108054526Y-59442473D01*
D39*
%TO.N,+5V*%
X97920000Y-71170000D02*
X97920000Y-66020000D01*
X97900000Y-71190000D02*
X97920000Y-71170000D01*
D44*
%TO.N,GND*%
X106712527Y-57537473D02*
X108054526Y-57537473D01*
D40*
X108200000Y-41625000D02*
X108200000Y-42950000D01*
X108200000Y-42950000D02*
X108250000Y-43000000D01*
X101800000Y-41625000D02*
X101800000Y-43000000D01*
D41*
%TO.N,/USB_CAM2-*%
X95100000Y-59900000D02*
X95730028Y-59269972D01*
X98137027Y-59269972D02*
X98717026Y-58689973D01*
X94400000Y-59900000D02*
X95100000Y-59900000D01*
X95730028Y-59269972D02*
X98137027Y-59269972D01*
X94100000Y-59600000D02*
X94400000Y-59900000D01*
%TO.N,/USB_CAM2+*%
X94200000Y-60500000D02*
X94400000Y-60300000D01*
X94400000Y-60300000D02*
X95300000Y-60300000D01*
X95880027Y-59719973D02*
X98717026Y-59719973D01*
X95300000Y-60300000D02*
X95880027Y-59719973D01*
D44*
%TO.N,/USB_CAM3-*%
X98442027Y-56764973D02*
X98717027Y-56489973D01*
X95864973Y-56764973D02*
X98442027Y-56764973D01*
X94800000Y-55700000D02*
X95864973Y-56764973D01*
%TO.N,/USB_CAM3+*%
X98492026Y-57264973D02*
X98717026Y-57489973D01*
X94349998Y-56300002D02*
X94600002Y-56300002D01*
X94600002Y-56300002D02*
X95564973Y-57264973D01*
X95564973Y-57264973D02*
X98492026Y-57264973D01*
D41*
%TO.N,/USB_CAM1-*%
X98387000Y-61320000D02*
X98717027Y-60989973D01*
X97345685Y-61320000D02*
X98387000Y-61320000D01*
X97132843Y-61107158D02*
X97345685Y-61320000D01*
X97132843Y-60967157D02*
X97132843Y-61107158D01*
%TO.N,/USB_CAM1+*%
X96992843Y-61532843D02*
X97180000Y-61720000D01*
X98437053Y-61720000D02*
X98717026Y-61999973D01*
X96567157Y-61532843D02*
X96992843Y-61532843D01*
X97180000Y-61720000D02*
X98437053Y-61720000D01*
D44*
%TO.N,/USB_UPSTREAM_D-*%
X108012026Y-60034973D02*
X108054526Y-60077473D01*
%TO.N,/USB_UPSTREAM_D+*%
X108012026Y-59484973D02*
X108054526Y-59442473D01*
X107399526Y-59484973D02*
X107442026Y-59442473D01*
X107442026Y-59442473D02*
X108054526Y-59442473D01*
D43*
%TO.N,/SHIELD_USBC*%
X109320000Y-42500000D02*
X109320000Y-43955000D01*
X109320000Y-43955000D02*
X109100000Y-44175000D01*
X109100000Y-44175000D02*
X110875000Y-44175000D01*
X109320000Y-41025000D02*
X109320000Y-42500000D01*
D39*
%TO.N,/SHIELD_CONN*%
X102700000Y-67325000D02*
X102650000Y-67275000D01*
X102700000Y-69075000D02*
X102700000Y-67325000D01*
X103100000Y-69475000D02*
X102700000Y-69075000D01*
X100925001Y-67275000D02*
X100850000Y-67199999D01*
X102650000Y-67275000D02*
X100925001Y-67275000D01*
D42*
%TO.N,Net-(J1-CC2)*%
X103250000Y-41625000D02*
X103250000Y-43540001D01*
X103250000Y-43540001D02*
X103000000Y-43790001D01*
%TO.N,Net-(J1-CC1)*%
X106250000Y-42400000D02*
X107300000Y-43450000D01*
X107300000Y-43450000D02*
X107300000Y-44190001D01*
X106250000Y-41625000D02*
X106250000Y-42400000D01*
D44*
%TO.N,+3V3*%
X107900000Y-52000000D02*
X108100000Y-51800000D01*
D40*
X97749999Y-51000000D02*
X98749999Y-50000000D01*
D44*
X105200000Y-52000000D02*
X107900000Y-52000000D01*
D40*
X98749999Y-50000000D02*
X107730000Y-50000000D01*
X107730000Y-50000000D02*
X108100000Y-50370000D01*
X108100000Y-51800000D02*
X104620000Y-51800000D01*
X108100000Y-50370000D02*
X108100000Y-51800000D01*
D44*
X108100000Y-51800000D02*
X107100000Y-51800000D01*
D42*
%TO.N,/VBUS*%
X99670000Y-52000000D02*
X99640000Y-52030000D01*
X100800000Y-52000000D02*
X99670000Y-52000000D01*
D41*
%TO.N,/USB_PORT1_D-*%
X106400000Y-48700000D02*
X106079326Y-48700000D01*
D42*
X103249993Y-50899083D02*
X103100000Y-51049076D01*
D41*
X106079326Y-48700000D02*
X105227179Y-47847853D01*
X104775000Y-46465000D02*
X104500000Y-46190000D01*
X104500000Y-46190000D02*
X104500000Y-45709999D01*
D42*
X104400000Y-53000000D02*
X105200000Y-53000000D01*
D41*
X104775000Y-47395675D02*
X104775000Y-46465000D01*
D42*
X103100000Y-51700000D02*
X104400000Y-53000000D01*
D41*
X105227178Y-47847853D02*
X104775000Y-47395675D01*
X105227179Y-47847853D02*
X105227178Y-47847853D01*
D42*
X103100000Y-51049076D02*
X103100000Y-51700000D01*
%TO.N,/USB_PORT1_D+*%
X102500001Y-50903015D02*
X102500001Y-51599999D01*
D41*
X106400000Y-47949997D02*
X105965721Y-47949997D01*
X105965721Y-47949997D02*
X105545378Y-47529654D01*
X105225000Y-47209275D02*
X105225000Y-46465000D01*
X105545378Y-47529653D02*
X105225000Y-47209275D01*
X105545378Y-47529654D02*
X105545378Y-47529653D01*
D42*
X101599999Y-52500001D02*
X100800000Y-52500001D01*
D41*
X105500000Y-46190000D02*
X105500000Y-45709999D01*
D42*
X102500001Y-51599999D02*
X101599999Y-52500001D01*
D41*
X105225000Y-46465000D02*
X105500000Y-46190000D01*
D42*
%TO.N,/USB_PORT2_D-*%
X103339798Y-53223300D02*
X103616497Y-53499999D01*
X105900000Y-66490001D02*
X106100000Y-66690001D01*
X105900000Y-63300000D02*
X105900000Y-66490001D01*
X103616497Y-53499999D02*
X105200000Y-53499999D01*
X106000000Y-63200000D02*
X105900000Y-63300000D01*
%TO.N,/USB_PORT2_D+*%
X105400000Y-63400000D02*
X105400000Y-66390001D01*
X105400000Y-66390001D02*
X105100000Y-66690001D01*
X105200000Y-63200000D02*
X105400000Y-63400000D01*
X102502000Y-53002000D02*
X100802000Y-53002000D01*
X100802000Y-53002000D02*
X100800000Y-53000000D01*
X102600000Y-53100000D02*
X102502000Y-53002000D01*
%TO.N,Net-(J1-D+-PadA6)*%
X104410000Y-40040000D02*
X105010000Y-40040000D01*
X105250000Y-41625000D02*
X105250000Y-44440001D01*
X105010000Y-40040000D02*
X105250000Y-40280000D01*
X104250000Y-41625000D02*
X104250000Y-40200000D01*
X104250000Y-40200000D02*
X104410000Y-40040000D01*
X105250000Y-44440001D02*
X105500000Y-44690001D01*
X105250000Y-40280000D02*
X105250000Y-41625000D01*
%TO.N,Net-(J1-D--PadA7)*%
X105750000Y-42838000D02*
X105750000Y-41625000D01*
X104590000Y-42940000D02*
X104750000Y-43100000D01*
X105852000Y-42940000D02*
X105750000Y-42838000D01*
X104750000Y-42780000D02*
X104590000Y-42940000D01*
X104750000Y-44440001D02*
X104500000Y-44690001D01*
X105852000Y-42940000D02*
X105852000Y-42908000D01*
X104750000Y-41625000D02*
X104750000Y-42780000D01*
X104750000Y-43100000D02*
X104750000Y-44440001D01*
%TO.N,Net-(J5-Pin_3)*%
X105100000Y-69475001D02*
X105100000Y-67709999D01*
%TO.N,Net-(J5-Pin_2)*%
X106100000Y-67709999D02*
X106100000Y-69475000D01*
D40*
%TO.N,Net-(U2-VDD33)*%
X110620000Y-59969999D02*
X110850001Y-60200000D01*
X110795000Y-58430000D02*
X110620000Y-58605000D01*
D44*
X110537473Y-58172473D02*
X110795000Y-58430000D01*
X110652500Y-59462500D02*
X110850001Y-59660001D01*
X108054526Y-58172473D02*
X110537473Y-58172473D01*
X110850001Y-59660001D02*
X110850001Y-60200000D01*
D40*
X110620000Y-58605000D02*
X110620000Y-59969999D01*
D42*
%TO.N,Net-(U1-~{OE})*%
X106463000Y-52967408D02*
X106463000Y-53572999D01*
X105200000Y-52500001D02*
X105995593Y-52500001D01*
X105995593Y-52500001D02*
X106463000Y-52967408D01*
X106463000Y-53572999D02*
X106690001Y-53800000D01*
D41*
%TO.N,Net-(U2-DM3)*%
X101382712Y-57689973D02*
X100482712Y-56789973D01*
X101881070Y-57689973D02*
X101382712Y-57689973D01*
X100482712Y-56789973D02*
X100037025Y-56789973D01*
X100037025Y-56789973D02*
X99737025Y-56489973D01*
X102779526Y-57537473D02*
X102033570Y-57537473D01*
X102033570Y-57537473D02*
X101881070Y-57689973D01*
%TO.N,Net-(U2-DP3)*%
X101217026Y-58089973D02*
X102697026Y-58089973D01*
X99737026Y-57489973D02*
X100037026Y-57189973D01*
X100037026Y-57189973D02*
X100317026Y-57189973D01*
X102697026Y-58089973D02*
X102779526Y-58172473D01*
X100317026Y-57189973D02*
X101217026Y-58089973D01*
%TO.N,Net-(U2-DM2)*%
X102667026Y-58919973D02*
X102779526Y-58807473D01*
X99967026Y-58919973D02*
X102667026Y-58919973D01*
X99737026Y-58689973D02*
X99967026Y-58919973D01*
%TO.N,Net-(U2-DP2)*%
X101911070Y-59319973D02*
X100137026Y-59319973D01*
X102033570Y-59442473D02*
X101911070Y-59319973D01*
X102779526Y-59442473D02*
X102033570Y-59442473D01*
X100137026Y-59319973D02*
X99737026Y-59719973D01*
%TO.N,Net-(U2-DM1)*%
X100047025Y-61299973D02*
X100287026Y-61299973D01*
X99737025Y-60989973D02*
X100047025Y-61299973D01*
X100287026Y-61299973D02*
X101397026Y-60189973D01*
X102667026Y-60189973D02*
X102779526Y-60077473D01*
X101397026Y-60189973D02*
X102667026Y-60189973D01*
%TO.N,Net-(U2-DP1)*%
X100452712Y-61699973D02*
X100037026Y-61699973D01*
X102657026Y-60589973D02*
X101562712Y-60589973D01*
X100037026Y-61699973D02*
X99737026Y-61999973D01*
X101562712Y-60589973D02*
X100452712Y-61699973D01*
X102779526Y-60712473D02*
X102657026Y-60589973D01*
D44*
%TO.N,Net-(U2-XI)*%
X109300000Y-54400000D02*
X110300000Y-53400000D01*
X108054526Y-56267473D02*
X108732527Y-56267473D01*
X108732527Y-56267473D02*
X109300000Y-55700000D01*
X109300000Y-55700000D02*
X109300000Y-54400000D01*
X110300000Y-53400000D02*
X111000000Y-53400000D01*
D42*
%TO.N,Net-(U2-XO)*%
X112350000Y-55354000D02*
X111404000Y-56300000D01*
X109700000Y-56300000D02*
X109097527Y-56902473D01*
X112350000Y-55100000D02*
X112350000Y-55354000D01*
X109097527Y-56902473D02*
X108054526Y-56902473D01*
X111404000Y-56300000D02*
X109700000Y-56300000D01*
%TD*%
%TA.AperFunction,Conductor*%
%TO.N,+3V3*%
G36*
X96437539Y-47419685D02*
G01*
X96483294Y-47472489D01*
X96494500Y-47524000D01*
X96494500Y-49376007D01*
X96499289Y-49420539D01*
X96500000Y-49433795D01*
X96500000Y-49900000D01*
X98676000Y-49900000D01*
X98743039Y-49919685D01*
X98788794Y-49972489D01*
X98800000Y-50024000D01*
X98800000Y-51876000D01*
X98780315Y-51943039D01*
X98727511Y-51988794D01*
X98676000Y-52000000D01*
X94600000Y-52000000D01*
X94600000Y-54076000D01*
X94580315Y-54143039D01*
X94527511Y-54188794D01*
X94476000Y-54200000D01*
X91800000Y-54200000D01*
X91800000Y-60076000D01*
X91780315Y-60143039D01*
X91727511Y-60188794D01*
X91676000Y-60200000D01*
X90624500Y-60200000D01*
X90557461Y-60180315D01*
X90511706Y-60127511D01*
X90500500Y-60076000D01*
X90500500Y-47524000D01*
X90520185Y-47456961D01*
X90572989Y-47411206D01*
X90624500Y-47400000D01*
X96370500Y-47400000D01*
X96437539Y-47419685D01*
G37*
%TD.AperFunction*%
%TD*%
%TA.AperFunction,Conductor*%
%TO.N,+5V*%
G36*
X110092539Y-58599685D02*
G01*
X110138294Y-58652489D01*
X110149500Y-58704000D01*
X110149500Y-58929269D01*
X110152353Y-58959699D01*
X110158540Y-58977378D01*
X110165500Y-59018336D01*
X110165500Y-59781665D01*
X110158542Y-59822618D01*
X110152355Y-59840298D01*
X110152354Y-59840305D01*
X110149501Y-59870730D01*
X110149501Y-60929269D01*
X110152354Y-60959699D01*
X110152354Y-60959701D01*
X110197207Y-61087880D01*
X110197208Y-61087882D01*
X110277851Y-61197150D01*
X110387119Y-61277793D01*
X110429846Y-61292744D01*
X110515300Y-61322646D01*
X110545731Y-61325500D01*
X110876000Y-61325500D01*
X110943039Y-61345185D01*
X110988794Y-61397989D01*
X111000000Y-61449500D01*
X111000000Y-65200000D01*
X112676000Y-65200000D01*
X112743039Y-65219685D01*
X112788794Y-65272489D01*
X112800000Y-65324000D01*
X112800000Y-73276000D01*
X112780315Y-73343039D01*
X112727511Y-73388794D01*
X112676000Y-73400000D01*
X100874000Y-73400000D01*
X100806961Y-73380315D01*
X100761206Y-73327511D01*
X100750000Y-73276000D01*
X100750000Y-71295731D01*
X100999500Y-71295731D01*
X100999500Y-72704270D01*
X101002353Y-72734700D01*
X101002353Y-72734702D01*
X101047206Y-72862881D01*
X101047207Y-72862883D01*
X101127850Y-72972151D01*
X101237118Y-73052794D01*
X101279845Y-73067745D01*
X101365299Y-73097647D01*
X101395730Y-73100501D01*
X101395734Y-73100501D01*
X102204270Y-73100501D01*
X102234699Y-73097647D01*
X102234701Y-73097647D01*
X102298790Y-73075220D01*
X102362882Y-73052794D01*
X102472150Y-72972151D01*
X102552793Y-72862883D01*
X102575219Y-72798791D01*
X102597646Y-72734702D01*
X102597646Y-72734700D01*
X102600500Y-72704270D01*
X102600500Y-71295731D01*
X107599500Y-71295731D01*
X107599500Y-72704270D01*
X107602353Y-72734700D01*
X107602353Y-72734702D01*
X107647206Y-72862881D01*
X107647207Y-72862883D01*
X107727850Y-72972151D01*
X107837118Y-73052794D01*
X107879845Y-73067745D01*
X107965299Y-73097647D01*
X107995730Y-73100501D01*
X107995734Y-73100501D01*
X108804270Y-73100501D01*
X108834699Y-73097647D01*
X108834701Y-73097647D01*
X108898790Y-73075220D01*
X108962882Y-73052794D01*
X109072150Y-72972151D01*
X109152793Y-72862883D01*
X109175219Y-72798791D01*
X109197646Y-72734702D01*
X109197646Y-72734700D01*
X109200500Y-72704270D01*
X109200500Y-71295731D01*
X109197646Y-71265301D01*
X109197646Y-71265299D01*
X109152793Y-71137120D01*
X109152792Y-71137118D01*
X109072150Y-71027851D01*
X108962882Y-70947208D01*
X108962880Y-70947207D01*
X108834700Y-70902354D01*
X108804270Y-70899501D01*
X108804266Y-70899501D01*
X107995734Y-70899501D01*
X107995730Y-70899501D01*
X107965300Y-70902354D01*
X107965298Y-70902354D01*
X107837119Y-70947207D01*
X107837117Y-70947208D01*
X107727850Y-71027851D01*
X107647207Y-71137118D01*
X107647206Y-71137120D01*
X107602353Y-71265299D01*
X107602353Y-71265301D01*
X107599500Y-71295731D01*
X102600500Y-71295731D01*
X102597646Y-71265301D01*
X102597646Y-71265299D01*
X102552793Y-71137120D01*
X102552792Y-71137118D01*
X102472150Y-71027851D01*
X102362882Y-70947208D01*
X102362880Y-70947207D01*
X102234700Y-70902354D01*
X102204270Y-70899501D01*
X102204266Y-70899501D01*
X101395734Y-70899501D01*
X101395730Y-70899501D01*
X101365300Y-70902354D01*
X101365298Y-70902354D01*
X101237119Y-70947207D01*
X101237117Y-70947208D01*
X101127850Y-71027851D01*
X101047207Y-71137118D01*
X101047206Y-71137120D01*
X101002353Y-71265299D01*
X101002353Y-71265301D01*
X100999500Y-71295731D01*
X100750000Y-71295731D01*
X100750000Y-68373272D01*
X100769685Y-68306233D01*
X100822489Y-68260478D01*
X100873266Y-68249274D01*
X101999775Y-68242648D01*
X102066925Y-68261937D01*
X102112989Y-68314471D01*
X102124500Y-68366645D01*
X102124500Y-69150765D01*
X102163719Y-69297136D01*
X102201602Y-69362750D01*
X102239485Y-69428365D01*
X102239487Y-69428367D01*
X102563181Y-69752061D01*
X102596666Y-69813384D01*
X102599500Y-69839742D01*
X102599500Y-70133260D01*
X102609426Y-70201391D01*
X102660803Y-70306485D01*
X102743514Y-70389196D01*
X102743515Y-70389196D01*
X102743517Y-70389198D01*
X102848607Y-70440573D01*
X102882673Y-70445536D01*
X102916739Y-70450500D01*
X102916740Y-70450500D01*
X103283261Y-70450500D01*
X103305971Y-70447191D01*
X103351393Y-70440573D01*
X103456483Y-70389198D01*
X103456485Y-70389196D01*
X103512319Y-70333363D01*
X103573642Y-70299878D01*
X103643334Y-70304862D01*
X103687681Y-70333363D01*
X103743514Y-70389196D01*
X103743515Y-70389196D01*
X103743517Y-70389198D01*
X103848607Y-70440573D01*
X103882673Y-70445536D01*
X103916739Y-70450500D01*
X103916740Y-70450500D01*
X104283261Y-70450500D01*
X104305971Y-70447191D01*
X104351393Y-70440573D01*
X104456483Y-70389198D01*
X104512319Y-70333361D01*
X104573640Y-70299878D01*
X104643332Y-70304862D01*
X104687680Y-70333363D01*
X104743514Y-70389197D01*
X104743515Y-70389197D01*
X104743517Y-70389199D01*
X104848607Y-70440574D01*
X104882673Y-70445537D01*
X104916739Y-70450501D01*
X104916740Y-70450501D01*
X105283261Y-70450501D01*
X105305971Y-70447192D01*
X105351393Y-70440574D01*
X105456483Y-70389199D01*
X105512320Y-70333361D01*
X105573641Y-70299878D01*
X105643333Y-70304862D01*
X105687681Y-70333363D01*
X105743514Y-70389196D01*
X105743515Y-70389196D01*
X105743517Y-70389198D01*
X105848607Y-70440573D01*
X105882673Y-70445536D01*
X105916739Y-70450500D01*
X105916740Y-70450500D01*
X106283261Y-70450500D01*
X106305971Y-70447191D01*
X106351393Y-70440573D01*
X106456483Y-70389198D01*
X106539198Y-70306483D01*
X106590573Y-70201393D01*
X106600500Y-70133260D01*
X106600500Y-68816740D01*
X106590573Y-68748607D01*
X106539198Y-68643517D01*
X106539196Y-68643515D01*
X106539196Y-68643514D01*
X106463819Y-68568137D01*
X106430334Y-68506814D01*
X106427500Y-68480456D01*
X106427500Y-68339874D01*
X106447185Y-68272835D01*
X106499989Y-68227080D01*
X106550762Y-68215877D01*
X109250000Y-68200000D01*
X109225572Y-59100000D01*
X108987991Y-59100000D01*
X108937904Y-59089434D01*
X108837018Y-59044888D01*
X108811894Y-59041973D01*
X107324000Y-59041973D01*
X107256961Y-59022288D01*
X107211206Y-58969484D01*
X107200000Y-58917973D01*
X107200000Y-58722766D01*
X107219685Y-58655727D01*
X107272489Y-58609972D01*
X107322758Y-58598772D01*
X109199400Y-58580006D01*
X109200640Y-58580000D01*
X110025500Y-58580000D01*
X110092539Y-58599685D01*
G37*
%TD.AperFunction*%
%TD*%
%TA.AperFunction,Conductor*%
%TO.N,GND*%
G36*
X109890821Y-34518170D02*
G01*
X118818083Y-39874527D01*
X119439297Y-40247255D01*
X119486656Y-40298626D01*
X119499500Y-40353584D01*
X119499500Y-104375500D01*
X119479815Y-104442539D01*
X119427011Y-104488294D01*
X119375500Y-104499500D01*
X90624500Y-104499500D01*
X90557461Y-104479815D01*
X90511706Y-104427011D01*
X90500500Y-104375500D01*
X90500500Y-100999996D01*
X90994415Y-100999996D01*
X90994415Y-101000003D01*
X91014738Y-101348927D01*
X91014739Y-101348938D01*
X91075428Y-101693127D01*
X91075430Y-101693134D01*
X91175674Y-102027972D01*
X91314107Y-102348895D01*
X91314113Y-102348908D01*
X91488870Y-102651597D01*
X91697584Y-102931949D01*
X91697589Y-102931955D01*
X91821463Y-103063253D01*
X91937442Y-103186183D01*
X92113903Y-103334251D01*
X92205186Y-103410847D01*
X92205194Y-103410853D01*
X92497203Y-103602911D01*
X92497207Y-103602913D01*
X92809549Y-103759777D01*
X93137989Y-103879319D01*
X93478086Y-103959923D01*
X93825241Y-104000500D01*
X93825248Y-104000500D01*
X94174752Y-104000500D01*
X94174759Y-104000500D01*
X94521914Y-103959923D01*
X94862011Y-103879319D01*
X95190451Y-103759777D01*
X95502793Y-103602913D01*
X95794811Y-103410849D01*
X96062558Y-103186183D01*
X96302412Y-102931953D01*
X96511130Y-102651596D01*
X96685889Y-102348904D01*
X96824326Y-102027971D01*
X96924569Y-101693136D01*
X96985262Y-101348927D01*
X97005585Y-101000000D01*
X97005585Y-100999996D01*
X112994415Y-100999996D01*
X112994415Y-101000003D01*
X113014738Y-101348927D01*
X113014739Y-101348938D01*
X113075428Y-101693127D01*
X113075430Y-101693134D01*
X113175674Y-102027972D01*
X113314107Y-102348895D01*
X113314113Y-102348908D01*
X113488870Y-102651597D01*
X113697584Y-102931949D01*
X113697589Y-102931955D01*
X113821463Y-103063253D01*
X113937442Y-103186183D01*
X114113903Y-103334251D01*
X114205186Y-103410847D01*
X114205194Y-103410853D01*
X114497203Y-103602911D01*
X114497207Y-103602913D01*
X114809549Y-103759777D01*
X115137989Y-103879319D01*
X115478086Y-103959923D01*
X115825241Y-104000500D01*
X115825248Y-104000500D01*
X116174752Y-104000500D01*
X116174759Y-104000500D01*
X116521914Y-103959923D01*
X116862011Y-103879319D01*
X117190451Y-103759777D01*
X117502793Y-103602913D01*
X117794811Y-103410849D01*
X118062558Y-103186183D01*
X118302412Y-102931953D01*
X118511130Y-102651596D01*
X118685889Y-102348904D01*
X118824326Y-102027971D01*
X118924569Y-101693136D01*
X118985262Y-101348927D01*
X119005585Y-101000000D01*
X118985262Y-100651073D01*
X118985260Y-100651061D01*
X118924571Y-100306872D01*
X118924569Y-100306865D01*
X118824325Y-99972027D01*
X118685892Y-99651104D01*
X118685889Y-99651096D01*
X118511130Y-99348404D01*
X118511129Y-99348402D01*
X118302415Y-99068050D01*
X118302410Y-99068044D01*
X118186433Y-98945117D01*
X118062558Y-98813817D01*
X117914488Y-98689572D01*
X117794813Y-98589152D01*
X117794805Y-98589146D01*
X117502796Y-98397088D01*
X117190458Y-98240226D01*
X117190452Y-98240223D01*
X116862012Y-98120681D01*
X116862009Y-98120680D01*
X116521915Y-98040077D01*
X116478519Y-98035004D01*
X116174759Y-97999500D01*
X115825241Y-97999500D01*
X115521480Y-98035004D01*
X115478085Y-98040077D01*
X115478083Y-98040077D01*
X115137990Y-98120680D01*
X115137987Y-98120681D01*
X114809547Y-98240223D01*
X114809541Y-98240226D01*
X114497203Y-98397088D01*
X114205194Y-98589146D01*
X114205186Y-98589152D01*
X113937442Y-98813817D01*
X113937440Y-98813819D01*
X113697589Y-99068044D01*
X113697584Y-99068050D01*
X113488870Y-99348402D01*
X113314113Y-99651091D01*
X113314107Y-99651104D01*
X113175674Y-99972027D01*
X113075430Y-100306865D01*
X113075428Y-100306872D01*
X113014739Y-100651061D01*
X113014738Y-100651072D01*
X112994415Y-100999996D01*
X97005585Y-100999996D01*
X96985262Y-100651073D01*
X96985260Y-100651061D01*
X96924571Y-100306872D01*
X96924569Y-100306865D01*
X96824325Y-99972027D01*
X96685892Y-99651104D01*
X96685889Y-99651096D01*
X96511130Y-99348404D01*
X96511129Y-99348402D01*
X96302415Y-99068050D01*
X96302410Y-99068044D01*
X96186433Y-98945117D01*
X96062558Y-98813817D01*
X95914488Y-98689572D01*
X95794813Y-98589152D01*
X95794805Y-98589146D01*
X95502796Y-98397088D01*
X95190458Y-98240226D01*
X95190452Y-98240223D01*
X94862012Y-98120681D01*
X94862009Y-98120680D01*
X94521915Y-98040077D01*
X94478519Y-98035004D01*
X94174759Y-97999500D01*
X93825241Y-97999500D01*
X93521480Y-98035004D01*
X93478085Y-98040077D01*
X93478083Y-98040077D01*
X93137990Y-98120680D01*
X93137987Y-98120681D01*
X92809547Y-98240223D01*
X92809541Y-98240226D01*
X92497203Y-98397088D01*
X92205194Y-98589146D01*
X92205186Y-98589152D01*
X91937442Y-98813817D01*
X91937440Y-98813819D01*
X91697589Y-99068044D01*
X91697584Y-99068050D01*
X91488870Y-99348402D01*
X91314113Y-99651091D01*
X91314107Y-99651104D01*
X91175674Y-99972027D01*
X91075430Y-100306865D01*
X91075428Y-100306872D01*
X91014739Y-100651061D01*
X91014738Y-100651072D01*
X90994415Y-100999996D01*
X90500500Y-100999996D01*
X90500500Y-74934108D01*
X95499500Y-74934108D01*
X95499500Y-90065891D01*
X95533608Y-90193187D01*
X95566554Y-90250250D01*
X95599500Y-90307314D01*
X95692686Y-90400500D01*
X95806814Y-90466392D01*
X95934108Y-90500500D01*
X95934110Y-90500500D01*
X114065890Y-90500500D01*
X114065892Y-90500500D01*
X114193186Y-90466392D01*
X114307314Y-90400500D01*
X114400500Y-90307314D01*
X114466392Y-90193186D01*
X114500500Y-90065892D01*
X114500500Y-74934108D01*
X114466392Y-74806814D01*
X114400500Y-74692686D01*
X114307314Y-74599500D01*
X114250250Y-74566554D01*
X114193187Y-74533608D01*
X114129539Y-74516554D01*
X114065892Y-74499500D01*
X96065892Y-74499500D01*
X95934108Y-74499500D01*
X95806812Y-74533608D01*
X95692686Y-74599500D01*
X95692683Y-74599502D01*
X95599502Y-74692683D01*
X95599500Y-74692686D01*
X95533608Y-74806812D01*
X95499500Y-74934108D01*
X90500500Y-74934108D01*
X90500500Y-71190000D01*
X95269905Y-71190000D01*
X95288214Y-71340791D01*
X95342078Y-71482819D01*
X95428367Y-71607830D01*
X95542065Y-71708557D01*
X95676565Y-71779148D01*
X95750307Y-71797324D01*
X95824049Y-71815500D01*
X95824050Y-71815500D01*
X95975949Y-71815500D01*
X96025109Y-71803382D01*
X96123433Y-71779148D01*
X96257933Y-71708557D01*
X96317774Y-71655542D01*
X96381004Y-71625823D01*
X96450268Y-71635005D01*
X96482226Y-71655544D01*
X96542064Y-71708556D01*
X96542066Y-71708557D01*
X96676566Y-71779148D01*
X96750308Y-71797324D01*
X96824050Y-71815500D01*
X96824051Y-71815500D01*
X96975950Y-71815500D01*
X97012820Y-71806412D01*
X97123434Y-71779148D01*
X97191258Y-71743551D01*
X97259763Y-71729826D01*
X97319880Y-71753384D01*
X97320293Y-71752767D01*
X97323110Y-71754649D01*
X97324816Y-71755318D01*
X97327029Y-71757268D01*
X97396769Y-71803867D01*
X97396770Y-71803868D01*
X97455247Y-71815499D01*
X97455250Y-71815500D01*
X97455252Y-71815500D01*
X98344750Y-71815500D01*
X98344751Y-71815499D01*
X98359568Y-71812552D01*
X98403229Y-71803868D01*
X98403229Y-71803867D01*
X98403231Y-71803867D01*
X98469552Y-71759552D01*
X98513867Y-71693231D01*
X98513867Y-71693229D01*
X98513868Y-71693229D01*
X98525499Y-71634752D01*
X98525500Y-71634750D01*
X98525500Y-71429742D01*
X98545185Y-71362703D01*
X98561819Y-71342061D01*
X98792061Y-71111819D01*
X98853384Y-71078334D01*
X98879742Y-71075500D01*
X100420500Y-71075500D01*
X100487539Y-71095185D01*
X100533294Y-71147989D01*
X100544500Y-71199500D01*
X100544500Y-73276007D01*
X100549197Y-73319686D01*
X100560397Y-73371174D01*
X100562890Y-73381372D01*
X100562891Y-73381375D01*
X100605899Y-73462083D01*
X100605901Y-73462086D01*
X100651660Y-73514895D01*
X100669242Y-73532839D01*
X100669246Y-73532843D01*
X100669247Y-73532844D01*
X100669249Y-73532845D01*
X100749059Y-73577488D01*
X100749063Y-73577490D01*
X100816102Y-73597175D01*
X100874000Y-73605500D01*
X100874004Y-73605500D01*
X112675991Y-73605500D01*
X112676000Y-73605500D01*
X112719684Y-73600803D01*
X112748875Y-73594452D01*
X112771174Y-73589602D01*
X112771190Y-73589598D01*
X112771195Y-73589597D01*
X112781373Y-73587110D01*
X112862085Y-73544100D01*
X112914889Y-73498345D01*
X112932843Y-73480754D01*
X112977490Y-73400937D01*
X112997175Y-73333898D01*
X113005500Y-73276000D01*
X113005500Y-66811948D01*
X113025185Y-66744909D01*
X113051159Y-66718467D01*
X113050898Y-66718206D01*
X113053419Y-66715684D01*
X113054443Y-66715124D01*
X113060613Y-66708844D01*
X113069710Y-66702766D01*
X113071676Y-66705709D01*
X113114736Y-66682187D01*
X113184429Y-66687158D01*
X113198740Y-66693550D01*
X113245718Y-66718206D01*
X113266566Y-66729148D01*
X113414050Y-66765500D01*
X113414051Y-66765500D01*
X113565950Y-66765500D01*
X113615110Y-66753382D01*
X113713434Y-66729148D01*
X113847934Y-66658557D01*
X113907775Y-66605542D01*
X113971005Y-66575823D01*
X114040269Y-66585005D01*
X114072227Y-66605544D01*
X114132065Y-66658556D01*
X114132067Y-66658557D01*
X114266567Y-66729148D01*
X114330512Y-66744909D01*
X114414051Y-66765500D01*
X114414052Y-66765500D01*
X114565951Y-66765500D01*
X114615111Y-66753382D01*
X114713435Y-66729148D01*
X114847935Y-66658557D01*
X114961633Y-66557830D01*
X115047922Y-66432819D01*
X115101786Y-66290791D01*
X115120095Y-66140000D01*
X115101786Y-65989209D01*
X115047922Y-65847181D01*
X114961633Y-65722170D01*
X114847935Y-65621443D01*
X114713435Y-65550852D01*
X114713434Y-65550851D01*
X114713433Y-65550851D01*
X114565951Y-65514500D01*
X114565950Y-65514500D01*
X114414052Y-65514500D01*
X114414051Y-65514500D01*
X114266568Y-65550851D01*
X114132065Y-65621443D01*
X114072226Y-65674456D01*
X114008993Y-65704177D01*
X113939729Y-65694993D01*
X113907775Y-65674457D01*
X113847934Y-65621443D01*
X113713434Y-65550852D01*
X113713433Y-65550851D01*
X113713432Y-65550851D01*
X113565950Y-65514500D01*
X113565949Y-65514500D01*
X113414051Y-65514500D01*
X113414050Y-65514500D01*
X113266567Y-65550851D01*
X113198743Y-65586448D01*
X113130234Y-65600172D01*
X113070111Y-65576612D01*
X113069700Y-65577228D01*
X113066888Y-65575349D01*
X113065181Y-65574680D01*
X113062963Y-65572726D01*
X113060602Y-65571148D01*
X113059009Y-65569241D01*
X113053437Y-65564332D01*
X113050917Y-65561812D01*
X113051943Y-65560785D01*
X113015801Y-65517533D01*
X113005500Y-65468051D01*
X113005500Y-65324008D01*
X113005499Y-65323992D01*
X113000803Y-65280316D01*
X112996897Y-65262364D01*
X112989602Y-65228825D01*
X112989348Y-65227789D01*
X112987110Y-65218627D01*
X112944100Y-65137915D01*
X112898345Y-65085111D01*
X112898339Y-65085104D01*
X112880757Y-65067160D01*
X112880756Y-65067159D01*
X112880754Y-65067157D01*
X112880752Y-65067156D01*
X112880750Y-65067154D01*
X112800940Y-65022511D01*
X112800935Y-65022509D01*
X112733903Y-65002826D01*
X112733899Y-65002825D01*
X112733898Y-65002825D01*
X112676000Y-64994500D01*
X112675996Y-64994500D01*
X111329500Y-64994500D01*
X111262461Y-64974815D01*
X111216706Y-64922011D01*
X111205500Y-64870500D01*
X111205500Y-63399851D01*
X111225185Y-63332812D01*
X111277989Y-63287057D01*
X111288538Y-63282812D01*
X111302883Y-63277793D01*
X111412151Y-63197150D01*
X111492794Y-63087882D01*
X111515220Y-63023790D01*
X111537647Y-62959701D01*
X111537647Y-62959699D01*
X111540501Y-62929269D01*
X111540501Y-61870730D01*
X111537647Y-61840300D01*
X111537647Y-61840298D01*
X111492794Y-61712119D01*
X111492793Y-61712117D01*
X111460366Y-61668180D01*
X111412151Y-61602850D01*
X111321447Y-61535908D01*
X111302882Y-61522206D01*
X111293118Y-61518790D01*
X111236342Y-61478067D01*
X111210596Y-61413114D01*
X111224053Y-61344553D01*
X111272441Y-61294151D01*
X111293111Y-61284711D01*
X111312883Y-61277793D01*
X111422151Y-61197150D01*
X111502794Y-61087882D01*
X111533610Y-60999815D01*
X111547647Y-60959701D01*
X111547647Y-60959699D01*
X111550501Y-60929269D01*
X111550501Y-59870730D01*
X111547647Y-59840300D01*
X111547647Y-59840298D01*
X111510919Y-59735337D01*
X111502794Y-59712118D01*
X111422151Y-59602850D01*
X111312883Y-59522207D01*
X111311475Y-59521714D01*
X111298115Y-59517039D01*
X111241340Y-59476316D01*
X111215595Y-59411363D01*
X111229053Y-59342801D01*
X111277442Y-59292400D01*
X111298105Y-59282963D01*
X111312882Y-59277793D01*
X111422150Y-59197150D01*
X111502793Y-59087882D01*
X111526730Y-59019473D01*
X111547646Y-58959701D01*
X111547646Y-58959699D01*
X111550500Y-58929269D01*
X111550500Y-57870730D01*
X111547646Y-57840300D01*
X111547646Y-57840298D01*
X111506702Y-57723290D01*
X111502793Y-57712118D01*
X111422150Y-57602850D01*
X111312882Y-57522207D01*
X111312880Y-57522206D01*
X111184701Y-57477353D01*
X111177330Y-57475744D01*
X111177732Y-57473901D01*
X111122013Y-57451704D01*
X111081389Y-57394859D01*
X111074500Y-57354104D01*
X111074500Y-57228734D01*
X111086118Y-57176329D01*
X111093972Y-57159487D01*
X111100500Y-57109901D01*
X111100499Y-56751499D01*
X111120183Y-56684461D01*
X111172987Y-56638706D01*
X111224499Y-56627500D01*
X111447114Y-56627500D01*
X111447116Y-56627500D01*
X111530410Y-56605181D01*
X111605090Y-56562065D01*
X112130336Y-56036819D01*
X112191659Y-56003334D01*
X112218017Y-56000500D01*
X112969750Y-56000500D01*
X112969751Y-56000499D01*
X112984568Y-55997552D01*
X113028229Y-55988868D01*
X113028229Y-55988867D01*
X113028231Y-55988867D01*
X113094552Y-55944552D01*
X113138867Y-55878231D01*
X113138867Y-55878229D01*
X113138868Y-55878229D01*
X113150499Y-55819752D01*
X113150500Y-55819750D01*
X113150500Y-54380249D01*
X113150499Y-54380247D01*
X113138868Y-54321770D01*
X113138867Y-54321769D01*
X113094552Y-54255447D01*
X113028230Y-54211132D01*
X113028229Y-54211131D01*
X112969752Y-54199500D01*
X112969748Y-54199500D01*
X111730252Y-54199500D01*
X111730247Y-54199500D01*
X111671770Y-54211131D01*
X111671769Y-54211132D01*
X111605447Y-54255447D01*
X111561132Y-54321769D01*
X111561131Y-54321770D01*
X111549500Y-54380247D01*
X111549500Y-55639983D01*
X111529815Y-55707022D01*
X111513181Y-55727664D01*
X111304664Y-55936181D01*
X111243341Y-55969666D01*
X111216983Y-55972500D01*
X109751448Y-55972500D01*
X109684409Y-55952815D01*
X109638654Y-55900011D01*
X109628710Y-55830853D01*
X109631673Y-55816407D01*
X109650500Y-55746144D01*
X109650500Y-54596544D01*
X109670185Y-54529505D01*
X109686819Y-54508863D01*
X110358863Y-53836819D01*
X110420186Y-53803334D01*
X110446544Y-53800500D01*
X111269750Y-53800500D01*
X111269751Y-53800499D01*
X111284568Y-53797552D01*
X111328229Y-53788868D01*
X111328229Y-53788867D01*
X111328231Y-53788867D01*
X111394552Y-53744552D01*
X111438867Y-53678231D01*
X111438867Y-53678229D01*
X111438868Y-53678229D01*
X111450499Y-53619752D01*
X111450500Y-53619750D01*
X111450500Y-52180249D01*
X111450499Y-52180247D01*
X111438868Y-52121770D01*
X111438867Y-52121769D01*
X111394552Y-52055447D01*
X111328230Y-52011132D01*
X111328229Y-52011131D01*
X111269752Y-51999500D01*
X111269748Y-51999500D01*
X110030252Y-51999500D01*
X110030247Y-51999500D01*
X109971770Y-52011131D01*
X109971769Y-52011132D01*
X109905447Y-52055447D01*
X109861132Y-52121769D01*
X109861131Y-52121770D01*
X109849500Y-52180247D01*
X109849500Y-53303456D01*
X109829815Y-53370495D01*
X109813181Y-53391137D01*
X109019531Y-54184786D01*
X109019529Y-54184789D01*
X108978738Y-54255443D01*
X108978737Y-54255443D01*
X108973390Y-54264704D01*
X108973384Y-54264717D01*
X108949500Y-54353856D01*
X108949500Y-55503455D01*
X108929815Y-55570494D01*
X108913181Y-55591136D01*
X108673663Y-55830654D01*
X108612340Y-55864139D01*
X108585982Y-55866973D01*
X107297169Y-55866973D01*
X107297143Y-55866975D01*
X107272038Y-55869886D01*
X107272034Y-55869888D01*
X107169261Y-55915266D01*
X107089820Y-55994707D01*
X107044441Y-56097479D01*
X107044441Y-56097481D01*
X107041526Y-56122604D01*
X107041526Y-56412329D01*
X107041528Y-56412355D01*
X107044439Y-56437460D01*
X107044440Y-56437464D01*
X107087457Y-56534886D01*
X107096529Y-56604164D01*
X107087457Y-56635058D01*
X107044442Y-56732476D01*
X107044441Y-56732481D01*
X107041526Y-56757604D01*
X107041526Y-57047329D01*
X107041528Y-57047355D01*
X107044439Y-57072460D01*
X107044441Y-57072464D01*
X107089819Y-57175237D01*
X107089820Y-57175238D01*
X107169261Y-57254679D01*
X107272035Y-57300058D01*
X107297161Y-57302973D01*
X108811890Y-57302972D01*
X108811905Y-57302970D01*
X108811908Y-57302970D01*
X108837013Y-57300059D01*
X108837014Y-57300058D01*
X108837017Y-57300058D01*
X108939791Y-57254679D01*
X108939795Y-57254674D01*
X108944179Y-57251673D01*
X109010611Y-57230027D01*
X109014255Y-57229973D01*
X109140641Y-57229973D01*
X109140643Y-57229973D01*
X109223937Y-57207654D01*
X109298617Y-57164538D01*
X109799336Y-56663819D01*
X109860659Y-56630334D01*
X109887017Y-56627500D01*
X110015500Y-56627500D01*
X110082539Y-56647185D01*
X110128294Y-56699989D01*
X110139500Y-56751500D01*
X110139500Y-57109894D01*
X110139501Y-57109900D01*
X110146028Y-57159487D01*
X110146028Y-57159488D01*
X110146029Y-57159490D01*
X110153881Y-57176328D01*
X110165500Y-57228735D01*
X110165500Y-57697973D01*
X110145815Y-57765012D01*
X110093011Y-57810767D01*
X110041500Y-57821973D01*
X108969811Y-57821973D01*
X108919725Y-57811407D01*
X108879603Y-57793691D01*
X108837018Y-57774888D01*
X108811891Y-57771973D01*
X107297169Y-57771973D01*
X107297143Y-57771975D01*
X107272038Y-57774886D01*
X107272034Y-57774888D01*
X107169261Y-57820266D01*
X107089820Y-57899707D01*
X107044441Y-58002479D01*
X107044441Y-58002481D01*
X107041526Y-58027604D01*
X107041526Y-58317329D01*
X107041528Y-58317355D01*
X107044439Y-58342459D01*
X107044440Y-58342463D01*
X107044441Y-58342464D01*
X107059115Y-58375698D01*
X107072784Y-58406654D01*
X107081855Y-58475933D01*
X107067570Y-58517274D01*
X107022509Y-58597831D01*
X107002826Y-58664862D01*
X107002825Y-58664867D01*
X107002825Y-58664868D01*
X106994509Y-58722708D01*
X106994500Y-58722769D01*
X106994500Y-58917980D01*
X106999197Y-58961659D01*
X107007351Y-58999142D01*
X107002367Y-59068834D01*
X106960495Y-59124767D01*
X106895031Y-59149184D01*
X106886185Y-59149500D01*
X105703650Y-59149500D01*
X105636611Y-59129815D01*
X105615969Y-59113181D01*
X105286819Y-58784031D01*
X105253334Y-58722708D01*
X105250500Y-58696350D01*
X105250500Y-57682869D01*
X105270185Y-57615830D01*
X105322989Y-57570075D01*
X105392147Y-57560131D01*
X105455703Y-57589156D01*
X105468214Y-57601668D01*
X105495410Y-57633054D01*
X105495409Y-57633054D01*
X105495411Y-57633055D01*
X105610439Y-57706978D01*
X105665993Y-57723290D01*
X105741632Y-57745500D01*
X105741633Y-57745500D01*
X105878367Y-57745500D01*
X106009561Y-57706978D01*
X106124589Y-57633055D01*
X106214130Y-57529718D01*
X106270931Y-57405342D01*
X106290390Y-57270000D01*
X106270931Y-57134658D01*
X106231061Y-57047355D01*
X106214132Y-57010285D01*
X106214130Y-57010283D01*
X106214130Y-57010282D01*
X106172080Y-56961753D01*
X106143056Y-56898197D01*
X106153000Y-56829038D01*
X106172079Y-56799351D01*
X106188721Y-56780146D01*
X106195771Y-56764710D01*
X106210488Y-56732484D01*
X106245522Y-56655770D01*
X106264981Y-56520428D01*
X106245522Y-56385086D01*
X106225565Y-56341386D01*
X106188723Y-56260713D01*
X106188718Y-56260706D01*
X106099181Y-56157374D01*
X106099177Y-56157370D01*
X106005990Y-56097484D01*
X105984152Y-56083450D01*
X105984151Y-56083449D01*
X105984150Y-56083449D01*
X105852959Y-56044928D01*
X105852958Y-56044928D01*
X105716224Y-56044928D01*
X105716223Y-56044928D01*
X105585031Y-56083449D01*
X105470004Y-56157370D01*
X105470000Y-56157374D01*
X105374653Y-56267412D01*
X105373645Y-56266539D01*
X105327766Y-56306294D01*
X105276255Y-56317500D01*
X104585856Y-56317500D01*
X104496712Y-56341386D01*
X104496709Y-56341387D01*
X104416791Y-56387527D01*
X104416786Y-56387531D01*
X104119531Y-56684786D01*
X104119527Y-56684791D01*
X104077487Y-56757608D01*
X104077487Y-56757609D01*
X104073386Y-56764710D01*
X104049500Y-56853856D01*
X104049500Y-59146145D01*
X104071234Y-59227259D01*
X104073384Y-59235285D01*
X104073387Y-59235291D01*
X104119527Y-59315208D01*
X104119529Y-59315211D01*
X104119530Y-59315212D01*
X105084788Y-60280470D01*
X105139355Y-60311974D01*
X105139357Y-60311975D01*
X105164709Y-60326613D01*
X105164711Y-60326613D01*
X105164712Y-60326614D01*
X105253856Y-60350500D01*
X106938908Y-60350500D01*
X107005947Y-60370185D01*
X107051702Y-60422989D01*
X107061646Y-60492147D01*
X107052343Y-60524586D01*
X107044441Y-60542482D01*
X107041526Y-60567604D01*
X107041526Y-60857329D01*
X107041528Y-60857355D01*
X107044439Y-60882460D01*
X107044441Y-60882464D01*
X107089819Y-60985237D01*
X107089820Y-60985238D01*
X107169261Y-61064679D01*
X107272035Y-61110058D01*
X107297161Y-61112973D01*
X108811890Y-61112972D01*
X108811905Y-61112970D01*
X108811908Y-61112970D01*
X108837013Y-61110059D01*
X108837013Y-61110058D01*
X108837017Y-61110058D01*
X108851664Y-61103590D01*
X108920939Y-61094516D01*
X108984125Y-61124337D01*
X109021158Y-61183585D01*
X109025752Y-61216690D01*
X109043619Y-67872104D01*
X109024114Y-67939196D01*
X108971433Y-67985093D01*
X108920348Y-67996435D01*
X106745229Y-68009229D01*
X106678075Y-67989939D01*
X106632011Y-67937405D01*
X106620500Y-67885231D01*
X106620500Y-67535682D01*
X106614068Y-67486827D01*
X106614068Y-67486826D01*
X106564065Y-67379595D01*
X106480404Y-67295934D01*
X106472733Y-67288263D01*
X106475563Y-67285432D01*
X106444855Y-67247051D01*
X106437630Y-67177556D01*
X106469124Y-67115187D01*
X106472905Y-67111909D01*
X106472733Y-67111737D01*
X106480404Y-67104066D01*
X106564065Y-67020405D01*
X106614068Y-66913174D01*
X106620500Y-66864317D01*
X106620500Y-66515685D01*
X106614068Y-66466828D01*
X106564065Y-66359597D01*
X106480404Y-66275936D01*
X106373173Y-66225933D01*
X106373171Y-66225932D01*
X106373172Y-66225932D01*
X106335313Y-66220948D01*
X106271417Y-66192681D01*
X106232947Y-66134356D01*
X106227500Y-66098009D01*
X106227500Y-63686731D01*
X106247185Y-63619692D01*
X106284459Y-63582417D01*
X106314589Y-63563055D01*
X106404130Y-63459718D01*
X106460931Y-63335342D01*
X106480390Y-63200000D01*
X106460931Y-63064658D01*
X106448677Y-63037827D01*
X106404132Y-62940285D01*
X106404127Y-62940278D01*
X106314590Y-62836946D01*
X106314586Y-62836942D01*
X106199559Y-62763021D01*
X106068368Y-62724500D01*
X106068367Y-62724500D01*
X105931633Y-62724500D01*
X105931632Y-62724500D01*
X105800440Y-62763021D01*
X105685413Y-62836942D01*
X105681201Y-62840593D01*
X105617644Y-62869616D01*
X105548486Y-62859671D01*
X105518799Y-62840593D01*
X105514586Y-62836942D01*
X105399559Y-62763021D01*
X105268368Y-62724500D01*
X105268367Y-62724500D01*
X105131633Y-62724500D01*
X105131632Y-62724500D01*
X105000440Y-62763021D01*
X104885413Y-62836942D01*
X104885409Y-62836946D01*
X104795872Y-62940278D01*
X104795867Y-62940285D01*
X104739070Y-63064654D01*
X104739068Y-63064662D01*
X104719610Y-63200000D01*
X104739068Y-63335337D01*
X104739070Y-63335345D01*
X104795867Y-63459714D01*
X104795872Y-63459721D01*
X104885409Y-63563053D01*
X104885411Y-63563055D01*
X104972499Y-63619022D01*
X105007900Y-63641773D01*
X105007137Y-63642959D01*
X105052811Y-63682531D01*
X105072500Y-63749569D01*
X105072500Y-66095501D01*
X105052815Y-66162540D01*
X105000011Y-66208295D01*
X104948500Y-66219501D01*
X104875683Y-66219501D01*
X104826828Y-66225932D01*
X104719595Y-66275936D01*
X104635935Y-66359596D01*
X104585931Y-66466829D01*
X104579500Y-66515684D01*
X104579500Y-66864317D01*
X104585931Y-66913172D01*
X104635935Y-67020405D01*
X104727267Y-67111737D01*
X104724441Y-67114562D01*
X104755170Y-67153014D01*
X104762356Y-67222513D01*
X104730827Y-67284864D01*
X104727098Y-67288094D01*
X104727267Y-67288263D01*
X104635935Y-67379594D01*
X104585931Y-67486827D01*
X104579500Y-67535682D01*
X104579500Y-67884315D01*
X104585931Y-67933170D01*
X104585932Y-67933172D01*
X104635935Y-68040403D01*
X104687682Y-68092150D01*
X104719595Y-68124063D01*
X104719619Y-68124080D01*
X104719646Y-68124114D01*
X104727268Y-68131736D01*
X104726418Y-68132585D01*
X104763246Y-68178654D01*
X104772500Y-68225658D01*
X104772500Y-68480457D01*
X104752815Y-68547496D01*
X104736181Y-68568138D01*
X104660803Y-68643515D01*
X104609426Y-68748609D01*
X104599500Y-68816740D01*
X104599500Y-69990561D01*
X104579815Y-70057600D01*
X104527011Y-70103355D01*
X104509219Y-70109888D01*
X104475163Y-70119511D01*
X104475155Y-70119514D01*
X104413830Y-70152999D01*
X104367014Y-70188045D01*
X104366995Y-70188062D01*
X104350049Y-70205008D01*
X104316844Y-70228719D01*
X104311501Y-70231331D01*
X104309327Y-70232394D01*
X104254855Y-70245000D01*
X103945144Y-70245000D01*
X103890681Y-70232399D01*
X103883160Y-70228722D01*
X103849942Y-70205004D01*
X103832994Y-70188056D01*
X103832984Y-70188047D01*
X103798787Y-70160488D01*
X103754423Y-70131976D01*
X103745479Y-70126546D01*
X103745478Y-70126545D01*
X103688351Y-70109136D01*
X103629962Y-70070763D01*
X103601588Y-70006914D01*
X103600500Y-69990522D01*
X103600500Y-69792332D01*
X103617114Y-69730331D01*
X103636280Y-69697135D01*
X103636281Y-69697134D01*
X103675500Y-69550766D01*
X103675500Y-69399233D01*
X103636281Y-69252865D01*
X103636279Y-69252861D01*
X103617113Y-69219664D01*
X103600500Y-69157664D01*
X103600500Y-68816739D01*
X103590573Y-68748608D01*
X103590573Y-68748607D01*
X103539198Y-68643517D01*
X103539196Y-68643515D01*
X103539196Y-68643514D01*
X103456482Y-68560800D01*
X103345040Y-68506320D01*
X103293457Y-68459192D01*
X103275500Y-68394920D01*
X103275500Y-67699051D01*
X103289015Y-67642756D01*
X103310646Y-67600304D01*
X103310646Y-67600302D01*
X103310647Y-67600301D01*
X103325499Y-67506524D01*
X103325500Y-67506519D01*
X103325499Y-67043482D01*
X103310646Y-66949696D01*
X103253050Y-66836658D01*
X103253046Y-66836654D01*
X103253045Y-66836652D01*
X103163347Y-66746954D01*
X103163344Y-66746952D01*
X103163342Y-66746950D01*
X103082402Y-66705709D01*
X103050301Y-66689352D01*
X102956524Y-66674500D01*
X102343482Y-66674500D01*
X102274847Y-66685370D01*
X102249696Y-66689354D01*
X102249694Y-66689354D01*
X102249692Y-66689355D01*
X102240413Y-66692370D01*
X102239638Y-66689986D01*
X102200014Y-66699500D01*
X101762629Y-66699500D01*
X101695590Y-66679815D01*
X101662858Y-66649133D01*
X101647151Y-66627850D01*
X101647150Y-66627849D01*
X101537882Y-66547206D01*
X101537880Y-66547205D01*
X101409700Y-66502352D01*
X101379270Y-66499499D01*
X101379266Y-66499499D01*
X100320734Y-66499499D01*
X100320730Y-66499499D01*
X100290300Y-66502352D01*
X100290298Y-66502352D01*
X100162119Y-66547205D01*
X100162117Y-66547206D01*
X100052850Y-66627849D01*
X99972207Y-66737116D01*
X99972206Y-66737118D01*
X99927353Y-66865297D01*
X99927353Y-66865299D01*
X99924500Y-66895729D01*
X99924500Y-67504268D01*
X99927353Y-67534698D01*
X99927353Y-67534700D01*
X99972206Y-67662879D01*
X99972207Y-67662881D01*
X100052850Y-67772149D01*
X100162118Y-67852792D01*
X100204845Y-67867743D01*
X100290299Y-67897645D01*
X100320730Y-67900499D01*
X100591664Y-67900499D01*
X100658703Y-67920184D01*
X100704458Y-67972988D01*
X100714402Y-68042146D01*
X100685377Y-68105702D01*
X100672866Y-68118212D01*
X100635114Y-68150923D01*
X100635110Y-68150927D01*
X100617160Y-68168514D01*
X100617154Y-68168521D01*
X100572511Y-68248331D01*
X100572509Y-68248336D01*
X100552826Y-68315368D01*
X100544500Y-68373275D01*
X100544500Y-69800500D01*
X100524815Y-69867539D01*
X100472011Y-69913294D01*
X100420500Y-69924500D01*
X98619500Y-69924500D01*
X98552461Y-69904815D01*
X98506706Y-69852011D01*
X98495500Y-69800500D01*
X98495500Y-66618266D01*
X98515185Y-66551227D01*
X98516398Y-66549374D01*
X98517847Y-66547206D01*
X98533867Y-66523231D01*
X98535369Y-66515684D01*
X98545499Y-66464752D01*
X98545500Y-66464750D01*
X98545500Y-65575249D01*
X98545499Y-65575247D01*
X98533868Y-65516770D01*
X98533867Y-65516769D01*
X98489552Y-65450447D01*
X98423230Y-65406132D01*
X98423229Y-65406131D01*
X98364752Y-65394500D01*
X98364748Y-65394500D01*
X97475252Y-65394500D01*
X97475247Y-65394500D01*
X97416770Y-65406131D01*
X97416769Y-65406132D01*
X97340293Y-65457233D01*
X97338328Y-65454292D01*
X97295215Y-65477822D01*
X97225524Y-65472824D01*
X97211259Y-65466449D01*
X97143434Y-65430852D01*
X97143431Y-65430851D01*
X96995950Y-65394500D01*
X96995949Y-65394500D01*
X96844051Y-65394500D01*
X96844050Y-65394500D01*
X96696567Y-65430851D01*
X96562064Y-65501443D01*
X96502225Y-65554456D01*
X96438992Y-65584177D01*
X96369728Y-65574993D01*
X96337774Y-65554457D01*
X96277933Y-65501443D01*
X96143433Y-65430852D01*
X96143432Y-65430851D01*
X96143431Y-65430851D01*
X95995949Y-65394500D01*
X95995948Y-65394500D01*
X95844050Y-65394500D01*
X95844049Y-65394500D01*
X95696566Y-65430851D01*
X95562066Y-65501442D01*
X95448366Y-65602171D01*
X95362079Y-65727179D01*
X95362078Y-65727180D01*
X95316569Y-65847179D01*
X95308214Y-65869209D01*
X95289905Y-66020000D01*
X95308214Y-66170791D01*
X95362078Y-66312819D01*
X95448367Y-66437830D01*
X95562065Y-66538557D01*
X95696565Y-66609148D01*
X95733558Y-66618266D01*
X95844049Y-66645500D01*
X95844050Y-66645500D01*
X95995949Y-66645500D01*
X96067556Y-66627850D01*
X96143433Y-66609148D01*
X96277933Y-66538557D01*
X96337774Y-66485542D01*
X96401004Y-66455823D01*
X96470268Y-66465005D01*
X96502226Y-66485544D01*
X96562064Y-66538556D01*
X96562066Y-66538557D01*
X96696566Y-66609148D01*
X96733559Y-66618266D01*
X96844050Y-66645500D01*
X96844051Y-66645500D01*
X96995950Y-66645500D01*
X97106441Y-66618266D01*
X97143434Y-66609148D01*
X97162874Y-66598944D01*
X97231382Y-66585219D01*
X97296436Y-66610711D01*
X97337380Y-66667327D01*
X97344500Y-66708741D01*
X97344500Y-70511755D01*
X97324815Y-70578794D01*
X97272011Y-70624549D01*
X97202853Y-70634493D01*
X97162876Y-70621552D01*
X97123434Y-70600852D01*
X97123433Y-70600851D01*
X96975950Y-70564500D01*
X96975949Y-70564500D01*
X96824051Y-70564500D01*
X96824050Y-70564500D01*
X96676567Y-70600851D01*
X96542064Y-70671443D01*
X96482225Y-70724456D01*
X96418992Y-70754177D01*
X96349728Y-70744993D01*
X96317774Y-70724457D01*
X96257933Y-70671443D01*
X96123433Y-70600852D01*
X96123432Y-70600851D01*
X96123431Y-70600851D01*
X95975949Y-70564500D01*
X95975948Y-70564500D01*
X95824050Y-70564500D01*
X95824049Y-70564500D01*
X95676566Y-70600851D01*
X95542066Y-70671442D01*
X95428366Y-70772171D01*
X95342079Y-70897179D01*
X95342078Y-70897180D01*
X95288214Y-71039208D01*
X95283463Y-71078334D01*
X95269905Y-71190000D01*
X90500500Y-71190000D01*
X90500500Y-60529500D01*
X90520185Y-60462461D01*
X90572989Y-60416706D01*
X90624500Y-60405500D01*
X91675991Y-60405500D01*
X91676000Y-60405500D01*
X91719684Y-60400803D01*
X91748875Y-60394452D01*
X91771174Y-60389602D01*
X91771190Y-60389598D01*
X91771195Y-60389597D01*
X91781373Y-60387110D01*
X91862085Y-60344100D01*
X91914889Y-60298345D01*
X91932843Y-60280754D01*
X91977490Y-60200937D01*
X91997175Y-60133898D01*
X92005500Y-60076000D01*
X92005500Y-54529500D01*
X92025185Y-54462461D01*
X92077989Y-54416706D01*
X92129500Y-54405500D01*
X94475991Y-54405500D01*
X94476000Y-54405500D01*
X94519684Y-54400803D01*
X94548875Y-54394452D01*
X94571174Y-54389602D01*
X94571190Y-54389598D01*
X94571195Y-54389597D01*
X94581373Y-54387110D01*
X94662085Y-54344100D01*
X94714889Y-54298345D01*
X94732843Y-54280754D01*
X94777490Y-54200937D01*
X94797175Y-54133898D01*
X94805500Y-54076000D01*
X94805500Y-52329500D01*
X94825185Y-52262461D01*
X94877989Y-52216706D01*
X94929500Y-52205500D01*
X98675991Y-52205500D01*
X98676000Y-52205500D01*
X98719684Y-52200803D01*
X98748875Y-52194452D01*
X98771174Y-52189602D01*
X98771190Y-52189598D01*
X98771195Y-52189597D01*
X98781373Y-52187110D01*
X98862085Y-52144100D01*
X98914889Y-52098345D01*
X98932843Y-52080754D01*
X98940219Y-52067566D01*
X98990122Y-52018669D01*
X99058543Y-52004512D01*
X99123755Y-52029594D01*
X99165056Y-52085950D01*
X99171177Y-52110453D01*
X99179068Y-52165337D01*
X99179070Y-52165345D01*
X99235867Y-52289714D01*
X99235872Y-52289721D01*
X99325409Y-52393053D01*
X99325413Y-52393057D01*
X99353871Y-52411345D01*
X99440439Y-52466978D01*
X99506036Y-52486239D01*
X99571632Y-52505500D01*
X99571633Y-52505500D01*
X99708365Y-52505500D01*
X99708367Y-52505500D01*
X99717068Y-52502944D01*
X99786934Y-52502941D01*
X99845715Y-52540711D01*
X99873625Y-52597729D01*
X99874501Y-52602133D01*
X99890485Y-52682496D01*
X99890485Y-52682497D01*
X99890486Y-52682498D01*
X99895160Y-52693783D01*
X99893713Y-52694381D01*
X99910435Y-52747792D01*
X99894480Y-52805938D01*
X99895159Y-52806219D01*
X99892920Y-52811622D01*
X99891947Y-52815172D01*
X99890551Y-52817343D01*
X99890484Y-52817505D01*
X99874500Y-52897863D01*
X99874500Y-53102129D01*
X99890485Y-53182496D01*
X99895160Y-53193782D01*
X99893713Y-53194380D01*
X99910435Y-53247791D01*
X99894480Y-53305937D01*
X99895159Y-53306218D01*
X99892920Y-53311621D01*
X99891947Y-53315171D01*
X99890551Y-53317342D01*
X99890484Y-53317504D01*
X99874500Y-53397862D01*
X99874500Y-53602128D01*
X99890485Y-53682494D01*
X99951375Y-53773623D01*
X99979859Y-53792655D01*
X100042505Y-53834514D01*
X100042508Y-53834514D01*
X100042509Y-53834515D01*
X100082686Y-53842506D01*
X100122867Y-53850499D01*
X101431573Y-53850498D01*
X101498612Y-53870183D01*
X101519254Y-53886817D01*
X101596502Y-53964065D01*
X101671182Y-54007181D01*
X101754476Y-54029500D01*
X101840708Y-54029500D01*
X102714983Y-54029500D01*
X102782022Y-54049185D01*
X102802664Y-54065819D01*
X102936181Y-54199336D01*
X102969666Y-54260659D01*
X102972500Y-54287017D01*
X102972500Y-55256884D01*
X102972500Y-55343116D01*
X102994819Y-55426410D01*
X103037935Y-55501090D01*
X103037937Y-55501092D01*
X103042881Y-55507535D01*
X103041746Y-55508405D01*
X103071017Y-55562010D01*
X103072589Y-55570721D01*
X103088608Y-55682140D01*
X103089069Y-55685342D01*
X103091864Y-55691462D01*
X103101808Y-55760620D01*
X103072783Y-55824176D01*
X103014005Y-55861950D01*
X102979070Y-55866973D01*
X102022169Y-55866973D01*
X102022143Y-55866975D01*
X101997038Y-55869886D01*
X101997034Y-55869888D01*
X101894261Y-55915266D01*
X101814820Y-55994707D01*
X101769441Y-56097479D01*
X101769441Y-56097481D01*
X101766526Y-56122604D01*
X101766526Y-56412329D01*
X101766528Y-56412355D01*
X101769439Y-56437460D01*
X101769440Y-56437464D01*
X101812457Y-56534886D01*
X101821529Y-56604164D01*
X101812457Y-56635058D01*
X101769442Y-56732476D01*
X101769441Y-56732481D01*
X101766526Y-56757604D01*
X101766526Y-57047329D01*
X101766528Y-57047355D01*
X101769439Y-57072460D01*
X101769441Y-57072464D01*
X101812457Y-57169887D01*
X101821529Y-57239165D01*
X101812459Y-57270054D01*
X101792366Y-57315561D01*
X101747282Y-57368935D01*
X101680496Y-57389463D01*
X101678933Y-57389473D01*
X101558545Y-57389473D01*
X101491506Y-57369788D01*
X101470864Y-57353154D01*
X100667225Y-56549515D01*
X100667223Y-56549513D01*
X100644353Y-56536309D01*
X100598703Y-56509953D01*
X100598702Y-56509952D01*
X100560530Y-56499724D01*
X100522274Y-56489473D01*
X100522272Y-56489473D01*
X100331525Y-56489473D01*
X100264486Y-56469788D01*
X100218731Y-56416984D01*
X100207525Y-56365473D01*
X100207525Y-56265656D01*
X100201093Y-56216801D01*
X100176781Y-56164664D01*
X100151090Y-56109569D01*
X100067429Y-56025908D01*
X99960198Y-55975905D01*
X99960196Y-55975904D01*
X99960197Y-55975904D01*
X99911342Y-55969473D01*
X99911341Y-55969473D01*
X99562709Y-55969473D01*
X99562708Y-55969473D01*
X99513853Y-55975904D01*
X99406620Y-56025908D01*
X99315289Y-56117240D01*
X99312463Y-56114414D01*
X99274012Y-56145143D01*
X99204513Y-56152329D01*
X99142162Y-56120800D01*
X99138931Y-56117071D01*
X99138763Y-56117240D01*
X99047431Y-56025908D01*
X98999021Y-56003334D01*
X98940200Y-55975905D01*
X98940198Y-55975904D01*
X98940199Y-55975904D01*
X98891344Y-55969473D01*
X98891343Y-55969473D01*
X98542711Y-55969473D01*
X98542710Y-55969473D01*
X98493855Y-55975904D01*
X98386622Y-56025908D01*
X98302962Y-56109568D01*
X98252958Y-56216801D01*
X98246527Y-56265656D01*
X98246527Y-56290473D01*
X98226842Y-56357512D01*
X98174038Y-56403267D01*
X98122527Y-56414473D01*
X96061516Y-56414473D01*
X95994477Y-56394788D01*
X95973835Y-56378154D01*
X95640609Y-56044928D01*
X95307005Y-55711323D01*
X95273520Y-55650000D01*
X95271948Y-55641288D01*
X95271760Y-55639983D01*
X95260931Y-55564658D01*
X95260929Y-55564654D01*
X95231899Y-55501088D01*
X95204130Y-55440282D01*
X95119934Y-55343114D01*
X95114590Y-55336946D01*
X95114586Y-55336942D01*
X94999559Y-55263021D01*
X94868368Y-55224500D01*
X94868367Y-55224500D01*
X94731633Y-55224500D01*
X94731632Y-55224500D01*
X94600440Y-55263021D01*
X94485413Y-55336942D01*
X94485409Y-55336946D01*
X94395872Y-55440278D01*
X94395867Y-55440285D01*
X94339070Y-55564654D01*
X94339068Y-55564662D01*
X94319610Y-55699999D01*
X94319956Y-55702405D01*
X94319610Y-55704811D01*
X94319610Y-55708868D01*
X94319027Y-55708868D01*
X94310012Y-55771564D01*
X94264257Y-55824368D01*
X94232154Y-55839029D01*
X94150438Y-55863023D01*
X94035411Y-55936944D01*
X94035407Y-55936948D01*
X93945870Y-56040280D01*
X93945865Y-56040287D01*
X93889068Y-56164656D01*
X93889066Y-56164664D01*
X93869608Y-56300002D01*
X93889066Y-56435339D01*
X93889068Y-56435347D01*
X93945865Y-56559716D01*
X93945870Y-56559723D01*
X94035407Y-56663055D01*
X94035411Y-56663059D01*
X94077489Y-56690100D01*
X94150437Y-56736980D01*
X94199888Y-56751500D01*
X94281630Y-56775502D01*
X94281631Y-56775502D01*
X94418366Y-56775502D01*
X94418366Y-56775501D01*
X94472580Y-56759582D01*
X94542448Y-56759581D01*
X94595196Y-56790878D01*
X95349761Y-57545443D01*
X95429685Y-57591587D01*
X95518829Y-57615473D01*
X98124772Y-57615473D01*
X98191811Y-57635158D01*
X98237566Y-57687962D01*
X98247711Y-57723290D01*
X98252957Y-57763143D01*
X98252957Y-57763144D01*
X98252958Y-57763146D01*
X98302961Y-57870377D01*
X98386622Y-57954038D01*
X98429480Y-57974023D01*
X98437131Y-57977591D01*
X98489570Y-58023764D01*
X98508722Y-58090958D01*
X98488506Y-58157839D01*
X98437131Y-58202355D01*
X98386621Y-58225908D01*
X98302961Y-58309568D01*
X98252957Y-58416801D01*
X98246526Y-58465656D01*
X98246526Y-58684140D01*
X98226841Y-58751179D01*
X98210207Y-58771821D01*
X98048875Y-58933153D01*
X97987552Y-58966638D01*
X97961194Y-58969472D01*
X95690466Y-58969472D01*
X95652252Y-58979711D01*
X95614037Y-58989951D01*
X95614036Y-58989952D01*
X95562905Y-59019473D01*
X95545520Y-59029510D01*
X95545514Y-59029514D01*
X95011848Y-59563181D01*
X94950525Y-59596666D01*
X94924167Y-59599500D01*
X94687765Y-59599500D01*
X94620726Y-59579815D01*
X94574971Y-59527011D01*
X94565027Y-59493146D01*
X94562346Y-59474500D01*
X94560931Y-59464658D01*
X94526296Y-59388818D01*
X94504132Y-59340285D01*
X94504127Y-59340278D01*
X94414590Y-59236946D01*
X94414586Y-59236942D01*
X94299559Y-59163021D01*
X94168368Y-59124500D01*
X94168367Y-59124500D01*
X94031633Y-59124500D01*
X94031632Y-59124500D01*
X93900440Y-59163021D01*
X93785413Y-59236942D01*
X93785409Y-59236946D01*
X93695872Y-59340278D01*
X93695867Y-59340285D01*
X93639070Y-59464654D01*
X93639068Y-59464662D01*
X93619610Y-59600000D01*
X93639068Y-59735337D01*
X93639070Y-59735345D01*
X93695867Y-59859714D01*
X93695872Y-59859721D01*
X93785409Y-59963053D01*
X93785413Y-59963057D01*
X93826036Y-59989163D01*
X93871792Y-60041966D01*
X93881736Y-60111125D01*
X93852712Y-60174680D01*
X93795872Y-60240277D01*
X93795867Y-60240285D01*
X93739070Y-60364654D01*
X93739068Y-60364662D01*
X93719610Y-60500000D01*
X93739068Y-60635337D01*
X93739070Y-60635345D01*
X93795867Y-60759714D01*
X93795872Y-60759721D01*
X93885409Y-60863053D01*
X93885413Y-60863057D01*
X93935897Y-60895500D01*
X94000439Y-60936978D01*
X94048160Y-60950990D01*
X94131632Y-60975500D01*
X94131633Y-60975500D01*
X94268367Y-60975500D01*
X94399561Y-60936978D01*
X94514589Y-60863055D01*
X94604130Y-60759718D01*
X94643739Y-60672988D01*
X94689494Y-60620184D01*
X94756533Y-60600500D01*
X95339560Y-60600500D01*
X95339562Y-60600500D01*
X95415989Y-60580021D01*
X95484511Y-60540460D01*
X95540460Y-60484511D01*
X95968179Y-60056792D01*
X96029502Y-60023307D01*
X96055860Y-60020473D01*
X98186705Y-60020473D01*
X98253744Y-60040158D01*
X98299086Y-60092068D01*
X98302961Y-60100377D01*
X98386622Y-60184038D01*
X98493853Y-60234041D01*
X98493856Y-60234041D01*
X98500326Y-60235928D01*
X98559178Y-60273587D01*
X98588327Y-60337086D01*
X98578519Y-60406264D01*
X98532868Y-60459157D01*
X98500328Y-60474018D01*
X98493854Y-60475905D01*
X98386622Y-60525908D01*
X98302962Y-60609568D01*
X98252958Y-60716801D01*
X98246527Y-60765656D01*
X98246527Y-60895500D01*
X98226842Y-60962539D01*
X98174038Y-61008294D01*
X98122527Y-61019500D01*
X97728206Y-61019500D01*
X97661167Y-60999815D01*
X97615412Y-60947011D01*
X97605468Y-60913147D01*
X97598266Y-60863057D01*
X97593774Y-60831815D01*
X97575390Y-60791559D01*
X97536975Y-60707442D01*
X97536970Y-60707435D01*
X97447433Y-60604103D01*
X97447429Y-60604099D01*
X97332402Y-60530178D01*
X97201211Y-60491657D01*
X97201210Y-60491657D01*
X97064476Y-60491657D01*
X97064475Y-60491657D01*
X96933283Y-60530178D01*
X96818256Y-60604099D01*
X96818252Y-60604103D01*
X96728715Y-60707435D01*
X96728710Y-60707442D01*
X96671913Y-60831811D01*
X96671911Y-60831819D01*
X96654777Y-60950990D01*
X96625752Y-61014546D01*
X96566974Y-61052320D01*
X96532039Y-61057343D01*
X96498789Y-61057343D01*
X96367597Y-61095864D01*
X96252570Y-61169785D01*
X96252566Y-61169789D01*
X96163029Y-61273121D01*
X96163024Y-61273128D01*
X96106227Y-61397497D01*
X96106225Y-61397505D01*
X96086767Y-61532843D01*
X96106225Y-61668180D01*
X96106227Y-61668188D01*
X96163024Y-61792557D01*
X96163029Y-61792564D01*
X96252566Y-61895896D01*
X96252570Y-61895900D01*
X96313136Y-61934822D01*
X96367596Y-61969821D01*
X96433193Y-61989082D01*
X96498789Y-62008343D01*
X96498790Y-62008343D01*
X96635524Y-62008343D01*
X96766718Y-61969821D01*
X96827626Y-61930677D01*
X96894662Y-61910995D01*
X96961702Y-61930680D01*
X96982343Y-61947314D01*
X96995489Y-61960460D01*
X96995491Y-61960461D01*
X96995495Y-61960464D01*
X97029316Y-61979990D01*
X97064011Y-62000021D01*
X97140438Y-62020500D01*
X98122526Y-62020500D01*
X98189565Y-62040185D01*
X98235320Y-62092989D01*
X98246526Y-62144500D01*
X98246526Y-62224289D01*
X98252957Y-62273144D01*
X98297710Y-62369116D01*
X98302961Y-62380377D01*
X98386622Y-62464038D01*
X98493853Y-62514041D01*
X98542709Y-62520473D01*
X98542710Y-62520473D01*
X98891343Y-62520473D01*
X98907627Y-62518329D01*
X98940199Y-62514041D01*
X99047430Y-62464038D01*
X99131091Y-62380377D01*
X99131091Y-62380376D01*
X99138762Y-62372706D01*
X99141590Y-62375534D01*
X99180003Y-62344816D01*
X99249500Y-62337608D01*
X99311861Y-62369116D01*
X99315119Y-62372876D01*
X99315290Y-62372706D01*
X99322961Y-62380377D01*
X99406622Y-62464038D01*
X99513853Y-62514041D01*
X99562709Y-62520473D01*
X99562710Y-62520473D01*
X99911343Y-62520473D01*
X99927627Y-62518329D01*
X99960199Y-62514041D01*
X100067430Y-62464038D01*
X100151091Y-62380377D01*
X100201094Y-62273146D01*
X100207526Y-62224289D01*
X100207526Y-62124473D01*
X100227211Y-62057434D01*
X100280015Y-62011679D01*
X100331526Y-62000473D01*
X100492272Y-62000473D01*
X100492274Y-62000473D01*
X100568701Y-61979994D01*
X100637223Y-61940433D01*
X100693172Y-61884484D01*
X101618817Y-60958838D01*
X101680138Y-60925355D01*
X101749829Y-60930339D01*
X101805763Y-60972211D01*
X101808794Y-60976441D01*
X101814819Y-60985236D01*
X101814820Y-60985238D01*
X101894261Y-61064679D01*
X101997035Y-61110058D01*
X102022161Y-61112973D01*
X103536890Y-61112972D01*
X103536905Y-61112970D01*
X103536908Y-61112970D01*
X103562013Y-61110059D01*
X103562014Y-61110058D01*
X103562017Y-61110058D01*
X103664791Y-61064679D01*
X103744232Y-60985238D01*
X103789611Y-60882464D01*
X103792526Y-60857338D01*
X103792525Y-60567609D01*
X103792523Y-60567590D01*
X103789612Y-60542485D01*
X103789611Y-60542484D01*
X103789611Y-60542482D01*
X103746593Y-60445056D01*
X103737522Y-60375782D01*
X103746591Y-60344893D01*
X103789611Y-60247464D01*
X103792526Y-60222338D01*
X103792525Y-59932609D01*
X103792523Y-59932590D01*
X103789612Y-59907485D01*
X103789611Y-59907484D01*
X103789611Y-59907482D01*
X103746593Y-59810056D01*
X103737522Y-59740782D01*
X103746591Y-59709893D01*
X103789611Y-59612464D01*
X103792526Y-59587338D01*
X103792525Y-59297609D01*
X103790227Y-59277790D01*
X103789612Y-59272485D01*
X103789611Y-59272484D01*
X103789611Y-59272482D01*
X103746593Y-59175056D01*
X103737522Y-59105782D01*
X103746591Y-59074893D01*
X103789611Y-58977464D01*
X103792526Y-58952338D01*
X103792525Y-58662609D01*
X103792523Y-58662590D01*
X103789612Y-58637485D01*
X103789611Y-58637484D01*
X103789611Y-58637482D01*
X103746593Y-58540056D01*
X103737522Y-58470782D01*
X103746591Y-58439893D01*
X103789611Y-58342464D01*
X103792526Y-58317338D01*
X103792525Y-58027609D01*
X103789792Y-58004041D01*
X103789612Y-58002485D01*
X103789611Y-58002484D01*
X103789611Y-58002482D01*
X103746593Y-57905056D01*
X103737522Y-57835782D01*
X103746591Y-57804893D01*
X103789611Y-57707464D01*
X103792526Y-57682338D01*
X103792525Y-57392609D01*
X103792523Y-57392590D01*
X103789612Y-57367485D01*
X103789611Y-57367484D01*
X103789611Y-57367482D01*
X103746593Y-57270056D01*
X103737522Y-57200782D01*
X103746591Y-57169893D01*
X103789611Y-57072464D01*
X103792526Y-57047338D01*
X103792525Y-56757609D01*
X103792525Y-56757608D01*
X103792523Y-56757590D01*
X103789612Y-56732485D01*
X103789611Y-56732484D01*
X103789611Y-56732482D01*
X103746593Y-56635056D01*
X103737522Y-56565782D01*
X103746591Y-56534893D01*
X103789611Y-56437464D01*
X103792526Y-56412338D01*
X103792525Y-56122609D01*
X103792315Y-56120800D01*
X103789612Y-56097485D01*
X103789611Y-56097484D01*
X103789611Y-56097482D01*
X103785601Y-56088402D01*
X103776530Y-56019124D01*
X103806353Y-55955939D01*
X103831997Y-55934000D01*
X103864589Y-55913055D01*
X103954130Y-55809718D01*
X104004237Y-55700000D01*
X104012475Y-55681962D01*
X104058230Y-55629158D01*
X104125269Y-55609474D01*
X104242407Y-55609474D01*
X104373601Y-55570952D01*
X104488629Y-55497029D01*
X104578170Y-55393692D01*
X104634971Y-55269316D01*
X104654430Y-55133974D01*
X104634971Y-54998632D01*
X104622717Y-54971801D01*
X104578172Y-54874259D01*
X104578167Y-54874252D01*
X104488630Y-54770920D01*
X104488626Y-54770916D01*
X104373599Y-54696994D01*
X104316565Y-54680248D01*
X104257787Y-54642473D01*
X104228762Y-54578918D01*
X104227500Y-54561271D01*
X104227500Y-54451500D01*
X104247185Y-54384461D01*
X104299989Y-54338706D01*
X104351500Y-54327500D01*
X104400904Y-54327500D01*
X104430286Y-54333344D01*
X104430527Y-54332133D01*
X104490682Y-54344098D01*
X104522867Y-54350500D01*
X105877132Y-54350499D01*
X105957495Y-54334515D01*
X106048624Y-54273624D01*
X106054579Y-54264712D01*
X106093068Y-54207110D01*
X106146680Y-54162304D01*
X106216005Y-54153597D01*
X106279032Y-54183751D01*
X106283851Y-54188319D01*
X106359597Y-54264065D01*
X106466828Y-54314068D01*
X106515684Y-54320500D01*
X106515685Y-54320500D01*
X106864318Y-54320500D01*
X106880602Y-54318356D01*
X106913174Y-54314068D01*
X107020405Y-54264065D01*
X107104066Y-54180404D01*
X107154069Y-54073173D01*
X107160501Y-54024316D01*
X107160501Y-53575684D01*
X107154069Y-53526827D01*
X107104066Y-53419596D01*
X107020405Y-53335935D01*
X106913174Y-53285932D01*
X106913172Y-53285931D01*
X106913173Y-53285931D01*
X106898313Y-53283975D01*
X106834416Y-53255707D01*
X106795946Y-53197382D01*
X106790500Y-53161036D01*
X106790500Y-52924293D01*
X106783418Y-52897863D01*
X106768181Y-52840998D01*
X106725065Y-52766318D01*
X106664090Y-52705343D01*
X106520928Y-52562181D01*
X106487443Y-52500858D01*
X106492427Y-52431166D01*
X106534299Y-52375233D01*
X106599763Y-52350816D01*
X106608609Y-52350500D01*
X107946142Y-52350500D01*
X107946144Y-52350500D01*
X108035288Y-52326614D01*
X108086386Y-52297112D01*
X108148387Y-52280499D01*
X108309895Y-52280499D01*
X108309900Y-52280499D01*
X108359487Y-52273972D01*
X108468316Y-52223224D01*
X108553224Y-52138316D01*
X108603972Y-52029487D01*
X108610500Y-51979901D01*
X108610499Y-51620100D01*
X108603972Y-51570513D01*
X108596505Y-51554500D01*
X108566118Y-51489333D01*
X108554500Y-51436929D01*
X108554500Y-50439838D01*
X108554501Y-50439825D01*
X108554501Y-50310165D01*
X108551911Y-50300500D01*
X108530072Y-50218997D01*
X108523527Y-50194569D01*
X108463691Y-50090930D01*
X108379070Y-50006309D01*
X108379069Y-50006308D01*
X108374739Y-50001978D01*
X108374728Y-50001968D01*
X108100761Y-49728001D01*
X108100759Y-49727998D01*
X108009072Y-49636311D01*
X108009066Y-49636306D01*
X107905434Y-49576474D01*
X107905429Y-49576472D01*
X107881003Y-49569926D01*
X107881003Y-49569927D01*
X107835419Y-49557713D01*
X107789836Y-49545499D01*
X107670164Y-49545499D01*
X107662568Y-49545499D01*
X107662552Y-49545500D01*
X101724233Y-49545500D01*
X101657194Y-49525815D01*
X101611439Y-49473011D01*
X101601495Y-49403853D01*
X101601495Y-49403852D01*
X101605500Y-49375997D01*
X101605500Y-47624008D01*
X101605499Y-47623992D01*
X101600803Y-47580316D01*
X101595409Y-47555520D01*
X101589602Y-47528825D01*
X101589348Y-47527789D01*
X101587110Y-47518627D01*
X101544100Y-47437915D01*
X101498345Y-47385111D01*
X101498339Y-47385104D01*
X101480757Y-47367160D01*
X101480756Y-47367159D01*
X101480754Y-47367157D01*
X101480752Y-47367156D01*
X101480750Y-47367154D01*
X101400940Y-47322511D01*
X101400935Y-47322509D01*
X101333903Y-47302826D01*
X101333899Y-47302825D01*
X101333898Y-47302825D01*
X101276000Y-47294500D01*
X101275996Y-47294500D01*
X99629500Y-47294500D01*
X99562461Y-47274815D01*
X99516706Y-47222011D01*
X99505500Y-47170500D01*
X99505500Y-47153110D01*
X99504321Y-47131130D01*
X99501488Y-47104783D01*
X99501487Y-47104781D01*
X99490753Y-47070500D01*
X99477529Y-47028267D01*
X99444044Y-46966944D01*
X99408991Y-46920120D01*
X99383687Y-46894816D01*
X99360884Y-46863431D01*
X99347074Y-46836328D01*
X99335084Y-46799423D01*
X99331526Y-46776951D01*
X99330000Y-46757560D01*
X99330000Y-46242438D01*
X99331526Y-46223043D01*
X99335085Y-46200569D01*
X99347072Y-46163674D01*
X99360883Y-46136568D01*
X99383683Y-46105187D01*
X99408990Y-46079882D01*
X99423693Y-46063513D01*
X99440327Y-46042871D01*
X99477490Y-45971826D01*
X99497175Y-45904787D01*
X99505500Y-45846889D01*
X99505500Y-45216932D01*
X99502596Y-45182507D01*
X99495637Y-45141552D01*
X99487009Y-45108104D01*
X99461959Y-45036515D01*
X99455000Y-44995560D01*
X99455000Y-44004438D01*
X99461958Y-43963485D01*
X99487009Y-43891896D01*
X99495637Y-43858448D01*
X99502596Y-43817493D01*
X99505500Y-43783068D01*
X99505500Y-43524000D01*
X99500803Y-43480316D01*
X99495947Y-43457996D01*
X99489602Y-43428825D01*
X99489348Y-43427789D01*
X99487110Y-43418627D01*
X99444100Y-43337915D01*
X99398345Y-43285111D01*
X99398339Y-43285104D01*
X99380757Y-43267160D01*
X99380756Y-43267159D01*
X99380754Y-43267157D01*
X99380752Y-43267156D01*
X99380750Y-43267154D01*
X99300940Y-43222511D01*
X99300935Y-43222509D01*
X99233903Y-43202826D01*
X99233899Y-43202825D01*
X99233898Y-43202825D01*
X99176000Y-43194500D01*
X97088769Y-43194500D01*
X97088560Y-43194501D01*
X97085572Y-43194525D01*
X97081593Y-43194588D01*
X97081588Y-43194588D01*
X97020702Y-43204824D01*
X97017359Y-43205649D01*
X97016119Y-43205594D01*
X97016100Y-43205598D01*
X97016099Y-43205593D01*
X96947556Y-43202593D01*
X96890487Y-43162284D01*
X96868871Y-43120821D01*
X96862387Y-43099164D01*
X96824326Y-42972029D01*
X96685889Y-42651096D01*
X96511130Y-42348404D01*
X96511129Y-42348402D01*
X96302415Y-42068050D01*
X96302410Y-42068044D01*
X96162440Y-41919686D01*
X96062558Y-41813817D01*
X95860172Y-41643995D01*
X95794813Y-41589152D01*
X95794805Y-41589146D01*
X95502796Y-41397088D01*
X95190458Y-41240226D01*
X95190452Y-41240223D01*
X94862012Y-41120681D01*
X94862009Y-41120680D01*
X94521915Y-41040077D01*
X94478519Y-41035004D01*
X94174759Y-40999500D01*
X93825241Y-40999500D01*
X93521480Y-41035004D01*
X93478085Y-41040077D01*
X93478083Y-41040077D01*
X93137990Y-41120680D01*
X93137987Y-41120681D01*
X92809547Y-41240223D01*
X92809541Y-41240226D01*
X92497203Y-41397088D01*
X92205194Y-41589146D01*
X92205186Y-41589152D01*
X91937442Y-41813817D01*
X91937440Y-41813819D01*
X91697589Y-42068044D01*
X91697584Y-42068050D01*
X91488870Y-42348402D01*
X91314113Y-42651091D01*
X91314107Y-42651104D01*
X91175674Y-42972027D01*
X91075430Y-43306865D01*
X91075428Y-43306872D01*
X91014739Y-43651061D01*
X91014738Y-43651072D01*
X90994415Y-43999996D01*
X90994415Y-44000003D01*
X91014738Y-44348927D01*
X91014739Y-44348938D01*
X91075428Y-44693127D01*
X91075430Y-44693134D01*
X91175674Y-45027972D01*
X91314107Y-45348895D01*
X91314113Y-45348908D01*
X91488870Y-45651597D01*
X91697584Y-45931949D01*
X91697589Y-45931955D01*
X91796674Y-46036978D01*
X91937442Y-46186183D01*
X92080223Y-46305990D01*
X92205186Y-46410847D01*
X92205194Y-46410853D01*
X92497203Y-46602911D01*
X92497207Y-46602913D01*
X92809549Y-46759777D01*
X93137989Y-46879319D01*
X93310109Y-46920112D01*
X93435550Y-46949842D01*
X93496243Y-46984457D01*
X93528587Y-47046389D01*
X93522314Y-47115977D01*
X93479414Y-47171126D01*
X93413509Y-47194327D01*
X93406954Y-47194500D01*
X90624500Y-47194500D01*
X90557461Y-47174815D01*
X90511706Y-47122011D01*
X90500500Y-47070500D01*
X90500500Y-40353584D01*
X90520185Y-40286545D01*
X90560703Y-40247255D01*
X91181917Y-39874527D01*
X95266123Y-37424003D01*
X98694500Y-37424003D01*
X98694500Y-41876007D01*
X98699197Y-41919686D01*
X98710397Y-41971174D01*
X98712890Y-41981372D01*
X98712891Y-41981375D01*
X98755899Y-42062083D01*
X98755901Y-42062086D01*
X98801660Y-42114895D01*
X98815785Y-42129311D01*
X98819246Y-42132843D01*
X98819247Y-42132844D01*
X98819249Y-42132845D01*
X98899059Y-42177488D01*
X98899063Y-42177490D01*
X98966102Y-42197175D01*
X99024000Y-42205500D01*
X99024004Y-42205500D01*
X99912247Y-42205500D01*
X99916514Y-42205233D01*
X99937859Y-42203898D01*
X99968524Y-42200046D01*
X100047771Y-42172882D01*
X100107860Y-42137230D01*
X100114476Y-42132735D01*
X100180989Y-42111345D01*
X100248509Y-42129311D01*
X100253047Y-42132203D01*
X100348189Y-42195775D01*
X100348191Y-42195776D01*
X100348195Y-42195778D01*
X100475667Y-42248578D01*
X100475672Y-42248580D01*
X100475676Y-42248580D01*
X100475677Y-42248581D01*
X100611004Y-42275500D01*
X100611007Y-42275500D01*
X100748995Y-42275500D01*
X100840041Y-42257389D01*
X100884328Y-42248580D01*
X101011811Y-42195775D01*
X101126542Y-42119114D01*
X101224114Y-42021542D01*
X101300775Y-41906811D01*
X101353580Y-41779328D01*
X101380500Y-41643993D01*
X101380500Y-40863242D01*
X101400185Y-40796203D01*
X101452989Y-40750448D01*
X101522147Y-40740504D01*
X101585703Y-40769529D01*
X101611886Y-40801241D01*
X101646285Y-40860821D01*
X101754179Y-40968715D01*
X101886322Y-41045008D01*
X102003095Y-41076297D01*
X102062754Y-41112661D01*
X102093283Y-41175508D01*
X102095000Y-41196071D01*
X102095000Y-41876007D01*
X102098789Y-41911239D01*
X102099500Y-41924495D01*
X102099500Y-42264752D01*
X102111131Y-42323229D01*
X102111132Y-42323230D01*
X102155448Y-42389553D01*
X102217390Y-42430941D01*
X102262196Y-42484553D01*
X102272500Y-42534043D01*
X102272500Y-43025876D01*
X102252815Y-43092915D01*
X102236181Y-43113557D01*
X102037936Y-43311801D01*
X102037934Y-43311804D01*
X101994819Y-43386482D01*
X101972500Y-43469778D01*
X101972500Y-44612983D01*
X101952815Y-44680022D01*
X101936181Y-44700664D01*
X101548664Y-45088181D01*
X101487341Y-45121666D01*
X101460983Y-45124500D01*
X101431632Y-45124500D01*
X101300440Y-45163021D01*
X101185413Y-45236942D01*
X101185409Y-45236946D01*
X101095872Y-45340278D01*
X101095867Y-45340285D01*
X101039070Y-45464654D01*
X101039068Y-45464662D01*
X101019610Y-45600000D01*
X101039068Y-45735337D01*
X101039070Y-45735345D01*
X101095867Y-45859714D01*
X101095872Y-45859721D01*
X101185409Y-45963053D01*
X101185413Y-45963057D01*
X101245979Y-46001979D01*
X101300439Y-46036978D01*
X101366036Y-46056239D01*
X101431632Y-46075500D01*
X101431633Y-46075500D01*
X101568367Y-46075500D01*
X101699561Y-46036978D01*
X101814589Y-45963055D01*
X101904130Y-45859718D01*
X101960931Y-45735342D01*
X101977411Y-45620718D01*
X102006434Y-45557165D01*
X102012452Y-45550701D01*
X102562065Y-45001090D01*
X102605181Y-44926410D01*
X102627500Y-44843116D01*
X102627500Y-44756884D01*
X102627500Y-44382387D01*
X102647185Y-44315348D01*
X102699989Y-44269593D01*
X102767685Y-44259448D01*
X102775683Y-44260501D01*
X102775684Y-44260501D01*
X103224317Y-44260501D01*
X103240601Y-44258357D01*
X103273173Y-44254069D01*
X103380404Y-44204066D01*
X103464065Y-44120405D01*
X103514068Y-44013174D01*
X103520500Y-43964317D01*
X103520500Y-43759706D01*
X103537113Y-43697705D01*
X103555181Y-43666411D01*
X103577500Y-43583117D01*
X103577500Y-43496885D01*
X103577500Y-42569500D01*
X103597185Y-42502461D01*
X103649989Y-42456706D01*
X103701500Y-42445500D01*
X103919750Y-42445500D01*
X103975808Y-42434349D01*
X104024192Y-42434349D01*
X104080249Y-42445500D01*
X104117787Y-42445500D01*
X104184826Y-42465185D01*
X104230581Y-42517989D01*
X104240525Y-42587147D01*
X104211501Y-42650702D01*
X104185870Y-42680282D01*
X104185867Y-42680285D01*
X104129070Y-42804654D01*
X104129068Y-42804662D01*
X104109610Y-42940000D01*
X104129068Y-43075337D01*
X104129070Y-43075345D01*
X104185867Y-43199714D01*
X104185872Y-43199721D01*
X104275409Y-43303053D01*
X104275413Y-43303057D01*
X104365538Y-43360975D01*
X104411294Y-43413778D01*
X104422500Y-43465291D01*
X104422500Y-44095501D01*
X104402815Y-44162540D01*
X104350011Y-44208295D01*
X104298500Y-44219501D01*
X104275683Y-44219501D01*
X104226828Y-44225932D01*
X104119595Y-44275936D01*
X104035935Y-44359596D01*
X103985931Y-44466829D01*
X103979500Y-44515684D01*
X103979500Y-44864317D01*
X103985931Y-44913172D01*
X104035935Y-45020405D01*
X104127267Y-45111737D01*
X104124441Y-45114562D01*
X104155170Y-45153014D01*
X104162356Y-45222513D01*
X104130827Y-45284864D01*
X104127098Y-45288094D01*
X104127267Y-45288263D01*
X104035935Y-45379594D01*
X103985931Y-45486827D01*
X103979500Y-45535682D01*
X103979500Y-45884315D01*
X103985931Y-45933170D01*
X103985932Y-45933172D01*
X104035935Y-46040403D01*
X104119596Y-46124064D01*
X104128273Y-46128110D01*
X104180712Y-46174283D01*
X104198806Y-46224296D01*
X104199499Y-46229556D01*
X104199500Y-46229559D01*
X104199500Y-46229562D01*
X104209004Y-46265029D01*
X104219979Y-46305990D01*
X104244816Y-46349007D01*
X104244817Y-46349011D01*
X104244818Y-46349011D01*
X104259539Y-46374510D01*
X104438181Y-46553152D01*
X104471666Y-46614475D01*
X104474500Y-46640833D01*
X104474500Y-47435237D01*
X104494979Y-47511664D01*
X104528948Y-47570500D01*
X104534540Y-47580186D01*
X104534543Y-47580190D01*
X104986718Y-48032364D01*
X105049732Y-48095378D01*
X105049738Y-48095383D01*
X105838866Y-48884511D01*
X105894815Y-48940460D01*
X105894817Y-48940461D01*
X105894821Y-48940464D01*
X105928176Y-48959721D01*
X105963337Y-48980021D01*
X105991896Y-48987673D01*
X106051557Y-49024038D01*
X106053516Y-49026246D01*
X106085409Y-49063053D01*
X106085413Y-49063057D01*
X106145979Y-49101979D01*
X106200439Y-49136978D01*
X106266036Y-49156239D01*
X106331632Y-49175500D01*
X106331633Y-49175500D01*
X106468367Y-49175500D01*
X106599561Y-49136978D01*
X106714589Y-49063055D01*
X106804130Y-48959718D01*
X106860931Y-48835342D01*
X106880390Y-48700000D01*
X106860931Y-48564658D01*
X106848677Y-48537827D01*
X106804132Y-48440285D01*
X106804130Y-48440283D01*
X106804130Y-48440282D01*
X106774597Y-48406199D01*
X106745574Y-48342644D01*
X106755518Y-48273486D01*
X106774596Y-48243798D01*
X106804130Y-48209715D01*
X106808997Y-48199059D01*
X106816383Y-48182884D01*
X106860931Y-48085339D01*
X106880390Y-47949997D01*
X106860931Y-47814655D01*
X106848677Y-47787824D01*
X106804132Y-47690282D01*
X106804127Y-47690275D01*
X106714590Y-47586943D01*
X106714586Y-47586939D01*
X106608287Y-47518627D01*
X106599561Y-47513019D01*
X106599560Y-47513018D01*
X106599559Y-47513018D01*
X106468368Y-47474497D01*
X106468367Y-47474497D01*
X106331633Y-47474497D01*
X106331632Y-47474497D01*
X106200440Y-47513018D01*
X106134301Y-47555522D01*
X106067261Y-47575206D01*
X106000222Y-47555520D01*
X105979582Y-47538887D01*
X105792908Y-47352213D01*
X105792906Y-47352210D01*
X105561819Y-47121123D01*
X105528334Y-47059800D01*
X105525500Y-47033442D01*
X105525500Y-46640833D01*
X105545185Y-46573794D01*
X105561819Y-46553152D01*
X105740460Y-46374511D01*
X105780022Y-46305988D01*
X105800500Y-46229562D01*
X105800500Y-46229548D01*
X105801190Y-46224313D01*
X105829453Y-46160415D01*
X105871724Y-46128111D01*
X105880404Y-46124064D01*
X105964065Y-46040403D01*
X106014068Y-45933172D01*
X106020500Y-45884315D01*
X106020500Y-45535683D01*
X106014068Y-45486826D01*
X105964065Y-45379595D01*
X105880404Y-45295934D01*
X105872733Y-45288263D01*
X105875563Y-45285432D01*
X105844855Y-45247051D01*
X105837630Y-45177556D01*
X105869124Y-45115187D01*
X105872905Y-45111909D01*
X105872733Y-45111737D01*
X105896289Y-45088181D01*
X105964065Y-45020405D01*
X106014068Y-44913174D01*
X106020500Y-44864317D01*
X106020500Y-44515685D01*
X106014068Y-44466828D01*
X105964065Y-44359597D01*
X105880404Y-44275936D01*
X105773173Y-44225933D01*
X105773171Y-44225932D01*
X105773172Y-44225932D01*
X105724317Y-44219501D01*
X105724316Y-44219501D01*
X105701500Y-44219501D01*
X105634461Y-44199816D01*
X105588706Y-44147012D01*
X105577500Y-44095501D01*
X105577500Y-43520618D01*
X105597185Y-43453579D01*
X105649989Y-43407824D01*
X105719147Y-43397880D01*
X105736426Y-43401638D01*
X105783633Y-43415500D01*
X105783634Y-43415500D01*
X105920367Y-43415500D01*
X106051561Y-43376978D01*
X106166589Y-43303055D01*
X106256130Y-43199718D01*
X106285534Y-43135333D01*
X106331289Y-43082529D01*
X106398328Y-43062845D01*
X106465368Y-43082530D01*
X106486009Y-43099164D01*
X106936181Y-43549336D01*
X106969666Y-43610659D01*
X106972500Y-43637017D01*
X106972500Y-43674342D01*
X106952815Y-43741381D01*
X106927119Y-43768117D01*
X106927267Y-43768265D01*
X106919848Y-43775683D01*
X106919626Y-43775915D01*
X106919595Y-43775936D01*
X106835935Y-43859596D01*
X106785931Y-43966829D01*
X106779500Y-44015684D01*
X106779500Y-44364317D01*
X106785931Y-44413172D01*
X106785932Y-44413174D01*
X106835935Y-44520405D01*
X106919596Y-44604066D01*
X107026827Y-44654069D01*
X107075683Y-44660501D01*
X107075684Y-44660501D01*
X107524317Y-44660501D01*
X107540601Y-44658357D01*
X107573173Y-44654069D01*
X107680404Y-44604066D01*
X107764065Y-44520405D01*
X107814068Y-44413174D01*
X107820500Y-44364317D01*
X107820500Y-44015685D01*
X107820169Y-44013174D01*
X107814068Y-43966829D01*
X107812897Y-43964317D01*
X107764065Y-43859597D01*
X107680404Y-43775936D01*
X107680374Y-43775915D01*
X107680338Y-43775870D01*
X107672733Y-43768265D01*
X107673581Y-43767416D01*
X107636750Y-43721337D01*
X107627500Y-43674342D01*
X107627500Y-43406885D01*
X107622033Y-43386482D01*
X107605181Y-43323590D01*
X107562065Y-43248910D01*
X107501090Y-43187935D01*
X106967847Y-42654692D01*
X106934362Y-42593369D01*
X106939346Y-42523677D01*
X106981218Y-42467744D01*
X107046682Y-42443327D01*
X107074172Y-42445048D01*
X107074187Y-42444903D01*
X107078255Y-42445303D01*
X107079728Y-42445395D01*
X107080252Y-42445500D01*
X107080254Y-42445500D01*
X107719750Y-42445500D01*
X107719751Y-42445499D01*
X107734568Y-42442552D01*
X107778229Y-42433868D01*
X107778229Y-42433867D01*
X107778231Y-42433867D01*
X107844552Y-42389552D01*
X107888867Y-42323231D01*
X107888867Y-42323229D01*
X107888868Y-42323229D01*
X107900499Y-42264752D01*
X107900500Y-42264750D01*
X107900500Y-41916166D01*
X107901762Y-41898519D01*
X107905000Y-41876000D01*
X107905000Y-41196071D01*
X107924685Y-41129032D01*
X107977489Y-41083277D01*
X107996896Y-41076299D01*
X108113678Y-41045008D01*
X108245821Y-40968715D01*
X108353715Y-40860821D01*
X108388113Y-40801241D01*
X108438680Y-40753026D01*
X108507287Y-40739803D01*
X108572152Y-40765771D01*
X108612680Y-40822686D01*
X108619500Y-40863242D01*
X108619500Y-43562745D01*
X108599815Y-43629784D01*
X108583181Y-43650426D01*
X108496954Y-43736652D01*
X108496951Y-43736657D01*
X108496950Y-43736658D01*
X108481278Y-43767416D01*
X108439352Y-43849698D01*
X108424500Y-43943475D01*
X108424500Y-43968111D01*
X108422117Y-43992303D01*
X108399500Y-44106003D01*
X108399500Y-44243998D01*
X108422117Y-44357701D01*
X108424500Y-44381888D01*
X108424500Y-44406512D01*
X108424501Y-44406518D01*
X108439354Y-44500304D01*
X108496950Y-44613342D01*
X108496952Y-44613344D01*
X108496954Y-44613347D01*
X108586652Y-44703045D01*
X108586654Y-44703046D01*
X108586658Y-44703050D01*
X108699696Y-44760646D01*
X108699703Y-44760647D01*
X108708980Y-44763662D01*
X108708397Y-44765455D01*
X108743179Y-44779064D01*
X108768189Y-44795775D01*
X108768190Y-44795775D01*
X108768191Y-44795776D01*
X108884941Y-44844135D01*
X108895672Y-44848580D01*
X108895676Y-44848580D01*
X108895677Y-44848581D01*
X109031003Y-44875500D01*
X109031006Y-44875500D01*
X110943995Y-44875500D01*
X111022505Y-44859882D01*
X111057696Y-44852882D01*
X111081887Y-44850500D01*
X111529270Y-44850500D01*
X111559699Y-44847646D01*
X111567073Y-44846036D01*
X111567349Y-44847304D01*
X111629312Y-44844135D01*
X111689943Y-44878858D01*
X111722176Y-44940848D01*
X111724500Y-44964741D01*
X111724500Y-47975500D01*
X111704815Y-48042539D01*
X111652011Y-48088294D01*
X111600500Y-48099500D01*
X111045729Y-48099500D01*
X111015299Y-48102353D01*
X111015297Y-48102353D01*
X110887118Y-48147206D01*
X110887116Y-48147207D01*
X110777849Y-48227850D01*
X110697206Y-48337117D01*
X110697205Y-48337119D01*
X110652352Y-48465298D01*
X110652352Y-48465300D01*
X110649499Y-48495730D01*
X110649499Y-49904269D01*
X110652352Y-49934699D01*
X110652352Y-49934701D01*
X110697205Y-50062880D01*
X110697206Y-50062882D01*
X110777849Y-50172150D01*
X110887117Y-50252793D01*
X110929844Y-50267744D01*
X111015298Y-50297646D01*
X111045729Y-50300500D01*
X111045733Y-50300500D01*
X113154269Y-50300500D01*
X113184698Y-50297646D01*
X113184700Y-50297646D01*
X113248789Y-50275219D01*
X113312881Y-50252793D01*
X113422149Y-50172150D01*
X113502792Y-50062882D01*
X113525218Y-49998790D01*
X113547645Y-49934701D01*
X113547645Y-49934699D01*
X113550499Y-49904269D01*
X113550499Y-48495730D01*
X113547645Y-48465300D01*
X113547645Y-48465298D01*
X113514005Y-48369163D01*
X113502792Y-48337118D01*
X113493113Y-48324003D01*
X114194500Y-48324003D01*
X114194500Y-51126007D01*
X114199197Y-51169686D01*
X114210397Y-51221174D01*
X114212890Y-51231372D01*
X114212891Y-51231375D01*
X114255899Y-51312083D01*
X114255901Y-51312086D01*
X114301660Y-51364895D01*
X114319242Y-51382839D01*
X114319246Y-51382843D01*
X114319247Y-51382844D01*
X114319249Y-51382845D01*
X114381995Y-51417943D01*
X114399063Y-51427490D01*
X114466102Y-51447175D01*
X114524000Y-51455500D01*
X114524004Y-51455500D01*
X117885589Y-51455500D01*
X117885593Y-51455500D01*
X117929604Y-51450732D01*
X117981485Y-51439357D01*
X117991986Y-51436763D01*
X118072556Y-51393490D01*
X118125210Y-51347562D01*
X118143109Y-51329908D01*
X118187493Y-51249944D01*
X118206957Y-51182840D01*
X118215091Y-51124919D01*
X118205904Y-48322919D01*
X118201137Y-48279581D01*
X118189932Y-48228477D01*
X118187516Y-48218629D01*
X118187517Y-48218629D01*
X118177091Y-48199063D01*
X118144506Y-48137915D01*
X118098751Y-48085111D01*
X118098745Y-48085104D01*
X118081163Y-48067160D01*
X118081162Y-48067159D01*
X118081160Y-48067157D01*
X118081158Y-48067156D01*
X118081156Y-48067154D01*
X118001346Y-48022511D01*
X118001341Y-48022509D01*
X117934309Y-48002826D01*
X117934305Y-48002825D01*
X117934304Y-48002825D01*
X117876406Y-47994500D01*
X114524000Y-47994500D01*
X114523992Y-47994500D01*
X114480313Y-47999197D01*
X114428825Y-48010397D01*
X114418627Y-48012890D01*
X114418624Y-48012891D01*
X114337916Y-48055899D01*
X114337913Y-48055901D01*
X114285104Y-48101660D01*
X114267160Y-48119242D01*
X114267154Y-48119249D01*
X114222511Y-48199059D01*
X114222509Y-48199064D01*
X114202826Y-48266096D01*
X114202825Y-48266101D01*
X114202825Y-48266102D01*
X114194656Y-48322919D01*
X114194500Y-48324003D01*
X113493113Y-48324003D01*
X113422149Y-48227850D01*
X113312881Y-48147207D01*
X113312878Y-48147206D01*
X113208544Y-48110697D01*
X113151768Y-48069975D01*
X113126022Y-48005022D01*
X113125500Y-47993656D01*
X113125500Y-45484994D01*
X113145185Y-45417955D01*
X113197989Y-45372200D01*
X113267147Y-45362256D01*
X113330703Y-45391281D01*
X113356886Y-45422993D01*
X113380944Y-45464662D01*
X113488870Y-45651597D01*
X113697584Y-45931949D01*
X113697589Y-45931955D01*
X113796674Y-46036978D01*
X113937442Y-46186183D01*
X114080223Y-46305990D01*
X114205186Y-46410847D01*
X114205194Y-46410853D01*
X114497203Y-46602911D01*
X114497207Y-46602913D01*
X114809549Y-46759777D01*
X115137989Y-46879319D01*
X115478086Y-46959923D01*
X115825241Y-47000500D01*
X115825248Y-47000500D01*
X116174752Y-47000500D01*
X116174759Y-47000500D01*
X116521914Y-46959923D01*
X116862011Y-46879319D01*
X117190451Y-46759777D01*
X117502793Y-46602913D01*
X117794811Y-46410849D01*
X118062558Y-46186183D01*
X118302412Y-45931953D01*
X118511130Y-45651596D01*
X118685889Y-45348904D01*
X118824326Y-45027971D01*
X118924569Y-44693136D01*
X118926882Y-44680022D01*
X118985260Y-44348938D01*
X118985259Y-44348938D01*
X118985262Y-44348927D01*
X119002561Y-44051902D01*
X119005585Y-44000003D01*
X119005585Y-43999996D01*
X119001554Y-43930796D01*
X118985262Y-43651073D01*
X118982784Y-43637017D01*
X118924571Y-43306872D01*
X118924569Y-43306865D01*
X118923429Y-43303057D01*
X118824326Y-42972029D01*
X118685889Y-42651096D01*
X118511130Y-42348404D01*
X118511129Y-42348402D01*
X118302415Y-42068050D01*
X118302410Y-42068044D01*
X118162440Y-41919686D01*
X118062558Y-41813817D01*
X117860172Y-41643995D01*
X117794813Y-41589152D01*
X117794805Y-41589146D01*
X117502796Y-41397088D01*
X117190458Y-41240226D01*
X117190452Y-41240223D01*
X116862012Y-41120681D01*
X116862009Y-41120680D01*
X116521915Y-41040077D01*
X116478519Y-41035004D01*
X116174759Y-40999500D01*
X115825241Y-40999500D01*
X115521480Y-41035004D01*
X115478085Y-41040077D01*
X115478083Y-41040077D01*
X115137990Y-41120680D01*
X115137987Y-41120681D01*
X114809547Y-41240223D01*
X114809541Y-41240226D01*
X114497203Y-41397088D01*
X114205194Y-41589146D01*
X114205186Y-41589152D01*
X113937442Y-41813817D01*
X113937440Y-41813819D01*
X113697589Y-42068044D01*
X113697584Y-42068050D01*
X113488870Y-42348402D01*
X113356887Y-42577005D01*
X113306320Y-42625221D01*
X113237713Y-42638444D01*
X113172848Y-42612476D01*
X113132320Y-42555561D01*
X113125500Y-42515005D01*
X113125500Y-40956004D01*
X113125499Y-40956002D01*
X113098582Y-40820679D01*
X113098579Y-40820669D01*
X113093050Y-40807322D01*
X113093030Y-40807275D01*
X113077395Y-40769529D01*
X113062945Y-40734642D01*
X113045775Y-40693189D01*
X113045772Y-40693184D01*
X113045771Y-40693182D01*
X112969115Y-40578459D01*
X112921489Y-40530833D01*
X112871542Y-40480886D01*
X112197470Y-39806814D01*
X111441819Y-39051162D01*
X111408334Y-38989839D01*
X111405500Y-38963481D01*
X111405500Y-37424008D01*
X111405499Y-37423992D01*
X111400803Y-37380316D01*
X111396897Y-37362364D01*
X111389602Y-37328825D01*
X111389348Y-37327789D01*
X111387110Y-37318627D01*
X111344100Y-37237915D01*
X111298345Y-37185111D01*
X111298339Y-37185104D01*
X111280757Y-37167160D01*
X111280756Y-37167159D01*
X111280754Y-37167157D01*
X111280752Y-37167156D01*
X111280750Y-37167154D01*
X111200940Y-37122511D01*
X111200935Y-37122509D01*
X111133903Y-37102826D01*
X111133899Y-37102825D01*
X111133898Y-37102825D01*
X111076000Y-37094500D01*
X110144500Y-37094500D01*
X110077461Y-37074815D01*
X110031706Y-37022011D01*
X110020500Y-36970500D01*
X110020500Y-36356004D01*
X109993581Y-36220677D01*
X109993580Y-36220676D01*
X109993580Y-36220672D01*
X109993578Y-36220667D01*
X109940778Y-36093195D01*
X109940771Y-36093182D01*
X109864114Y-35978458D01*
X109864111Y-35978454D01*
X109766545Y-35880888D01*
X109766541Y-35880885D01*
X109651817Y-35804228D01*
X109651804Y-35804221D01*
X109524332Y-35751421D01*
X109524322Y-35751418D01*
X109388995Y-35724500D01*
X109388993Y-35724500D01*
X109251007Y-35724500D01*
X109251005Y-35724500D01*
X109115677Y-35751418D01*
X109115667Y-35751421D01*
X108988195Y-35804221D01*
X108988182Y-35804228D01*
X108873458Y-35880885D01*
X108873454Y-35880888D01*
X108775888Y-35978454D01*
X108775885Y-35978458D01*
X108699228Y-36093182D01*
X108699221Y-36093195D01*
X108646421Y-36220667D01*
X108646418Y-36220677D01*
X108619500Y-36356004D01*
X108619500Y-36970500D01*
X108599815Y-37037539D01*
X108547011Y-37083294D01*
X108495500Y-37094500D01*
X101504500Y-37094500D01*
X101437461Y-37074815D01*
X101391706Y-37022011D01*
X101380500Y-36970500D01*
X101380500Y-36356004D01*
X101353581Y-36220677D01*
X101353580Y-36220676D01*
X101353580Y-36220672D01*
X101353578Y-36220667D01*
X101300778Y-36093195D01*
X101300771Y-36093182D01*
X101224114Y-35978458D01*
X101224111Y-35978454D01*
X101126545Y-35880888D01*
X101126541Y-35880885D01*
X101011817Y-35804228D01*
X101011804Y-35804221D01*
X100884332Y-35751421D01*
X100884322Y-35751418D01*
X100748995Y-35724500D01*
X100748993Y-35724500D01*
X100611007Y-35724500D01*
X100611005Y-35724500D01*
X100475677Y-35751418D01*
X100475667Y-35751421D01*
X100348195Y-35804221D01*
X100348182Y-35804228D01*
X100233458Y-35880885D01*
X100233454Y-35880888D01*
X100135888Y-35978454D01*
X100135885Y-35978458D01*
X100059228Y-36093182D01*
X100059221Y-36093195D01*
X100006421Y-36220667D01*
X100006418Y-36220677D01*
X99979500Y-36356004D01*
X99979500Y-36970500D01*
X99959815Y-37037539D01*
X99907011Y-37083294D01*
X99855500Y-37094500D01*
X99023992Y-37094500D01*
X98980313Y-37099197D01*
X98928825Y-37110397D01*
X98918627Y-37112890D01*
X98918624Y-37112891D01*
X98837916Y-37155899D01*
X98837913Y-37155901D01*
X98785104Y-37201660D01*
X98767160Y-37219242D01*
X98767154Y-37219249D01*
X98722511Y-37299059D01*
X98722509Y-37299064D01*
X98702826Y-37366096D01*
X98702825Y-37366101D01*
X98702825Y-37366102D01*
X98694502Y-37423992D01*
X98694500Y-37424003D01*
X95266123Y-37424003D01*
X100109178Y-34518170D01*
X100172975Y-34500500D01*
X104934108Y-34500500D01*
X109827025Y-34500500D01*
X109890821Y-34518170D01*
G37*
%TD.AperFunction*%
%TA.AperFunction,Conductor*%
G36*
X102793334Y-51872335D02*
G01*
X102837681Y-51900836D01*
X103472964Y-52536119D01*
X103506449Y-52597442D01*
X103501465Y-52667134D01*
X103459593Y-52723067D01*
X103394129Y-52747484D01*
X103385283Y-52747800D01*
X103271430Y-52747800D01*
X103140239Y-52786320D01*
X103113167Y-52803718D01*
X103046126Y-52823400D01*
X102979088Y-52803713D01*
X102952418Y-52780603D01*
X102940041Y-52766319D01*
X102914589Y-52736945D01*
X102914586Y-52736943D01*
X102914586Y-52736942D01*
X102800415Y-52663571D01*
X102799561Y-52663022D01*
X102799560Y-52663021D01*
X102799559Y-52663021D01*
X102668368Y-52624500D01*
X102668367Y-52624500D01*
X102531633Y-52624500D01*
X102531632Y-52624500D01*
X102400442Y-52663020D01*
X102399846Y-52663293D01*
X102398566Y-52663571D01*
X102391930Y-52665520D01*
X102391790Y-52665045D01*
X102348331Y-52674500D01*
X102188017Y-52674500D01*
X102120978Y-52654815D01*
X102075223Y-52602011D01*
X102065279Y-52532853D01*
X102094304Y-52469297D01*
X102100336Y-52462819D01*
X102662319Y-51900836D01*
X102723642Y-51867351D01*
X102793334Y-51872335D01*
G37*
%TD.AperFunction*%
%TA.AperFunction,Conductor*%
G36*
X107557417Y-50474185D02*
G01*
X107578059Y-50490819D01*
X107609181Y-50521941D01*
X107642666Y-50583264D01*
X107645500Y-50609622D01*
X107645500Y-51221500D01*
X107625815Y-51288539D01*
X107573011Y-51334294D01*
X107521500Y-51345500D01*
X107428735Y-51345500D01*
X107376330Y-51333882D01*
X107359489Y-51326029D01*
X107359487Y-51326028D01*
X107359485Y-51326027D01*
X107359483Y-51326027D01*
X107309901Y-51319500D01*
X106890105Y-51319500D01*
X106874386Y-51321569D01*
X106840513Y-51326028D01*
X106840511Y-51326029D01*
X106840509Y-51326029D01*
X106823670Y-51333882D01*
X106771265Y-51345500D01*
X104560164Y-51345500D01*
X104444569Y-51376473D01*
X104444566Y-51376474D01*
X104340933Y-51436307D01*
X104340927Y-51436311D01*
X104256311Y-51520927D01*
X104256307Y-51520933D01*
X104196474Y-51624566D01*
X104196473Y-51624569D01*
X104165500Y-51740164D01*
X104165500Y-51859836D01*
X104185345Y-51933898D01*
X104196473Y-51975430D01*
X104196473Y-51975431D01*
X104214420Y-52006516D01*
X104230892Y-52074416D01*
X104208039Y-52140443D01*
X104153117Y-52183633D01*
X104083564Y-52190274D01*
X104021462Y-52158257D01*
X104019351Y-52156196D01*
X103463819Y-51600664D01*
X103430334Y-51539341D01*
X103427500Y-51512983D01*
X103427500Y-51417943D01*
X103447185Y-51350904D01*
X103484462Y-51313627D01*
X103486862Y-51312085D01*
X103564582Y-51262138D01*
X103654123Y-51158801D01*
X103710924Y-51034425D01*
X103730383Y-50899083D01*
X103710924Y-50763741D01*
X103655919Y-50643297D01*
X103650439Y-50631297D01*
X103653495Y-50629901D01*
X103638407Y-50578468D01*
X103658109Y-50511434D01*
X103710924Y-50465693D01*
X103762407Y-50454500D01*
X107490378Y-50454500D01*
X107557417Y-50474185D01*
G37*
%TD.AperFunction*%
%TA.AperFunction,Conductor*%
G36*
X102057153Y-50474185D02*
G01*
X102102908Y-50526989D01*
X102112852Y-50596147D01*
X102098462Y-50634730D01*
X102099555Y-50635229D01*
X102039071Y-50767669D01*
X102039069Y-50767677D01*
X102019611Y-50903015D01*
X102039069Y-51038352D01*
X102039071Y-51038360D01*
X102095868Y-51162729D01*
X102095870Y-51162731D01*
X102095871Y-51162733D01*
X102142214Y-51216216D01*
X102171239Y-51279770D01*
X102172501Y-51297418D01*
X102172501Y-51412981D01*
X102152816Y-51480020D01*
X102136182Y-51500662D01*
X101860344Y-51776500D01*
X101799021Y-51809985D01*
X101729329Y-51805001D01*
X101673396Y-51763129D01*
X101669561Y-51757710D01*
X101648624Y-51726375D01*
X101593995Y-51689874D01*
X101557495Y-51665485D01*
X101557493Y-51665484D01*
X101557490Y-51665483D01*
X101477136Y-51649500D01*
X100122870Y-51649500D01*
X100076832Y-51658657D01*
X100042505Y-51665485D01*
X100042504Y-51665485D01*
X100030527Y-51667868D01*
X100030285Y-51666655D01*
X100000905Y-51672500D01*
X99999642Y-51672500D01*
X99932604Y-51652816D01*
X99839559Y-51593021D01*
X99708368Y-51554500D01*
X99708367Y-51554500D01*
X99571633Y-51554500D01*
X99571632Y-51554500D01*
X99440440Y-51593021D01*
X99377256Y-51633626D01*
X99310216Y-51653310D01*
X99243177Y-51633624D01*
X99197423Y-51580820D01*
X99187279Y-51513126D01*
X99200498Y-51412720D01*
X99200498Y-50587280D01*
X99200498Y-50587271D01*
X99200454Y-50586599D01*
X99200498Y-50586402D01*
X99200498Y-50583221D01*
X99201210Y-50583221D01*
X99215718Y-50518417D01*
X99265421Y-50469311D01*
X99324189Y-50454500D01*
X101990114Y-50454500D01*
X102057153Y-50474185D01*
G37*
%TD.AperFunction*%
%TD*%
%TA.AperFunction,Conductor*%
%TO.N,+5V*%
G36*
X117943445Y-48219685D02*
G01*
X117989200Y-48272489D01*
X118000405Y-48323593D01*
X118009592Y-51125593D01*
X117990128Y-51192697D01*
X117937474Y-51238625D01*
X117885593Y-51250000D01*
X114524000Y-51250000D01*
X114456961Y-51230315D01*
X114411206Y-51177511D01*
X114400000Y-51126000D01*
X114400000Y-48324000D01*
X114419685Y-48256961D01*
X114472489Y-48211206D01*
X114524000Y-48200000D01*
X117876406Y-48200000D01*
X117943445Y-48219685D01*
G37*
%TD.AperFunction*%
%TD*%
%TA.AperFunction,Conductor*%
%TO.N,+5V*%
G36*
X99243039Y-43419685D02*
G01*
X99288794Y-43472489D01*
X99300000Y-43524000D01*
X99300000Y-43783068D01*
X99293041Y-43824023D01*
X99252354Y-43940298D01*
X99252353Y-43940300D01*
X99249500Y-43970730D01*
X99249500Y-45029269D01*
X99252353Y-45059699D01*
X99252354Y-45059701D01*
X99293041Y-45175977D01*
X99300000Y-45216932D01*
X99300000Y-45846889D01*
X99280315Y-45913928D01*
X99263681Y-45934570D01*
X99201476Y-45996774D01*
X99201473Y-45996778D01*
X99140279Y-46116878D01*
X99124500Y-46216506D01*
X99124500Y-46783493D01*
X99140279Y-46883121D01*
X99140280Y-46883124D01*
X99140281Y-46883126D01*
X99201472Y-47003220D01*
X99201473Y-47003221D01*
X99201476Y-47003225D01*
X99263681Y-47065430D01*
X99297166Y-47126753D01*
X99300000Y-47153111D01*
X99300000Y-47500000D01*
X101276000Y-47500000D01*
X101343039Y-47519685D01*
X101388794Y-47572489D01*
X101400000Y-47624000D01*
X101400000Y-49376000D01*
X101380315Y-49443039D01*
X101327511Y-49488794D01*
X101276000Y-49500000D01*
X99300000Y-49500000D01*
X96824000Y-49500000D01*
X96756961Y-49480315D01*
X96711206Y-49427511D01*
X96700000Y-49376000D01*
X96700000Y-45341795D01*
X96710141Y-45292681D01*
X96760482Y-45175977D01*
X96824326Y-45027971D01*
X96924569Y-44693136D01*
X96928016Y-44673590D01*
X96985260Y-44348938D01*
X96985259Y-44348938D01*
X96985262Y-44348927D01*
X97005585Y-44000000D01*
X97003880Y-43970734D01*
X96994642Y-43812118D01*
X96985262Y-43651073D01*
X96980172Y-43622207D01*
X96966653Y-43545532D01*
X96974397Y-43476093D01*
X97018454Y-43421864D01*
X97084835Y-43400062D01*
X97088769Y-43400000D01*
X99176000Y-43400000D01*
X99243039Y-43419685D01*
G37*
%TD.AperFunction*%
%TD*%
%TA.AperFunction,Conductor*%
%TO.N,/VBUS*%
G36*
X99945970Y-37319685D02*
G01*
X99991725Y-37372489D01*
X100000547Y-37399803D01*
X100006420Y-37429328D01*
X100006421Y-37429330D01*
X100006421Y-37429332D01*
X100059221Y-37556804D01*
X100059228Y-37556817D01*
X100135885Y-37671541D01*
X100135888Y-37671545D01*
X100233454Y-37769111D01*
X100233458Y-37769114D01*
X100348182Y-37845771D01*
X100348195Y-37845778D01*
X100475667Y-37898578D01*
X100475672Y-37898580D01*
X100475676Y-37898580D01*
X100475677Y-37898581D01*
X100611004Y-37925500D01*
X100611007Y-37925500D01*
X100748995Y-37925500D01*
X100840041Y-37907389D01*
X100884328Y-37898580D01*
X101011811Y-37845775D01*
X101126542Y-37769114D01*
X101224114Y-37671542D01*
X101300775Y-37556811D01*
X101353580Y-37429328D01*
X101359452Y-37399806D01*
X101391836Y-37337898D01*
X101452552Y-37303324D01*
X101481069Y-37300000D01*
X108518931Y-37300000D01*
X108585970Y-37319685D01*
X108631725Y-37372489D01*
X108640547Y-37399803D01*
X108646420Y-37429328D01*
X108646421Y-37429330D01*
X108646421Y-37429332D01*
X108699221Y-37556804D01*
X108699228Y-37556817D01*
X108775885Y-37671541D01*
X108775888Y-37671545D01*
X108873454Y-37769111D01*
X108873458Y-37769114D01*
X108988182Y-37845771D01*
X108988195Y-37845778D01*
X109115667Y-37898578D01*
X109115672Y-37898580D01*
X109115676Y-37898580D01*
X109115677Y-37898581D01*
X109251004Y-37925500D01*
X109251007Y-37925500D01*
X109388995Y-37925500D01*
X109480041Y-37907389D01*
X109524328Y-37898580D01*
X109651811Y-37845775D01*
X109766542Y-37769114D01*
X109864114Y-37671542D01*
X109940775Y-37556811D01*
X109993580Y-37429328D01*
X109999452Y-37399806D01*
X110031836Y-37337898D01*
X110092552Y-37303324D01*
X110121069Y-37300000D01*
X111076000Y-37300000D01*
X111143039Y-37319685D01*
X111188794Y-37372489D01*
X111200000Y-37424000D01*
X111200000Y-41876000D01*
X111180315Y-41943039D01*
X111127511Y-41988794D01*
X111076000Y-42000000D01*
X110144500Y-42000000D01*
X110077461Y-41980315D01*
X110031706Y-41927511D01*
X110020500Y-41876000D01*
X110020500Y-40406004D01*
X109993581Y-40270677D01*
X109993580Y-40270676D01*
X109993580Y-40270672D01*
X109979585Y-40236884D01*
X109940778Y-40143195D01*
X109940771Y-40143182D01*
X109864114Y-40028458D01*
X109864111Y-40028454D01*
X109766545Y-39930888D01*
X109766541Y-39930885D01*
X109651817Y-39854228D01*
X109651804Y-39854221D01*
X109524332Y-39801421D01*
X109524322Y-39801418D01*
X109388995Y-39774500D01*
X109388993Y-39774500D01*
X109251007Y-39774500D01*
X109251005Y-39774500D01*
X109115677Y-39801418D01*
X109115667Y-39801421D01*
X108988195Y-39854221D01*
X108988182Y-39854228D01*
X108873458Y-39930885D01*
X108873454Y-39930888D01*
X108775888Y-40028454D01*
X108775885Y-40028458D01*
X108699228Y-40143182D01*
X108699223Y-40143192D01*
X108649672Y-40262819D01*
X108605831Y-40317222D01*
X108539536Y-40339287D01*
X108471837Y-40322008D01*
X108427724Y-40277366D01*
X108404352Y-40236885D01*
X108353715Y-40149179D01*
X108245821Y-40041285D01*
X108245819Y-40041284D01*
X108245817Y-40041282D01*
X108113681Y-39964993D01*
X108113682Y-39964993D01*
X108101595Y-39961754D01*
X107966293Y-39925500D01*
X107813707Y-39925500D01*
X107678404Y-39961754D01*
X107666318Y-39964993D01*
X107534182Y-40041282D01*
X107534176Y-40041287D01*
X107426287Y-40149176D01*
X107426282Y-40149182D01*
X107349993Y-40281318D01*
X107349992Y-40281322D01*
X107310500Y-40428707D01*
X107310500Y-40581293D01*
X107337083Y-40680500D01*
X107349993Y-40728681D01*
X107426282Y-40860817D01*
X107426284Y-40860819D01*
X107426285Y-40860821D01*
X107534179Y-40968715D01*
X107534180Y-40968716D01*
X107534182Y-40968717D01*
X107637500Y-41028368D01*
X107685716Y-41078935D01*
X107699500Y-41135755D01*
X107699500Y-41876000D01*
X107679815Y-41943039D01*
X107627011Y-41988794D01*
X107575500Y-42000000D01*
X107224500Y-42000000D01*
X107157461Y-41980315D01*
X107111706Y-41927511D01*
X107100500Y-41876000D01*
X107100500Y-40985249D01*
X107100499Y-40985247D01*
X107088868Y-40926770D01*
X107088867Y-40926769D01*
X107044552Y-40860447D01*
X106978230Y-40816132D01*
X106978229Y-40816131D01*
X106919752Y-40804500D01*
X106919748Y-40804500D01*
X106580252Y-40804500D01*
X106524190Y-40815651D01*
X106475810Y-40815651D01*
X106419748Y-40804500D01*
X106080252Y-40804500D01*
X106024190Y-40815651D01*
X105975810Y-40815651D01*
X105919748Y-40804500D01*
X105701500Y-40804500D01*
X105634461Y-40784815D01*
X105588706Y-40732011D01*
X105577500Y-40680500D01*
X105577500Y-40236885D01*
X105577500Y-40236884D01*
X105555181Y-40153590D01*
X105512065Y-40078910D01*
X105451090Y-40017935D01*
X105211090Y-39777935D01*
X105136410Y-39734819D01*
X105136411Y-39734819D01*
X105108645Y-39727379D01*
X105053116Y-39712500D01*
X104453116Y-39712500D01*
X104366884Y-39712500D01*
X104311354Y-39727379D01*
X104283589Y-39734819D01*
X104208911Y-39777934D01*
X104208908Y-39777936D01*
X103987936Y-39998908D01*
X103987934Y-39998911D01*
X103944819Y-40073589D01*
X103944819Y-40073590D01*
X103924566Y-40149176D01*
X103922500Y-40156885D01*
X103922500Y-40680500D01*
X103902815Y-40747539D01*
X103850011Y-40793294D01*
X103798500Y-40804500D01*
X103580252Y-40804500D01*
X103524190Y-40815651D01*
X103475810Y-40815651D01*
X103419748Y-40804500D01*
X103080252Y-40804500D01*
X103080247Y-40804500D01*
X103021770Y-40816131D01*
X103021769Y-40816132D01*
X102955447Y-40860447D01*
X102911132Y-40926769D01*
X102911131Y-40926770D01*
X102899500Y-40985247D01*
X102899500Y-41876000D01*
X102879815Y-41943039D01*
X102827011Y-41988794D01*
X102775500Y-42000000D01*
X102424500Y-42000000D01*
X102357461Y-41980315D01*
X102311706Y-41927511D01*
X102300500Y-41876000D01*
X102300500Y-41135755D01*
X102320185Y-41068716D01*
X102362500Y-41028368D01*
X102437187Y-40985247D01*
X102465821Y-40968715D01*
X102573715Y-40860821D01*
X102650008Y-40728678D01*
X102689500Y-40581293D01*
X102689500Y-40428707D01*
X102650008Y-40281322D01*
X102643859Y-40270672D01*
X102573717Y-40149182D01*
X102573712Y-40149176D01*
X102465823Y-40041287D01*
X102465817Y-40041282D01*
X102333681Y-39964993D01*
X102333682Y-39964993D01*
X102321595Y-39961754D01*
X102186293Y-39925500D01*
X102033707Y-39925500D01*
X101898404Y-39961754D01*
X101886318Y-39964993D01*
X101754182Y-40041282D01*
X101754176Y-40041287D01*
X101646287Y-40149176D01*
X101646285Y-40149179D01*
X101572275Y-40277367D01*
X101521707Y-40325582D01*
X101453100Y-40338804D01*
X101388236Y-40312836D01*
X101350327Y-40262818D01*
X101300778Y-40143195D01*
X101300771Y-40143182D01*
X101224114Y-40028458D01*
X101224111Y-40028454D01*
X101126545Y-39930888D01*
X101126541Y-39930885D01*
X101011817Y-39854228D01*
X101011804Y-39854221D01*
X100884332Y-39801421D01*
X100884322Y-39801418D01*
X100748995Y-39774500D01*
X100748993Y-39774500D01*
X100611007Y-39774500D01*
X100611005Y-39774500D01*
X100475677Y-39801418D01*
X100475667Y-39801421D01*
X100348195Y-39854221D01*
X100348182Y-39854228D01*
X100233458Y-39930885D01*
X100233454Y-39930888D01*
X100135888Y-40028454D01*
X100135885Y-40028458D01*
X100059228Y-40143182D01*
X100059221Y-40143195D01*
X100006421Y-40270667D01*
X100006418Y-40270677D01*
X99979500Y-40406004D01*
X99979500Y-40406007D01*
X99979500Y-41643993D01*
X99979500Y-41643995D01*
X99979499Y-41643995D01*
X100006418Y-41779322D01*
X100006421Y-41779332D01*
X100026807Y-41828548D01*
X100034276Y-41898017D01*
X100003000Y-41960496D01*
X99942911Y-41996148D01*
X99912246Y-42000000D01*
X99024000Y-42000000D01*
X98956961Y-41980315D01*
X98911206Y-41927511D01*
X98900000Y-41876000D01*
X98900000Y-37424000D01*
X98919685Y-37356961D01*
X98972489Y-37311206D01*
X99024000Y-37300000D01*
X99878931Y-37300000D01*
X99945970Y-37319685D01*
G37*
%TD.AperFunction*%
%TD*%
M02*
