M48
; DRILL file {KiCad 8.0.7-8.0.7-0~ubuntu22.04.1} date 2024-12-14T16:49:41+0100
; FORMAT={-:-/ absolute / inch / decimal}
; #@! TF.CreationDate,2024-12-14T16:49:41+01:00
; #@! TF.GenerationSoftware,Kicad,Pcbnew,8.0.7-8.0.7-0~ubuntu22.04.1
; #@! TF.FileFunction,Plated,1,2,PTH
FMAT,2
INCH
; #@! TA.AperFunction,Plated,PTH,ViaDrill
T1C0.0118
; #@! TA.AperFunction,Plated,PTH,ViaDrill
T2C0.0138
; #@! TA.AperFunction,Plated,PTH,ComponentDrill
T3C0.0197
; #@! TA.AperFunction,Plated,PTH,ComponentDrill
T4C0.0236
; #@! TA.AperFunction,Plated,PTH,ComponentDrill
T5C0.1260
%
G90
G05
T1
X3.8129Y-2.4172
X3.8357Y-2.3943
T2
X3.5941Y-1.6087
X3.5941Y-2.8882
X3.5941Y-2.9866
X3.5941Y-3.085
X3.5941Y-3.1835
X3.5941Y-3.2819
X3.5941Y-3.3803
X3.5941Y-3.4787
X3.5941Y-3.5772
X3.5941Y-3.6756
X3.5941Y-3.774
X3.5941Y-3.8724
X3.5941Y-4.0693
X3.6886Y-2.2307
X3.6902Y-2.4049
X3.6925Y-2.4945
X3.6925Y-2.6913
X3.6925Y-2.9866
X3.6925Y-3.085
X3.6925Y-3.1835
X3.6925Y-3.2819
X3.6925Y-3.3803
X3.6925Y-3.4787
X3.6925Y-3.5772
X3.6925Y-3.6756
X3.6925Y-3.774
X3.7047Y-2.3465
X3.7087Y-2.3819
X3.7146Y-2.2165
X3.7244Y-2.3228
X3.7323Y-2.1929
X3.7598Y-2.1772
X3.7909Y-1.5102
X3.7909Y-1.6087
X3.7909Y-2.1008
X3.7909Y-3.6756
X3.7909Y-3.774
X3.8103Y-2.3775
X3.8108Y-2.4476
X3.8374Y-2.6456
X3.8374Y-2.708
X3.8894Y-3.6756
X3.8894Y-3.774
X3.8894Y-3.8724
X3.8894Y-3.9709
X3.8894Y-4.0693
X3.8948Y-2.708
X3.8957Y-2.6417
X3.9213Y-1.8898
X3.9213Y-1.9213
X3.9228Y-2.0484
X3.9685Y-1.8898
X3.9685Y-1.9213
X3.9878Y-2.1992
X3.9878Y-2.4945
X3.9878Y-3.6756
X3.9878Y-3.774
X3.9878Y-3.8724
X3.9878Y-3.9709
X3.9878Y-4.0693
X3.9961Y-1.7953
X3.9969Y-1.9988
X4.0079Y-1.6929
X4.0118Y-2.1417
X4.0354Y-2.0041
X4.0394Y-2.0906
X4.0472Y-2.0591
X4.065Y-2.0039
X4.0685Y-2.0954
X4.0862Y-3.6756
X4.0862Y-3.774
X4.0862Y-3.8724
X4.0862Y-3.9709
X4.0862Y-4.0693
X4.0916Y-1.7043
X4.1004Y-2.1827
X4.1028Y-2.0016
X4.1063Y-2.2165
X4.1122Y-2.4882
X4.1177Y-1.6906
X4.122Y-2.1654
X4.1417Y-2.4882
X4.1512Y-2.1605
X4.1674Y-1.6906
X4.1732Y-2.4882
X4.1845Y-1.7146
X4.1846Y-2.0024
X4.1846Y-3.6756
X4.1846Y-3.774
X4.1846Y-3.8724
X4.1846Y-3.9709
X4.1846Y-4.0693
X4.189Y-1.8878
X4.189Y-1.9173
X4.1929Y-2.2913
X4.2005Y-2.23
X4.2009Y-2.2577
X4.2047Y-2.2008
X4.2047Y-2.4882
X4.2165Y-1.9331
X4.2205Y-1.8898
X4.2618Y-1.6929
X4.2831Y-1.9039
X4.2831Y-3.6756
X4.2831Y-3.774
X4.2831Y-3.8724
X4.2831Y-3.9709
X4.2831Y-4.0693
X4.315Y-2.2598
X4.3425Y-2.8173
X4.3425Y-2.8465
X4.3563Y-2.1693
X4.372Y-2.8169
X4.372Y-2.8465
X4.3815Y-2.0024
X4.3815Y-3.6756
X4.3815Y-3.774
X4.3815Y-3.8724
X4.3815Y-3.9709
X4.3815Y-4.0693
X4.4016Y-2.8169
X4.4016Y-2.8465
X4.4252Y-2.0827
X4.4799Y-1.5102
X4.4799Y-1.6087
X4.4799Y-2.1008
X4.4799Y-2.1992
X4.4799Y-2.2976
X4.4799Y-2.3961
X4.4799Y-2.4945
X4.4799Y-2.7898
X4.4799Y-2.8882
X4.4799Y-3.6756
X4.4799Y-3.774
X4.5354Y-1.9882
X4.5748Y-1.9882
X4.5783Y-2.1008
X4.5783Y-2.1992
X4.5783Y-2.2976
X4.5783Y-2.3961
X4.5783Y-2.4945
X4.5783Y-2.6913
X4.5783Y-2.8882
X4.5783Y-2.9866
X4.5783Y-3.085
X4.5783Y-3.1835
X4.5783Y-3.2819
X4.5783Y-3.3803
X4.5783Y-3.4787
X4.5783Y-3.5772
X4.5783Y-3.6756
X4.5783Y-3.774
X4.6142Y-1.9882
X4.6768Y-1.6087
X4.6768Y-1.9039
X4.6768Y-2.7898
X4.6768Y-2.8882
X4.6768Y-2.9866
X4.6768Y-3.085
X4.6768Y-3.1835
X4.6768Y-3.2819
X4.6768Y-3.3803
X4.6768Y-3.4787
X4.6768Y-3.5772
X4.6768Y-3.6756
X4.6768Y-3.774
X4.6768Y-3.8724
X4.6768Y-4.0693
T3
X3.6929Y-2.7441
X3.6929Y-2.8819
X3.6976Y-2.5992
X3.7323Y-2.7441
X3.7323Y-2.8819
X3.737Y-2.5992
X3.7717Y-2.7441
X3.7717Y-2.8819
X3.7764Y-2.5992
X3.811Y-2.7441
X3.811Y-2.8819
X3.8157Y-2.5992
X3.8504Y-2.7441
X3.8504Y-2.8819
X3.8551Y-2.5992
T5
X3.7008Y-1.7323
X3.7008Y-3.9764
X4.5669Y-1.7323
X4.5669Y-3.9764
T4
G00X3.9638Y-1.4656
M15
G01X3.9638Y-1.4341
M16
G05
G00X3.9638Y-1.6368
M15
G01X3.9638Y-1.5935
M16
G05
G00X4.3039Y-1.4656
M15
G01X4.3039Y-1.4341
M16
G05
G00X4.3039Y-1.6368
M15
G01X4.3039Y-1.5935
M16
G05
M30
