%TF.GenerationSoftware,KiCad,Pcbnew,8.0.7-8.0.7-0~ubuntu22.04.1*%
%TF.CreationDate,2024-12-14T16:49:41+01:00*%
%TF.ProjectId,camera_360,63616d65-7261-45f3-9336-302e6b696361,rev?*%
%TF.SameCoordinates,Original*%
%TF.FileFunction,Copper,L2,Bot*%
%TF.FilePolarity,Positive*%
%FSLAX46Y46*%
G04 Gerber Fmt 4.6, Leading zero omitted, Abs format (unit mm)*
G04 Created by KiCad (PCBNEW 8.0.7-8.0.7-0~ubuntu22.04.1) date 2024-12-14 16:49:41*
%MOMM*%
%LPD*%
G01*
G04 APERTURE LIST*
%TA.AperFunction,ComponentPad*%
%ADD10C,5.600000*%
%TD*%
%TA.AperFunction,ComponentPad*%
%ADD11R,0.850000X0.850000*%
%TD*%
%TA.AperFunction,ComponentPad*%
%ADD12O,0.850000X0.850000*%
%TD*%
%TA.AperFunction,ComponentPad*%
%ADD13O,1.000000X2.100000*%
%TD*%
%TA.AperFunction,ComponentPad*%
%ADD14O,1.000000X1.800000*%
%TD*%
%TA.AperFunction,ViaPad*%
%ADD15C,0.550000*%
%TD*%
%TA.AperFunction,ViaPad*%
%ADD16C,0.650000*%
%TD*%
%TA.AperFunction,ViaPad*%
%ADD17C,0.600000*%
%TD*%
%TA.AperFunction,Conductor*%
%ADD18C,0.750000*%
%TD*%
%TA.AperFunction,Conductor*%
%ADD19C,0.254000*%
%TD*%
%TA.AperFunction,Conductor*%
%ADD20C,1.000000*%
%TD*%
G04 APERTURE END LIST*
D10*
%TO.P,H3,1*%
%TO.N,N/C*%
X94000000Y-101000000D03*
%TD*%
%TO.P,H4,1*%
%TO.N,N/C*%
X116000000Y-101000000D03*
%TD*%
D11*
%TO.P,J3,1,Pin_1*%
%TO.N,+5V*%
X97920000Y-66020000D03*
D12*
%TO.P,J3,2,Pin_2*%
%TO.N,/USB_CAM2-*%
X96920000Y-66020000D03*
%TO.P,J3,3,Pin_3*%
%TO.N,/USB_CAM2+*%
X95919999Y-66020000D03*
%TO.P,J3,4,Pin_4*%
%TO.N,GND*%
X94920000Y-66020000D03*
%TO.P,J3,5,Pin_5*%
X93920000Y-66020000D03*
%TD*%
D10*
%TO.P,H1,1*%
%TO.N,N/C*%
X94000000Y-44000000D03*
%TD*%
D13*
%TO.P,J1,S1,SHIELD*%
%TO.N,/SHIELD_USBC*%
X109320000Y-41025000D03*
D14*
X109320000Y-36825000D03*
D13*
X100680000Y-41025000D03*
D14*
X100680000Y-36825000D03*
%TD*%
D11*
%TO.P,J4,1,Pin_1*%
%TO.N,+5V*%
X97800000Y-73200000D03*
D12*
%TO.P,J4,2,Pin_2*%
%TO.N,/USB_CAM3-*%
X96800000Y-73200000D03*
%TO.P,J4,3,Pin_3*%
%TO.N,/USB_CAM3+*%
X95799999Y-73200000D03*
%TO.P,J4,4,Pin_4*%
%TO.N,GND*%
X94800000Y-73200000D03*
%TO.P,J4,5,Pin_5*%
X93800000Y-73200000D03*
%TD*%
D10*
%TO.P,H2,1*%
%TO.N,N/C*%
X116000000Y-44000000D03*
%TD*%
D11*
%TO.P,J2,1,Pin_1*%
%TO.N,+5V*%
X97800000Y-69700000D03*
D12*
%TO.P,J2,2,Pin_2*%
%TO.N,/USB_CAM1-*%
X96800000Y-69700000D03*
%TO.P,J2,3,Pin_3*%
%TO.N,/USB_CAM1+*%
X95799999Y-69700000D03*
%TO.P,J2,4,Pin_4*%
%TO.N,GND*%
X94800000Y-69700000D03*
%TO.P,J2,5,Pin_5*%
X93800000Y-69700000D03*
%TD*%
D15*
%TO.N,+5V*%
X111800000Y-71550000D03*
D16*
X100800000Y-48000000D03*
X100800000Y-48800000D03*
D15*
X111050000Y-72300000D03*
X116200000Y-50500000D03*
X111050000Y-71550000D03*
X115200000Y-50500000D03*
D16*
X99600000Y-48800000D03*
D15*
X117200000Y-50500000D03*
X110300000Y-71560000D03*
D16*
X99600000Y-48000000D03*
D15*
X111800000Y-72300000D03*
X110300000Y-72300000D03*
D16*
%TO.N,GND*%
X112400000Y-52900000D03*
X106290000Y-50860000D03*
X108250000Y-43000000D03*
X98790000Y-100860000D03*
X118790000Y-90860000D03*
D15*
X104449997Y-63200000D03*
D16*
X111290000Y-98360000D03*
D15*
X104300000Y-56300000D03*
D16*
X96290000Y-93360000D03*
X116290000Y-68360000D03*
X96290000Y-38360000D03*
X103790000Y-93360000D03*
X103790000Y-98360000D03*
D15*
X107200000Y-48000000D03*
D16*
X91290000Y-78360000D03*
X118790000Y-48360000D03*
X116290000Y-53360000D03*
X118790000Y-88360000D03*
X111290000Y-95860000D03*
X113790000Y-55860000D03*
X91290000Y-83360000D03*
X93790000Y-83360000D03*
X101290000Y-103360000D03*
X96290000Y-95860000D03*
X108790000Y-103360000D03*
D15*
X97471000Y-68783000D03*
D16*
X103790000Y-95860000D03*
X116290000Y-73360000D03*
X108790000Y-93360000D03*
X103790000Y-100860000D03*
X109600000Y-57400000D03*
X106290000Y-93360000D03*
X108790000Y-100860000D03*
D15*
X102800000Y-52300000D03*
D16*
X118790000Y-85860000D03*
X116290000Y-55860000D03*
X116290000Y-83360000D03*
X101290000Y-55860000D03*
D15*
X104210000Y-50840000D03*
D16*
X111290000Y-103360000D03*
X113790000Y-38360000D03*
X98790000Y-103360000D03*
X106290000Y-95860000D03*
X108790000Y-48360000D03*
X116290000Y-78360000D03*
X98790000Y-95860000D03*
X116290000Y-80860000D03*
X113790000Y-60860000D03*
X116290000Y-95860000D03*
X98790000Y-93360000D03*
X98790000Y-98360000D03*
X118790000Y-93360000D03*
X91290000Y-93360000D03*
X116290000Y-63360000D03*
X106290000Y-103360000D03*
X116290000Y-93360000D03*
D15*
X95500000Y-55300000D03*
D16*
X101290000Y-98360000D03*
X93790000Y-75860000D03*
D15*
X93691574Y-56659141D03*
D16*
X118790000Y-80860000D03*
X118790000Y-40860000D03*
D15*
X96781135Y-60387487D03*
D16*
X116290000Y-60860000D03*
X113790000Y-93360000D03*
X110650000Y-55100000D03*
D15*
X107100000Y-49100000D03*
D16*
X93790000Y-95860000D03*
D15*
X101900000Y-54400000D03*
X106286483Y-43551333D03*
D16*
X118790000Y-78360000D03*
D15*
X93731477Y-61085654D03*
X106500000Y-58200000D03*
D16*
X116290000Y-75860000D03*
X91290000Y-40860000D03*
X113790000Y-53360000D03*
X91290000Y-73360000D03*
X96290000Y-53360000D03*
X118790000Y-75860000D03*
D15*
X101520000Y-50770000D03*
D16*
X113790000Y-70860000D03*
X108790000Y-98360000D03*
X101290000Y-63360000D03*
X113790000Y-73360000D03*
X101290000Y-100860000D03*
X91290000Y-95860000D03*
X101290000Y-93360000D03*
D15*
X96795383Y-62168972D03*
D16*
X116290000Y-58360000D03*
D15*
X94600000Y-59000000D03*
D16*
X108790000Y-95860000D03*
X93790000Y-85860000D03*
X111290000Y-100860000D03*
X91290000Y-80860000D03*
X91290000Y-98360000D03*
X93790000Y-68360000D03*
D15*
X106800000Y-55900000D03*
D16*
X113790000Y-40860000D03*
X91290000Y-88360000D03*
D15*
X98929000Y-68783000D03*
D16*
X118790000Y-83360000D03*
X93790000Y-90860000D03*
D15*
X106800000Y-63200000D03*
D16*
X111290000Y-93360000D03*
X103790000Y-103360000D03*
X93790000Y-78360000D03*
X96290000Y-40860000D03*
X91290000Y-103360000D03*
X91290000Y-90860000D03*
X118790000Y-103360000D03*
X111290000Y-50860000D03*
D15*
X105439798Y-54876700D03*
X98951088Y-67100000D03*
D16*
X93790000Y-80860000D03*
X93790000Y-63360000D03*
X113790000Y-95860000D03*
X106290000Y-100860000D03*
X91290000Y-75860000D03*
X93790000Y-88360000D03*
X113790000Y-63360000D03*
X116290000Y-88360000D03*
X91290000Y-85860000D03*
X116290000Y-85860000D03*
X101800000Y-43000000D03*
X101290000Y-95860000D03*
X116290000Y-90860000D03*
X118790000Y-95860000D03*
X93790000Y-93360000D03*
D15*
X97471000Y-67198000D03*
D16*
X106290000Y-98360000D03*
X118790000Y-70860000D03*
D15*
X103926065Y-43288847D03*
D16*
X118790000Y-73360000D03*
X113790000Y-58360000D03*
X118790000Y-98360000D03*
D15*
%TO.N,/USB_CAM2-*%
X94100000Y-59600000D03*
%TO.N,/USB_CAM2+*%
X94200000Y-60500000D03*
%TO.N,/USB_CAM3-*%
X94800000Y-55700000D03*
%TO.N,/USB_CAM3+*%
X94349998Y-56300002D03*
D17*
%TO.N,/USB_CAM1-*%
X97426979Y-60815872D03*
%TO.N,/USB_CAM1+*%
X96847151Y-61395700D03*
D15*
%TO.N,/USB_UPSTREAM_D-*%
X104700000Y-55000000D03*
X106693934Y-56642465D03*
%TO.N,/USB_UPSTREAM_D+*%
X106701593Y-57346426D03*
X104150266Y-55439787D03*
%TO.N,/VBUS*%
X101500000Y-45600000D03*
X99640000Y-52030000D03*
%TO.N,/USB_PORT1_D-*%
X103249993Y-50899083D03*
X106400000Y-48700000D03*
%TO.N,/USB_PORT1_D+*%
X106400000Y-47949997D03*
X102500001Y-50903015D03*
%TO.N,/USB_PORT2_D-*%
X103339798Y-53223300D03*
X106000000Y-63200000D03*
%TO.N,/USB_PORT2_D+*%
X102600000Y-53100000D03*
X105200000Y-63200000D03*
%TO.N,Net-(J1-D--PadA7)*%
X105852000Y-42940000D03*
X104590000Y-42940000D03*
%TD*%
D18*
%TO.N,+5V*%
X100800000Y-48800000D02*
X100800000Y-48000000D01*
X111800000Y-71550000D02*
X111800000Y-72300000D01*
X99600000Y-48800000D02*
X100400000Y-48000000D01*
X114700000Y-72300000D02*
X110300000Y-72300000D01*
X99600000Y-48800000D02*
X99600000Y-48000000D01*
X110300000Y-71560000D02*
X110300000Y-72300000D01*
X111790000Y-71560000D02*
X111800000Y-71550000D01*
X117600000Y-50500000D02*
X118250000Y-51150000D01*
X99600000Y-48800000D02*
X100100000Y-48800000D01*
X117200000Y-50500000D02*
X115200000Y-50500000D01*
X100800000Y-48000000D02*
X99600000Y-48000000D01*
X100800000Y-48800000D02*
X99600000Y-48800000D01*
X117200000Y-50500000D02*
X117600000Y-50500000D01*
X115100000Y-50500000D02*
X117200000Y-50500000D01*
X118250000Y-68750000D02*
X114700000Y-72300000D01*
X100800000Y-48800000D02*
X100000000Y-48000000D01*
X110300000Y-71560000D02*
X111790000Y-71560000D01*
X103700000Y-45200000D02*
X109800000Y-45200000D01*
X100100000Y-48800000D02*
X103700000Y-45200000D01*
X100400000Y-48000000D02*
X100800000Y-48000000D01*
X118250000Y-51150000D02*
X118250000Y-68750000D01*
X109800000Y-45200000D02*
X115100000Y-50500000D01*
D19*
%TO.N,/USB_CAM2-*%
X95644000Y-63705184D02*
X96920000Y-64981184D01*
X96920000Y-64981184D02*
X96920000Y-66020000D01*
X94400000Y-59900000D02*
X95176815Y-59900000D01*
X95176815Y-59900000D02*
X95644000Y-60367185D01*
X95644000Y-60367185D02*
X95644000Y-63705184D01*
X94100000Y-59600000D02*
X94400000Y-59900000D01*
%TO.N,/USB_CAM2+*%
X94200000Y-60500000D02*
X94419000Y-60281000D01*
X95263000Y-63863000D02*
X96200000Y-64800000D01*
X95263000Y-60525001D02*
X95263000Y-63863000D01*
X96200000Y-64800000D02*
X96200000Y-65739999D01*
X95018999Y-60281000D02*
X95263000Y-60525001D01*
X94419000Y-60281000D02*
X95018999Y-60281000D01*
X96200000Y-65739999D02*
X95919999Y-66020000D01*
%TO.N,/USB_CAM3-*%
X94905998Y-55805998D02*
X94905998Y-56530305D01*
X94800000Y-55700000D02*
X94905998Y-55805998D01*
X94905998Y-56530305D02*
X94900000Y-56536303D01*
X94900000Y-57185170D02*
X92237000Y-59848170D01*
X93519000Y-71719000D02*
X96219000Y-71719000D01*
X94900000Y-56536303D02*
X94900000Y-57185170D01*
X96500000Y-72900000D02*
X96800000Y-73200000D01*
X96800000Y-73200000D02*
X96600000Y-73400000D01*
X92237000Y-70437000D02*
X93519000Y-71719000D01*
X92237000Y-59848170D02*
X92237000Y-70437000D01*
X96219000Y-71719000D02*
X96500000Y-72000000D01*
X96500000Y-72000000D02*
X96500000Y-72900000D01*
%TO.N,/USB_CAM3+*%
X91763000Y-59651830D02*
X91763000Y-70501816D01*
X96100000Y-72899999D02*
X95799999Y-73200000D01*
X94349998Y-56300002D02*
X94400000Y-56350004D01*
X93361184Y-72100000D02*
X96000000Y-72100000D01*
X91763000Y-70501816D02*
X93361184Y-72100000D01*
X96100000Y-72200000D02*
X96100000Y-72899999D01*
X96000000Y-72100000D02*
X96100000Y-72200000D01*
X94400000Y-57014830D02*
X91763000Y-59651830D01*
X94400000Y-56350004D02*
X94400000Y-57014830D01*
%TO.N,/USB_CAM1-*%
X97426979Y-60815872D02*
X97426979Y-61060531D01*
X99419000Y-68181000D02*
X96857816Y-68181000D01*
X99993469Y-67606531D02*
X99419000Y-68181000D01*
X99993469Y-63627021D02*
X99993469Y-67606531D01*
X96500000Y-69400000D02*
X96800000Y-69700000D01*
X96857816Y-68181000D02*
X96500000Y-68538816D01*
X96500000Y-68538816D02*
X96500000Y-69400000D01*
X97426979Y-61060531D02*
X99993469Y-63627021D01*
%TO.N,/USB_CAM1+*%
X96100000Y-68400000D02*
X96100000Y-69399999D01*
X96100000Y-69399999D02*
X95799999Y-69700000D01*
X99261184Y-67800000D02*
X96700000Y-67800000D01*
X97091810Y-61395700D02*
X99600000Y-63903890D01*
X99600000Y-63903890D02*
X99600000Y-67461184D01*
X99600000Y-67461184D02*
X99261184Y-67800000D01*
X96847151Y-61395700D02*
X97091810Y-61395700D01*
X96700000Y-67800000D02*
X96100000Y-68400000D01*
%TO.N,/USB_UPSTREAM_D-*%
X104700000Y-55104618D02*
X106348998Y-56753616D01*
X106582783Y-56753616D02*
X106693934Y-56642465D01*
X104700000Y-55000000D02*
X104700000Y-55104618D01*
X106348998Y-56753616D02*
X106582783Y-56753616D01*
%TO.N,/USB_UPSTREAM_D+*%
X106141313Y-57227616D02*
X106582783Y-57227616D01*
X106582783Y-57227616D02*
X106701593Y-57346426D01*
X104353484Y-55439787D02*
X106141313Y-57227616D01*
X104150266Y-55439787D02*
X104353484Y-55439787D01*
D20*
%TO.N,/SHIELD_USBC*%
X100680000Y-41025000D02*
X100680000Y-36825000D01*
X109320000Y-36825000D02*
X109320000Y-41025000D01*
X100680000Y-36825000D02*
X109320000Y-36825000D01*
D19*
%TO.N,/VBUS*%
X97900000Y-47900000D02*
X97900000Y-50290000D01*
X100200000Y-45600000D02*
X97900000Y-47900000D01*
X101500000Y-45600000D02*
X100200000Y-45600000D01*
X97900000Y-50290000D02*
X99640000Y-52030000D01*
%TO.N,/USB_PORT1_D-*%
X103249993Y-50288823D02*
X103249993Y-50899083D01*
X104976817Y-48561999D02*
X103249993Y-50288823D01*
X106400000Y-48700000D02*
X106261999Y-48561999D01*
X106261999Y-48561999D02*
X104976817Y-48561999D01*
%TO.N,/USB_PORT1_D+*%
X104912001Y-48087999D02*
X102500001Y-50499999D01*
X102500001Y-50499999D02*
X102500001Y-50903015D01*
X106400000Y-47949997D02*
X106261998Y-48087999D01*
X106261998Y-48087999D02*
X104912001Y-48087999D01*
%TO.N,/USB_PORT2_D-*%
X106000000Y-63200000D02*
X105837000Y-63037000D01*
X105837000Y-63037000D02*
X105837000Y-61401830D01*
X105837000Y-61401830D02*
X104500000Y-60064830D01*
X104500000Y-57461184D02*
X102981000Y-55942184D01*
X102981000Y-53582098D02*
X103339798Y-53223300D01*
X104500000Y-60064830D02*
X104500000Y-57461184D01*
X102981000Y-55942184D02*
X102981000Y-53582098D01*
%TO.N,/USB_PORT2_D+*%
X102600000Y-56100000D02*
X102600000Y-53100000D01*
X105200000Y-63200000D02*
X105363000Y-63037000D01*
X104119000Y-57619000D02*
X102600000Y-56100000D01*
X105363000Y-63037000D02*
X105363000Y-61598170D01*
X104119000Y-60354170D02*
X104119000Y-57619000D01*
X105363000Y-61598170D02*
X104119000Y-60354170D01*
%TO.N,Net-(J1-D--PadA7)*%
X105852000Y-42940000D02*
X104590000Y-42940000D01*
%TD*%
%TA.AperFunction,Conductor*%
%TO.N,GND*%
G36*
X109890821Y-34518170D02*
G01*
X119427988Y-40240470D01*
X119439297Y-40247255D01*
X119486656Y-40298626D01*
X119499500Y-40353584D01*
X119499500Y-104375500D01*
X119479815Y-104442539D01*
X119427011Y-104488294D01*
X119375500Y-104499500D01*
X90624500Y-104499500D01*
X90557461Y-104479815D01*
X90511706Y-104427011D01*
X90500500Y-104375500D01*
X90500500Y-100999996D01*
X90994415Y-100999996D01*
X90994415Y-101000003D01*
X91014738Y-101348927D01*
X91014739Y-101348938D01*
X91075428Y-101693127D01*
X91075430Y-101693134D01*
X91175674Y-102027972D01*
X91314107Y-102348895D01*
X91314113Y-102348908D01*
X91488870Y-102651597D01*
X91697584Y-102931949D01*
X91697589Y-102931955D01*
X91821463Y-103063253D01*
X91937442Y-103186183D01*
X92113903Y-103334251D01*
X92205186Y-103410847D01*
X92205194Y-103410853D01*
X92497203Y-103602911D01*
X92497207Y-103602913D01*
X92809549Y-103759777D01*
X93137989Y-103879319D01*
X93478086Y-103959923D01*
X93825241Y-104000500D01*
X93825248Y-104000500D01*
X94174752Y-104000500D01*
X94174759Y-104000500D01*
X94521914Y-103959923D01*
X94862011Y-103879319D01*
X95190451Y-103759777D01*
X95502793Y-103602913D01*
X95794811Y-103410849D01*
X96062558Y-103186183D01*
X96302412Y-102931953D01*
X96511130Y-102651596D01*
X96685889Y-102348904D01*
X96824326Y-102027971D01*
X96924569Y-101693136D01*
X96985262Y-101348927D01*
X97005585Y-101000000D01*
X97005585Y-100999996D01*
X112994415Y-100999996D01*
X112994415Y-101000003D01*
X113014738Y-101348927D01*
X113014739Y-101348938D01*
X113075428Y-101693127D01*
X113075430Y-101693134D01*
X113175674Y-102027972D01*
X113314107Y-102348895D01*
X113314113Y-102348908D01*
X113488870Y-102651597D01*
X113697584Y-102931949D01*
X113697589Y-102931955D01*
X113821463Y-103063253D01*
X113937442Y-103186183D01*
X114113903Y-103334251D01*
X114205186Y-103410847D01*
X114205194Y-103410853D01*
X114497203Y-103602911D01*
X114497207Y-103602913D01*
X114809549Y-103759777D01*
X115137989Y-103879319D01*
X115478086Y-103959923D01*
X115825241Y-104000500D01*
X115825248Y-104000500D01*
X116174752Y-104000500D01*
X116174759Y-104000500D01*
X116521914Y-103959923D01*
X116862011Y-103879319D01*
X117190451Y-103759777D01*
X117502793Y-103602913D01*
X117794811Y-103410849D01*
X118062558Y-103186183D01*
X118302412Y-102931953D01*
X118511130Y-102651596D01*
X118685889Y-102348904D01*
X118824326Y-102027971D01*
X118924569Y-101693136D01*
X118985262Y-101348927D01*
X119005585Y-101000000D01*
X118985262Y-100651073D01*
X118985260Y-100651061D01*
X118924571Y-100306872D01*
X118924569Y-100306865D01*
X118824325Y-99972027D01*
X118685892Y-99651104D01*
X118685889Y-99651096D01*
X118511130Y-99348404D01*
X118511129Y-99348402D01*
X118302415Y-99068050D01*
X118302410Y-99068044D01*
X118186433Y-98945117D01*
X118062558Y-98813817D01*
X117914488Y-98689572D01*
X117794813Y-98589152D01*
X117794805Y-98589146D01*
X117502796Y-98397088D01*
X117190458Y-98240226D01*
X117190452Y-98240223D01*
X116862012Y-98120681D01*
X116862009Y-98120680D01*
X116521915Y-98040077D01*
X116478519Y-98035004D01*
X116174759Y-97999500D01*
X115825241Y-97999500D01*
X115521480Y-98035004D01*
X115478085Y-98040077D01*
X115478083Y-98040077D01*
X115137990Y-98120680D01*
X115137987Y-98120681D01*
X114809547Y-98240223D01*
X114809541Y-98240226D01*
X114497203Y-98397088D01*
X114205194Y-98589146D01*
X114205186Y-98589152D01*
X113937442Y-98813817D01*
X113937440Y-98813819D01*
X113697589Y-99068044D01*
X113697584Y-99068050D01*
X113488870Y-99348402D01*
X113314113Y-99651091D01*
X113314107Y-99651104D01*
X113175674Y-99972027D01*
X113075430Y-100306865D01*
X113075428Y-100306872D01*
X113014739Y-100651061D01*
X113014738Y-100651072D01*
X112994415Y-100999996D01*
X97005585Y-100999996D01*
X96985262Y-100651073D01*
X96985260Y-100651061D01*
X96924571Y-100306872D01*
X96924569Y-100306865D01*
X96824325Y-99972027D01*
X96685892Y-99651104D01*
X96685889Y-99651096D01*
X96511130Y-99348404D01*
X96511129Y-99348402D01*
X96302415Y-99068050D01*
X96302410Y-99068044D01*
X96186433Y-98945117D01*
X96062558Y-98813817D01*
X95914488Y-98689572D01*
X95794813Y-98589152D01*
X95794805Y-98589146D01*
X95502796Y-98397088D01*
X95190458Y-98240226D01*
X95190452Y-98240223D01*
X94862012Y-98120681D01*
X94862009Y-98120680D01*
X94521915Y-98040077D01*
X94478519Y-98035004D01*
X94174759Y-97999500D01*
X93825241Y-97999500D01*
X93521480Y-98035004D01*
X93478085Y-98040077D01*
X93478083Y-98040077D01*
X93137990Y-98120680D01*
X93137987Y-98120681D01*
X92809547Y-98240223D01*
X92809541Y-98240226D01*
X92497203Y-98397088D01*
X92205194Y-98589146D01*
X92205186Y-98589152D01*
X91937442Y-98813817D01*
X91937440Y-98813819D01*
X91697589Y-99068044D01*
X91697584Y-99068050D01*
X91488870Y-99348402D01*
X91314113Y-99651091D01*
X91314107Y-99651104D01*
X91175674Y-99972027D01*
X91075430Y-100306865D01*
X91075428Y-100306872D01*
X91014739Y-100651061D01*
X91014738Y-100651072D01*
X90994415Y-100999996D01*
X90500500Y-100999996D01*
X90500500Y-74934108D01*
X95499500Y-74934108D01*
X95499500Y-90065891D01*
X95533608Y-90193187D01*
X95566554Y-90250250D01*
X95599500Y-90307314D01*
X95692686Y-90400500D01*
X95806814Y-90466392D01*
X95934108Y-90500500D01*
X95934110Y-90500500D01*
X114065890Y-90500500D01*
X114065892Y-90500500D01*
X114193186Y-90466392D01*
X114307314Y-90400500D01*
X114400500Y-90307314D01*
X114466392Y-90193186D01*
X114500500Y-90065892D01*
X114500500Y-74934108D01*
X114466392Y-74806814D01*
X114400500Y-74692686D01*
X114307314Y-74599500D01*
X114250250Y-74566554D01*
X114193187Y-74533608D01*
X114129539Y-74516554D01*
X114065892Y-74499500D01*
X96065892Y-74499500D01*
X95934108Y-74499500D01*
X95806812Y-74533608D01*
X95692686Y-74599500D01*
X95692683Y-74599502D01*
X95599502Y-74692683D01*
X95599500Y-74692686D01*
X95533608Y-74806812D01*
X95499500Y-74934108D01*
X90500500Y-74934108D01*
X90500500Y-59608714D01*
X91435500Y-59608714D01*
X91435500Y-70458700D01*
X91435500Y-70544932D01*
X91457819Y-70628226D01*
X91500935Y-70702906D01*
X93160094Y-72362065D01*
X93234773Y-72405181D01*
X93318068Y-72427500D01*
X93404299Y-72427500D01*
X95422825Y-72427500D01*
X95489864Y-72447185D01*
X95535619Y-72499989D01*
X95545563Y-72569147D01*
X95516538Y-72632703D01*
X95480452Y-72661295D01*
X95442065Y-72681443D01*
X95328366Y-72782171D01*
X95242079Y-72907179D01*
X95242078Y-72907180D01*
X95242078Y-72907181D01*
X95188214Y-73049209D01*
X95169905Y-73200000D01*
X95188214Y-73350791D01*
X95242078Y-73492819D01*
X95328367Y-73617830D01*
X95442065Y-73718557D01*
X95576565Y-73789148D01*
X95650307Y-73807324D01*
X95724049Y-73825500D01*
X95724050Y-73825500D01*
X95875949Y-73825500D01*
X95925109Y-73813382D01*
X96023433Y-73789148D01*
X96157933Y-73718557D01*
X96217774Y-73665542D01*
X96281004Y-73635823D01*
X96350268Y-73645005D01*
X96382226Y-73665544D01*
X96442064Y-73718556D01*
X96442066Y-73718557D01*
X96576566Y-73789148D01*
X96650308Y-73807324D01*
X96724050Y-73825500D01*
X96724051Y-73825500D01*
X96875950Y-73825500D01*
X96912820Y-73816412D01*
X97023434Y-73789148D01*
X97091258Y-73753551D01*
X97159763Y-73739826D01*
X97219880Y-73763384D01*
X97220293Y-73762767D01*
X97223110Y-73764649D01*
X97224816Y-73765318D01*
X97227029Y-73767268D01*
X97296769Y-73813867D01*
X97296770Y-73813868D01*
X97355247Y-73825499D01*
X97355250Y-73825500D01*
X97355252Y-73825500D01*
X98244750Y-73825500D01*
X98244751Y-73825499D01*
X98259568Y-73822552D01*
X98303229Y-73813868D01*
X98303229Y-73813867D01*
X98303231Y-73813867D01*
X98369552Y-73769552D01*
X98413867Y-73703231D01*
X98413867Y-73703229D01*
X98413868Y-73703229D01*
X98425499Y-73644752D01*
X98425500Y-73644750D01*
X98425500Y-72755249D01*
X98425499Y-72755247D01*
X98413868Y-72696770D01*
X98413867Y-72696769D01*
X98369552Y-72630447D01*
X98303230Y-72586132D01*
X98303229Y-72586131D01*
X98244752Y-72574500D01*
X98244748Y-72574500D01*
X97355252Y-72574500D01*
X97355247Y-72574500D01*
X97296770Y-72586131D01*
X97296769Y-72586132D01*
X97220293Y-72637233D01*
X97218328Y-72634292D01*
X97175215Y-72657822D01*
X97105524Y-72652824D01*
X97091259Y-72646449D01*
X97023434Y-72610852D01*
X97023433Y-72610851D01*
X97023432Y-72610851D01*
X96921824Y-72585807D01*
X96861444Y-72550650D01*
X96829656Y-72488431D01*
X96827500Y-72465410D01*
X96827500Y-71956885D01*
X96827500Y-71956884D01*
X96805181Y-71873590D01*
X96762065Y-71798910D01*
X96701090Y-71737935D01*
X96420090Y-71456935D01*
X96345410Y-71413819D01*
X96345411Y-71413819D01*
X96317645Y-71406379D01*
X96262116Y-71391500D01*
X96262114Y-71391500D01*
X93706017Y-71391500D01*
X93638978Y-71371815D01*
X93618336Y-71355181D01*
X92600819Y-70337664D01*
X92567334Y-70276341D01*
X92564500Y-70249983D01*
X92564500Y-69700000D01*
X95169905Y-69700000D01*
X95188214Y-69850791D01*
X95242078Y-69992819D01*
X95328367Y-70117830D01*
X95442065Y-70218557D01*
X95576565Y-70289148D01*
X95626050Y-70301345D01*
X95724049Y-70325500D01*
X95724050Y-70325500D01*
X95875949Y-70325500D01*
X95925109Y-70313382D01*
X96023433Y-70289148D01*
X96157933Y-70218557D01*
X96217774Y-70165542D01*
X96281004Y-70135823D01*
X96350268Y-70145005D01*
X96382226Y-70165544D01*
X96442064Y-70218556D01*
X96442066Y-70218557D01*
X96576566Y-70289148D01*
X96626051Y-70301345D01*
X96724050Y-70325500D01*
X96724051Y-70325500D01*
X96875950Y-70325500D01*
X96912820Y-70316412D01*
X97023434Y-70289148D01*
X97091258Y-70253551D01*
X97159763Y-70239826D01*
X97219880Y-70263384D01*
X97220293Y-70262767D01*
X97223110Y-70264649D01*
X97224816Y-70265318D01*
X97227029Y-70267268D01*
X97296769Y-70313867D01*
X97296770Y-70313868D01*
X97355247Y-70325499D01*
X97355250Y-70325500D01*
X97355252Y-70325500D01*
X98244750Y-70325500D01*
X98244751Y-70325499D01*
X98259568Y-70322552D01*
X98303229Y-70313868D01*
X98303229Y-70313867D01*
X98303231Y-70313867D01*
X98369552Y-70269552D01*
X98413867Y-70203231D01*
X98413867Y-70203229D01*
X98413868Y-70203229D01*
X98425499Y-70144752D01*
X98425500Y-70144750D01*
X98425500Y-69255249D01*
X98425499Y-69255247D01*
X98413868Y-69196770D01*
X98413867Y-69196769D01*
X98369552Y-69130447D01*
X98303230Y-69086132D01*
X98303229Y-69086131D01*
X98244752Y-69074500D01*
X98244748Y-69074500D01*
X97355252Y-69074500D01*
X97355247Y-69074500D01*
X97296770Y-69086131D01*
X97296769Y-69086132D01*
X97220293Y-69137233D01*
X97218328Y-69134292D01*
X97175215Y-69157822D01*
X97105524Y-69152824D01*
X97091259Y-69146449D01*
X97023434Y-69110852D01*
X97023433Y-69110851D01*
X97023432Y-69110851D01*
X96921824Y-69085807D01*
X96861444Y-69050650D01*
X96829656Y-68988431D01*
X96827500Y-68965410D01*
X96827500Y-68725833D01*
X96847185Y-68658794D01*
X96863819Y-68638152D01*
X96957152Y-68544819D01*
X97018475Y-68511334D01*
X97044833Y-68508500D01*
X99462114Y-68508500D01*
X99462116Y-68508500D01*
X99545410Y-68486181D01*
X99620090Y-68443065D01*
X100255534Y-67807621D01*
X100298650Y-67732941D01*
X100320969Y-67649647D01*
X100320969Y-67563415D01*
X100320969Y-63583905D01*
X100298650Y-63500611D01*
X100255534Y-63425931D01*
X100194559Y-63364956D01*
X97934080Y-61104477D01*
X97900595Y-61043154D01*
X97905579Y-60973462D01*
X97908963Y-60965292D01*
X97912144Y-60958329D01*
X97932626Y-60815872D01*
X97912144Y-60673415D01*
X97852356Y-60542499D01*
X97758107Y-60433729D01*
X97637032Y-60355919D01*
X97637030Y-60355918D01*
X97637028Y-60355917D01*
X97637029Y-60355917D01*
X97498942Y-60315372D01*
X97498940Y-60315372D01*
X97355018Y-60315372D01*
X97355015Y-60315372D01*
X97216928Y-60355917D01*
X97095852Y-60433728D01*
X97001602Y-60542498D01*
X97001601Y-60542500D01*
X96941813Y-60673415D01*
X96925218Y-60788846D01*
X96896193Y-60852402D01*
X96837415Y-60890177D01*
X96802480Y-60895200D01*
X96775187Y-60895200D01*
X96637100Y-60935745D01*
X96516024Y-61013556D01*
X96421774Y-61122326D01*
X96421773Y-61122328D01*
X96361985Y-61253243D01*
X96341504Y-61395700D01*
X96361985Y-61538156D01*
X96421773Y-61669071D01*
X96421774Y-61669073D01*
X96516023Y-61777843D01*
X96637098Y-61855653D01*
X96637101Y-61855654D01*
X96637100Y-61855654D01*
X96775187Y-61896199D01*
X96775189Y-61896200D01*
X96775190Y-61896200D01*
X96919112Y-61896200D01*
X97010890Y-61869252D01*
X97080756Y-61869252D01*
X97133503Y-61900548D01*
X99236181Y-64003226D01*
X99269666Y-64064549D01*
X99272500Y-64090907D01*
X99272500Y-67274167D01*
X99252815Y-67341206D01*
X99236181Y-67361848D01*
X99161848Y-67436181D01*
X99100525Y-67469666D01*
X99074167Y-67472500D01*
X96743116Y-67472500D01*
X96656884Y-67472500D01*
X96601354Y-67487379D01*
X96573589Y-67494819D01*
X96498911Y-67537934D01*
X96498908Y-67537936D01*
X95837936Y-68198908D01*
X95837934Y-68198911D01*
X95794819Y-68273589D01*
X95772500Y-68356885D01*
X95772500Y-68965410D01*
X95752815Y-69032449D01*
X95700011Y-69078204D01*
X95678175Y-69085807D01*
X95576567Y-69110851D01*
X95442066Y-69181442D01*
X95328366Y-69282171D01*
X95242079Y-69407179D01*
X95242078Y-69407180D01*
X95242078Y-69407181D01*
X95188214Y-69549209D01*
X95169905Y-69700000D01*
X92564500Y-69700000D01*
X92564500Y-60035187D01*
X92584185Y-59968148D01*
X92600819Y-59947506D01*
X92948325Y-59600000D01*
X93619610Y-59600000D01*
X93639068Y-59735337D01*
X93639070Y-59735345D01*
X93695867Y-59859714D01*
X93695872Y-59859721D01*
X93785409Y-59963053D01*
X93785413Y-59963057D01*
X93826036Y-59989163D01*
X93871792Y-60041966D01*
X93881736Y-60111125D01*
X93852712Y-60174680D01*
X93795872Y-60240277D01*
X93795867Y-60240285D01*
X93739070Y-60364654D01*
X93739068Y-60364662D01*
X93719610Y-60500000D01*
X93739068Y-60635337D01*
X93739070Y-60635345D01*
X93795867Y-60759714D01*
X93795872Y-60759721D01*
X93885409Y-60863053D01*
X93885413Y-60863057D01*
X93927614Y-60890177D01*
X94000439Y-60936978D01*
X94066036Y-60956239D01*
X94131632Y-60975500D01*
X94131633Y-60975500D01*
X94268367Y-60975500D01*
X94399561Y-60936978D01*
X94514589Y-60863055D01*
X94604130Y-60759718D01*
X94640085Y-60680987D01*
X94685840Y-60628184D01*
X94752879Y-60608500D01*
X94811500Y-60608500D01*
X94878539Y-60628185D01*
X94924294Y-60680989D01*
X94935500Y-60732500D01*
X94935500Y-63819884D01*
X94935500Y-63906116D01*
X94957819Y-63989410D01*
X95000934Y-64064088D01*
X95000936Y-64064091D01*
X95836181Y-64899336D01*
X95869666Y-64960659D01*
X95872500Y-64987017D01*
X95872500Y-65290339D01*
X95852815Y-65357378D01*
X95800011Y-65403133D01*
X95778176Y-65410736D01*
X95696566Y-65430851D01*
X95562066Y-65501442D01*
X95448366Y-65602171D01*
X95362079Y-65727179D01*
X95362078Y-65727180D01*
X95362078Y-65727181D01*
X95308214Y-65869209D01*
X95289905Y-66020000D01*
X95308214Y-66170791D01*
X95362078Y-66312819D01*
X95448367Y-66437830D01*
X95562065Y-66538557D01*
X95696565Y-66609148D01*
X95770307Y-66627324D01*
X95844049Y-66645500D01*
X95844050Y-66645500D01*
X95995949Y-66645500D01*
X96045109Y-66633382D01*
X96143433Y-66609148D01*
X96277933Y-66538557D01*
X96337774Y-66485542D01*
X96401004Y-66455823D01*
X96470268Y-66465005D01*
X96502226Y-66485544D01*
X96562064Y-66538556D01*
X96562066Y-66538557D01*
X96696566Y-66609148D01*
X96770308Y-66627324D01*
X96844050Y-66645500D01*
X96844051Y-66645500D01*
X96995950Y-66645500D01*
X97032820Y-66636412D01*
X97143434Y-66609148D01*
X97211258Y-66573551D01*
X97279763Y-66559826D01*
X97339880Y-66583384D01*
X97340293Y-66582767D01*
X97343110Y-66584649D01*
X97344816Y-66585318D01*
X97347029Y-66587268D01*
X97416769Y-66633867D01*
X97416770Y-66633868D01*
X97475247Y-66645499D01*
X97475250Y-66645500D01*
X97475252Y-66645500D01*
X98364750Y-66645500D01*
X98364751Y-66645499D01*
X98379568Y-66642552D01*
X98423229Y-66633868D01*
X98423229Y-66633867D01*
X98423231Y-66633867D01*
X98489552Y-66589552D01*
X98533867Y-66523231D01*
X98533867Y-66523229D01*
X98533868Y-66523229D01*
X98545499Y-66464752D01*
X98545500Y-66464750D01*
X98545500Y-65575249D01*
X98545499Y-65575247D01*
X98533868Y-65516770D01*
X98533867Y-65516769D01*
X98489552Y-65450447D01*
X98423230Y-65406132D01*
X98423229Y-65406131D01*
X98364752Y-65394500D01*
X98364748Y-65394500D01*
X97475252Y-65394500D01*
X97475247Y-65394500D01*
X97404790Y-65408515D01*
X97404446Y-65406787D01*
X97349484Y-65412697D01*
X97287005Y-65381422D01*
X97251352Y-65321334D01*
X97247500Y-65290667D01*
X97247500Y-64938069D01*
X97246853Y-64935655D01*
X97225181Y-64854774D01*
X97182065Y-64780094D01*
X97121090Y-64719119D01*
X96007819Y-63605848D01*
X95974334Y-63544525D01*
X95971500Y-63518167D01*
X95971500Y-60324070D01*
X95971500Y-60324069D01*
X95949181Y-60240775D01*
X95906065Y-60166095D01*
X95845090Y-60105120D01*
X95377905Y-59637935D01*
X95303225Y-59594819D01*
X95303226Y-59594819D01*
X95275460Y-59587379D01*
X95219931Y-59572500D01*
X95219929Y-59572500D01*
X94683883Y-59572500D01*
X94616844Y-59552815D01*
X94571089Y-59500011D01*
X94561145Y-59466145D01*
X94561018Y-59465269D01*
X94560931Y-59464658D01*
X94560929Y-59464654D01*
X94504130Y-59340283D01*
X94504130Y-59340282D01*
X94414589Y-59236945D01*
X94414586Y-59236942D01*
X94299559Y-59163021D01*
X94168368Y-59124500D01*
X94168367Y-59124500D01*
X94031633Y-59124500D01*
X94031632Y-59124500D01*
X93900440Y-59163021D01*
X93785413Y-59236942D01*
X93785409Y-59236946D01*
X93695872Y-59340278D01*
X93695867Y-59340285D01*
X93639070Y-59464654D01*
X93639068Y-59464662D01*
X93619610Y-59600000D01*
X92948325Y-59600000D01*
X93423825Y-59124500D01*
X95162065Y-57386260D01*
X95205181Y-57311580D01*
X95227500Y-57228286D01*
X95227500Y-57142054D01*
X95227500Y-56612131D01*
X95231725Y-56580039D01*
X95233497Y-56573423D01*
X95233498Y-56573420D01*
X95233498Y-55922385D01*
X95244704Y-55870873D01*
X95260931Y-55835341D01*
X95280390Y-55700000D01*
X95260931Y-55564658D01*
X95248677Y-55537827D01*
X95204132Y-55440285D01*
X95204127Y-55440278D01*
X95114590Y-55336946D01*
X95114586Y-55336942D01*
X94999559Y-55263021D01*
X94868368Y-55224500D01*
X94868367Y-55224500D01*
X94731633Y-55224500D01*
X94731632Y-55224500D01*
X94600440Y-55263021D01*
X94485413Y-55336942D01*
X94485409Y-55336946D01*
X94395872Y-55440278D01*
X94395867Y-55440285D01*
X94339070Y-55564654D01*
X94339068Y-55564662D01*
X94319610Y-55699999D01*
X94319956Y-55702405D01*
X94319610Y-55704811D01*
X94319610Y-55708868D01*
X94319027Y-55708868D01*
X94310012Y-55771564D01*
X94264257Y-55824368D01*
X94232154Y-55839029D01*
X94150438Y-55863023D01*
X94035411Y-55936944D01*
X94035407Y-55936948D01*
X93945870Y-56040280D01*
X93945865Y-56040287D01*
X93889068Y-56164656D01*
X93889066Y-56164664D01*
X93869608Y-56300002D01*
X93889066Y-56435339D01*
X93889068Y-56435347D01*
X93945865Y-56559716D01*
X93945870Y-56559723D01*
X94041217Y-56669760D01*
X94038629Y-56672002D01*
X94067476Y-56716888D01*
X94072500Y-56751825D01*
X94072500Y-56827813D01*
X94052815Y-56894852D01*
X94036181Y-56915494D01*
X91500936Y-59450738D01*
X91500934Y-59450741D01*
X91457819Y-59525419D01*
X91457819Y-59525420D01*
X91435500Y-59608714D01*
X90500500Y-59608714D01*
X90500500Y-53100000D01*
X102119610Y-53100000D01*
X102139068Y-53235337D01*
X102139070Y-53235345D01*
X102195867Y-53359714D01*
X102195869Y-53359716D01*
X102195870Y-53359718D01*
X102242213Y-53413201D01*
X102271238Y-53476755D01*
X102272500Y-53494403D01*
X102272500Y-56056884D01*
X102272500Y-56143116D01*
X102294819Y-56226410D01*
X102325416Y-56279407D01*
X102337934Y-56301088D01*
X102337936Y-56301091D01*
X103755181Y-57718336D01*
X103788666Y-57779659D01*
X103791500Y-57806017D01*
X103791500Y-60311054D01*
X103791500Y-60397286D01*
X103801265Y-60433728D01*
X103813819Y-60480580D01*
X103856934Y-60555258D01*
X103856936Y-60555261D01*
X104999181Y-61697506D01*
X105032666Y-61758829D01*
X105035500Y-61785187D01*
X105035500Y-62672780D01*
X105015815Y-62739819D01*
X104978539Y-62777096D01*
X104885411Y-62836945D01*
X104885409Y-62836946D01*
X104795872Y-62940278D01*
X104795867Y-62940285D01*
X104739070Y-63064654D01*
X104739068Y-63064662D01*
X104719610Y-63200000D01*
X104739068Y-63335337D01*
X104739070Y-63335345D01*
X104795867Y-63459714D01*
X104795872Y-63459721D01*
X104885409Y-63563053D01*
X104885413Y-63563057D01*
X104917856Y-63583906D01*
X105000439Y-63636978D01*
X105066036Y-63656239D01*
X105131632Y-63675500D01*
X105131633Y-63675500D01*
X105268367Y-63675500D01*
X105399561Y-63636978D01*
X105514589Y-63563055D01*
X105514596Y-63563046D01*
X105518794Y-63559410D01*
X105582349Y-63530384D01*
X105651508Y-63540325D01*
X105681206Y-63559410D01*
X105685406Y-63563050D01*
X105685411Y-63563055D01*
X105800439Y-63636978D01*
X105866036Y-63656239D01*
X105931632Y-63675500D01*
X105931633Y-63675500D01*
X106068367Y-63675500D01*
X106199561Y-63636978D01*
X106314589Y-63563055D01*
X106404130Y-63459718D01*
X106460931Y-63335342D01*
X106480390Y-63200000D01*
X106460931Y-63064658D01*
X106448677Y-63037827D01*
X106404132Y-62940285D01*
X106404127Y-62940278D01*
X106314590Y-62836946D01*
X106314589Y-62836945D01*
X106221461Y-62777096D01*
X106175706Y-62724292D01*
X106164500Y-62672780D01*
X106164500Y-61358715D01*
X106164500Y-61358714D01*
X106142181Y-61275420D01*
X106099065Y-61200740D01*
X106038090Y-61139765D01*
X104863819Y-59965494D01*
X104830334Y-59904171D01*
X104827500Y-59877813D01*
X104827500Y-57418069D01*
X104818977Y-57386261D01*
X104805181Y-57334774D01*
X104762065Y-57260094D01*
X104701090Y-57199119D01*
X103344819Y-55842848D01*
X103311334Y-55781525D01*
X103308500Y-55755167D01*
X103308500Y-55439787D01*
X103669876Y-55439787D01*
X103689334Y-55575124D01*
X103689336Y-55575132D01*
X103746133Y-55699501D01*
X103746138Y-55699508D01*
X103835675Y-55802840D01*
X103835679Y-55802844D01*
X103891986Y-55839029D01*
X103950705Y-55876765D01*
X104014208Y-55895411D01*
X104081898Y-55915287D01*
X104081899Y-55915287D01*
X104218632Y-55915287D01*
X104218633Y-55915287D01*
X104261826Y-55902603D01*
X104331694Y-55902603D01*
X104384442Y-55933900D01*
X105940223Y-57489681D01*
X106014903Y-57532797D01*
X106098197Y-57555116D01*
X106184429Y-57555116D01*
X106196960Y-57555116D01*
X106263999Y-57574801D01*
X106290040Y-57600841D01*
X106291655Y-57599442D01*
X106387002Y-57709479D01*
X106387006Y-57709483D01*
X106447572Y-57748405D01*
X106502032Y-57783404D01*
X106567629Y-57802665D01*
X106633225Y-57821926D01*
X106633226Y-57821926D01*
X106769960Y-57821926D01*
X106901154Y-57783404D01*
X107016182Y-57709481D01*
X107105723Y-57606144D01*
X107162524Y-57481768D01*
X107181983Y-57346426D01*
X107162524Y-57211084D01*
X107130999Y-57142054D01*
X107105725Y-57086711D01*
X107105720Y-57086703D01*
X107092309Y-57071226D01*
X107063285Y-57007670D01*
X107073230Y-56938512D01*
X107092308Y-56908825D01*
X107098064Y-56902183D01*
X107154865Y-56777807D01*
X107174324Y-56642465D01*
X107154865Y-56507123D01*
X107122086Y-56435347D01*
X107098066Y-56382750D01*
X107098061Y-56382743D01*
X107008524Y-56279411D01*
X107008520Y-56279407D01*
X106893493Y-56205486D01*
X106762302Y-56166965D01*
X106762301Y-56166965D01*
X106625567Y-56166965D01*
X106625566Y-56166965D01*
X106494375Y-56205485D01*
X106438203Y-56241584D01*
X106371163Y-56261267D01*
X106304124Y-56241581D01*
X106283485Y-56224948D01*
X105208962Y-55150425D01*
X105175477Y-55089102D01*
X105173905Y-55045100D01*
X105180390Y-55000000D01*
X105160931Y-54864658D01*
X105148677Y-54837827D01*
X105104132Y-54740285D01*
X105104127Y-54740278D01*
X105014590Y-54636946D01*
X105014586Y-54636942D01*
X104899559Y-54563021D01*
X104768368Y-54524500D01*
X104768367Y-54524500D01*
X104631633Y-54524500D01*
X104631632Y-54524500D01*
X104500440Y-54563021D01*
X104385413Y-54636942D01*
X104385409Y-54636946D01*
X104295872Y-54740278D01*
X104295867Y-54740285D01*
X104239069Y-54864658D01*
X104236568Y-54873174D01*
X104233485Y-54872268D01*
X104211029Y-54921469D01*
X104152259Y-54959256D01*
X104117298Y-54964287D01*
X104081898Y-54964287D01*
X103950706Y-55002808D01*
X103835679Y-55076729D01*
X103835675Y-55076733D01*
X103746138Y-55180065D01*
X103746133Y-55180072D01*
X103689336Y-55304441D01*
X103689334Y-55304449D01*
X103669876Y-55439787D01*
X103308500Y-55439787D01*
X103308500Y-53820576D01*
X103328185Y-53753537D01*
X103380989Y-53707782D01*
X103399926Y-53702223D01*
X103399655Y-53701299D01*
X103440275Y-53689371D01*
X103539359Y-53660278D01*
X103654387Y-53586355D01*
X103743928Y-53483018D01*
X103800729Y-53358642D01*
X103820188Y-53223300D01*
X103800729Y-53087958D01*
X103788475Y-53061127D01*
X103743930Y-52963585D01*
X103743925Y-52963578D01*
X103654388Y-52860246D01*
X103654384Y-52860242D01*
X103539357Y-52786321D01*
X103408166Y-52747800D01*
X103408165Y-52747800D01*
X103271431Y-52747800D01*
X103271430Y-52747800D01*
X103140239Y-52786320D01*
X103113167Y-52803718D01*
X103046126Y-52823400D01*
X102979088Y-52803713D01*
X102952418Y-52780603D01*
X102914589Y-52736945D01*
X102914586Y-52736943D01*
X102914586Y-52736942D01*
X102799559Y-52663021D01*
X102668368Y-52624500D01*
X102668367Y-52624500D01*
X102531633Y-52624500D01*
X102531632Y-52624500D01*
X102400440Y-52663021D01*
X102285413Y-52736942D01*
X102285409Y-52736946D01*
X102195872Y-52840278D01*
X102195867Y-52840285D01*
X102139070Y-52964654D01*
X102139068Y-52964662D01*
X102119610Y-53100000D01*
X90500500Y-53100000D01*
X90500500Y-47856884D01*
X97572500Y-47856884D01*
X97572500Y-50246884D01*
X97572500Y-50333116D01*
X97583345Y-50373588D01*
X97594819Y-50416410D01*
X97637934Y-50491088D01*
X97637936Y-50491091D01*
X99127532Y-51980687D01*
X99161017Y-52042010D01*
X99162589Y-52050721D01*
X99179068Y-52165337D01*
X99179070Y-52165345D01*
X99235867Y-52289714D01*
X99235872Y-52289721D01*
X99325409Y-52393053D01*
X99325413Y-52393057D01*
X99385979Y-52431979D01*
X99440439Y-52466978D01*
X99506036Y-52486239D01*
X99571632Y-52505500D01*
X99571633Y-52505500D01*
X99708367Y-52505500D01*
X99839561Y-52466978D01*
X99954589Y-52393055D01*
X100044130Y-52289718D01*
X100100931Y-52165342D01*
X100120390Y-52030000D01*
X100100931Y-51894658D01*
X100088677Y-51867827D01*
X100044132Y-51770285D01*
X100044127Y-51770278D01*
X99954590Y-51666946D01*
X99954586Y-51666942D01*
X99839559Y-51593021D01*
X99708368Y-51554500D01*
X99708367Y-51554500D01*
X99679017Y-51554500D01*
X99611978Y-51534815D01*
X99591336Y-51518181D01*
X98976170Y-50903015D01*
X102019611Y-50903015D01*
X102039069Y-51038352D01*
X102039071Y-51038360D01*
X102095868Y-51162729D01*
X102095873Y-51162736D01*
X102185410Y-51266068D01*
X102185414Y-51266072D01*
X102245980Y-51304994D01*
X102300440Y-51339993D01*
X102341540Y-51352061D01*
X102431633Y-51378515D01*
X102431634Y-51378515D01*
X102568368Y-51378515D01*
X102699562Y-51339993D01*
X102811020Y-51268363D01*
X102878056Y-51248681D01*
X102945092Y-51268364D01*
X103050432Y-51336061D01*
X103050434Y-51336061D01*
X103050435Y-51336062D01*
X103181625Y-51374583D01*
X103181626Y-51374583D01*
X103318360Y-51374583D01*
X103449554Y-51336061D01*
X103564582Y-51262138D01*
X103654123Y-51158801D01*
X103710924Y-51034425D01*
X103730383Y-50899083D01*
X103710924Y-50763741D01*
X103677012Y-50689485D01*
X103654125Y-50639368D01*
X103654122Y-50639364D01*
X103607779Y-50585880D01*
X103578755Y-50522323D01*
X103577493Y-50504678D01*
X103577493Y-50475840D01*
X103597178Y-50408801D01*
X103613812Y-50388159D01*
X105076153Y-48925818D01*
X105137476Y-48892333D01*
X105163834Y-48889499D01*
X105884112Y-48889499D01*
X105951151Y-48909184D01*
X105989406Y-48953331D01*
X105991076Y-48952258D01*
X105995872Y-48959721D01*
X106085409Y-49063053D01*
X106085413Y-49063057D01*
X106145979Y-49101979D01*
X106200439Y-49136978D01*
X106256245Y-49153364D01*
X106331632Y-49175500D01*
X106331633Y-49175500D01*
X106468367Y-49175500D01*
X106599561Y-49136978D01*
X106714589Y-49063055D01*
X106804130Y-48959718D01*
X106860931Y-48835342D01*
X106880390Y-48700000D01*
X106860931Y-48564658D01*
X106848677Y-48537827D01*
X106804132Y-48440285D01*
X106804130Y-48440283D01*
X106804130Y-48440282D01*
X106774597Y-48406199D01*
X106745574Y-48342644D01*
X106755518Y-48273486D01*
X106774596Y-48243798D01*
X106804130Y-48209715D01*
X106860931Y-48085339D01*
X106880390Y-47949997D01*
X106860931Y-47814655D01*
X106846391Y-47782818D01*
X106804132Y-47690282D01*
X106804127Y-47690275D01*
X106714590Y-47586943D01*
X106714586Y-47586939D01*
X106599559Y-47513018D01*
X106468368Y-47474497D01*
X106468367Y-47474497D01*
X106331633Y-47474497D01*
X106331632Y-47474497D01*
X106200440Y-47513018D01*
X106085413Y-47586939D01*
X106085409Y-47586943D01*
X105995872Y-47690275D01*
X105991076Y-47697739D01*
X105989405Y-47696665D01*
X105951156Y-47740811D01*
X105884118Y-47760499D01*
X104955117Y-47760499D01*
X104868885Y-47760499D01*
X104820030Y-47773590D01*
X104785590Y-47782818D01*
X104710912Y-47825933D01*
X104710909Y-47825935D01*
X102237937Y-50298907D01*
X102237935Y-50298910D01*
X102194820Y-50373588D01*
X102172501Y-50456884D01*
X102172501Y-50508610D01*
X102152816Y-50575649D01*
X102142215Y-50589812D01*
X102095871Y-50643296D01*
X102095868Y-50643300D01*
X102039071Y-50767669D01*
X102039069Y-50767677D01*
X102019611Y-50903015D01*
X98976170Y-50903015D01*
X98263819Y-50190664D01*
X98230334Y-50129341D01*
X98227500Y-50102983D01*
X98227500Y-48087017D01*
X98247185Y-48019978D01*
X98263819Y-47999336D01*
X100299336Y-45963819D01*
X100360659Y-45930334D01*
X100387017Y-45927500D01*
X101098128Y-45927500D01*
X101165167Y-45947185D01*
X101179329Y-45957785D01*
X101185413Y-45963057D01*
X101243486Y-46000377D01*
X101300439Y-46036978D01*
X101366036Y-46056239D01*
X101431632Y-46075500D01*
X101431633Y-46075500D01*
X101568367Y-46075500D01*
X101699561Y-46036978D01*
X101707578Y-46031825D01*
X101774613Y-46012141D01*
X101841653Y-46031824D01*
X101887409Y-46084627D01*
X101897354Y-46153785D01*
X101868331Y-46217341D01*
X101862297Y-46223822D01*
X100697939Y-47388181D01*
X100636616Y-47421666D01*
X100610258Y-47424500D01*
X99524234Y-47424500D01*
X99377863Y-47463719D01*
X99246635Y-47539485D01*
X99246632Y-47539487D01*
X99139487Y-47646632D01*
X99139485Y-47646635D01*
X99063719Y-47777863D01*
X99042546Y-47856884D01*
X99024500Y-47924234D01*
X99024500Y-48724234D01*
X99024500Y-48875766D01*
X99028180Y-48889499D01*
X99063719Y-49022136D01*
X99087343Y-49063053D01*
X99139485Y-49153365D01*
X99246635Y-49260515D01*
X99377865Y-49336281D01*
X99524234Y-49375500D01*
X99524236Y-49375500D01*
X100875765Y-49375500D01*
X100875767Y-49375500D01*
X101022135Y-49336281D01*
X101153365Y-49260515D01*
X101260515Y-49153365D01*
X101336281Y-49022135D01*
X101375500Y-48875767D01*
X101375500Y-48724234D01*
X101375500Y-48389742D01*
X101395185Y-48322703D01*
X101411819Y-48302061D01*
X103902061Y-45811819D01*
X103963384Y-45778334D01*
X103989742Y-45775500D01*
X109510258Y-45775500D01*
X109577297Y-45795185D01*
X109597939Y-45811819D01*
X114746635Y-50960515D01*
X114860281Y-51026129D01*
X114874655Y-51034428D01*
X114877865Y-51036281D01*
X115024234Y-51075500D01*
X115124234Y-51075500D01*
X117124234Y-51075500D01*
X117310258Y-51075500D01*
X117377297Y-51095185D01*
X117397939Y-51111819D01*
X117638181Y-51352061D01*
X117671666Y-51413384D01*
X117674500Y-51439742D01*
X117674500Y-68460258D01*
X117654815Y-68527297D01*
X117638181Y-68547939D01*
X114497939Y-71688181D01*
X114436616Y-71721666D01*
X114410258Y-71724500D01*
X112499500Y-71724500D01*
X112432461Y-71704815D01*
X112386706Y-71652011D01*
X112375500Y-71600500D01*
X112375500Y-71474236D01*
X112375500Y-71474234D01*
X112336281Y-71327865D01*
X112260515Y-71196635D01*
X112153365Y-71089485D01*
X112087750Y-71051602D01*
X112022136Y-71013719D01*
X111948950Y-70994109D01*
X111875766Y-70974500D01*
X111724233Y-70974500D01*
X111702679Y-70980275D01*
X111670588Y-70984500D01*
X110224234Y-70984500D01*
X110077863Y-71023719D01*
X109946635Y-71099485D01*
X109946632Y-71099487D01*
X109839487Y-71206632D01*
X109839485Y-71206635D01*
X109763719Y-71337863D01*
X109724500Y-71484234D01*
X109724500Y-72375765D01*
X109763719Y-72522136D01*
X109793952Y-72574500D01*
X109839485Y-72653365D01*
X109946635Y-72760515D01*
X110077865Y-72836281D01*
X110224234Y-72875500D01*
X110224236Y-72875500D01*
X114775764Y-72875500D01*
X114775766Y-72875500D01*
X114922135Y-72836281D01*
X115053365Y-72760515D01*
X118710515Y-69103365D01*
X118786281Y-68972135D01*
X118825500Y-68825767D01*
X118825500Y-68674234D01*
X118825500Y-51074234D01*
X118786281Y-50927865D01*
X118710515Y-50796635D01*
X118603365Y-50689485D01*
X117953365Y-50039485D01*
X117887750Y-50001602D01*
X117822136Y-49963719D01*
X117748950Y-49944109D01*
X117675766Y-49924500D01*
X117675765Y-49924500D01*
X115389742Y-49924500D01*
X115322703Y-49904815D01*
X115302061Y-49888181D01*
X110153367Y-44739487D01*
X110153365Y-44739485D01*
X110073071Y-44693127D01*
X110022136Y-44663719D01*
X109948950Y-44644109D01*
X109875766Y-44624500D01*
X103775767Y-44624500D01*
X103624234Y-44624500D01*
X103477863Y-44663719D01*
X103346635Y-44739485D01*
X103346632Y-44739487D01*
X102119227Y-45966892D01*
X102057904Y-46000377D01*
X101988212Y-45995393D01*
X101932279Y-45953521D01*
X101907862Y-45888057D01*
X101918751Y-45827701D01*
X101960931Y-45735342D01*
X101980390Y-45600000D01*
X101960931Y-45464658D01*
X101948677Y-45437827D01*
X101904132Y-45340285D01*
X101904127Y-45340278D01*
X101814590Y-45236946D01*
X101814586Y-45236942D01*
X101699559Y-45163021D01*
X101568368Y-45124500D01*
X101568367Y-45124500D01*
X101431633Y-45124500D01*
X101431632Y-45124500D01*
X101300440Y-45163021D01*
X101185413Y-45236942D01*
X101179329Y-45242215D01*
X101115772Y-45271238D01*
X101098128Y-45272500D01*
X100243116Y-45272500D01*
X100156884Y-45272500D01*
X100101354Y-45287379D01*
X100073589Y-45294819D01*
X99998911Y-45337934D01*
X99998908Y-45337936D01*
X97637936Y-47698908D01*
X97637934Y-47698911D01*
X97594819Y-47773589D01*
X97594819Y-47773590D01*
X97572500Y-47856884D01*
X90500500Y-47856884D01*
X90500500Y-43999996D01*
X90994415Y-43999996D01*
X90994415Y-44000003D01*
X91014738Y-44348927D01*
X91014739Y-44348938D01*
X91075428Y-44693127D01*
X91075430Y-44693134D01*
X91175674Y-45027972D01*
X91314107Y-45348895D01*
X91314113Y-45348908D01*
X91488870Y-45651597D01*
X91697584Y-45931949D01*
X91697589Y-45931955D01*
X91791814Y-46031827D01*
X91937442Y-46186183D01*
X92113903Y-46334251D01*
X92205186Y-46410847D01*
X92205194Y-46410853D01*
X92497203Y-46602911D01*
X92497207Y-46602913D01*
X92809549Y-46759777D01*
X93137989Y-46879319D01*
X93478086Y-46959923D01*
X93825241Y-47000500D01*
X93825248Y-47000500D01*
X94174752Y-47000500D01*
X94174759Y-47000500D01*
X94521914Y-46959923D01*
X94862011Y-46879319D01*
X95190451Y-46759777D01*
X95502793Y-46602913D01*
X95794811Y-46410849D01*
X96062558Y-46186183D01*
X96302412Y-45931953D01*
X96511130Y-45651596D01*
X96685889Y-45348904D01*
X96824326Y-45027971D01*
X96924569Y-44693136D01*
X96936672Y-44624500D01*
X96985260Y-44348938D01*
X96985259Y-44348938D01*
X96985262Y-44348927D01*
X97005585Y-44000000D01*
X97005585Y-43999996D01*
X112994415Y-43999996D01*
X112994415Y-44000003D01*
X113014738Y-44348927D01*
X113014739Y-44348938D01*
X113075428Y-44693127D01*
X113075430Y-44693134D01*
X113175674Y-45027972D01*
X113314107Y-45348895D01*
X113314113Y-45348908D01*
X113488870Y-45651597D01*
X113697584Y-45931949D01*
X113697589Y-45931955D01*
X113791814Y-46031827D01*
X113937442Y-46186183D01*
X114113903Y-46334251D01*
X114205186Y-46410847D01*
X114205194Y-46410853D01*
X114497203Y-46602911D01*
X114497207Y-46602913D01*
X114809549Y-46759777D01*
X115137989Y-46879319D01*
X115478086Y-46959923D01*
X115825241Y-47000500D01*
X115825248Y-47000500D01*
X116174752Y-47000500D01*
X116174759Y-47000500D01*
X116521914Y-46959923D01*
X116862011Y-46879319D01*
X117190451Y-46759777D01*
X117502793Y-46602913D01*
X117794811Y-46410849D01*
X118062558Y-46186183D01*
X118302412Y-45931953D01*
X118511130Y-45651596D01*
X118685889Y-45348904D01*
X118824326Y-45027971D01*
X118924569Y-44693136D01*
X118936672Y-44624500D01*
X118985260Y-44348938D01*
X118985259Y-44348938D01*
X118985262Y-44348927D01*
X119005585Y-44000000D01*
X118985262Y-43651073D01*
X118985260Y-43651061D01*
X118924571Y-43306872D01*
X118924569Y-43306865D01*
X118923429Y-43303057D01*
X118824326Y-42972029D01*
X118685889Y-42651096D01*
X118511130Y-42348404D01*
X118511129Y-42348402D01*
X118302415Y-42068050D01*
X118302410Y-42068044D01*
X118150287Y-41906804D01*
X118062558Y-41813817D01*
X117860172Y-41643995D01*
X117794813Y-41589152D01*
X117794805Y-41589146D01*
X117502796Y-41397088D01*
X117190458Y-41240226D01*
X117190452Y-41240223D01*
X116862012Y-41120681D01*
X116862009Y-41120680D01*
X116521915Y-41040077D01*
X116478519Y-41035004D01*
X116174759Y-40999500D01*
X115825241Y-40999500D01*
X115521480Y-41035004D01*
X115478085Y-41040077D01*
X115478083Y-41040077D01*
X115137990Y-41120680D01*
X115137987Y-41120681D01*
X114809547Y-41240223D01*
X114809541Y-41240226D01*
X114497203Y-41397088D01*
X114205194Y-41589146D01*
X114205186Y-41589152D01*
X113937442Y-41813817D01*
X113937440Y-41813819D01*
X113697589Y-42068044D01*
X113697584Y-42068050D01*
X113488870Y-42348402D01*
X113314113Y-42651091D01*
X113314107Y-42651104D01*
X113175674Y-42972027D01*
X113075430Y-43306865D01*
X113075428Y-43306872D01*
X113014739Y-43651061D01*
X113014738Y-43651072D01*
X112994415Y-43999996D01*
X97005585Y-43999996D01*
X96985262Y-43651073D01*
X96985260Y-43651061D01*
X96924571Y-43306872D01*
X96924569Y-43306865D01*
X96923429Y-43303057D01*
X96824326Y-42972029D01*
X96810510Y-42940000D01*
X104109610Y-42940000D01*
X104129068Y-43075337D01*
X104129070Y-43075345D01*
X104185867Y-43199714D01*
X104185872Y-43199721D01*
X104275409Y-43303053D01*
X104275413Y-43303057D01*
X104335979Y-43341979D01*
X104390439Y-43376978D01*
X104456036Y-43396239D01*
X104521632Y-43415500D01*
X104521633Y-43415500D01*
X104658367Y-43415500D01*
X104789561Y-43376978D01*
X104904589Y-43303055D01*
X104904591Y-43303052D01*
X104910671Y-43297785D01*
X104974228Y-43268762D01*
X104991872Y-43267500D01*
X105450128Y-43267500D01*
X105517167Y-43287185D01*
X105531329Y-43297785D01*
X105537413Y-43303057D01*
X105597979Y-43341979D01*
X105652439Y-43376978D01*
X105718036Y-43396239D01*
X105783632Y-43415500D01*
X105783633Y-43415500D01*
X105920367Y-43415500D01*
X106051561Y-43376978D01*
X106166589Y-43303055D01*
X106256130Y-43199718D01*
X106312931Y-43075342D01*
X106332390Y-42940000D01*
X106312931Y-42804658D01*
X106300677Y-42777827D01*
X106256132Y-42680285D01*
X106256127Y-42680278D01*
X106166590Y-42576946D01*
X106166586Y-42576942D01*
X106051559Y-42503021D01*
X105920368Y-42464500D01*
X105920367Y-42464500D01*
X105783633Y-42464500D01*
X105783632Y-42464500D01*
X105652440Y-42503021D01*
X105537413Y-42576942D01*
X105531329Y-42582215D01*
X105467772Y-42611238D01*
X105450128Y-42612500D01*
X104991872Y-42612500D01*
X104924833Y-42592815D01*
X104910671Y-42582215D01*
X104904586Y-42576942D01*
X104789559Y-42503021D01*
X104658368Y-42464500D01*
X104658367Y-42464500D01*
X104521633Y-42464500D01*
X104521632Y-42464500D01*
X104390440Y-42503021D01*
X104275413Y-42576942D01*
X104275409Y-42576946D01*
X104185872Y-42680278D01*
X104185867Y-42680285D01*
X104129070Y-42804654D01*
X104129068Y-42804662D01*
X104109610Y-42940000D01*
X96810510Y-42940000D01*
X96685889Y-42651096D01*
X96511130Y-42348404D01*
X96511129Y-42348402D01*
X96302415Y-42068050D01*
X96302410Y-42068044D01*
X96150287Y-41906804D01*
X96062558Y-41813817D01*
X95860172Y-41643995D01*
X99979499Y-41643995D01*
X100006418Y-41779322D01*
X100006421Y-41779332D01*
X100059221Y-41906804D01*
X100059228Y-41906817D01*
X100135885Y-42021541D01*
X100135888Y-42021545D01*
X100233454Y-42119111D01*
X100233458Y-42119114D01*
X100348182Y-42195771D01*
X100348195Y-42195778D01*
X100475667Y-42248578D01*
X100475672Y-42248580D01*
X100475676Y-42248580D01*
X100475677Y-42248581D01*
X100611004Y-42275500D01*
X100611007Y-42275500D01*
X100748995Y-42275500D01*
X100840041Y-42257389D01*
X100884328Y-42248580D01*
X101011811Y-42195775D01*
X101126542Y-42119114D01*
X101224114Y-42021542D01*
X101300775Y-41906811D01*
X101353580Y-41779328D01*
X101380500Y-41643993D01*
X101380500Y-40863242D01*
X101400185Y-40796203D01*
X101452989Y-40750448D01*
X101522147Y-40740504D01*
X101585703Y-40769529D01*
X101611886Y-40801241D01*
X101646285Y-40860821D01*
X101754179Y-40968715D01*
X101754180Y-40968716D01*
X101754182Y-40968717D01*
X101886318Y-41045006D01*
X101886319Y-41045006D01*
X101886322Y-41045008D01*
X102033707Y-41084500D01*
X102033710Y-41084500D01*
X102186290Y-41084500D01*
X102186293Y-41084500D01*
X102333678Y-41045008D01*
X102465821Y-40968715D01*
X102573715Y-40860821D01*
X102650008Y-40728678D01*
X102689500Y-40581293D01*
X102689500Y-40428707D01*
X102650008Y-40281322D01*
X102637438Y-40259551D01*
X102573717Y-40149182D01*
X102573712Y-40149176D01*
X102465823Y-40041287D01*
X102465817Y-40041282D01*
X102333681Y-39964993D01*
X102333682Y-39964993D01*
X102321595Y-39961754D01*
X102186293Y-39925500D01*
X102033707Y-39925500D01*
X101898404Y-39961754D01*
X101886318Y-39964993D01*
X101754182Y-40041282D01*
X101754176Y-40041287D01*
X101646287Y-40149176D01*
X101646285Y-40149179D01*
X101611887Y-40208758D01*
X101561319Y-40256973D01*
X101492712Y-40270195D01*
X101427848Y-40244227D01*
X101387320Y-40187313D01*
X101380500Y-40146757D01*
X101380500Y-37649500D01*
X101400185Y-37582461D01*
X101452989Y-37536706D01*
X101504500Y-37525500D01*
X108495500Y-37525500D01*
X108562539Y-37545185D01*
X108608294Y-37597989D01*
X108619500Y-37649500D01*
X108619500Y-40146757D01*
X108599815Y-40213796D01*
X108547011Y-40259551D01*
X108477853Y-40269495D01*
X108414297Y-40240470D01*
X108388113Y-40208758D01*
X108353715Y-40149179D01*
X108245821Y-40041285D01*
X108245819Y-40041284D01*
X108245817Y-40041282D01*
X108113681Y-39964993D01*
X108113682Y-39964993D01*
X108101595Y-39961754D01*
X107966293Y-39925500D01*
X107813707Y-39925500D01*
X107678404Y-39961754D01*
X107666318Y-39964993D01*
X107534182Y-40041282D01*
X107534176Y-40041287D01*
X107426287Y-40149176D01*
X107426282Y-40149182D01*
X107349993Y-40281318D01*
X107349992Y-40281322D01*
X107310500Y-40428707D01*
X107310500Y-40581293D01*
X107349992Y-40728678D01*
X107349993Y-40728681D01*
X107426282Y-40860817D01*
X107426284Y-40860819D01*
X107426285Y-40860821D01*
X107534179Y-40968715D01*
X107534180Y-40968716D01*
X107534182Y-40968717D01*
X107666318Y-41045006D01*
X107666319Y-41045006D01*
X107666322Y-41045008D01*
X107813707Y-41084500D01*
X107813710Y-41084500D01*
X107966290Y-41084500D01*
X107966293Y-41084500D01*
X108113678Y-41045008D01*
X108245821Y-40968715D01*
X108353715Y-40860821D01*
X108388113Y-40801241D01*
X108438680Y-40753026D01*
X108507287Y-40739803D01*
X108572152Y-40765771D01*
X108612680Y-40822686D01*
X108619500Y-40863242D01*
X108619500Y-41643993D01*
X108619500Y-41643995D01*
X108619499Y-41643995D01*
X108646418Y-41779322D01*
X108646421Y-41779332D01*
X108699221Y-41906804D01*
X108699228Y-41906817D01*
X108775885Y-42021541D01*
X108775888Y-42021545D01*
X108873454Y-42119111D01*
X108873458Y-42119114D01*
X108988182Y-42195771D01*
X108988195Y-42195778D01*
X109115667Y-42248578D01*
X109115672Y-42248580D01*
X109115676Y-42248580D01*
X109115677Y-42248581D01*
X109251004Y-42275500D01*
X109251007Y-42275500D01*
X109388995Y-42275500D01*
X109480041Y-42257389D01*
X109524328Y-42248580D01*
X109651811Y-42195775D01*
X109766542Y-42119114D01*
X109864114Y-42021542D01*
X109940775Y-41906811D01*
X109993580Y-41779328D01*
X110020500Y-41643993D01*
X110020500Y-40406007D01*
X110020500Y-36756007D01*
X110020500Y-36356007D01*
X110020500Y-36356004D01*
X109993581Y-36220677D01*
X109993580Y-36220676D01*
X109993580Y-36220672D01*
X109993578Y-36220667D01*
X109940778Y-36093195D01*
X109940771Y-36093182D01*
X109864114Y-35978458D01*
X109864111Y-35978454D01*
X109766545Y-35880888D01*
X109766541Y-35880885D01*
X109651817Y-35804228D01*
X109651804Y-35804221D01*
X109524332Y-35751421D01*
X109524322Y-35751418D01*
X109388995Y-35724500D01*
X109388993Y-35724500D01*
X109251007Y-35724500D01*
X109251005Y-35724500D01*
X109115677Y-35751418D01*
X109115667Y-35751421D01*
X108988195Y-35804221D01*
X108988182Y-35804228D01*
X108873458Y-35880885D01*
X108873454Y-35880888D01*
X108775888Y-35978454D01*
X108775885Y-35978458D01*
X108715126Y-36069391D01*
X108661514Y-36114196D01*
X108612024Y-36124500D01*
X101387976Y-36124500D01*
X101320937Y-36104815D01*
X101284874Y-36069391D01*
X101224114Y-35978458D01*
X101224111Y-35978454D01*
X101126545Y-35880888D01*
X101126541Y-35880885D01*
X101011817Y-35804228D01*
X101011804Y-35804221D01*
X100884332Y-35751421D01*
X100884322Y-35751418D01*
X100748995Y-35724500D01*
X100748993Y-35724500D01*
X100611007Y-35724500D01*
X100611005Y-35724500D01*
X100475677Y-35751418D01*
X100475667Y-35751421D01*
X100348195Y-35804221D01*
X100348182Y-35804228D01*
X100233458Y-35880885D01*
X100233454Y-35880888D01*
X100135888Y-35978454D01*
X100135885Y-35978458D01*
X100059228Y-36093182D01*
X100059221Y-36093195D01*
X100006421Y-36220667D01*
X100006418Y-36220677D01*
X99979500Y-36356004D01*
X99979500Y-36356007D01*
X99979500Y-36756007D01*
X99979500Y-40406007D01*
X99979500Y-41643993D01*
X99979500Y-41643995D01*
X99979499Y-41643995D01*
X95860172Y-41643995D01*
X95794813Y-41589152D01*
X95794805Y-41589146D01*
X95502796Y-41397088D01*
X95190458Y-41240226D01*
X95190452Y-41240223D01*
X94862012Y-41120681D01*
X94862009Y-41120680D01*
X94521915Y-41040077D01*
X94478519Y-41035004D01*
X94174759Y-40999500D01*
X93825241Y-40999500D01*
X93521480Y-41035004D01*
X93478085Y-41040077D01*
X93478083Y-41040077D01*
X93137990Y-41120680D01*
X93137987Y-41120681D01*
X92809547Y-41240223D01*
X92809541Y-41240226D01*
X92497203Y-41397088D01*
X92205194Y-41589146D01*
X92205186Y-41589152D01*
X91937442Y-41813817D01*
X91937440Y-41813819D01*
X91697589Y-42068044D01*
X91697584Y-42068050D01*
X91488870Y-42348402D01*
X91314113Y-42651091D01*
X91314107Y-42651104D01*
X91175674Y-42972027D01*
X91075430Y-43306865D01*
X91075428Y-43306872D01*
X91014739Y-43651061D01*
X91014738Y-43651072D01*
X90994415Y-43999996D01*
X90500500Y-43999996D01*
X90500500Y-40353584D01*
X90520185Y-40286545D01*
X90560703Y-40247255D01*
X90572012Y-40240470D01*
X100109178Y-34518170D01*
X100172975Y-34500500D01*
X104934108Y-34500500D01*
X109827025Y-34500500D01*
X109890821Y-34518170D01*
G37*
%TD.AperFunction*%
%TD*%
M02*
