%TF.GenerationSoftware,KiCad,Pcbnew,8.0.7-8.0.7-0~ubuntu22.04.1*%
%TF.CreationDate,2024-12-07T17:10:43+01:00*%
%TF.ProjectId,camera_360,63616d65-7261-45f3-9336-302e6b696361,rev?*%
%TF.SameCoordinates,Original*%
%TF.FileFunction,Soldermask,Top*%
%TF.FilePolarity,Negative*%
%FSLAX46Y46*%
G04 Gerber Fmt 4.6, Leading zero omitted, Abs format (unit mm)*
G04 Created by KiCad (PCBNEW 8.0.7-8.0.7-0~ubuntu22.04.1) date 2024-12-07 17:10:43*
%MOMM*%
%LPD*%
G01*
G04 APERTURE LIST*
G04 Aperture macros list*
%AMRoundRect*
0 Rectangle with rounded corners*
0 $1 Rounding radius*
0 $2 $3 $4 $5 $6 $7 $8 $9 X,Y pos of 4 corners*
0 Add a 4 corners polygon primitive as box body*
4,1,4,$2,$3,$4,$5,$6,$7,$8,$9,$2,$3,0*
0 Add four circle primitives for the rounded corners*
1,1,$1+$1,$2,$3*
1,1,$1+$1,$4,$5*
1,1,$1+$1,$6,$7*
1,1,$1+$1,$8,$9*
0 Add four rect primitives between the rounded corners*
20,1,$1+$1,$2,$3,$4,$5,0*
20,1,$1+$1,$4,$5,$6,$7,0*
20,1,$1+$1,$6,$7,$8,$9,0*
20,1,$1+$1,$8,$9,$2,$3,0*%
G04 Aperture macros list end*
%ADD10RoundRect,0.250000X0.250000X0.475000X-0.250000X0.475000X-0.250000X-0.475000X0.250000X-0.475000X0*%
%ADD11RoundRect,0.225000X-0.225000X-0.250000X0.225000X-0.250000X0.225000X0.250000X-0.225000X0.250000X0*%
%ADD12RoundRect,0.250000X0.475000X-0.250000X0.475000X0.250000X-0.475000X0.250000X-0.475000X-0.250000X0*%
%ADD13RoundRect,0.200000X0.275000X-0.200000X0.275000X0.200000X-0.275000X0.200000X-0.275000X-0.200000X0*%
%ADD14RoundRect,0.140000X-0.170000X0.140000X-0.170000X-0.140000X0.170000X-0.140000X0.170000X0.140000X0*%
%ADD15C,5.600000*%
%ADD16RoundRect,0.135000X-0.185000X0.135000X-0.185000X-0.135000X0.185000X-0.135000X0.185000X0.135000X0*%
%ADD17RoundRect,0.250000X-0.250000X-0.475000X0.250000X-0.475000X0.250000X0.475000X-0.250000X0.475000X0*%
%ADD18RoundRect,0.375000X0.625000X0.375000X-0.625000X0.375000X-0.625000X-0.375000X0.625000X-0.375000X0*%
%ADD19RoundRect,0.500000X0.500000X1.400000X-0.500000X1.400000X-0.500000X-1.400000X0.500000X-1.400000X0*%
%ADD20RoundRect,0.075000X-0.650000X-0.075000X0.650000X-0.075000X0.650000X0.075000X-0.650000X0.075000X0*%
%ADD21RoundRect,0.150000X0.150000X0.625000X-0.150000X0.625000X-0.150000X-0.625000X0.150000X-0.625000X0*%
%ADD22RoundRect,0.250000X0.350000X0.650000X-0.350000X0.650000X-0.350000X-0.650000X0.350000X-0.650000X0*%
%ADD23R,0.850000X0.850000*%
%ADD24O,0.850000X0.850000*%
%ADD25RoundRect,0.135000X-0.135000X-0.185000X0.135000X-0.185000X0.135000X0.185000X-0.135000X0.185000X0*%
%ADD26RoundRect,0.200000X-0.275000X0.200000X-0.275000X-0.200000X0.275000X-0.200000X0.275000X0.200000X0*%
%ADD27C,0.650000*%
%ADD28R,0.600000X1.240000*%
%ADD29R,0.300000X1.240000*%
%ADD30O,1.000000X2.100000*%
%ADD31O,1.000000X1.800000*%
%ADD32RoundRect,0.140000X0.140000X0.170000X-0.140000X0.170000X-0.140000X-0.170000X0.140000X-0.170000X0*%
%ADD33RoundRect,0.135000X0.135000X0.185000X-0.135000X0.185000X-0.135000X-0.185000X0.135000X-0.185000X0*%
%ADD34RoundRect,0.250000X-0.475000X0.250000X-0.475000X-0.250000X0.475000X-0.250000X0.475000X0.250000X0*%
%ADD35RoundRect,0.100000X-0.712500X-0.100000X0.712500X-0.100000X0.712500X0.100000X-0.712500X0.100000X0*%
%ADD36RoundRect,0.250000X1.000000X0.650000X-1.000000X0.650000X-1.000000X-0.650000X1.000000X-0.650000X0*%
%ADD37R,1.200000X1.400000*%
G04 APERTURE END LIST*
D10*
%TO.C,C7*%
X112750000Y-58400000D03*
X110850000Y-58400000D03*
%TD*%
D11*
%TO.C,C11*%
X91225000Y-59400000D03*
X92775000Y-59400000D03*
%TD*%
D12*
%TO.C,C14*%
X100850000Y-67199999D03*
X100850000Y-65300001D03*
%TD*%
D13*
%TO.C,R15*%
X102650000Y-67275000D03*
X102650000Y-65625000D03*
%TD*%
D14*
%TO.C,C3*%
X108100000Y-51800000D03*
X108100000Y-52760000D03*
%TD*%
D15*
%TO.C,H3*%
X94000000Y-101000000D03*
%TD*%
D16*
%TO.C,R14*%
X106100000Y-66690001D03*
X106100000Y-67709999D03*
%TD*%
D17*
%TO.C,C13*%
X91250000Y-57600000D03*
X93150000Y-57600000D03*
%TD*%
D15*
%TO.C,H4*%
X116000000Y-101000000D03*
%TD*%
D18*
%TO.C,U3*%
X97999999Y-53300000D03*
X97999998Y-51000000D03*
D19*
X91700000Y-51000000D03*
D18*
X97999999Y-48700000D03*
%TD*%
D20*
%TO.C,U1*%
X100800000Y-52000000D03*
X100800000Y-52500001D03*
X100800000Y-53000000D03*
X100800000Y-53499999D03*
X100800000Y-54000000D03*
X105200000Y-54000000D03*
X105200000Y-53499999D03*
X105200000Y-53000000D03*
X105200000Y-52500001D03*
X105200000Y-52000000D03*
%TD*%
D21*
%TO.C,J5*%
X107100000Y-69475000D03*
X106100000Y-69475000D03*
X105100000Y-69475001D03*
X104100000Y-69475000D03*
X103100000Y-69475000D03*
D22*
X108400000Y-72000001D03*
X101800000Y-72000001D03*
%TD*%
D23*
%TO.C,J3*%
X97920000Y-66020000D03*
D24*
X96920000Y-66020000D03*
X95919999Y-66020000D03*
X94920000Y-66020000D03*
X93920000Y-66020000D03*
%TD*%
D25*
%TO.C,R8*%
X98717026Y-57489973D03*
X99737026Y-57489973D03*
%TD*%
D15*
%TO.C,H1*%
X94000000Y-44000000D03*
%TD*%
D26*
%TO.C,R1*%
X109100000Y-44175000D03*
X109100000Y-45825000D03*
%TD*%
D16*
%TO.C,R3*%
X105500000Y-44690001D03*
X105500000Y-45709999D03*
%TD*%
D17*
%TO.C,C8*%
X98050000Y-44500000D03*
X99950000Y-44500000D03*
%TD*%
D25*
%TO.C,R12*%
X98717026Y-61999973D03*
X99737026Y-61999973D03*
%TD*%
D27*
%TO.C,J1*%
X107890000Y-40505000D03*
X102110000Y-40505000D03*
D28*
X108200000Y-41625000D03*
X107400000Y-41625000D03*
D29*
X106250000Y-41625000D03*
X105250000Y-41625000D03*
X104750000Y-41625000D03*
X103750000Y-41625000D03*
D28*
X102600000Y-41625000D03*
X101800000Y-41625000D03*
X101800000Y-41625000D03*
X102600000Y-41625000D03*
D29*
X103250000Y-41625000D03*
X104250000Y-41625000D03*
X105750000Y-41625000D03*
X106750000Y-41625000D03*
D28*
X107400000Y-41625000D03*
X108200000Y-41625000D03*
D30*
X109320000Y-41025000D03*
D31*
X109320000Y-36825000D03*
D30*
X100680000Y-41025000D03*
D31*
X100680000Y-36825000D03*
%TD*%
D32*
%TO.C,C9*%
X111580000Y-56900000D03*
X110620000Y-56900000D03*
%TD*%
D25*
%TO.C,R10*%
X98717026Y-59719973D03*
X99737026Y-59719973D03*
%TD*%
D32*
%TO.C,C5*%
X111510000Y-63900000D03*
X110550000Y-63900000D03*
%TD*%
D23*
%TO.C,J4*%
X112490000Y-66140000D03*
D24*
X113490000Y-66140000D03*
X114490001Y-66140000D03*
X115490000Y-66140000D03*
X116490000Y-66140000D03*
%TD*%
D14*
%TO.C,C2*%
X107100000Y-51800000D03*
X107100000Y-52760000D03*
%TD*%
D33*
%TO.C,R4*%
X107709999Y-53800000D03*
X106690001Y-53800000D03*
%TD*%
%TO.C,R7*%
X99737025Y-56489973D03*
X98717027Y-56489973D03*
%TD*%
D10*
%TO.C,C6*%
X112749999Y-60400000D03*
X110850001Y-60400000D03*
%TD*%
D11*
%TO.C,C10*%
X98225000Y-46500000D03*
X99775000Y-46500000D03*
%TD*%
D33*
%TO.C,R11*%
X99737025Y-60989973D03*
X98717027Y-60989973D03*
%TD*%
D25*
%TO.C,R9*%
X98717026Y-58689973D03*
X99737026Y-58689973D03*
%TD*%
D16*
%TO.C,R2*%
X104500000Y-44690001D03*
X104500000Y-45709999D03*
%TD*%
D34*
%TO.C,C1*%
X111000000Y-44150000D03*
X111000000Y-46050000D03*
%TD*%
D17*
%TO.C,C12*%
X91250000Y-55600000D03*
X93150000Y-55600000D03*
%TD*%
D35*
%TO.C,U2*%
X102779526Y-56267473D03*
X102779526Y-56902473D03*
X102779526Y-57537473D03*
X102779526Y-58172473D03*
X102779526Y-58807473D03*
X102779526Y-59442473D03*
X102779526Y-60077473D03*
X102779526Y-60712473D03*
X108054526Y-60712473D03*
X108054526Y-60077473D03*
X108054526Y-59442473D03*
X108054526Y-58807473D03*
X108054526Y-58172473D03*
X108054526Y-57537473D03*
X108054526Y-56902473D03*
X108054526Y-56267473D03*
%TD*%
D16*
%TO.C,R13*%
X105100000Y-66690001D03*
X105100000Y-67709999D03*
%TD*%
D15*
%TO.C,H2*%
X116000000Y-44000000D03*
%TD*%
D10*
%TO.C,C4*%
X112739999Y-62400000D03*
X110840001Y-62400000D03*
%TD*%
D16*
%TO.C,R5*%
X103000000Y-43790001D03*
X103000000Y-44809999D03*
%TD*%
D36*
%TO.C,D1*%
X116100001Y-49200000D03*
X112099999Y-49200000D03*
%TD*%
D37*
%TO.C,Y1*%
X112350000Y-55100000D03*
X112350000Y-52900000D03*
X110650000Y-52900000D03*
X110650000Y-55100000D03*
%TD*%
D23*
%TO.C,J2*%
X97900000Y-71190000D03*
D24*
X96900000Y-71190000D03*
X95899999Y-71190000D03*
X94900000Y-71190000D03*
X93900000Y-71190000D03*
%TD*%
D16*
%TO.C,R6*%
X107300000Y-44190001D03*
X107300000Y-45209999D03*
%TD*%
M02*
