%TF.GenerationSoftware,KiCad,Pcbnew,8.0.7-8.0.7-0~ubuntu22.04.1*%
%TF.CreationDate,2024-12-07T17:10:43+01:00*%
%TF.ProjectId,camera_360,63616d65-7261-45f3-9336-302e6b696361,rev?*%
%TF.SameCoordinates,Original*%
%TF.FileFunction,Legend,Top*%
%TF.FilePolarity,Positive*%
%FSLAX46Y46*%
G04 Gerber Fmt 4.6, Leading zero omitted, Abs format (unit mm)*
G04 Created by KiCad (PCBNEW 8.0.7-8.0.7-0~ubuntu22.04.1) date 2024-12-07 17:10:43*
%MOMM*%
%LPD*%
G01*
G04 APERTURE LIST*
G04 Aperture macros list*
%AMRoundRect*
0 Rectangle with rounded corners*
0 $1 Rounding radius*
0 $2 $3 $4 $5 $6 $7 $8 $9 X,Y pos of 4 corners*
0 Add a 4 corners polygon primitive as box body*
4,1,4,$2,$3,$4,$5,$6,$7,$8,$9,$2,$3,0*
0 Add four circle primitives for the rounded corners*
1,1,$1+$1,$2,$3*
1,1,$1+$1,$4,$5*
1,1,$1+$1,$6,$7*
1,1,$1+$1,$8,$9*
0 Add four rect primitives between the rounded corners*
20,1,$1+$1,$2,$3,$4,$5,0*
20,1,$1+$1,$4,$5,$6,$7,0*
20,1,$1+$1,$6,$7,$8,$9,0*
20,1,$1+$1,$8,$9,$2,$3,0*%
G04 Aperture macros list end*
%ADD10C,0.100000*%
%ADD11C,0.150000*%
%ADD12C,0.120000*%
%ADD13RoundRect,0.250000X0.250000X0.475000X-0.250000X0.475000X-0.250000X-0.475000X0.250000X-0.475000X0*%
%ADD14RoundRect,0.225000X-0.225000X-0.250000X0.225000X-0.250000X0.225000X0.250000X-0.225000X0.250000X0*%
%ADD15RoundRect,0.250000X0.475000X-0.250000X0.475000X0.250000X-0.475000X0.250000X-0.475000X-0.250000X0*%
%ADD16RoundRect,0.200000X0.275000X-0.200000X0.275000X0.200000X-0.275000X0.200000X-0.275000X-0.200000X0*%
%ADD17RoundRect,0.140000X-0.170000X0.140000X-0.170000X-0.140000X0.170000X-0.140000X0.170000X0.140000X0*%
%ADD18C,5.600000*%
%ADD19RoundRect,0.135000X-0.185000X0.135000X-0.185000X-0.135000X0.185000X-0.135000X0.185000X0.135000X0*%
%ADD20RoundRect,0.250000X-0.250000X-0.475000X0.250000X-0.475000X0.250000X0.475000X-0.250000X0.475000X0*%
%ADD21RoundRect,0.375000X0.625000X0.375000X-0.625000X0.375000X-0.625000X-0.375000X0.625000X-0.375000X0*%
%ADD22RoundRect,0.500000X0.500000X1.400000X-0.500000X1.400000X-0.500000X-1.400000X0.500000X-1.400000X0*%
%ADD23RoundRect,0.075000X-0.650000X-0.075000X0.650000X-0.075000X0.650000X0.075000X-0.650000X0.075000X0*%
%ADD24RoundRect,0.150000X0.150000X0.625000X-0.150000X0.625000X-0.150000X-0.625000X0.150000X-0.625000X0*%
%ADD25RoundRect,0.250000X0.350000X0.650000X-0.350000X0.650000X-0.350000X-0.650000X0.350000X-0.650000X0*%
%ADD26R,0.850000X0.850000*%
%ADD27O,0.850000X0.850000*%
%ADD28RoundRect,0.135000X-0.135000X-0.185000X0.135000X-0.185000X0.135000X0.185000X-0.135000X0.185000X0*%
%ADD29RoundRect,0.200000X-0.275000X0.200000X-0.275000X-0.200000X0.275000X-0.200000X0.275000X0.200000X0*%
%ADD30C,0.650000*%
%ADD31R,0.600000X1.240000*%
%ADD32R,0.300000X1.240000*%
%ADD33O,1.000000X2.100000*%
%ADD34O,1.000000X1.800000*%
%ADD35RoundRect,0.140000X0.140000X0.170000X-0.140000X0.170000X-0.140000X-0.170000X0.140000X-0.170000X0*%
%ADD36RoundRect,0.135000X0.135000X0.185000X-0.135000X0.185000X-0.135000X-0.185000X0.135000X-0.185000X0*%
%ADD37RoundRect,0.250000X-0.475000X0.250000X-0.475000X-0.250000X0.475000X-0.250000X0.475000X0.250000X0*%
%ADD38RoundRect,0.100000X-0.712500X-0.100000X0.712500X-0.100000X0.712500X0.100000X-0.712500X0.100000X0*%
%ADD39RoundRect,0.250000X1.000000X0.650000X-1.000000X0.650000X-1.000000X-0.650000X1.000000X-0.650000X0*%
%ADD40R,1.200000X1.400000*%
G04 APERTURE END LIST*
D10*
G36*
X105053065Y-73839929D02*
G01*
X105086600Y-73873465D01*
X105125312Y-73950888D01*
X105125312Y-74070138D01*
X105086600Y-74147561D01*
X105050454Y-74183708D01*
X104973033Y-74222419D01*
X104653884Y-74222419D01*
X104653884Y-73798609D01*
X104929104Y-73798609D01*
X105053065Y-73839929D01*
G37*
G36*
X105002837Y-73361130D02*
G01*
X105038981Y-73397275D01*
X105077693Y-73474698D01*
X105077693Y-73546329D01*
X105038981Y-73623752D01*
X105002837Y-73659897D01*
X104925414Y-73698609D01*
X104653884Y-73698609D01*
X104653884Y-73322419D01*
X104925414Y-73322419D01*
X105002837Y-73361130D01*
G37*
G36*
X107574518Y-74433530D02*
G01*
X102442773Y-74433530D01*
X102442773Y-73272419D01*
X102553884Y-73272419D01*
X102553884Y-74081942D01*
X102554372Y-74084398D01*
X102554010Y-74085487D01*
X102556126Y-74093214D01*
X102557690Y-74101076D01*
X102558501Y-74101887D01*
X102559163Y-74104303D01*
X102606781Y-74199540D01*
X102611692Y-74205868D01*
X102616147Y-74212535D01*
X102663766Y-74260155D01*
X102670432Y-74264609D01*
X102676761Y-74269521D01*
X102771999Y-74317140D01*
X102774414Y-74317801D01*
X102775226Y-74318613D01*
X102783087Y-74320176D01*
X102790815Y-74322293D01*
X102791903Y-74321930D01*
X102794360Y-74322419D01*
X102984836Y-74322419D01*
X102987292Y-74321930D01*
X102988381Y-74322293D01*
X102996108Y-74320176D01*
X103003970Y-74318613D01*
X103004781Y-74317801D01*
X103007197Y-74317140D01*
X103102434Y-74269522D01*
X103108761Y-74264611D01*
X103115430Y-74260155D01*
X103163049Y-74212535D01*
X103167502Y-74205869D01*
X103172414Y-74199541D01*
X103220033Y-74104303D01*
X103220694Y-74101887D01*
X103221506Y-74101076D01*
X103223069Y-74093214D01*
X103225186Y-74085487D01*
X103224823Y-74084398D01*
X103225312Y-74081942D01*
X103225312Y-73462895D01*
X103553884Y-73462895D01*
X103553884Y-73558133D01*
X103554372Y-73560589D01*
X103554010Y-73561678D01*
X103556126Y-73569405D01*
X103557690Y-73577267D01*
X103558501Y-73578078D01*
X103559163Y-73580494D01*
X103606781Y-73675731D01*
X103611696Y-73682064D01*
X103616148Y-73688726D01*
X103663766Y-73736345D01*
X103670432Y-73740799D01*
X103676761Y-73745711D01*
X103771999Y-73793330D01*
X103777280Y-73794776D01*
X103782233Y-73797116D01*
X103967385Y-73843404D01*
X104050456Y-73884939D01*
X104086600Y-73921084D01*
X104125312Y-73998507D01*
X104125312Y-74070138D01*
X104086600Y-74147561D01*
X104050454Y-74183708D01*
X103973033Y-74222419D01*
X103754854Y-74222419D01*
X103619695Y-74177366D01*
X103600340Y-74174926D01*
X103566111Y-74192040D01*
X103554010Y-74228344D01*
X103571124Y-74262573D01*
X103588073Y-74272234D01*
X103730929Y-74319853D01*
X103738879Y-74320855D01*
X103746741Y-74322419D01*
X103984836Y-74322419D01*
X103987292Y-74321930D01*
X103988381Y-74322293D01*
X103996108Y-74320176D01*
X104003970Y-74318613D01*
X104004781Y-74317801D01*
X104007197Y-74317140D01*
X104102434Y-74269522D01*
X104108761Y-74264611D01*
X104115430Y-74260155D01*
X104163049Y-74212535D01*
X104167502Y-74205869D01*
X104172414Y-74199541D01*
X104220033Y-74104303D01*
X104220694Y-74101887D01*
X104221506Y-74101076D01*
X104223069Y-74093214D01*
X104225186Y-74085487D01*
X104224823Y-74084398D01*
X104225312Y-74081942D01*
X104225312Y-73986704D01*
X104224823Y-73984247D01*
X104225186Y-73983159D01*
X104223069Y-73975431D01*
X104221506Y-73967570D01*
X104220694Y-73966758D01*
X104220033Y-73964343D01*
X104172414Y-73869105D01*
X104167502Y-73862776D01*
X104163048Y-73856110D01*
X104115429Y-73808492D01*
X104108767Y-73804040D01*
X104102434Y-73799125D01*
X104007197Y-73751507D01*
X104001915Y-73750060D01*
X103996963Y-73747721D01*
X103811812Y-73701433D01*
X103728740Y-73659897D01*
X103692595Y-73623753D01*
X103653884Y-73546330D01*
X103653884Y-73474698D01*
X103692595Y-73397274D01*
X103728740Y-73361130D01*
X103806164Y-73322419D01*
X104024342Y-73322419D01*
X104159500Y-73367472D01*
X104178856Y-73369912D01*
X104213084Y-73352798D01*
X104225186Y-73316494D01*
X104208071Y-73282265D01*
X104191123Y-73272604D01*
X104190568Y-73272419D01*
X104553884Y-73272419D01*
X104553884Y-74272419D01*
X104557690Y-74291553D01*
X104584750Y-74318613D01*
X104603884Y-74322419D01*
X104984836Y-74322419D01*
X104987292Y-74321930D01*
X104988381Y-74322293D01*
X104996108Y-74320176D01*
X105003970Y-74318613D01*
X105004781Y-74317801D01*
X105007197Y-74317140D01*
X105102434Y-74269522D01*
X105108761Y-74264611D01*
X105115430Y-74260155D01*
X105163049Y-74212535D01*
X105167502Y-74205869D01*
X105172414Y-74199541D01*
X105220033Y-74104303D01*
X105220694Y-74101887D01*
X105221506Y-74101076D01*
X105223069Y-74093214D01*
X105225186Y-74085487D01*
X105224823Y-74084398D01*
X105225312Y-74081942D01*
X105225312Y-73939085D01*
X105224823Y-73936628D01*
X105225186Y-73935540D01*
X105223069Y-73927812D01*
X105221506Y-73919951D01*
X105220694Y-73919139D01*
X105220033Y-73916724D01*
X105172414Y-73821486D01*
X105167502Y-73815157D01*
X105163048Y-73808491D01*
X105115429Y-73760873D01*
X105113346Y-73759481D01*
X105112833Y-73758455D01*
X105105872Y-73754487D01*
X105099208Y-73750034D01*
X105098060Y-73750034D01*
X105095885Y-73748794D01*
X105064724Y-73738407D01*
X105067810Y-73736345D01*
X105115429Y-73688727D01*
X105119883Y-73682060D01*
X105124795Y-73675732D01*
X105172414Y-73580494D01*
X105173075Y-73578078D01*
X105173887Y-73577267D01*
X105175450Y-73569405D01*
X105177567Y-73561678D01*
X105177204Y-73560589D01*
X105177693Y-73558133D01*
X105177693Y-73462895D01*
X105177204Y-73460438D01*
X105177567Y-73459350D01*
X105175450Y-73451622D01*
X105173887Y-73443761D01*
X105173075Y-73442949D01*
X105172414Y-73440534D01*
X105124795Y-73345296D01*
X105119883Y-73338967D01*
X105115429Y-73332301D01*
X105067810Y-73284683D01*
X105061148Y-73280231D01*
X105054815Y-73275316D01*
X105049021Y-73272419D01*
X106315789Y-73272419D01*
X106315789Y-74272419D01*
X106319595Y-74291553D01*
X106346655Y-74318613D01*
X106384923Y-74318613D01*
X106411983Y-74291553D01*
X106415789Y-74272419D01*
X106415789Y-73272419D01*
X106791979Y-73272419D01*
X106791979Y-74272419D01*
X106795785Y-74291553D01*
X106822845Y-74318613D01*
X106861113Y-74318613D01*
X106888173Y-74291553D01*
X106891979Y-74272419D01*
X106891979Y-73460697D01*
X107369995Y-74297226D01*
X107382793Y-74311951D01*
X107389417Y-74313757D01*
X107394273Y-74318613D01*
X107407221Y-74318613D01*
X107419713Y-74322020D01*
X107425675Y-74318613D01*
X107432541Y-74318613D01*
X107441694Y-74309459D01*
X107452939Y-74303034D01*
X107454746Y-74296407D01*
X107459601Y-74291553D01*
X107463407Y-74272419D01*
X107463407Y-73272419D01*
X107459601Y-73253285D01*
X107432541Y-73226225D01*
X107394273Y-73226225D01*
X107367213Y-73253285D01*
X107363407Y-73272419D01*
X107363407Y-74084140D01*
X106885391Y-73247612D01*
X106872594Y-73232887D01*
X106865967Y-73231079D01*
X106861113Y-73226225D01*
X106848166Y-73226225D01*
X106835673Y-73222818D01*
X106829711Y-73226225D01*
X106822845Y-73226225D01*
X106813691Y-73235378D01*
X106802447Y-73241804D01*
X106800639Y-73248430D01*
X106795785Y-73253285D01*
X106791979Y-73272419D01*
X106415789Y-73272419D01*
X106411983Y-73253285D01*
X106384923Y-73226225D01*
X106346655Y-73226225D01*
X106319595Y-73253285D01*
X106315789Y-73272419D01*
X105049021Y-73272419D01*
X104959578Y-73227698D01*
X104957162Y-73227036D01*
X104956351Y-73226225D01*
X104948489Y-73224661D01*
X104940762Y-73222545D01*
X104939673Y-73222907D01*
X104937217Y-73222419D01*
X104603884Y-73222419D01*
X104584750Y-73226225D01*
X104557690Y-73253285D01*
X104553884Y-73272419D01*
X104190568Y-73272419D01*
X104048266Y-73224985D01*
X104040317Y-73223982D01*
X104032455Y-73222419D01*
X103794360Y-73222419D01*
X103791903Y-73222907D01*
X103790815Y-73222545D01*
X103783087Y-73224661D01*
X103775226Y-73226225D01*
X103774414Y-73227036D01*
X103771999Y-73227698D01*
X103676761Y-73275317D01*
X103670432Y-73280228D01*
X103663766Y-73284683D01*
X103616148Y-73332302D01*
X103611696Y-73338963D01*
X103606781Y-73345297D01*
X103559163Y-73440534D01*
X103558501Y-73442949D01*
X103557690Y-73443761D01*
X103556126Y-73451622D01*
X103554010Y-73459350D01*
X103554372Y-73460438D01*
X103553884Y-73462895D01*
X103225312Y-73462895D01*
X103225312Y-73272419D01*
X103221506Y-73253285D01*
X103194446Y-73226225D01*
X103156178Y-73226225D01*
X103129118Y-73253285D01*
X103125312Y-73272419D01*
X103125312Y-74070138D01*
X103086600Y-74147561D01*
X103050454Y-74183708D01*
X102973033Y-74222419D01*
X102806164Y-74222419D01*
X102728741Y-74183708D01*
X102692595Y-74147561D01*
X102653884Y-74070139D01*
X102653884Y-73272419D01*
X102650078Y-73253285D01*
X102623018Y-73226225D01*
X102584750Y-73226225D01*
X102557690Y-73253285D01*
X102553884Y-73272419D01*
X102442773Y-73272419D01*
X102442773Y-73111308D01*
X107574518Y-73111308D01*
X107574518Y-74433530D01*
G37*
D11*
G36*
X111895201Y-64663894D02*
G01*
X111931218Y-64699911D01*
X111950664Y-64738803D01*
X111975001Y-64836148D01*
X111975001Y-64903393D01*
X111950664Y-65000738D01*
X111931218Y-65039630D01*
X111895201Y-65075647D01*
X111837831Y-65094771D01*
X111782144Y-65094771D01*
X111782144Y-64644771D01*
X111837831Y-64644771D01*
X111895201Y-64663894D01*
G37*
G36*
X113695201Y-64663894D02*
G01*
X113731218Y-64699911D01*
X113750664Y-64738803D01*
X113775001Y-64836148D01*
X113775001Y-64903393D01*
X113750664Y-65000738D01*
X113731218Y-65039630D01*
X113695201Y-65075647D01*
X113637831Y-65094771D01*
X113582144Y-65094771D01*
X113582144Y-64644771D01*
X113637831Y-64644771D01*
X113695201Y-64663894D01*
G37*
G36*
X116723772Y-64663894D02*
G01*
X116759789Y-64699911D01*
X116779235Y-64738803D01*
X116803572Y-64836148D01*
X116803572Y-64903393D01*
X116779235Y-65000738D01*
X116759789Y-65039630D01*
X116723772Y-65075647D01*
X116666402Y-65094771D01*
X116610715Y-65094771D01*
X116610715Y-64644771D01*
X116666402Y-64644771D01*
X116723772Y-64663894D01*
G37*
G36*
X119009486Y-64663894D02*
G01*
X119045503Y-64699911D01*
X119064949Y-64738803D01*
X119089286Y-64836148D01*
X119089286Y-64903393D01*
X119064949Y-65000738D01*
X119045503Y-65039630D01*
X119009486Y-65075647D01*
X118952116Y-65094771D01*
X118896429Y-65094771D01*
X118896429Y-64644771D01*
X118952116Y-64644771D01*
X119009486Y-64663894D01*
G37*
G36*
X119314286Y-65319771D02*
G01*
X109986064Y-65319771D01*
X109986064Y-64862725D01*
X110061064Y-64862725D01*
X110062155Y-64866340D01*
X110062155Y-64870115D01*
X110066348Y-64880241D01*
X110069517Y-64890741D01*
X110071908Y-64893663D01*
X110073353Y-64897152D01*
X110081109Y-64904908D01*
X110088048Y-64913389D01*
X110091372Y-64915172D01*
X110094045Y-64917845D01*
X110104178Y-64922042D01*
X110113835Y-64927223D01*
X110117591Y-64927598D01*
X110121081Y-64929044D01*
X110132044Y-64929044D01*
X110142954Y-64930135D01*
X110146570Y-64929044D01*
X110150344Y-64929044D01*
X110160470Y-64924850D01*
X110170970Y-64921682D01*
X110173892Y-64919290D01*
X110177381Y-64917846D01*
X110188746Y-64908519D01*
X110208712Y-64888553D01*
X110239134Y-64873342D01*
X110346580Y-64873342D01*
X110377002Y-64888553D01*
X110388360Y-64899911D01*
X110403571Y-64930332D01*
X110403571Y-65037780D01*
X110388360Y-65068201D01*
X110377000Y-65079561D01*
X110346582Y-65094771D01*
X110239134Y-65094771D01*
X110208712Y-65079560D01*
X110188747Y-65059595D01*
X110177382Y-65050268D01*
X110150345Y-65039069D01*
X110121083Y-65039069D01*
X110094046Y-65050268D01*
X110073354Y-65070960D01*
X110062155Y-65097997D01*
X110062155Y-65127259D01*
X110073354Y-65154296D01*
X110082681Y-65165661D01*
X110111253Y-65194233D01*
X110117006Y-65198955D01*
X110118303Y-65200450D01*
X110120554Y-65201867D01*
X110122618Y-65203561D01*
X110124451Y-65204320D01*
X110130745Y-65208282D01*
X110187889Y-65236853D01*
X110201621Y-65242108D01*
X110204307Y-65242298D01*
X110206797Y-65243330D01*
X110221429Y-65244771D01*
X110364286Y-65244771D01*
X110378918Y-65243330D01*
X110381407Y-65242298D01*
X110384095Y-65242108D01*
X110397827Y-65236853D01*
X110454970Y-65208282D01*
X110461267Y-65204318D01*
X110463098Y-65203560D01*
X110465157Y-65201869D01*
X110467413Y-65200450D01*
X110468711Y-65198952D01*
X110474463Y-65194232D01*
X110503034Y-65165660D01*
X110507754Y-65159907D01*
X110509250Y-65158611D01*
X110510669Y-65156356D01*
X110512361Y-65154295D01*
X110513119Y-65152464D01*
X110517082Y-65146169D01*
X110545653Y-65089025D01*
X110550908Y-65075293D01*
X110551098Y-65072606D01*
X110552130Y-65070117D01*
X110553571Y-65055485D01*
X110553571Y-64912628D01*
X110552130Y-64897996D01*
X110551098Y-64895506D01*
X110550908Y-64892820D01*
X110545653Y-64879088D01*
X110517082Y-64821944D01*
X110513117Y-64815646D01*
X110512360Y-64813817D01*
X110510669Y-64811757D01*
X110509250Y-64809502D01*
X110507753Y-64808204D01*
X110503033Y-64802452D01*
X110474462Y-64773881D01*
X110468709Y-64769160D01*
X110467413Y-64767665D01*
X110465158Y-64766245D01*
X110463097Y-64764554D01*
X110461266Y-64763795D01*
X110454970Y-64759832D01*
X110397827Y-64731260D01*
X110384096Y-64726005D01*
X110381406Y-64725813D01*
X110378918Y-64724783D01*
X110364286Y-64723342D01*
X110224303Y-64723342D01*
X110232160Y-64644771D01*
X110450000Y-64644771D01*
X110464632Y-64643330D01*
X110491668Y-64632131D01*
X110512360Y-64611439D01*
X110523559Y-64584403D01*
X110523559Y-64579151D01*
X110575589Y-64579151D01*
X110578849Y-64593488D01*
X110778849Y-65193489D01*
X110784843Y-65206914D01*
X110788354Y-65210962D01*
X110790750Y-65215754D01*
X110797854Y-65221916D01*
X110804017Y-65229021D01*
X110808809Y-65231417D01*
X110812857Y-65234928D01*
X110821776Y-65237901D01*
X110830190Y-65242108D01*
X110835538Y-65242488D01*
X110840620Y-65244182D01*
X110849992Y-65243515D01*
X110859380Y-65244183D01*
X110864469Y-65242486D01*
X110869810Y-65242107D01*
X110878213Y-65237905D01*
X110887143Y-65234929D01*
X110891194Y-65231415D01*
X110895983Y-65229021D01*
X110902141Y-65221920D01*
X110909250Y-65215755D01*
X110911647Y-65210960D01*
X110915157Y-65206914D01*
X110921151Y-65193488D01*
X111121151Y-64593488D01*
X111124411Y-64579151D01*
X111123745Y-64569771D01*
X111632144Y-64569771D01*
X111632144Y-65169771D01*
X111633585Y-65184403D01*
X111644784Y-65211439D01*
X111665476Y-65232131D01*
X111692512Y-65243330D01*
X111707144Y-65244771D01*
X111850001Y-65244771D01*
X111857406Y-65244041D01*
X111859381Y-65244182D01*
X111861978Y-65243591D01*
X111864633Y-65243330D01*
X111866464Y-65242571D01*
X111873718Y-65240922D01*
X111959431Y-65212351D01*
X111972857Y-65206357D01*
X111974892Y-65204591D01*
X111977383Y-65203560D01*
X111988748Y-65194233D01*
X112045891Y-65137090D01*
X112050611Y-65131337D01*
X112052108Y-65130040D01*
X112053527Y-65127784D01*
X112055218Y-65125725D01*
X112055975Y-65123895D01*
X112059940Y-65117598D01*
X112088511Y-65060454D01*
X112088919Y-65059386D01*
X112089243Y-65058950D01*
X112091444Y-65052789D01*
X112093766Y-65046722D01*
X112093804Y-65046183D01*
X112094190Y-65045104D01*
X112122762Y-64930819D01*
X112123137Y-64928280D01*
X112123560Y-64927260D01*
X112123628Y-64926568D01*
X112233585Y-64926568D01*
X112233585Y-64955832D01*
X112244784Y-64982868D01*
X112265476Y-65003560D01*
X112292512Y-65014759D01*
X112307144Y-65016200D01*
X112460715Y-65016200D01*
X112460715Y-65169771D01*
X112462156Y-65184403D01*
X112473355Y-65211439D01*
X112494047Y-65232131D01*
X112521083Y-65243330D01*
X112550347Y-65243330D01*
X112577383Y-65232131D01*
X112598075Y-65211439D01*
X112609274Y-65184403D01*
X112610715Y-65169771D01*
X112610715Y-65016200D01*
X112764287Y-65016200D01*
X112778919Y-65014759D01*
X112805955Y-65003560D01*
X112826647Y-64982868D01*
X112837846Y-64955832D01*
X112837846Y-64926568D01*
X112826647Y-64899532D01*
X112805955Y-64878840D01*
X112778919Y-64867641D01*
X112764287Y-64866200D01*
X112610715Y-64866200D01*
X112610715Y-64712628D01*
X112609274Y-64697996D01*
X112598075Y-64670960D01*
X112577383Y-64650268D01*
X112550347Y-64639069D01*
X112521083Y-64639069D01*
X112494047Y-64650268D01*
X112473355Y-64670960D01*
X112462156Y-64697996D01*
X112460715Y-64712628D01*
X112460715Y-64866200D01*
X112307144Y-64866200D01*
X112292512Y-64867641D01*
X112265476Y-64878840D01*
X112244784Y-64899532D01*
X112233585Y-64926568D01*
X112123628Y-64926568D01*
X112124102Y-64921748D01*
X112124912Y-64916274D01*
X112124749Y-64915181D01*
X112125001Y-64912628D01*
X112125001Y-64826914D01*
X112124749Y-64824360D01*
X112124912Y-64823268D01*
X112124102Y-64817793D01*
X112123560Y-64812282D01*
X112123137Y-64811261D01*
X112122762Y-64808723D01*
X112094190Y-64694438D01*
X112093804Y-64693358D01*
X112093766Y-64692820D01*
X112091444Y-64686752D01*
X112089243Y-64680592D01*
X112088919Y-64680155D01*
X112088511Y-64679088D01*
X112059940Y-64621944D01*
X112055975Y-64615646D01*
X112055218Y-64613817D01*
X112053527Y-64611757D01*
X112052108Y-64609502D01*
X112050611Y-64608204D01*
X112045891Y-64602452D01*
X112013210Y-64569771D01*
X113432144Y-64569771D01*
X113432144Y-65169771D01*
X113433585Y-65184403D01*
X113444784Y-65211439D01*
X113465476Y-65232131D01*
X113492512Y-65243330D01*
X113507144Y-65244771D01*
X113650001Y-65244771D01*
X113657406Y-65244041D01*
X113659381Y-65244182D01*
X113661978Y-65243591D01*
X113664633Y-65243330D01*
X113666464Y-65242571D01*
X113673718Y-65240922D01*
X113759431Y-65212351D01*
X113772857Y-65206357D01*
X113774892Y-65204591D01*
X113777383Y-65203560D01*
X113788748Y-65194233D01*
X113845891Y-65137090D01*
X113850611Y-65131337D01*
X113852108Y-65130040D01*
X113853527Y-65127784D01*
X113855218Y-65125725D01*
X113855975Y-65123895D01*
X113859940Y-65117598D01*
X113888511Y-65060454D01*
X113888919Y-65059386D01*
X113889243Y-65058950D01*
X113891444Y-65052789D01*
X113893766Y-65046722D01*
X113893804Y-65046183D01*
X113894190Y-65045104D01*
X113922762Y-64930819D01*
X113923137Y-64928280D01*
X113923560Y-64927260D01*
X113923628Y-64926568D01*
X114033585Y-64926568D01*
X114033585Y-64955832D01*
X114044784Y-64982868D01*
X114065476Y-65003560D01*
X114092512Y-65014759D01*
X114107144Y-65016200D01*
X114564287Y-65016200D01*
X114578919Y-65014759D01*
X114605955Y-65003560D01*
X114626647Y-64982868D01*
X114637846Y-64955832D01*
X114637846Y-64926568D01*
X114626647Y-64899532D01*
X114605955Y-64878840D01*
X114578919Y-64867641D01*
X114564287Y-64866200D01*
X114107144Y-64866200D01*
X114092512Y-64867641D01*
X114065476Y-64878840D01*
X114044784Y-64899532D01*
X114033585Y-64926568D01*
X113923628Y-64926568D01*
X113924102Y-64921748D01*
X113924912Y-64916274D01*
X113924749Y-64915181D01*
X113925001Y-64912628D01*
X113925001Y-64826914D01*
X115203572Y-64826914D01*
X115203572Y-64912628D01*
X115203823Y-64915181D01*
X115203661Y-64916274D01*
X115204470Y-64921747D01*
X115205013Y-64927260D01*
X115205435Y-64928281D01*
X115205811Y-64930818D01*
X115234383Y-65045104D01*
X115234768Y-65046183D01*
X115234807Y-65046723D01*
X115237134Y-65052804D01*
X115239330Y-65058950D01*
X115239652Y-65059385D01*
X115240062Y-65060455D01*
X115268633Y-65117598D01*
X115272597Y-65123897D01*
X115273355Y-65125725D01*
X115275043Y-65127781D01*
X115276465Y-65130041D01*
X115277963Y-65131340D01*
X115282682Y-65137090D01*
X115339825Y-65194233D01*
X115351190Y-65203560D01*
X115353680Y-65204591D01*
X115355716Y-65206357D01*
X115369141Y-65212351D01*
X115454855Y-65240922D01*
X115462108Y-65242571D01*
X115463940Y-65243330D01*
X115466594Y-65243591D01*
X115469192Y-65244182D01*
X115471166Y-65244041D01*
X115478572Y-65244771D01*
X115535715Y-65244771D01*
X115543120Y-65244041D01*
X115545095Y-65244182D01*
X115547692Y-65243591D01*
X115550347Y-65243330D01*
X115552178Y-65242571D01*
X115559432Y-65240922D01*
X115645145Y-65212351D01*
X115658571Y-65206357D01*
X115660606Y-65204591D01*
X115663097Y-65203560D01*
X115674462Y-65194233D01*
X115703034Y-65165661D01*
X115712362Y-65154296D01*
X115722821Y-65129044D01*
X115723560Y-65127260D01*
X115725001Y-65112628D01*
X115725001Y-64912628D01*
X115723560Y-64897996D01*
X115712361Y-64870960D01*
X115691669Y-64850268D01*
X115664633Y-64839069D01*
X115650001Y-64837628D01*
X115535715Y-64837628D01*
X115521083Y-64839069D01*
X115494047Y-64850268D01*
X115473355Y-64870960D01*
X115462156Y-64897996D01*
X115462156Y-64927260D01*
X115473355Y-64954296D01*
X115494047Y-64974988D01*
X115521083Y-64986187D01*
X115535715Y-64987628D01*
X115575001Y-64987628D01*
X115575001Y-65077619D01*
X115523545Y-65094771D01*
X115490741Y-65094771D01*
X115433372Y-65075648D01*
X115397353Y-65039629D01*
X115377909Y-65000739D01*
X115353572Y-64903393D01*
X115353572Y-64836148D01*
X115377909Y-64738802D01*
X115397353Y-64699912D01*
X115433372Y-64663894D01*
X115490741Y-64644771D01*
X115546582Y-64644771D01*
X115587888Y-64665424D01*
X115601620Y-64670679D01*
X115630810Y-64672753D01*
X115658571Y-64663499D01*
X115680679Y-64644326D01*
X115693766Y-64618151D01*
X115695840Y-64588961D01*
X115689444Y-64569771D01*
X115832144Y-64569771D01*
X115832144Y-65169771D01*
X115833585Y-65184403D01*
X115844784Y-65211439D01*
X115865476Y-65232131D01*
X115892512Y-65243330D01*
X115921776Y-65243330D01*
X115948812Y-65232131D01*
X115969504Y-65211439D01*
X115980703Y-65184403D01*
X115982144Y-65169771D01*
X115982144Y-64852188D01*
X116184883Y-65206982D01*
X116187072Y-65210065D01*
X116187641Y-65211439D01*
X116189040Y-65212838D01*
X116193394Y-65218971D01*
X116201280Y-65225078D01*
X116208333Y-65232131D01*
X116212749Y-65233960D01*
X116216531Y-65236889D01*
X116226156Y-65239514D01*
X116235369Y-65243330D01*
X116240149Y-65243330D01*
X116244762Y-65244588D01*
X116254659Y-65243330D01*
X116264633Y-65243330D01*
X116269048Y-65241501D01*
X116273793Y-65240898D01*
X116282458Y-65235946D01*
X116291669Y-65232131D01*
X116295047Y-65228752D01*
X116299201Y-65226379D01*
X116305310Y-65218489D01*
X116312361Y-65211439D01*
X116314190Y-65207022D01*
X116317118Y-65203242D01*
X116319742Y-65193618D01*
X116323560Y-65184403D01*
X116324296Y-65176920D01*
X116324818Y-65175010D01*
X116324630Y-65173534D01*
X116325001Y-65169771D01*
X116325001Y-64569771D01*
X116460715Y-64569771D01*
X116460715Y-65169771D01*
X116462156Y-65184403D01*
X116473355Y-65211439D01*
X116494047Y-65232131D01*
X116521083Y-65243330D01*
X116535715Y-65244771D01*
X116678572Y-65244771D01*
X116685977Y-65244041D01*
X116687952Y-65244182D01*
X116690549Y-65243591D01*
X116693204Y-65243330D01*
X116695035Y-65242571D01*
X116702289Y-65240922D01*
X116788002Y-65212351D01*
X116801428Y-65206357D01*
X116803463Y-65204591D01*
X116805954Y-65203560D01*
X116817319Y-65194233D01*
X116874462Y-65137090D01*
X116879182Y-65131337D01*
X116880679Y-65130040D01*
X116882098Y-65127784D01*
X116883789Y-65125725D01*
X116884546Y-65123895D01*
X116888511Y-65117598D01*
X116917082Y-65060454D01*
X116917490Y-65059386D01*
X116917814Y-65058950D01*
X116920015Y-65052789D01*
X116922337Y-65046722D01*
X116922375Y-65046183D01*
X116922761Y-65045104D01*
X116951333Y-64930819D01*
X116951708Y-64928280D01*
X116952131Y-64927260D01*
X116952673Y-64921748D01*
X116953483Y-64916274D01*
X116953320Y-64915181D01*
X116953572Y-64912628D01*
X116953572Y-64826914D01*
X117489286Y-64826914D01*
X117489286Y-64912628D01*
X117489537Y-64915181D01*
X117489375Y-64916274D01*
X117490184Y-64921747D01*
X117490727Y-64927260D01*
X117491149Y-64928281D01*
X117491525Y-64930818D01*
X117520097Y-65045104D01*
X117520482Y-65046183D01*
X117520521Y-65046723D01*
X117522848Y-65052804D01*
X117525044Y-65058950D01*
X117525366Y-65059385D01*
X117525776Y-65060455D01*
X117554347Y-65117598D01*
X117558311Y-65123897D01*
X117559069Y-65125725D01*
X117560757Y-65127781D01*
X117562179Y-65130041D01*
X117563677Y-65131340D01*
X117568396Y-65137090D01*
X117625539Y-65194233D01*
X117636904Y-65203560D01*
X117639394Y-65204591D01*
X117641430Y-65206357D01*
X117654855Y-65212351D01*
X117740569Y-65240922D01*
X117747822Y-65242571D01*
X117749654Y-65243330D01*
X117752308Y-65243591D01*
X117754906Y-65244182D01*
X117756880Y-65244041D01*
X117764286Y-65244771D01*
X117821429Y-65244771D01*
X117828834Y-65244041D01*
X117830809Y-65244182D01*
X117833406Y-65243591D01*
X117836061Y-65243330D01*
X117837892Y-65242571D01*
X117845146Y-65240922D01*
X117930859Y-65212351D01*
X117944285Y-65206357D01*
X117946320Y-65204591D01*
X117948811Y-65203560D01*
X117960176Y-65194233D01*
X117988748Y-65165661D01*
X117998076Y-65154296D01*
X118008535Y-65129044D01*
X118009274Y-65127260D01*
X118010715Y-65112628D01*
X118010715Y-64912628D01*
X118009274Y-64897996D01*
X117998075Y-64870960D01*
X117977383Y-64850268D01*
X117950347Y-64839069D01*
X117935715Y-64837628D01*
X117821429Y-64837628D01*
X117806797Y-64839069D01*
X117779761Y-64850268D01*
X117759069Y-64870960D01*
X117747870Y-64897996D01*
X117747870Y-64927260D01*
X117759069Y-64954296D01*
X117779761Y-64974988D01*
X117806797Y-64986187D01*
X117821429Y-64987628D01*
X117860715Y-64987628D01*
X117860715Y-65077619D01*
X117809259Y-65094771D01*
X117776455Y-65094771D01*
X117719086Y-65075648D01*
X117683067Y-65039629D01*
X117663623Y-65000739D01*
X117639286Y-64903393D01*
X117639286Y-64836148D01*
X117663623Y-64738802D01*
X117683067Y-64699912D01*
X117719086Y-64663894D01*
X117776455Y-64644771D01*
X117832296Y-64644771D01*
X117873602Y-64665424D01*
X117887334Y-64670679D01*
X117916524Y-64672753D01*
X117944285Y-64663499D01*
X117966393Y-64644326D01*
X117979480Y-64618151D01*
X117981554Y-64588961D01*
X117975158Y-64569771D01*
X118117858Y-64569771D01*
X118117858Y-65169771D01*
X118119299Y-65184403D01*
X118130498Y-65211439D01*
X118151190Y-65232131D01*
X118178226Y-65243330D01*
X118207490Y-65243330D01*
X118234526Y-65232131D01*
X118255218Y-65211439D01*
X118266417Y-65184403D01*
X118267858Y-65169771D01*
X118267858Y-64852188D01*
X118470597Y-65206982D01*
X118472786Y-65210065D01*
X118473355Y-65211439D01*
X118474754Y-65212838D01*
X118479108Y-65218971D01*
X118486994Y-65225078D01*
X118494047Y-65232131D01*
X118498463Y-65233960D01*
X118502245Y-65236889D01*
X118511870Y-65239514D01*
X118521083Y-65243330D01*
X118525863Y-65243330D01*
X118530476Y-65244588D01*
X118540373Y-65243330D01*
X118550347Y-65243330D01*
X118554762Y-65241501D01*
X118559507Y-65240898D01*
X118568172Y-65235946D01*
X118577383Y-65232131D01*
X118580761Y-65228752D01*
X118584915Y-65226379D01*
X118591024Y-65218489D01*
X118598075Y-65211439D01*
X118599904Y-65207022D01*
X118602832Y-65203242D01*
X118605456Y-65193618D01*
X118609274Y-65184403D01*
X118610010Y-65176920D01*
X118610532Y-65175010D01*
X118610344Y-65173534D01*
X118610715Y-65169771D01*
X118610715Y-64569771D01*
X118746429Y-64569771D01*
X118746429Y-65169771D01*
X118747870Y-65184403D01*
X118759069Y-65211439D01*
X118779761Y-65232131D01*
X118806797Y-65243330D01*
X118821429Y-65244771D01*
X118964286Y-65244771D01*
X118971691Y-65244041D01*
X118973666Y-65244182D01*
X118976263Y-65243591D01*
X118978918Y-65243330D01*
X118980749Y-65242571D01*
X118988003Y-65240922D01*
X119073716Y-65212351D01*
X119087142Y-65206357D01*
X119089177Y-65204591D01*
X119091668Y-65203560D01*
X119103033Y-65194233D01*
X119160176Y-65137090D01*
X119164896Y-65131337D01*
X119166393Y-65130040D01*
X119167812Y-65127784D01*
X119169503Y-65125725D01*
X119170260Y-65123895D01*
X119174225Y-65117598D01*
X119202796Y-65060454D01*
X119203204Y-65059386D01*
X119203528Y-65058950D01*
X119205729Y-65052789D01*
X119208051Y-65046722D01*
X119208089Y-65046183D01*
X119208475Y-65045104D01*
X119237047Y-64930819D01*
X119237422Y-64928280D01*
X119237845Y-64927260D01*
X119238387Y-64921748D01*
X119239197Y-64916274D01*
X119239034Y-64915181D01*
X119239286Y-64912628D01*
X119239286Y-64826914D01*
X119239034Y-64824360D01*
X119239197Y-64823268D01*
X119238387Y-64817793D01*
X119237845Y-64812282D01*
X119237422Y-64811261D01*
X119237047Y-64808723D01*
X119208475Y-64694438D01*
X119208089Y-64693358D01*
X119208051Y-64692820D01*
X119205729Y-64686752D01*
X119203528Y-64680592D01*
X119203204Y-64680155D01*
X119202796Y-64679088D01*
X119174225Y-64621944D01*
X119170260Y-64615646D01*
X119169503Y-64613817D01*
X119167812Y-64611757D01*
X119166393Y-64609502D01*
X119164896Y-64608204D01*
X119160176Y-64602452D01*
X119103033Y-64545309D01*
X119091668Y-64535982D01*
X119089177Y-64534950D01*
X119087142Y-64533185D01*
X119073716Y-64527191D01*
X118988003Y-64498620D01*
X118980749Y-64496970D01*
X118978918Y-64496212D01*
X118976263Y-64495950D01*
X118973666Y-64495360D01*
X118971691Y-64495500D01*
X118964286Y-64494771D01*
X118821429Y-64494771D01*
X118806797Y-64496212D01*
X118779761Y-64507411D01*
X118759069Y-64528103D01*
X118747870Y-64555139D01*
X118746429Y-64569771D01*
X118610715Y-64569771D01*
X118609274Y-64555139D01*
X118598075Y-64528103D01*
X118577383Y-64507411D01*
X118550347Y-64496212D01*
X118521083Y-64496212D01*
X118494047Y-64507411D01*
X118473355Y-64528103D01*
X118462156Y-64555139D01*
X118460715Y-64569771D01*
X118460715Y-64887354D01*
X118257976Y-64532561D01*
X118255787Y-64529477D01*
X118255218Y-64528103D01*
X118253818Y-64526703D01*
X118249466Y-64520571D01*
X118241576Y-64514461D01*
X118234526Y-64507411D01*
X118230109Y-64505581D01*
X118226329Y-64502654D01*
X118216705Y-64500029D01*
X118207490Y-64496212D01*
X118202709Y-64496212D01*
X118198097Y-64494954D01*
X118188200Y-64496212D01*
X118178226Y-64496212D01*
X118173810Y-64498041D01*
X118169067Y-64498644D01*
X118160402Y-64503594D01*
X118151190Y-64507411D01*
X118147811Y-64510789D01*
X118143658Y-64513163D01*
X118137548Y-64521052D01*
X118130498Y-64528103D01*
X118128668Y-64532519D01*
X118125741Y-64536300D01*
X118123116Y-64545923D01*
X118119299Y-64555139D01*
X118118562Y-64562621D01*
X118118041Y-64564532D01*
X118118228Y-64566007D01*
X118117858Y-64569771D01*
X117975158Y-64569771D01*
X117972301Y-64561200D01*
X117953127Y-64539093D01*
X117940684Y-64531260D01*
X117883542Y-64502689D01*
X117869810Y-64497434D01*
X117867122Y-64497243D01*
X117864633Y-64496212D01*
X117850001Y-64494771D01*
X117764286Y-64494771D01*
X117756880Y-64495500D01*
X117754906Y-64495360D01*
X117752308Y-64495950D01*
X117749654Y-64496212D01*
X117747822Y-64496970D01*
X117740569Y-64498620D01*
X117654855Y-64527191D01*
X117641430Y-64533185D01*
X117639394Y-64534950D01*
X117636904Y-64535982D01*
X117625539Y-64545309D01*
X117568396Y-64602452D01*
X117563677Y-64608201D01*
X117562179Y-64609501D01*
X117560757Y-64611760D01*
X117559069Y-64613817D01*
X117558311Y-64615644D01*
X117554347Y-64621944D01*
X117525776Y-64679087D01*
X117525366Y-64680156D01*
X117525044Y-64680592D01*
X117522848Y-64686737D01*
X117520521Y-64692819D01*
X117520482Y-64693358D01*
X117520097Y-64694438D01*
X117491525Y-64808724D01*
X117491149Y-64811260D01*
X117490727Y-64812282D01*
X117490184Y-64817794D01*
X117489375Y-64823268D01*
X117489537Y-64824360D01*
X117489286Y-64826914D01*
X116953572Y-64826914D01*
X116953320Y-64824360D01*
X116953483Y-64823268D01*
X116952673Y-64817793D01*
X116952131Y-64812282D01*
X116951708Y-64811261D01*
X116951333Y-64808723D01*
X116922761Y-64694438D01*
X116922375Y-64693358D01*
X116922337Y-64692820D01*
X116920015Y-64686752D01*
X116917814Y-64680592D01*
X116917490Y-64680155D01*
X116917082Y-64679088D01*
X116888511Y-64621944D01*
X116884546Y-64615646D01*
X116883789Y-64613817D01*
X116882098Y-64611757D01*
X116880679Y-64609502D01*
X116879182Y-64608204D01*
X116874462Y-64602452D01*
X116817319Y-64545309D01*
X116805954Y-64535982D01*
X116803463Y-64534950D01*
X116801428Y-64533185D01*
X116788002Y-64527191D01*
X116702289Y-64498620D01*
X116695035Y-64496970D01*
X116693204Y-64496212D01*
X116690549Y-64495950D01*
X116687952Y-64495360D01*
X116685977Y-64495500D01*
X116678572Y-64494771D01*
X116535715Y-64494771D01*
X116521083Y-64496212D01*
X116494047Y-64507411D01*
X116473355Y-64528103D01*
X116462156Y-64555139D01*
X116460715Y-64569771D01*
X116325001Y-64569771D01*
X116323560Y-64555139D01*
X116312361Y-64528103D01*
X116291669Y-64507411D01*
X116264633Y-64496212D01*
X116235369Y-64496212D01*
X116208333Y-64507411D01*
X116187641Y-64528103D01*
X116176442Y-64555139D01*
X116175001Y-64569771D01*
X116175001Y-64887354D01*
X115972262Y-64532561D01*
X115970073Y-64529477D01*
X115969504Y-64528103D01*
X115968104Y-64526703D01*
X115963752Y-64520571D01*
X115955862Y-64514461D01*
X115948812Y-64507411D01*
X115944395Y-64505581D01*
X115940615Y-64502654D01*
X115930991Y-64500029D01*
X115921776Y-64496212D01*
X115916995Y-64496212D01*
X115912383Y-64494954D01*
X115902486Y-64496212D01*
X115892512Y-64496212D01*
X115888096Y-64498041D01*
X115883353Y-64498644D01*
X115874688Y-64503594D01*
X115865476Y-64507411D01*
X115862097Y-64510789D01*
X115857944Y-64513163D01*
X115851834Y-64521052D01*
X115844784Y-64528103D01*
X115842954Y-64532519D01*
X115840027Y-64536300D01*
X115837402Y-64545923D01*
X115833585Y-64555139D01*
X115832848Y-64562621D01*
X115832327Y-64564532D01*
X115832514Y-64566007D01*
X115832144Y-64569771D01*
X115689444Y-64569771D01*
X115686587Y-64561200D01*
X115667413Y-64539093D01*
X115654970Y-64531260D01*
X115597828Y-64502689D01*
X115584096Y-64497434D01*
X115581408Y-64497243D01*
X115578919Y-64496212D01*
X115564287Y-64494771D01*
X115478572Y-64494771D01*
X115471166Y-64495500D01*
X115469192Y-64495360D01*
X115466594Y-64495950D01*
X115463940Y-64496212D01*
X115462108Y-64496970D01*
X115454855Y-64498620D01*
X115369141Y-64527191D01*
X115355716Y-64533185D01*
X115353680Y-64534950D01*
X115351190Y-64535982D01*
X115339825Y-64545309D01*
X115282682Y-64602452D01*
X115277963Y-64608201D01*
X115276465Y-64609501D01*
X115275043Y-64611760D01*
X115273355Y-64613817D01*
X115272597Y-64615644D01*
X115268633Y-64621944D01*
X115240062Y-64679087D01*
X115239652Y-64680156D01*
X115239330Y-64680592D01*
X115237134Y-64686737D01*
X115234807Y-64692819D01*
X115234768Y-64693358D01*
X115234383Y-64694438D01*
X115205811Y-64808724D01*
X115205435Y-64811260D01*
X115205013Y-64812282D01*
X115204470Y-64817794D01*
X115203661Y-64823268D01*
X115203823Y-64824360D01*
X115203572Y-64826914D01*
X113925001Y-64826914D01*
X113924749Y-64824360D01*
X113924912Y-64823268D01*
X113924102Y-64817793D01*
X113923560Y-64812282D01*
X113923137Y-64811261D01*
X113922762Y-64808723D01*
X113894190Y-64694438D01*
X113893804Y-64693358D01*
X113893766Y-64692820D01*
X113891444Y-64686752D01*
X113889243Y-64680592D01*
X113888919Y-64680155D01*
X113888511Y-64679088D01*
X113859940Y-64621944D01*
X113855975Y-64615646D01*
X113855218Y-64613817D01*
X113853527Y-64611757D01*
X113852108Y-64609502D01*
X113850611Y-64608204D01*
X113845891Y-64602452D01*
X113788748Y-64545309D01*
X113777383Y-64535982D01*
X113774892Y-64534950D01*
X113772857Y-64533185D01*
X113759431Y-64527191D01*
X113673718Y-64498620D01*
X113666464Y-64496970D01*
X113664633Y-64496212D01*
X113661978Y-64495950D01*
X113659381Y-64495360D01*
X113657406Y-64495500D01*
X113650001Y-64494771D01*
X113507144Y-64494771D01*
X113492512Y-64496212D01*
X113465476Y-64507411D01*
X113444784Y-64528103D01*
X113433585Y-64555139D01*
X113432144Y-64569771D01*
X112013210Y-64569771D01*
X111988748Y-64545309D01*
X111977383Y-64535982D01*
X111974892Y-64534950D01*
X111972857Y-64533185D01*
X111959431Y-64527191D01*
X111873718Y-64498620D01*
X111866464Y-64496970D01*
X111864633Y-64496212D01*
X111861978Y-64495950D01*
X111859381Y-64495360D01*
X111857406Y-64495500D01*
X111850001Y-64494771D01*
X111707144Y-64494771D01*
X111692512Y-64496212D01*
X111665476Y-64507411D01*
X111644784Y-64528103D01*
X111633585Y-64555139D01*
X111632144Y-64569771D01*
X111123745Y-64569771D01*
X111122337Y-64549961D01*
X111109250Y-64523787D01*
X111087143Y-64504613D01*
X111059380Y-64495359D01*
X111030190Y-64497434D01*
X111004017Y-64510521D01*
X110984843Y-64532628D01*
X110978849Y-64546053D01*
X110849999Y-64932600D01*
X110721151Y-64546054D01*
X110715157Y-64532628D01*
X110695983Y-64510521D01*
X110669810Y-64497435D01*
X110640620Y-64495360D01*
X110612857Y-64504614D01*
X110590750Y-64523788D01*
X110577664Y-64549961D01*
X110575589Y-64579151D01*
X110523559Y-64579151D01*
X110523559Y-64555139D01*
X110512360Y-64528103D01*
X110491668Y-64507411D01*
X110464632Y-64496212D01*
X110450000Y-64494771D01*
X110164286Y-64494771D01*
X110158874Y-64495303D01*
X110157046Y-64495121D01*
X110155259Y-64495659D01*
X110149654Y-64496212D01*
X110139527Y-64500406D01*
X110129030Y-64503574D01*
X110126106Y-64505965D01*
X110122618Y-64507411D01*
X110114864Y-64515164D01*
X110106382Y-64522105D01*
X110104597Y-64525431D01*
X110101926Y-64528103D01*
X110097730Y-64538232D01*
X110092548Y-64547892D01*
X110091440Y-64553416D01*
X110090727Y-64555139D01*
X110090727Y-64556975D01*
X110089658Y-64562308D01*
X110061086Y-64848022D01*
X110061064Y-64862725D01*
X109986064Y-64862725D01*
X109986064Y-64419771D01*
X119314286Y-64419771D01*
X119314286Y-65319771D01*
G37*
D10*
G36*
X98801390Y-38729104D02*
G01*
X98760069Y-38853064D01*
X98726534Y-38886600D01*
X98649111Y-38925312D01*
X98529861Y-38925312D01*
X98452437Y-38886600D01*
X98416292Y-38850456D01*
X98377580Y-38773032D01*
X98377580Y-38453884D01*
X98801390Y-38453884D01*
X98801390Y-38729104D01*
G37*
G36*
X99277580Y-38725413D02*
G01*
X99238868Y-38802836D01*
X99202724Y-38838981D01*
X99125301Y-38877693D01*
X99053670Y-38877693D01*
X98976246Y-38838981D01*
X98940101Y-38802837D01*
X98901390Y-38725414D01*
X98901390Y-38453884D01*
X99277580Y-38453884D01*
X99277580Y-38725413D01*
G37*
G36*
X99488691Y-41374518D02*
G01*
X98166469Y-41374518D01*
X98166469Y-41219713D01*
X98277979Y-41219713D01*
X98281386Y-41225675D01*
X98281386Y-41232541D01*
X98290539Y-41241694D01*
X98296965Y-41252939D01*
X98303591Y-41254746D01*
X98308446Y-41259601D01*
X98327580Y-41263407D01*
X99327580Y-41263407D01*
X99346714Y-41259601D01*
X99373774Y-41232541D01*
X99373774Y-41194273D01*
X99346714Y-41167213D01*
X99327580Y-41163407D01*
X98515858Y-41163407D01*
X99352387Y-40685391D01*
X99367112Y-40672593D01*
X99368918Y-40665968D01*
X99373774Y-40661113D01*
X99373774Y-40648165D01*
X99377181Y-40635673D01*
X99373774Y-40629710D01*
X99373774Y-40622845D01*
X99364620Y-40613691D01*
X99358195Y-40602447D01*
X99351568Y-40600639D01*
X99346714Y-40595785D01*
X99327580Y-40591979D01*
X98327580Y-40591979D01*
X98308446Y-40595785D01*
X98281386Y-40622845D01*
X98281386Y-40661113D01*
X98308446Y-40688173D01*
X98327580Y-40691979D01*
X99139302Y-40691979D01*
X98302773Y-41169995D01*
X98288048Y-41182792D01*
X98286240Y-41189418D01*
X98281386Y-41194273D01*
X98281386Y-41207220D01*
X98277979Y-41219713D01*
X98166469Y-41219713D01*
X98166469Y-40146655D01*
X98281386Y-40146655D01*
X98281386Y-40184923D01*
X98308446Y-40211983D01*
X98327580Y-40215789D01*
X99327580Y-40215789D01*
X99346714Y-40211983D01*
X99373774Y-40184923D01*
X99373774Y-40146655D01*
X99346714Y-40119595D01*
X99327580Y-40115789D01*
X98327580Y-40115789D01*
X98308446Y-40119595D01*
X98281386Y-40146655D01*
X98166469Y-40146655D01*
X98166469Y-38403884D01*
X98277580Y-38403884D01*
X98277580Y-38784836D01*
X98278068Y-38787292D01*
X98277706Y-38788381D01*
X98279822Y-38796108D01*
X98281386Y-38803970D01*
X98282197Y-38804781D01*
X98282859Y-38807197D01*
X98330479Y-38902435D01*
X98335394Y-38908769D01*
X98339845Y-38915429D01*
X98387463Y-38963048D01*
X98394129Y-38967502D01*
X98400458Y-38972414D01*
X98495696Y-39020033D01*
X98498111Y-39020694D01*
X98498923Y-39021506D01*
X98506784Y-39023069D01*
X98514512Y-39025186D01*
X98515600Y-39024823D01*
X98518057Y-39025312D01*
X98660914Y-39025312D01*
X98663370Y-39024823D01*
X98664459Y-39025186D01*
X98672186Y-39023069D01*
X98680048Y-39021506D01*
X98680859Y-39020694D01*
X98683275Y-39020033D01*
X98778512Y-38972415D01*
X98784845Y-38967499D01*
X98791507Y-38963048D01*
X98839126Y-38915430D01*
X98840517Y-38913347D01*
X98841544Y-38912834D01*
X98845510Y-38905875D01*
X98849965Y-38899209D01*
X98849965Y-38898060D01*
X98851205Y-38895885D01*
X98861592Y-38864724D01*
X98863654Y-38867810D01*
X98911272Y-38915429D01*
X98917938Y-38919883D01*
X98924267Y-38924795D01*
X99019505Y-38972414D01*
X99021920Y-38973075D01*
X99022732Y-38973887D01*
X99030593Y-38975450D01*
X99038321Y-38977567D01*
X99039409Y-38977204D01*
X99041866Y-38977693D01*
X99137104Y-38977693D01*
X99139560Y-38977204D01*
X99140649Y-38977567D01*
X99148376Y-38975450D01*
X99156238Y-38973887D01*
X99157049Y-38973075D01*
X99159465Y-38972414D01*
X99254702Y-38924796D01*
X99261035Y-38919880D01*
X99267697Y-38915429D01*
X99315316Y-38867811D01*
X99319770Y-38861144D01*
X99324682Y-38854816D01*
X99372301Y-38759578D01*
X99372962Y-38757162D01*
X99373774Y-38756351D01*
X99375337Y-38748489D01*
X99377454Y-38740762D01*
X99377091Y-38739673D01*
X99377580Y-38737217D01*
X99377580Y-38403884D01*
X99373774Y-38384750D01*
X99346714Y-38357690D01*
X99327580Y-38353884D01*
X98327580Y-38353884D01*
X98308446Y-38357690D01*
X98281386Y-38384750D01*
X98277580Y-38403884D01*
X98166469Y-38403884D01*
X98166469Y-37546741D01*
X98277580Y-37546741D01*
X98277580Y-37784836D01*
X98278068Y-37787292D01*
X98277706Y-37788381D01*
X98279822Y-37796108D01*
X98281386Y-37803970D01*
X98282197Y-37804781D01*
X98282859Y-37807197D01*
X98330479Y-37902435D01*
X98335394Y-37908769D01*
X98339845Y-37915429D01*
X98387463Y-37963048D01*
X98394129Y-37967502D01*
X98400458Y-37972414D01*
X98495696Y-38020033D01*
X98498111Y-38020694D01*
X98498923Y-38021506D01*
X98506784Y-38023069D01*
X98514512Y-38025186D01*
X98515600Y-38024823D01*
X98518057Y-38025312D01*
X98613295Y-38025312D01*
X98615751Y-38024823D01*
X98616840Y-38025186D01*
X98624567Y-38023069D01*
X98632429Y-38021506D01*
X98633240Y-38020694D01*
X98635656Y-38020033D01*
X98730893Y-37972415D01*
X98737226Y-37967499D01*
X98743888Y-37963048D01*
X98791507Y-37915430D01*
X98795961Y-37908763D01*
X98800873Y-37902435D01*
X98848492Y-37807197D01*
X98849938Y-37801915D01*
X98852278Y-37796963D01*
X98898566Y-37611811D01*
X98940101Y-37528739D01*
X98976246Y-37492595D01*
X99053670Y-37453884D01*
X99125301Y-37453884D01*
X99202724Y-37492595D01*
X99238868Y-37528740D01*
X99277580Y-37606163D01*
X99277580Y-37824342D01*
X99232527Y-37959501D01*
X99230087Y-37978856D01*
X99247201Y-38013085D01*
X99283505Y-38025186D01*
X99317734Y-38008072D01*
X99327395Y-37991123D01*
X99375014Y-37848267D01*
X99376016Y-37840316D01*
X99377580Y-37832455D01*
X99377580Y-37594360D01*
X99377091Y-37591903D01*
X99377454Y-37590815D01*
X99375337Y-37583087D01*
X99373774Y-37575226D01*
X99372962Y-37574414D01*
X99372301Y-37571999D01*
X99324682Y-37476761D01*
X99319770Y-37470432D01*
X99315316Y-37463766D01*
X99267697Y-37416148D01*
X99261035Y-37411696D01*
X99254702Y-37406781D01*
X99159465Y-37359163D01*
X99157049Y-37358501D01*
X99156238Y-37357690D01*
X99148376Y-37356126D01*
X99140649Y-37354010D01*
X99139560Y-37354372D01*
X99137104Y-37353884D01*
X99041866Y-37353884D01*
X99039409Y-37354372D01*
X99038321Y-37354010D01*
X99030593Y-37356126D01*
X99022732Y-37357690D01*
X99021920Y-37358501D01*
X99019505Y-37359163D01*
X98924267Y-37406782D01*
X98917938Y-37411693D01*
X98911272Y-37416148D01*
X98863654Y-37463767D01*
X98859202Y-37470428D01*
X98854287Y-37476762D01*
X98806669Y-37571999D01*
X98805222Y-37577280D01*
X98802883Y-37582233D01*
X98756595Y-37767383D01*
X98715059Y-37850455D01*
X98678915Y-37886600D01*
X98601492Y-37925312D01*
X98529861Y-37925312D01*
X98452437Y-37886600D01*
X98416292Y-37850456D01*
X98377580Y-37773032D01*
X98377580Y-37554855D01*
X98422634Y-37419696D01*
X98425074Y-37400340D01*
X98407960Y-37366111D01*
X98371656Y-37354010D01*
X98337427Y-37371124D01*
X98327766Y-37388072D01*
X98280146Y-37530929D01*
X98279143Y-37538879D01*
X98277580Y-37546741D01*
X98166469Y-37546741D01*
X98166469Y-36594360D01*
X98277580Y-36594360D01*
X98277580Y-36784836D01*
X98278068Y-36787292D01*
X98277706Y-36788381D01*
X98279822Y-36796108D01*
X98281386Y-36803970D01*
X98282197Y-36804781D01*
X98282859Y-36807197D01*
X98330479Y-36902435D01*
X98335394Y-36908769D01*
X98339845Y-36915429D01*
X98387463Y-36963048D01*
X98394129Y-36967502D01*
X98400458Y-36972414D01*
X98495696Y-37020033D01*
X98498111Y-37020694D01*
X98498923Y-37021506D01*
X98506784Y-37023069D01*
X98514512Y-37025186D01*
X98515600Y-37024823D01*
X98518057Y-37025312D01*
X99327580Y-37025312D01*
X99346714Y-37021506D01*
X99373774Y-36994446D01*
X99373774Y-36956178D01*
X99346714Y-36929118D01*
X99327580Y-36925312D01*
X98529861Y-36925312D01*
X98452437Y-36886600D01*
X98416292Y-36850456D01*
X98377580Y-36773032D01*
X98377580Y-36606163D01*
X98416292Y-36528739D01*
X98452437Y-36492595D01*
X98529861Y-36453884D01*
X99327580Y-36453884D01*
X99346714Y-36450078D01*
X99373774Y-36423018D01*
X99373774Y-36384750D01*
X99346714Y-36357690D01*
X99327580Y-36353884D01*
X98518057Y-36353884D01*
X98515600Y-36354372D01*
X98514512Y-36354010D01*
X98506784Y-36356126D01*
X98498923Y-36357690D01*
X98498111Y-36358501D01*
X98495696Y-36359163D01*
X98400458Y-36406782D01*
X98394129Y-36411693D01*
X98387463Y-36416148D01*
X98339845Y-36463767D01*
X98335394Y-36470426D01*
X98330479Y-36476761D01*
X98282859Y-36571999D01*
X98282197Y-36574414D01*
X98281386Y-36575226D01*
X98279822Y-36583087D01*
X98277706Y-36590815D01*
X98278068Y-36591903D01*
X98277580Y-36594360D01*
X98166469Y-36594360D01*
X98166469Y-36242773D01*
X99488691Y-36242773D01*
X99488691Y-41374518D01*
G37*
D11*
G36*
X92330914Y-69563894D02*
G01*
X92366931Y-69599911D01*
X92386377Y-69638803D01*
X92410714Y-69736148D01*
X92410714Y-69803393D01*
X92386377Y-69900738D01*
X92366931Y-69939630D01*
X92330914Y-69975647D01*
X92273544Y-69994771D01*
X92217857Y-69994771D01*
X92217857Y-69544771D01*
X92273544Y-69544771D01*
X92330914Y-69563894D01*
G37*
G36*
X94616628Y-69563894D02*
G01*
X94652645Y-69599911D01*
X94672091Y-69638803D01*
X94696428Y-69736148D01*
X94696428Y-69803393D01*
X94672091Y-69900738D01*
X94652645Y-69939630D01*
X94616628Y-69975647D01*
X94559258Y-69994771D01*
X94503571Y-69994771D01*
X94503571Y-69544771D01*
X94559258Y-69544771D01*
X94616628Y-69563894D01*
G37*
G36*
X95673771Y-69563894D02*
G01*
X95709788Y-69599911D01*
X95729234Y-69638803D01*
X95753571Y-69736148D01*
X95753571Y-69803393D01*
X95729234Y-69900738D01*
X95709788Y-69939630D01*
X95673771Y-69975647D01*
X95616401Y-69994771D01*
X95560714Y-69994771D01*
X95560714Y-69544771D01*
X95616401Y-69544771D01*
X95673771Y-69563894D01*
G37*
G36*
X97473771Y-69563894D02*
G01*
X97509788Y-69599911D01*
X97529234Y-69638803D01*
X97553571Y-69736148D01*
X97553571Y-69803393D01*
X97529234Y-69900738D01*
X97509788Y-69939630D01*
X97473771Y-69975647D01*
X97416401Y-69994771D01*
X97360714Y-69994771D01*
X97360714Y-69544771D01*
X97416401Y-69544771D01*
X97473771Y-69563894D01*
G37*
G36*
X100120839Y-70219771D02*
G01*
X90735714Y-70219771D01*
X90735714Y-69726914D01*
X90810714Y-69726914D01*
X90810714Y-69812628D01*
X90810965Y-69815181D01*
X90810803Y-69816274D01*
X90811612Y-69821747D01*
X90812155Y-69827260D01*
X90812577Y-69828281D01*
X90812953Y-69830818D01*
X90841525Y-69945104D01*
X90841910Y-69946183D01*
X90841949Y-69946723D01*
X90844276Y-69952804D01*
X90846472Y-69958950D01*
X90846794Y-69959385D01*
X90847204Y-69960455D01*
X90875775Y-70017598D01*
X90879739Y-70023897D01*
X90880497Y-70025725D01*
X90882185Y-70027781D01*
X90883607Y-70030041D01*
X90885105Y-70031340D01*
X90889824Y-70037090D01*
X90946967Y-70094233D01*
X90958332Y-70103560D01*
X90960822Y-70104591D01*
X90962858Y-70106357D01*
X90976283Y-70112351D01*
X91061997Y-70140922D01*
X91069250Y-70142571D01*
X91071082Y-70143330D01*
X91073736Y-70143591D01*
X91076334Y-70144182D01*
X91078308Y-70144041D01*
X91085714Y-70144771D01*
X91142857Y-70144771D01*
X91150262Y-70144041D01*
X91152237Y-70144182D01*
X91154834Y-70143591D01*
X91157489Y-70143330D01*
X91159320Y-70142571D01*
X91166574Y-70140922D01*
X91252287Y-70112351D01*
X91265713Y-70106357D01*
X91267748Y-70104591D01*
X91270239Y-70103560D01*
X91281604Y-70094233D01*
X91310176Y-70065661D01*
X91319504Y-70054296D01*
X91329963Y-70029044D01*
X91330702Y-70027260D01*
X91332143Y-70012628D01*
X91332143Y-69812628D01*
X91330702Y-69797996D01*
X91319503Y-69770960D01*
X91298811Y-69750268D01*
X91271775Y-69739069D01*
X91257143Y-69737628D01*
X91142857Y-69737628D01*
X91128225Y-69739069D01*
X91101189Y-69750268D01*
X91080497Y-69770960D01*
X91069298Y-69797996D01*
X91069298Y-69827260D01*
X91080497Y-69854296D01*
X91101189Y-69874988D01*
X91128225Y-69886187D01*
X91142857Y-69887628D01*
X91182143Y-69887628D01*
X91182143Y-69977619D01*
X91130687Y-69994771D01*
X91097883Y-69994771D01*
X91040514Y-69975648D01*
X91004495Y-69939629D01*
X90985051Y-69900739D01*
X90960714Y-69803393D01*
X90960714Y-69736148D01*
X90985051Y-69638802D01*
X91004495Y-69599912D01*
X91040514Y-69563894D01*
X91097883Y-69544771D01*
X91153724Y-69544771D01*
X91195030Y-69565424D01*
X91208762Y-69570679D01*
X91237952Y-69572753D01*
X91265713Y-69563499D01*
X91287821Y-69544326D01*
X91300908Y-69518151D01*
X91302982Y-69488961D01*
X91296586Y-69469771D01*
X91439286Y-69469771D01*
X91439286Y-70069771D01*
X91440727Y-70084403D01*
X91451926Y-70111439D01*
X91472618Y-70132131D01*
X91499654Y-70143330D01*
X91528918Y-70143330D01*
X91555954Y-70132131D01*
X91576646Y-70111439D01*
X91587845Y-70084403D01*
X91589286Y-70069771D01*
X91589286Y-69752188D01*
X91792025Y-70106982D01*
X91794214Y-70110065D01*
X91794783Y-70111439D01*
X91796182Y-70112838D01*
X91800536Y-70118971D01*
X91808422Y-70125078D01*
X91815475Y-70132131D01*
X91819891Y-70133960D01*
X91823673Y-70136889D01*
X91833298Y-70139514D01*
X91842511Y-70143330D01*
X91847291Y-70143330D01*
X91851904Y-70144588D01*
X91861801Y-70143330D01*
X91871775Y-70143330D01*
X91876190Y-70141501D01*
X91880935Y-70140898D01*
X91889600Y-70135946D01*
X91898811Y-70132131D01*
X91902189Y-70128752D01*
X91906343Y-70126379D01*
X91912452Y-70118489D01*
X91919503Y-70111439D01*
X91921332Y-70107022D01*
X91924260Y-70103242D01*
X91926884Y-70093618D01*
X91930702Y-70084403D01*
X91931438Y-70076920D01*
X91931960Y-70075010D01*
X91931772Y-70073534D01*
X91932143Y-70069771D01*
X91932143Y-69469771D01*
X92067857Y-69469771D01*
X92067857Y-70069771D01*
X92069298Y-70084403D01*
X92080497Y-70111439D01*
X92101189Y-70132131D01*
X92128225Y-70143330D01*
X92142857Y-70144771D01*
X92285714Y-70144771D01*
X92293119Y-70144041D01*
X92295094Y-70144182D01*
X92297691Y-70143591D01*
X92300346Y-70143330D01*
X92302177Y-70142571D01*
X92309431Y-70140922D01*
X92395144Y-70112351D01*
X92408570Y-70106357D01*
X92410605Y-70104591D01*
X92413096Y-70103560D01*
X92424461Y-70094233D01*
X92481604Y-70037090D01*
X92486324Y-70031337D01*
X92487821Y-70030040D01*
X92489240Y-70027784D01*
X92490931Y-70025725D01*
X92491688Y-70023895D01*
X92495653Y-70017598D01*
X92524224Y-69960454D01*
X92524632Y-69959386D01*
X92524956Y-69958950D01*
X92527157Y-69952789D01*
X92529479Y-69946722D01*
X92529517Y-69946183D01*
X92529903Y-69945104D01*
X92558475Y-69830819D01*
X92558850Y-69828280D01*
X92559273Y-69827260D01*
X92559815Y-69821748D01*
X92560625Y-69816274D01*
X92560462Y-69815181D01*
X92560714Y-69812628D01*
X92560714Y-69726914D01*
X93096428Y-69726914D01*
X93096428Y-69812628D01*
X93096679Y-69815181D01*
X93096517Y-69816274D01*
X93097326Y-69821747D01*
X93097869Y-69827260D01*
X93098291Y-69828281D01*
X93098667Y-69830818D01*
X93127239Y-69945104D01*
X93127624Y-69946183D01*
X93127663Y-69946723D01*
X93129990Y-69952804D01*
X93132186Y-69958950D01*
X93132508Y-69959385D01*
X93132918Y-69960455D01*
X93161489Y-70017598D01*
X93165453Y-70023897D01*
X93166211Y-70025725D01*
X93167899Y-70027781D01*
X93169321Y-70030041D01*
X93170819Y-70031340D01*
X93175538Y-70037090D01*
X93232681Y-70094233D01*
X93244046Y-70103560D01*
X93246536Y-70104591D01*
X93248572Y-70106357D01*
X93261997Y-70112351D01*
X93347711Y-70140922D01*
X93354964Y-70142571D01*
X93356796Y-70143330D01*
X93359450Y-70143591D01*
X93362048Y-70144182D01*
X93364022Y-70144041D01*
X93371428Y-70144771D01*
X93428571Y-70144771D01*
X93435976Y-70144041D01*
X93437951Y-70144182D01*
X93440548Y-70143591D01*
X93443203Y-70143330D01*
X93445034Y-70142571D01*
X93452288Y-70140922D01*
X93538001Y-70112351D01*
X93551427Y-70106357D01*
X93553462Y-70104591D01*
X93555953Y-70103560D01*
X93567318Y-70094233D01*
X93595890Y-70065661D01*
X93605218Y-70054296D01*
X93615677Y-70029044D01*
X93616416Y-70027260D01*
X93617857Y-70012628D01*
X93617857Y-69812628D01*
X93616416Y-69797996D01*
X93605217Y-69770960D01*
X93584525Y-69750268D01*
X93557489Y-69739069D01*
X93542857Y-69737628D01*
X93428571Y-69737628D01*
X93413939Y-69739069D01*
X93386903Y-69750268D01*
X93366211Y-69770960D01*
X93355012Y-69797996D01*
X93355012Y-69827260D01*
X93366211Y-69854296D01*
X93386903Y-69874988D01*
X93413939Y-69886187D01*
X93428571Y-69887628D01*
X93467857Y-69887628D01*
X93467857Y-69977619D01*
X93416401Y-69994771D01*
X93383597Y-69994771D01*
X93326228Y-69975648D01*
X93290209Y-69939629D01*
X93270765Y-69900739D01*
X93246428Y-69803393D01*
X93246428Y-69736148D01*
X93270765Y-69638802D01*
X93290209Y-69599912D01*
X93326228Y-69563894D01*
X93383597Y-69544771D01*
X93439438Y-69544771D01*
X93480744Y-69565424D01*
X93494476Y-69570679D01*
X93523666Y-69572753D01*
X93551427Y-69563499D01*
X93573535Y-69544326D01*
X93586622Y-69518151D01*
X93588696Y-69488961D01*
X93582300Y-69469771D01*
X93725000Y-69469771D01*
X93725000Y-70069771D01*
X93726441Y-70084403D01*
X93737640Y-70111439D01*
X93758332Y-70132131D01*
X93785368Y-70143330D01*
X93814632Y-70143330D01*
X93841668Y-70132131D01*
X93862360Y-70111439D01*
X93873559Y-70084403D01*
X93875000Y-70069771D01*
X93875000Y-69752188D01*
X94077739Y-70106982D01*
X94079928Y-70110065D01*
X94080497Y-70111439D01*
X94081896Y-70112838D01*
X94086250Y-70118971D01*
X94094136Y-70125078D01*
X94101189Y-70132131D01*
X94105605Y-70133960D01*
X94109387Y-70136889D01*
X94119012Y-70139514D01*
X94128225Y-70143330D01*
X94133005Y-70143330D01*
X94137618Y-70144588D01*
X94147515Y-70143330D01*
X94157489Y-70143330D01*
X94161904Y-70141501D01*
X94166649Y-70140898D01*
X94175314Y-70135946D01*
X94184525Y-70132131D01*
X94187903Y-70128752D01*
X94192057Y-70126379D01*
X94198166Y-70118489D01*
X94205217Y-70111439D01*
X94207046Y-70107022D01*
X94209974Y-70103242D01*
X94212598Y-70093618D01*
X94216416Y-70084403D01*
X94217152Y-70076920D01*
X94217674Y-70075010D01*
X94217486Y-70073534D01*
X94217857Y-70069771D01*
X94217857Y-69469771D01*
X94353571Y-69469771D01*
X94353571Y-70069771D01*
X94355012Y-70084403D01*
X94366211Y-70111439D01*
X94386903Y-70132131D01*
X94413939Y-70143330D01*
X94428571Y-70144771D01*
X94571428Y-70144771D01*
X94578833Y-70144041D01*
X94580808Y-70144182D01*
X94583405Y-70143591D01*
X94586060Y-70143330D01*
X94587891Y-70142571D01*
X94595145Y-70140922D01*
X94680858Y-70112351D01*
X94694284Y-70106357D01*
X94696319Y-70104591D01*
X94698810Y-70103560D01*
X94710175Y-70094233D01*
X94767318Y-70037090D01*
X94772038Y-70031337D01*
X94773535Y-70030040D01*
X94774954Y-70027784D01*
X94776645Y-70025725D01*
X94777402Y-70023895D01*
X94781367Y-70017598D01*
X94809938Y-69960454D01*
X94810346Y-69959386D01*
X94810670Y-69958950D01*
X94812871Y-69952789D01*
X94815193Y-69946722D01*
X94815231Y-69946183D01*
X94815617Y-69945104D01*
X94844189Y-69830819D01*
X94844564Y-69828280D01*
X94844987Y-69827260D01*
X94845529Y-69821748D01*
X94846339Y-69816274D01*
X94846176Y-69815181D01*
X94846428Y-69812628D01*
X94846428Y-69726914D01*
X94846176Y-69724360D01*
X94846339Y-69723268D01*
X94845529Y-69717793D01*
X94844987Y-69712282D01*
X94844564Y-69711261D01*
X94844189Y-69708723D01*
X94815617Y-69594438D01*
X94815231Y-69593358D01*
X94815193Y-69592820D01*
X94812871Y-69586752D01*
X94810670Y-69580592D01*
X94810346Y-69580155D01*
X94809938Y-69579088D01*
X94781367Y-69521944D01*
X94777402Y-69515646D01*
X94776645Y-69513817D01*
X94774954Y-69511757D01*
X94773535Y-69509502D01*
X94772038Y-69508204D01*
X94767318Y-69502452D01*
X94734637Y-69469771D01*
X95410714Y-69469771D01*
X95410714Y-70069771D01*
X95412155Y-70084403D01*
X95423354Y-70111439D01*
X95444046Y-70132131D01*
X95471082Y-70143330D01*
X95485714Y-70144771D01*
X95628571Y-70144771D01*
X95635976Y-70144041D01*
X95637951Y-70144182D01*
X95640548Y-70143591D01*
X95643203Y-70143330D01*
X95645034Y-70142571D01*
X95652288Y-70140922D01*
X95738001Y-70112351D01*
X95751427Y-70106357D01*
X95753462Y-70104591D01*
X95755953Y-70103560D01*
X95767318Y-70094233D01*
X95824461Y-70037090D01*
X95829181Y-70031337D01*
X95830678Y-70030040D01*
X95832097Y-70027784D01*
X95833788Y-70025725D01*
X95834545Y-70023895D01*
X95838510Y-70017598D01*
X95867081Y-69960454D01*
X95867489Y-69959386D01*
X95867813Y-69958950D01*
X95870014Y-69952789D01*
X95872336Y-69946722D01*
X95872374Y-69946183D01*
X95872760Y-69945104D01*
X95901332Y-69830819D01*
X95901707Y-69828280D01*
X95902130Y-69827260D01*
X95902198Y-69826568D01*
X96012155Y-69826568D01*
X96012155Y-69855832D01*
X96023354Y-69882868D01*
X96044046Y-69903560D01*
X96071082Y-69914759D01*
X96085714Y-69916200D01*
X96542857Y-69916200D01*
X96557489Y-69914759D01*
X96584525Y-69903560D01*
X96605217Y-69882868D01*
X96616416Y-69855832D01*
X96616416Y-69826568D01*
X96605217Y-69799532D01*
X96584525Y-69778840D01*
X96557489Y-69767641D01*
X96542857Y-69766200D01*
X96085714Y-69766200D01*
X96071082Y-69767641D01*
X96044046Y-69778840D01*
X96023354Y-69799532D01*
X96012155Y-69826568D01*
X95902198Y-69826568D01*
X95902672Y-69821748D01*
X95903482Y-69816274D01*
X95903319Y-69815181D01*
X95903571Y-69812628D01*
X95903571Y-69726914D01*
X95903319Y-69724360D01*
X95903482Y-69723268D01*
X95902672Y-69717793D01*
X95902130Y-69712282D01*
X95901707Y-69711261D01*
X95901332Y-69708723D01*
X95872760Y-69594438D01*
X95872374Y-69593358D01*
X95872336Y-69592820D01*
X95870014Y-69586752D01*
X95867813Y-69580592D01*
X95867489Y-69580155D01*
X95867081Y-69579088D01*
X95838510Y-69521944D01*
X95834545Y-69515646D01*
X95833788Y-69513817D01*
X95832097Y-69511757D01*
X95830678Y-69509502D01*
X95829181Y-69508204D01*
X95824461Y-69502452D01*
X95791780Y-69469771D01*
X97210714Y-69469771D01*
X97210714Y-70069771D01*
X97212155Y-70084403D01*
X97223354Y-70111439D01*
X97244046Y-70132131D01*
X97271082Y-70143330D01*
X97285714Y-70144771D01*
X97428571Y-70144771D01*
X97435976Y-70144041D01*
X97437951Y-70144182D01*
X97440548Y-70143591D01*
X97443203Y-70143330D01*
X97445034Y-70142571D01*
X97452288Y-70140922D01*
X97538001Y-70112351D01*
X97551427Y-70106357D01*
X97553462Y-70104591D01*
X97555953Y-70103560D01*
X97567318Y-70094233D01*
X97624461Y-70037090D01*
X97629181Y-70031337D01*
X97630678Y-70030040D01*
X97632097Y-70027784D01*
X97633788Y-70025725D01*
X97634545Y-70023895D01*
X97638510Y-70017598D01*
X97667081Y-69960454D01*
X97667489Y-69959386D01*
X97667813Y-69958950D01*
X97670014Y-69952789D01*
X97672336Y-69946722D01*
X97672374Y-69946183D01*
X97672760Y-69945104D01*
X97701332Y-69830819D01*
X97701707Y-69828280D01*
X97702130Y-69827260D01*
X97702198Y-69826568D01*
X97812155Y-69826568D01*
X97812155Y-69855832D01*
X97823354Y-69882868D01*
X97844046Y-69903560D01*
X97871082Y-69914759D01*
X97885714Y-69916200D01*
X98039285Y-69916200D01*
X98039285Y-70069771D01*
X98040726Y-70084403D01*
X98051925Y-70111439D01*
X98072617Y-70132131D01*
X98099653Y-70143330D01*
X98128917Y-70143330D01*
X98155953Y-70132131D01*
X98176645Y-70111439D01*
X98187844Y-70084403D01*
X98189285Y-70069771D01*
X98189285Y-69916200D01*
X98342857Y-69916200D01*
X98357489Y-69914759D01*
X98384525Y-69903560D01*
X98405217Y-69882868D01*
X98416416Y-69855832D01*
X98416416Y-69826568D01*
X98405217Y-69799532D01*
X98384525Y-69778840D01*
X98357489Y-69767641D01*
X98342857Y-69766200D01*
X98189285Y-69766200D01*
X98189285Y-69762725D01*
X98982492Y-69762725D01*
X98983583Y-69766340D01*
X98983583Y-69770115D01*
X98987776Y-69780241D01*
X98990945Y-69790741D01*
X98993336Y-69793663D01*
X98994781Y-69797152D01*
X99002537Y-69804908D01*
X99009476Y-69813389D01*
X99012800Y-69815172D01*
X99015473Y-69817845D01*
X99025606Y-69822042D01*
X99035263Y-69827223D01*
X99039019Y-69827598D01*
X99042509Y-69829044D01*
X99053472Y-69829044D01*
X99064382Y-69830135D01*
X99067998Y-69829044D01*
X99071772Y-69829044D01*
X99081898Y-69824850D01*
X99092398Y-69821682D01*
X99095320Y-69819290D01*
X99098809Y-69817846D01*
X99110174Y-69808519D01*
X99130140Y-69788553D01*
X99160562Y-69773342D01*
X99268008Y-69773342D01*
X99298430Y-69788553D01*
X99309788Y-69799911D01*
X99324999Y-69830332D01*
X99324999Y-69937780D01*
X99309788Y-69968201D01*
X99298428Y-69979561D01*
X99268010Y-69994771D01*
X99160562Y-69994771D01*
X99130140Y-69979560D01*
X99110175Y-69959595D01*
X99098810Y-69950268D01*
X99071773Y-69939069D01*
X99042511Y-69939069D01*
X99015474Y-69950268D01*
X98994782Y-69970960D01*
X98983583Y-69997997D01*
X98983583Y-70027259D01*
X98994782Y-70054296D01*
X99004109Y-70065661D01*
X99032681Y-70094233D01*
X99038434Y-70098955D01*
X99039731Y-70100450D01*
X99041982Y-70101867D01*
X99044046Y-70103561D01*
X99045879Y-70104320D01*
X99052173Y-70108282D01*
X99109317Y-70136853D01*
X99123049Y-70142108D01*
X99125735Y-70142298D01*
X99128225Y-70143330D01*
X99142857Y-70144771D01*
X99285714Y-70144771D01*
X99300346Y-70143330D01*
X99302835Y-70142298D01*
X99305523Y-70142108D01*
X99319255Y-70136853D01*
X99376398Y-70108282D01*
X99382695Y-70104318D01*
X99384526Y-70103560D01*
X99386585Y-70101869D01*
X99388841Y-70100450D01*
X99390139Y-70098952D01*
X99395891Y-70094232D01*
X99424462Y-70065660D01*
X99429182Y-70059907D01*
X99430678Y-70058611D01*
X99432097Y-70056356D01*
X99433789Y-70054295D01*
X99434547Y-70052464D01*
X99438510Y-70046169D01*
X99467081Y-69989025D01*
X99472336Y-69975293D01*
X99472526Y-69972606D01*
X99473558Y-69970117D01*
X99474999Y-69955485D01*
X99474999Y-69812628D01*
X99473558Y-69797996D01*
X99472526Y-69795506D01*
X99472336Y-69792820D01*
X99467081Y-69779088D01*
X99438510Y-69721944D01*
X99434545Y-69715646D01*
X99433788Y-69713817D01*
X99432097Y-69711757D01*
X99430678Y-69709502D01*
X99429181Y-69708204D01*
X99424461Y-69702452D01*
X99395890Y-69673881D01*
X99390137Y-69669160D01*
X99388841Y-69667665D01*
X99386586Y-69666245D01*
X99384525Y-69664554D01*
X99382694Y-69663795D01*
X99376398Y-69659832D01*
X99319255Y-69631260D01*
X99305524Y-69626005D01*
X99302834Y-69625813D01*
X99300346Y-69624783D01*
X99285714Y-69623342D01*
X99145731Y-69623342D01*
X99153588Y-69544771D01*
X99371428Y-69544771D01*
X99386060Y-69543330D01*
X99413096Y-69532131D01*
X99433788Y-69511439D01*
X99444987Y-69484403D01*
X99444987Y-69479151D01*
X99497017Y-69479151D01*
X99500277Y-69493488D01*
X99700277Y-70093489D01*
X99706271Y-70106914D01*
X99709782Y-70110962D01*
X99712178Y-70115754D01*
X99719282Y-70121916D01*
X99725445Y-70129021D01*
X99730237Y-70131417D01*
X99734285Y-70134928D01*
X99743204Y-70137901D01*
X99751618Y-70142108D01*
X99756966Y-70142488D01*
X99762048Y-70144182D01*
X99771420Y-70143515D01*
X99780808Y-70144183D01*
X99785897Y-70142486D01*
X99791238Y-70142107D01*
X99799641Y-70137905D01*
X99808571Y-70134929D01*
X99812622Y-70131415D01*
X99817411Y-70129021D01*
X99823569Y-70121920D01*
X99830678Y-70115755D01*
X99833075Y-70110960D01*
X99836585Y-70106914D01*
X99842579Y-70093488D01*
X100042579Y-69493488D01*
X100045839Y-69479151D01*
X100043765Y-69449961D01*
X100030678Y-69423787D01*
X100008571Y-69404613D01*
X99980808Y-69395359D01*
X99951618Y-69397434D01*
X99925445Y-69410521D01*
X99906271Y-69432628D01*
X99900277Y-69446053D01*
X99771427Y-69832600D01*
X99642579Y-69446054D01*
X99636585Y-69432628D01*
X99617411Y-69410521D01*
X99591238Y-69397435D01*
X99562048Y-69395360D01*
X99534285Y-69404614D01*
X99512178Y-69423788D01*
X99499092Y-69449961D01*
X99497017Y-69479151D01*
X99444987Y-69479151D01*
X99444987Y-69455139D01*
X99433788Y-69428103D01*
X99413096Y-69407411D01*
X99386060Y-69396212D01*
X99371428Y-69394771D01*
X99085714Y-69394771D01*
X99080302Y-69395303D01*
X99078474Y-69395121D01*
X99076687Y-69395659D01*
X99071082Y-69396212D01*
X99060955Y-69400406D01*
X99050458Y-69403574D01*
X99047534Y-69405965D01*
X99044046Y-69407411D01*
X99036292Y-69415164D01*
X99027810Y-69422105D01*
X99026025Y-69425431D01*
X99023354Y-69428103D01*
X99019158Y-69438232D01*
X99013976Y-69447892D01*
X99012868Y-69453416D01*
X99012155Y-69455139D01*
X99012155Y-69456975D01*
X99011086Y-69462308D01*
X98982514Y-69748022D01*
X98982492Y-69762725D01*
X98189285Y-69762725D01*
X98189285Y-69612628D01*
X98187844Y-69597996D01*
X98176645Y-69570960D01*
X98155953Y-69550268D01*
X98128917Y-69539069D01*
X98099653Y-69539069D01*
X98072617Y-69550268D01*
X98051925Y-69570960D01*
X98040726Y-69597996D01*
X98039285Y-69612628D01*
X98039285Y-69766200D01*
X97885714Y-69766200D01*
X97871082Y-69767641D01*
X97844046Y-69778840D01*
X97823354Y-69799532D01*
X97812155Y-69826568D01*
X97702198Y-69826568D01*
X97702672Y-69821748D01*
X97703482Y-69816274D01*
X97703319Y-69815181D01*
X97703571Y-69812628D01*
X97703571Y-69726914D01*
X97703319Y-69724360D01*
X97703482Y-69723268D01*
X97702672Y-69717793D01*
X97702130Y-69712282D01*
X97701707Y-69711261D01*
X97701332Y-69708723D01*
X97672760Y-69594438D01*
X97672374Y-69593358D01*
X97672336Y-69592820D01*
X97670014Y-69586752D01*
X97667813Y-69580592D01*
X97667489Y-69580155D01*
X97667081Y-69579088D01*
X97638510Y-69521944D01*
X97634545Y-69515646D01*
X97633788Y-69513817D01*
X97632097Y-69511757D01*
X97630678Y-69509502D01*
X97629181Y-69508204D01*
X97624461Y-69502452D01*
X97567318Y-69445309D01*
X97555953Y-69435982D01*
X97553462Y-69434950D01*
X97551427Y-69433185D01*
X97538001Y-69427191D01*
X97452288Y-69398620D01*
X97445034Y-69396970D01*
X97443203Y-69396212D01*
X97440548Y-69395950D01*
X97437951Y-69395360D01*
X97435976Y-69395500D01*
X97428571Y-69394771D01*
X97285714Y-69394771D01*
X97271082Y-69396212D01*
X97244046Y-69407411D01*
X97223354Y-69428103D01*
X97212155Y-69455139D01*
X97210714Y-69469771D01*
X95791780Y-69469771D01*
X95767318Y-69445309D01*
X95755953Y-69435982D01*
X95753462Y-69434950D01*
X95751427Y-69433185D01*
X95738001Y-69427191D01*
X95652288Y-69398620D01*
X95645034Y-69396970D01*
X95643203Y-69396212D01*
X95640548Y-69395950D01*
X95637951Y-69395360D01*
X95635976Y-69395500D01*
X95628571Y-69394771D01*
X95485714Y-69394771D01*
X95471082Y-69396212D01*
X95444046Y-69407411D01*
X95423354Y-69428103D01*
X95412155Y-69455139D01*
X95410714Y-69469771D01*
X94734637Y-69469771D01*
X94710175Y-69445309D01*
X94698810Y-69435982D01*
X94696319Y-69434950D01*
X94694284Y-69433185D01*
X94680858Y-69427191D01*
X94595145Y-69398620D01*
X94587891Y-69396970D01*
X94586060Y-69396212D01*
X94583405Y-69395950D01*
X94580808Y-69395360D01*
X94578833Y-69395500D01*
X94571428Y-69394771D01*
X94428571Y-69394771D01*
X94413939Y-69396212D01*
X94386903Y-69407411D01*
X94366211Y-69428103D01*
X94355012Y-69455139D01*
X94353571Y-69469771D01*
X94217857Y-69469771D01*
X94216416Y-69455139D01*
X94205217Y-69428103D01*
X94184525Y-69407411D01*
X94157489Y-69396212D01*
X94128225Y-69396212D01*
X94101189Y-69407411D01*
X94080497Y-69428103D01*
X94069298Y-69455139D01*
X94067857Y-69469771D01*
X94067857Y-69787354D01*
X93865118Y-69432561D01*
X93862929Y-69429477D01*
X93862360Y-69428103D01*
X93860960Y-69426703D01*
X93856608Y-69420571D01*
X93848718Y-69414461D01*
X93841668Y-69407411D01*
X93837251Y-69405581D01*
X93833471Y-69402654D01*
X93823847Y-69400029D01*
X93814632Y-69396212D01*
X93809851Y-69396212D01*
X93805239Y-69394954D01*
X93795342Y-69396212D01*
X93785368Y-69396212D01*
X93780952Y-69398041D01*
X93776209Y-69398644D01*
X93767544Y-69403594D01*
X93758332Y-69407411D01*
X93754953Y-69410789D01*
X93750800Y-69413163D01*
X93744690Y-69421052D01*
X93737640Y-69428103D01*
X93735810Y-69432519D01*
X93732883Y-69436300D01*
X93730258Y-69445923D01*
X93726441Y-69455139D01*
X93725704Y-69462621D01*
X93725183Y-69464532D01*
X93725370Y-69466007D01*
X93725000Y-69469771D01*
X93582300Y-69469771D01*
X93579443Y-69461200D01*
X93560269Y-69439093D01*
X93547826Y-69431260D01*
X93490684Y-69402689D01*
X93476952Y-69397434D01*
X93474264Y-69397243D01*
X93471775Y-69396212D01*
X93457143Y-69394771D01*
X93371428Y-69394771D01*
X93364022Y-69395500D01*
X93362048Y-69395360D01*
X93359450Y-69395950D01*
X93356796Y-69396212D01*
X93354964Y-69396970D01*
X93347711Y-69398620D01*
X93261997Y-69427191D01*
X93248572Y-69433185D01*
X93246536Y-69434950D01*
X93244046Y-69435982D01*
X93232681Y-69445309D01*
X93175538Y-69502452D01*
X93170819Y-69508201D01*
X93169321Y-69509501D01*
X93167899Y-69511760D01*
X93166211Y-69513817D01*
X93165453Y-69515644D01*
X93161489Y-69521944D01*
X93132918Y-69579087D01*
X93132508Y-69580156D01*
X93132186Y-69580592D01*
X93129990Y-69586737D01*
X93127663Y-69592819D01*
X93127624Y-69593358D01*
X93127239Y-69594438D01*
X93098667Y-69708724D01*
X93098291Y-69711260D01*
X93097869Y-69712282D01*
X93097326Y-69717794D01*
X93096517Y-69723268D01*
X93096679Y-69724360D01*
X93096428Y-69726914D01*
X92560714Y-69726914D01*
X92560462Y-69724360D01*
X92560625Y-69723268D01*
X92559815Y-69717793D01*
X92559273Y-69712282D01*
X92558850Y-69711261D01*
X92558475Y-69708723D01*
X92529903Y-69594438D01*
X92529517Y-69593358D01*
X92529479Y-69592820D01*
X92527157Y-69586752D01*
X92524956Y-69580592D01*
X92524632Y-69580155D01*
X92524224Y-69579088D01*
X92495653Y-69521944D01*
X92491688Y-69515646D01*
X92490931Y-69513817D01*
X92489240Y-69511757D01*
X92487821Y-69509502D01*
X92486324Y-69508204D01*
X92481604Y-69502452D01*
X92424461Y-69445309D01*
X92413096Y-69435982D01*
X92410605Y-69434950D01*
X92408570Y-69433185D01*
X92395144Y-69427191D01*
X92309431Y-69398620D01*
X92302177Y-69396970D01*
X92300346Y-69396212D01*
X92297691Y-69395950D01*
X92295094Y-69395360D01*
X92293119Y-69395500D01*
X92285714Y-69394771D01*
X92142857Y-69394771D01*
X92128225Y-69396212D01*
X92101189Y-69407411D01*
X92080497Y-69428103D01*
X92069298Y-69455139D01*
X92067857Y-69469771D01*
X91932143Y-69469771D01*
X91930702Y-69455139D01*
X91919503Y-69428103D01*
X91898811Y-69407411D01*
X91871775Y-69396212D01*
X91842511Y-69396212D01*
X91815475Y-69407411D01*
X91794783Y-69428103D01*
X91783584Y-69455139D01*
X91782143Y-69469771D01*
X91782143Y-69787354D01*
X91579404Y-69432561D01*
X91577215Y-69429477D01*
X91576646Y-69428103D01*
X91575246Y-69426703D01*
X91570894Y-69420571D01*
X91563004Y-69414461D01*
X91555954Y-69407411D01*
X91551537Y-69405581D01*
X91547757Y-69402654D01*
X91538133Y-69400029D01*
X91528918Y-69396212D01*
X91524137Y-69396212D01*
X91519525Y-69394954D01*
X91509628Y-69396212D01*
X91499654Y-69396212D01*
X91495238Y-69398041D01*
X91490495Y-69398644D01*
X91481830Y-69403594D01*
X91472618Y-69407411D01*
X91469239Y-69410789D01*
X91465086Y-69413163D01*
X91458976Y-69421052D01*
X91451926Y-69428103D01*
X91450096Y-69432519D01*
X91447169Y-69436300D01*
X91444544Y-69445923D01*
X91440727Y-69455139D01*
X91439990Y-69462621D01*
X91439469Y-69464532D01*
X91439656Y-69466007D01*
X91439286Y-69469771D01*
X91296586Y-69469771D01*
X91293729Y-69461200D01*
X91274555Y-69439093D01*
X91262112Y-69431260D01*
X91204970Y-69402689D01*
X91191238Y-69397434D01*
X91188550Y-69397243D01*
X91186061Y-69396212D01*
X91171429Y-69394771D01*
X91085714Y-69394771D01*
X91078308Y-69395500D01*
X91076334Y-69395360D01*
X91073736Y-69395950D01*
X91071082Y-69396212D01*
X91069250Y-69396970D01*
X91061997Y-69398620D01*
X90976283Y-69427191D01*
X90962858Y-69433185D01*
X90960822Y-69434950D01*
X90958332Y-69435982D01*
X90946967Y-69445309D01*
X90889824Y-69502452D01*
X90885105Y-69508201D01*
X90883607Y-69509501D01*
X90882185Y-69511760D01*
X90880497Y-69513817D01*
X90879739Y-69515644D01*
X90875775Y-69521944D01*
X90847204Y-69579087D01*
X90846794Y-69580156D01*
X90846472Y-69580592D01*
X90844276Y-69586737D01*
X90841949Y-69592819D01*
X90841910Y-69593358D01*
X90841525Y-69594438D01*
X90812953Y-69708724D01*
X90812577Y-69711260D01*
X90812155Y-69712282D01*
X90811612Y-69717794D01*
X90810803Y-69723268D01*
X90810965Y-69724360D01*
X90810714Y-69726914D01*
X90735714Y-69726914D01*
X90735714Y-69319771D01*
X100120839Y-69319771D01*
X100120839Y-70219771D01*
G37*
G36*
X92230914Y-64463894D02*
G01*
X92266931Y-64499911D01*
X92286377Y-64538803D01*
X92310714Y-64636148D01*
X92310714Y-64703393D01*
X92286377Y-64800738D01*
X92266931Y-64839630D01*
X92230914Y-64875647D01*
X92173544Y-64894771D01*
X92117857Y-64894771D01*
X92117857Y-64444771D01*
X92173544Y-64444771D01*
X92230914Y-64463894D01*
G37*
G36*
X94516628Y-64463894D02*
G01*
X94552645Y-64499911D01*
X94572091Y-64538803D01*
X94596428Y-64636148D01*
X94596428Y-64703393D01*
X94572091Y-64800738D01*
X94552645Y-64839630D01*
X94516628Y-64875647D01*
X94459258Y-64894771D01*
X94403571Y-64894771D01*
X94403571Y-64444771D01*
X94459258Y-64444771D01*
X94516628Y-64463894D01*
G37*
G36*
X95573771Y-64463894D02*
G01*
X95609788Y-64499911D01*
X95629234Y-64538803D01*
X95653571Y-64636148D01*
X95653571Y-64703393D01*
X95629234Y-64800738D01*
X95609788Y-64839630D01*
X95573771Y-64875647D01*
X95516401Y-64894771D01*
X95460714Y-64894771D01*
X95460714Y-64444771D01*
X95516401Y-64444771D01*
X95573771Y-64463894D01*
G37*
G36*
X97373771Y-64463894D02*
G01*
X97409788Y-64499911D01*
X97429234Y-64538803D01*
X97453571Y-64636148D01*
X97453571Y-64703393D01*
X97429234Y-64800738D01*
X97409788Y-64839630D01*
X97373771Y-64875647D01*
X97316401Y-64894771D01*
X97260714Y-64894771D01*
X97260714Y-64444771D01*
X97316401Y-64444771D01*
X97373771Y-64463894D01*
G37*
G36*
X100020839Y-65119771D02*
G01*
X90635714Y-65119771D01*
X90635714Y-64626914D01*
X90710714Y-64626914D01*
X90710714Y-64712628D01*
X90710965Y-64715181D01*
X90710803Y-64716274D01*
X90711612Y-64721747D01*
X90712155Y-64727260D01*
X90712577Y-64728281D01*
X90712953Y-64730818D01*
X90741525Y-64845104D01*
X90741910Y-64846183D01*
X90741949Y-64846723D01*
X90744276Y-64852804D01*
X90746472Y-64858950D01*
X90746794Y-64859385D01*
X90747204Y-64860455D01*
X90775775Y-64917598D01*
X90779739Y-64923897D01*
X90780497Y-64925725D01*
X90782185Y-64927781D01*
X90783607Y-64930041D01*
X90785105Y-64931340D01*
X90789824Y-64937090D01*
X90846967Y-64994233D01*
X90858332Y-65003560D01*
X90860822Y-65004591D01*
X90862858Y-65006357D01*
X90876283Y-65012351D01*
X90961997Y-65040922D01*
X90969250Y-65042571D01*
X90971082Y-65043330D01*
X90973736Y-65043591D01*
X90976334Y-65044182D01*
X90978308Y-65044041D01*
X90985714Y-65044771D01*
X91042857Y-65044771D01*
X91050262Y-65044041D01*
X91052237Y-65044182D01*
X91054834Y-65043591D01*
X91057489Y-65043330D01*
X91059320Y-65042571D01*
X91066574Y-65040922D01*
X91152287Y-65012351D01*
X91165713Y-65006357D01*
X91167748Y-65004591D01*
X91170239Y-65003560D01*
X91181604Y-64994233D01*
X91210176Y-64965661D01*
X91219504Y-64954296D01*
X91229963Y-64929044D01*
X91230702Y-64927260D01*
X91232143Y-64912628D01*
X91232143Y-64712628D01*
X91230702Y-64697996D01*
X91219503Y-64670960D01*
X91198811Y-64650268D01*
X91171775Y-64639069D01*
X91157143Y-64637628D01*
X91042857Y-64637628D01*
X91028225Y-64639069D01*
X91001189Y-64650268D01*
X90980497Y-64670960D01*
X90969298Y-64697996D01*
X90969298Y-64727260D01*
X90980497Y-64754296D01*
X91001189Y-64774988D01*
X91028225Y-64786187D01*
X91042857Y-64787628D01*
X91082143Y-64787628D01*
X91082143Y-64877619D01*
X91030687Y-64894771D01*
X90997883Y-64894771D01*
X90940514Y-64875648D01*
X90904495Y-64839629D01*
X90885051Y-64800739D01*
X90860714Y-64703393D01*
X90860714Y-64636148D01*
X90885051Y-64538802D01*
X90904495Y-64499912D01*
X90940514Y-64463894D01*
X90997883Y-64444771D01*
X91053724Y-64444771D01*
X91095030Y-64465424D01*
X91108762Y-64470679D01*
X91137952Y-64472753D01*
X91165713Y-64463499D01*
X91187821Y-64444326D01*
X91200908Y-64418151D01*
X91202982Y-64388961D01*
X91196586Y-64369771D01*
X91339286Y-64369771D01*
X91339286Y-64969771D01*
X91340727Y-64984403D01*
X91351926Y-65011439D01*
X91372618Y-65032131D01*
X91399654Y-65043330D01*
X91428918Y-65043330D01*
X91455954Y-65032131D01*
X91476646Y-65011439D01*
X91487845Y-64984403D01*
X91489286Y-64969771D01*
X91489286Y-64652188D01*
X91692025Y-65006982D01*
X91694214Y-65010065D01*
X91694783Y-65011439D01*
X91696182Y-65012838D01*
X91700536Y-65018971D01*
X91708422Y-65025078D01*
X91715475Y-65032131D01*
X91719891Y-65033960D01*
X91723673Y-65036889D01*
X91733298Y-65039514D01*
X91742511Y-65043330D01*
X91747291Y-65043330D01*
X91751904Y-65044588D01*
X91761801Y-65043330D01*
X91771775Y-65043330D01*
X91776190Y-65041501D01*
X91780935Y-65040898D01*
X91789600Y-65035946D01*
X91798811Y-65032131D01*
X91802189Y-65028752D01*
X91806343Y-65026379D01*
X91812452Y-65018489D01*
X91819503Y-65011439D01*
X91821332Y-65007022D01*
X91824260Y-65003242D01*
X91826884Y-64993618D01*
X91830702Y-64984403D01*
X91831438Y-64976920D01*
X91831960Y-64975010D01*
X91831772Y-64973534D01*
X91832143Y-64969771D01*
X91832143Y-64369771D01*
X91967857Y-64369771D01*
X91967857Y-64969771D01*
X91969298Y-64984403D01*
X91980497Y-65011439D01*
X92001189Y-65032131D01*
X92028225Y-65043330D01*
X92042857Y-65044771D01*
X92185714Y-65044771D01*
X92193119Y-65044041D01*
X92195094Y-65044182D01*
X92197691Y-65043591D01*
X92200346Y-65043330D01*
X92202177Y-65042571D01*
X92209431Y-65040922D01*
X92295144Y-65012351D01*
X92308570Y-65006357D01*
X92310605Y-65004591D01*
X92313096Y-65003560D01*
X92324461Y-64994233D01*
X92381604Y-64937090D01*
X92386324Y-64931337D01*
X92387821Y-64930040D01*
X92389240Y-64927784D01*
X92390931Y-64925725D01*
X92391688Y-64923895D01*
X92395653Y-64917598D01*
X92424224Y-64860454D01*
X92424632Y-64859386D01*
X92424956Y-64858950D01*
X92427157Y-64852789D01*
X92429479Y-64846722D01*
X92429517Y-64846183D01*
X92429903Y-64845104D01*
X92458475Y-64730819D01*
X92458850Y-64728280D01*
X92459273Y-64727260D01*
X92459815Y-64721748D01*
X92460625Y-64716274D01*
X92460462Y-64715181D01*
X92460714Y-64712628D01*
X92460714Y-64626914D01*
X92996428Y-64626914D01*
X92996428Y-64712628D01*
X92996679Y-64715181D01*
X92996517Y-64716274D01*
X92997326Y-64721747D01*
X92997869Y-64727260D01*
X92998291Y-64728281D01*
X92998667Y-64730818D01*
X93027239Y-64845104D01*
X93027624Y-64846183D01*
X93027663Y-64846723D01*
X93029990Y-64852804D01*
X93032186Y-64858950D01*
X93032508Y-64859385D01*
X93032918Y-64860455D01*
X93061489Y-64917598D01*
X93065453Y-64923897D01*
X93066211Y-64925725D01*
X93067899Y-64927781D01*
X93069321Y-64930041D01*
X93070819Y-64931340D01*
X93075538Y-64937090D01*
X93132681Y-64994233D01*
X93144046Y-65003560D01*
X93146536Y-65004591D01*
X93148572Y-65006357D01*
X93161997Y-65012351D01*
X93247711Y-65040922D01*
X93254964Y-65042571D01*
X93256796Y-65043330D01*
X93259450Y-65043591D01*
X93262048Y-65044182D01*
X93264022Y-65044041D01*
X93271428Y-65044771D01*
X93328571Y-65044771D01*
X93335976Y-65044041D01*
X93337951Y-65044182D01*
X93340548Y-65043591D01*
X93343203Y-65043330D01*
X93345034Y-65042571D01*
X93352288Y-65040922D01*
X93438001Y-65012351D01*
X93451427Y-65006357D01*
X93453462Y-65004591D01*
X93455953Y-65003560D01*
X93467318Y-64994233D01*
X93495890Y-64965661D01*
X93505218Y-64954296D01*
X93515677Y-64929044D01*
X93516416Y-64927260D01*
X93517857Y-64912628D01*
X93517857Y-64712628D01*
X93516416Y-64697996D01*
X93505217Y-64670960D01*
X93484525Y-64650268D01*
X93457489Y-64639069D01*
X93442857Y-64637628D01*
X93328571Y-64637628D01*
X93313939Y-64639069D01*
X93286903Y-64650268D01*
X93266211Y-64670960D01*
X93255012Y-64697996D01*
X93255012Y-64727260D01*
X93266211Y-64754296D01*
X93286903Y-64774988D01*
X93313939Y-64786187D01*
X93328571Y-64787628D01*
X93367857Y-64787628D01*
X93367857Y-64877619D01*
X93316401Y-64894771D01*
X93283597Y-64894771D01*
X93226228Y-64875648D01*
X93190209Y-64839629D01*
X93170765Y-64800739D01*
X93146428Y-64703393D01*
X93146428Y-64636148D01*
X93170765Y-64538802D01*
X93190209Y-64499912D01*
X93226228Y-64463894D01*
X93283597Y-64444771D01*
X93339438Y-64444771D01*
X93380744Y-64465424D01*
X93394476Y-64470679D01*
X93423666Y-64472753D01*
X93451427Y-64463499D01*
X93473535Y-64444326D01*
X93486622Y-64418151D01*
X93488696Y-64388961D01*
X93482300Y-64369771D01*
X93625000Y-64369771D01*
X93625000Y-64969771D01*
X93626441Y-64984403D01*
X93637640Y-65011439D01*
X93658332Y-65032131D01*
X93685368Y-65043330D01*
X93714632Y-65043330D01*
X93741668Y-65032131D01*
X93762360Y-65011439D01*
X93773559Y-64984403D01*
X93775000Y-64969771D01*
X93775000Y-64652188D01*
X93977739Y-65006982D01*
X93979928Y-65010065D01*
X93980497Y-65011439D01*
X93981896Y-65012838D01*
X93986250Y-65018971D01*
X93994136Y-65025078D01*
X94001189Y-65032131D01*
X94005605Y-65033960D01*
X94009387Y-65036889D01*
X94019012Y-65039514D01*
X94028225Y-65043330D01*
X94033005Y-65043330D01*
X94037618Y-65044588D01*
X94047515Y-65043330D01*
X94057489Y-65043330D01*
X94061904Y-65041501D01*
X94066649Y-65040898D01*
X94075314Y-65035946D01*
X94084525Y-65032131D01*
X94087903Y-65028752D01*
X94092057Y-65026379D01*
X94098166Y-65018489D01*
X94105217Y-65011439D01*
X94107046Y-65007022D01*
X94109974Y-65003242D01*
X94112598Y-64993618D01*
X94116416Y-64984403D01*
X94117152Y-64976920D01*
X94117674Y-64975010D01*
X94117486Y-64973534D01*
X94117857Y-64969771D01*
X94117857Y-64369771D01*
X94253571Y-64369771D01*
X94253571Y-64969771D01*
X94255012Y-64984403D01*
X94266211Y-65011439D01*
X94286903Y-65032131D01*
X94313939Y-65043330D01*
X94328571Y-65044771D01*
X94471428Y-65044771D01*
X94478833Y-65044041D01*
X94480808Y-65044182D01*
X94483405Y-65043591D01*
X94486060Y-65043330D01*
X94487891Y-65042571D01*
X94495145Y-65040922D01*
X94580858Y-65012351D01*
X94594284Y-65006357D01*
X94596319Y-65004591D01*
X94598810Y-65003560D01*
X94610175Y-64994233D01*
X94667318Y-64937090D01*
X94672038Y-64931337D01*
X94673535Y-64930040D01*
X94674954Y-64927784D01*
X94676645Y-64925725D01*
X94677402Y-64923895D01*
X94681367Y-64917598D01*
X94709938Y-64860454D01*
X94710346Y-64859386D01*
X94710670Y-64858950D01*
X94712871Y-64852789D01*
X94715193Y-64846722D01*
X94715231Y-64846183D01*
X94715617Y-64845104D01*
X94744189Y-64730819D01*
X94744564Y-64728280D01*
X94744987Y-64727260D01*
X94745529Y-64721748D01*
X94746339Y-64716274D01*
X94746176Y-64715181D01*
X94746428Y-64712628D01*
X94746428Y-64626914D01*
X94746176Y-64624360D01*
X94746339Y-64623268D01*
X94745529Y-64617793D01*
X94744987Y-64612282D01*
X94744564Y-64611261D01*
X94744189Y-64608723D01*
X94715617Y-64494438D01*
X94715231Y-64493358D01*
X94715193Y-64492820D01*
X94712871Y-64486752D01*
X94710670Y-64480592D01*
X94710346Y-64480155D01*
X94709938Y-64479088D01*
X94681367Y-64421944D01*
X94677402Y-64415646D01*
X94676645Y-64413817D01*
X94674954Y-64411757D01*
X94673535Y-64409502D01*
X94672038Y-64408204D01*
X94667318Y-64402452D01*
X94634637Y-64369771D01*
X95310714Y-64369771D01*
X95310714Y-64969771D01*
X95312155Y-64984403D01*
X95323354Y-65011439D01*
X95344046Y-65032131D01*
X95371082Y-65043330D01*
X95385714Y-65044771D01*
X95528571Y-65044771D01*
X95535976Y-65044041D01*
X95537951Y-65044182D01*
X95540548Y-65043591D01*
X95543203Y-65043330D01*
X95545034Y-65042571D01*
X95552288Y-65040922D01*
X95638001Y-65012351D01*
X95651427Y-65006357D01*
X95653462Y-65004591D01*
X95655953Y-65003560D01*
X95667318Y-64994233D01*
X95724461Y-64937090D01*
X95729181Y-64931337D01*
X95730678Y-64930040D01*
X95732097Y-64927784D01*
X95733788Y-64925725D01*
X95734545Y-64923895D01*
X95738510Y-64917598D01*
X95767081Y-64860454D01*
X95767489Y-64859386D01*
X95767813Y-64858950D01*
X95770014Y-64852789D01*
X95772336Y-64846722D01*
X95772374Y-64846183D01*
X95772760Y-64845104D01*
X95801332Y-64730819D01*
X95801707Y-64728280D01*
X95802130Y-64727260D01*
X95802198Y-64726568D01*
X95912155Y-64726568D01*
X95912155Y-64755832D01*
X95923354Y-64782868D01*
X95944046Y-64803560D01*
X95971082Y-64814759D01*
X95985714Y-64816200D01*
X96442857Y-64816200D01*
X96457489Y-64814759D01*
X96484525Y-64803560D01*
X96505217Y-64782868D01*
X96516416Y-64755832D01*
X96516416Y-64726568D01*
X96505217Y-64699532D01*
X96484525Y-64678840D01*
X96457489Y-64667641D01*
X96442857Y-64666200D01*
X95985714Y-64666200D01*
X95971082Y-64667641D01*
X95944046Y-64678840D01*
X95923354Y-64699532D01*
X95912155Y-64726568D01*
X95802198Y-64726568D01*
X95802672Y-64721748D01*
X95803482Y-64716274D01*
X95803319Y-64715181D01*
X95803571Y-64712628D01*
X95803571Y-64626914D01*
X95803319Y-64624360D01*
X95803482Y-64623268D01*
X95802672Y-64617793D01*
X95802130Y-64612282D01*
X95801707Y-64611261D01*
X95801332Y-64608723D01*
X95772760Y-64494438D01*
X95772374Y-64493358D01*
X95772336Y-64492820D01*
X95770014Y-64486752D01*
X95767813Y-64480592D01*
X95767489Y-64480155D01*
X95767081Y-64479088D01*
X95738510Y-64421944D01*
X95734545Y-64415646D01*
X95733788Y-64413817D01*
X95732097Y-64411757D01*
X95730678Y-64409502D01*
X95729181Y-64408204D01*
X95724461Y-64402452D01*
X95691780Y-64369771D01*
X97110714Y-64369771D01*
X97110714Y-64969771D01*
X97112155Y-64984403D01*
X97123354Y-65011439D01*
X97144046Y-65032131D01*
X97171082Y-65043330D01*
X97185714Y-65044771D01*
X97328571Y-65044771D01*
X97335976Y-65044041D01*
X97337951Y-65044182D01*
X97340548Y-65043591D01*
X97343203Y-65043330D01*
X97345034Y-65042571D01*
X97352288Y-65040922D01*
X97438001Y-65012351D01*
X97451427Y-65006357D01*
X97453462Y-65004591D01*
X97455953Y-65003560D01*
X97467318Y-64994233D01*
X97524461Y-64937090D01*
X97529181Y-64931337D01*
X97530678Y-64930040D01*
X97532097Y-64927784D01*
X97533788Y-64925725D01*
X97534545Y-64923895D01*
X97538510Y-64917598D01*
X97567081Y-64860454D01*
X97567489Y-64859386D01*
X97567813Y-64858950D01*
X97570014Y-64852789D01*
X97572336Y-64846722D01*
X97572374Y-64846183D01*
X97572760Y-64845104D01*
X97601332Y-64730819D01*
X97601707Y-64728280D01*
X97602130Y-64727260D01*
X97602198Y-64726568D01*
X97712155Y-64726568D01*
X97712155Y-64755832D01*
X97723354Y-64782868D01*
X97744046Y-64803560D01*
X97771082Y-64814759D01*
X97785714Y-64816200D01*
X97939285Y-64816200D01*
X97939285Y-64969771D01*
X97940726Y-64984403D01*
X97951925Y-65011439D01*
X97972617Y-65032131D01*
X97999653Y-65043330D01*
X98028917Y-65043330D01*
X98055953Y-65032131D01*
X98076645Y-65011439D01*
X98087844Y-64984403D01*
X98089285Y-64969771D01*
X98089285Y-64816200D01*
X98242857Y-64816200D01*
X98257489Y-64814759D01*
X98284525Y-64803560D01*
X98305217Y-64782868D01*
X98316416Y-64755832D01*
X98316416Y-64726568D01*
X98305217Y-64699532D01*
X98284525Y-64678840D01*
X98257489Y-64667641D01*
X98242857Y-64666200D01*
X98089285Y-64666200D01*
X98089285Y-64662725D01*
X98882492Y-64662725D01*
X98883583Y-64666340D01*
X98883583Y-64670115D01*
X98887776Y-64680241D01*
X98890945Y-64690741D01*
X98893336Y-64693663D01*
X98894781Y-64697152D01*
X98902537Y-64704908D01*
X98909476Y-64713389D01*
X98912800Y-64715172D01*
X98915473Y-64717845D01*
X98925606Y-64722042D01*
X98935263Y-64727223D01*
X98939019Y-64727598D01*
X98942509Y-64729044D01*
X98953472Y-64729044D01*
X98964382Y-64730135D01*
X98967998Y-64729044D01*
X98971772Y-64729044D01*
X98981898Y-64724850D01*
X98992398Y-64721682D01*
X98995320Y-64719290D01*
X98998809Y-64717846D01*
X99010174Y-64708519D01*
X99030140Y-64688553D01*
X99060562Y-64673342D01*
X99168008Y-64673342D01*
X99198430Y-64688553D01*
X99209788Y-64699911D01*
X99224999Y-64730332D01*
X99224999Y-64837780D01*
X99209788Y-64868201D01*
X99198428Y-64879561D01*
X99168010Y-64894771D01*
X99060562Y-64894771D01*
X99030140Y-64879560D01*
X99010175Y-64859595D01*
X98998810Y-64850268D01*
X98971773Y-64839069D01*
X98942511Y-64839069D01*
X98915474Y-64850268D01*
X98894782Y-64870960D01*
X98883583Y-64897997D01*
X98883583Y-64927259D01*
X98894782Y-64954296D01*
X98904109Y-64965661D01*
X98932681Y-64994233D01*
X98938434Y-64998955D01*
X98939731Y-65000450D01*
X98941982Y-65001867D01*
X98944046Y-65003561D01*
X98945879Y-65004320D01*
X98952173Y-65008282D01*
X99009317Y-65036853D01*
X99023049Y-65042108D01*
X99025735Y-65042298D01*
X99028225Y-65043330D01*
X99042857Y-65044771D01*
X99185714Y-65044771D01*
X99200346Y-65043330D01*
X99202835Y-65042298D01*
X99205523Y-65042108D01*
X99219255Y-65036853D01*
X99276398Y-65008282D01*
X99282695Y-65004318D01*
X99284526Y-65003560D01*
X99286585Y-65001869D01*
X99288841Y-65000450D01*
X99290139Y-64998952D01*
X99295891Y-64994232D01*
X99324462Y-64965660D01*
X99329182Y-64959907D01*
X99330678Y-64958611D01*
X99332097Y-64956356D01*
X99333789Y-64954295D01*
X99334547Y-64952464D01*
X99338510Y-64946169D01*
X99367081Y-64889025D01*
X99372336Y-64875293D01*
X99372526Y-64872606D01*
X99373558Y-64870117D01*
X99374999Y-64855485D01*
X99374999Y-64712628D01*
X99373558Y-64697996D01*
X99372526Y-64695506D01*
X99372336Y-64692820D01*
X99367081Y-64679088D01*
X99338510Y-64621944D01*
X99334545Y-64615646D01*
X99333788Y-64613817D01*
X99332097Y-64611757D01*
X99330678Y-64609502D01*
X99329181Y-64608204D01*
X99324461Y-64602452D01*
X99295890Y-64573881D01*
X99290137Y-64569160D01*
X99288841Y-64567665D01*
X99286586Y-64566245D01*
X99284525Y-64564554D01*
X99282694Y-64563795D01*
X99276398Y-64559832D01*
X99219255Y-64531260D01*
X99205524Y-64526005D01*
X99202834Y-64525813D01*
X99200346Y-64524783D01*
X99185714Y-64523342D01*
X99045731Y-64523342D01*
X99053588Y-64444771D01*
X99271428Y-64444771D01*
X99286060Y-64443330D01*
X99313096Y-64432131D01*
X99333788Y-64411439D01*
X99344987Y-64384403D01*
X99344987Y-64379151D01*
X99397017Y-64379151D01*
X99400277Y-64393488D01*
X99600277Y-64993489D01*
X99606271Y-65006914D01*
X99609782Y-65010962D01*
X99612178Y-65015754D01*
X99619282Y-65021916D01*
X99625445Y-65029021D01*
X99630237Y-65031417D01*
X99634285Y-65034928D01*
X99643204Y-65037901D01*
X99651618Y-65042108D01*
X99656966Y-65042488D01*
X99662048Y-65044182D01*
X99671420Y-65043515D01*
X99680808Y-65044183D01*
X99685897Y-65042486D01*
X99691238Y-65042107D01*
X99699641Y-65037905D01*
X99708571Y-65034929D01*
X99712622Y-65031415D01*
X99717411Y-65029021D01*
X99723569Y-65021920D01*
X99730678Y-65015755D01*
X99733075Y-65010960D01*
X99736585Y-65006914D01*
X99742579Y-64993488D01*
X99942579Y-64393488D01*
X99945839Y-64379151D01*
X99943765Y-64349961D01*
X99930678Y-64323787D01*
X99908571Y-64304613D01*
X99880808Y-64295359D01*
X99851618Y-64297434D01*
X99825445Y-64310521D01*
X99806271Y-64332628D01*
X99800277Y-64346053D01*
X99671427Y-64732600D01*
X99542579Y-64346054D01*
X99536585Y-64332628D01*
X99517411Y-64310521D01*
X99491238Y-64297435D01*
X99462048Y-64295360D01*
X99434285Y-64304614D01*
X99412178Y-64323788D01*
X99399092Y-64349961D01*
X99397017Y-64379151D01*
X99344987Y-64379151D01*
X99344987Y-64355139D01*
X99333788Y-64328103D01*
X99313096Y-64307411D01*
X99286060Y-64296212D01*
X99271428Y-64294771D01*
X98985714Y-64294771D01*
X98980302Y-64295303D01*
X98978474Y-64295121D01*
X98976687Y-64295659D01*
X98971082Y-64296212D01*
X98960955Y-64300406D01*
X98950458Y-64303574D01*
X98947534Y-64305965D01*
X98944046Y-64307411D01*
X98936292Y-64315164D01*
X98927810Y-64322105D01*
X98926025Y-64325431D01*
X98923354Y-64328103D01*
X98919158Y-64338232D01*
X98913976Y-64347892D01*
X98912868Y-64353416D01*
X98912155Y-64355139D01*
X98912155Y-64356975D01*
X98911086Y-64362308D01*
X98882514Y-64648022D01*
X98882492Y-64662725D01*
X98089285Y-64662725D01*
X98089285Y-64512628D01*
X98087844Y-64497996D01*
X98076645Y-64470960D01*
X98055953Y-64450268D01*
X98028917Y-64439069D01*
X97999653Y-64439069D01*
X97972617Y-64450268D01*
X97951925Y-64470960D01*
X97940726Y-64497996D01*
X97939285Y-64512628D01*
X97939285Y-64666200D01*
X97785714Y-64666200D01*
X97771082Y-64667641D01*
X97744046Y-64678840D01*
X97723354Y-64699532D01*
X97712155Y-64726568D01*
X97602198Y-64726568D01*
X97602672Y-64721748D01*
X97603482Y-64716274D01*
X97603319Y-64715181D01*
X97603571Y-64712628D01*
X97603571Y-64626914D01*
X97603319Y-64624360D01*
X97603482Y-64623268D01*
X97602672Y-64617793D01*
X97602130Y-64612282D01*
X97601707Y-64611261D01*
X97601332Y-64608723D01*
X97572760Y-64494438D01*
X97572374Y-64493358D01*
X97572336Y-64492820D01*
X97570014Y-64486752D01*
X97567813Y-64480592D01*
X97567489Y-64480155D01*
X97567081Y-64479088D01*
X97538510Y-64421944D01*
X97534545Y-64415646D01*
X97533788Y-64413817D01*
X97532097Y-64411757D01*
X97530678Y-64409502D01*
X97529181Y-64408204D01*
X97524461Y-64402452D01*
X97467318Y-64345309D01*
X97455953Y-64335982D01*
X97453462Y-64334950D01*
X97451427Y-64333185D01*
X97438001Y-64327191D01*
X97352288Y-64298620D01*
X97345034Y-64296970D01*
X97343203Y-64296212D01*
X97340548Y-64295950D01*
X97337951Y-64295360D01*
X97335976Y-64295500D01*
X97328571Y-64294771D01*
X97185714Y-64294771D01*
X97171082Y-64296212D01*
X97144046Y-64307411D01*
X97123354Y-64328103D01*
X97112155Y-64355139D01*
X97110714Y-64369771D01*
X95691780Y-64369771D01*
X95667318Y-64345309D01*
X95655953Y-64335982D01*
X95653462Y-64334950D01*
X95651427Y-64333185D01*
X95638001Y-64327191D01*
X95552288Y-64298620D01*
X95545034Y-64296970D01*
X95543203Y-64296212D01*
X95540548Y-64295950D01*
X95537951Y-64295360D01*
X95535976Y-64295500D01*
X95528571Y-64294771D01*
X95385714Y-64294771D01*
X95371082Y-64296212D01*
X95344046Y-64307411D01*
X95323354Y-64328103D01*
X95312155Y-64355139D01*
X95310714Y-64369771D01*
X94634637Y-64369771D01*
X94610175Y-64345309D01*
X94598810Y-64335982D01*
X94596319Y-64334950D01*
X94594284Y-64333185D01*
X94580858Y-64327191D01*
X94495145Y-64298620D01*
X94487891Y-64296970D01*
X94486060Y-64296212D01*
X94483405Y-64295950D01*
X94480808Y-64295360D01*
X94478833Y-64295500D01*
X94471428Y-64294771D01*
X94328571Y-64294771D01*
X94313939Y-64296212D01*
X94286903Y-64307411D01*
X94266211Y-64328103D01*
X94255012Y-64355139D01*
X94253571Y-64369771D01*
X94117857Y-64369771D01*
X94116416Y-64355139D01*
X94105217Y-64328103D01*
X94084525Y-64307411D01*
X94057489Y-64296212D01*
X94028225Y-64296212D01*
X94001189Y-64307411D01*
X93980497Y-64328103D01*
X93969298Y-64355139D01*
X93967857Y-64369771D01*
X93967857Y-64687354D01*
X93765118Y-64332561D01*
X93762929Y-64329477D01*
X93762360Y-64328103D01*
X93760960Y-64326703D01*
X93756608Y-64320571D01*
X93748718Y-64314461D01*
X93741668Y-64307411D01*
X93737251Y-64305581D01*
X93733471Y-64302654D01*
X93723847Y-64300029D01*
X93714632Y-64296212D01*
X93709851Y-64296212D01*
X93705239Y-64294954D01*
X93695342Y-64296212D01*
X93685368Y-64296212D01*
X93680952Y-64298041D01*
X93676209Y-64298644D01*
X93667544Y-64303594D01*
X93658332Y-64307411D01*
X93654953Y-64310789D01*
X93650800Y-64313163D01*
X93644690Y-64321052D01*
X93637640Y-64328103D01*
X93635810Y-64332519D01*
X93632883Y-64336300D01*
X93630258Y-64345923D01*
X93626441Y-64355139D01*
X93625704Y-64362621D01*
X93625183Y-64364532D01*
X93625370Y-64366007D01*
X93625000Y-64369771D01*
X93482300Y-64369771D01*
X93479443Y-64361200D01*
X93460269Y-64339093D01*
X93447826Y-64331260D01*
X93390684Y-64302689D01*
X93376952Y-64297434D01*
X93374264Y-64297243D01*
X93371775Y-64296212D01*
X93357143Y-64294771D01*
X93271428Y-64294771D01*
X93264022Y-64295500D01*
X93262048Y-64295360D01*
X93259450Y-64295950D01*
X93256796Y-64296212D01*
X93254964Y-64296970D01*
X93247711Y-64298620D01*
X93161997Y-64327191D01*
X93148572Y-64333185D01*
X93146536Y-64334950D01*
X93144046Y-64335982D01*
X93132681Y-64345309D01*
X93075538Y-64402452D01*
X93070819Y-64408201D01*
X93069321Y-64409501D01*
X93067899Y-64411760D01*
X93066211Y-64413817D01*
X93065453Y-64415644D01*
X93061489Y-64421944D01*
X93032918Y-64479087D01*
X93032508Y-64480156D01*
X93032186Y-64480592D01*
X93029990Y-64486737D01*
X93027663Y-64492819D01*
X93027624Y-64493358D01*
X93027239Y-64494438D01*
X92998667Y-64608724D01*
X92998291Y-64611260D01*
X92997869Y-64612282D01*
X92997326Y-64617794D01*
X92996517Y-64623268D01*
X92996679Y-64624360D01*
X92996428Y-64626914D01*
X92460714Y-64626914D01*
X92460462Y-64624360D01*
X92460625Y-64623268D01*
X92459815Y-64617793D01*
X92459273Y-64612282D01*
X92458850Y-64611261D01*
X92458475Y-64608723D01*
X92429903Y-64494438D01*
X92429517Y-64493358D01*
X92429479Y-64492820D01*
X92427157Y-64486752D01*
X92424956Y-64480592D01*
X92424632Y-64480155D01*
X92424224Y-64479088D01*
X92395653Y-64421944D01*
X92391688Y-64415646D01*
X92390931Y-64413817D01*
X92389240Y-64411757D01*
X92387821Y-64409502D01*
X92386324Y-64408204D01*
X92381604Y-64402452D01*
X92324461Y-64345309D01*
X92313096Y-64335982D01*
X92310605Y-64334950D01*
X92308570Y-64333185D01*
X92295144Y-64327191D01*
X92209431Y-64298620D01*
X92202177Y-64296970D01*
X92200346Y-64296212D01*
X92197691Y-64295950D01*
X92195094Y-64295360D01*
X92193119Y-64295500D01*
X92185714Y-64294771D01*
X92042857Y-64294771D01*
X92028225Y-64296212D01*
X92001189Y-64307411D01*
X91980497Y-64328103D01*
X91969298Y-64355139D01*
X91967857Y-64369771D01*
X91832143Y-64369771D01*
X91830702Y-64355139D01*
X91819503Y-64328103D01*
X91798811Y-64307411D01*
X91771775Y-64296212D01*
X91742511Y-64296212D01*
X91715475Y-64307411D01*
X91694783Y-64328103D01*
X91683584Y-64355139D01*
X91682143Y-64369771D01*
X91682143Y-64687354D01*
X91479404Y-64332561D01*
X91477215Y-64329477D01*
X91476646Y-64328103D01*
X91475246Y-64326703D01*
X91470894Y-64320571D01*
X91463004Y-64314461D01*
X91455954Y-64307411D01*
X91451537Y-64305581D01*
X91447757Y-64302654D01*
X91438133Y-64300029D01*
X91428918Y-64296212D01*
X91424137Y-64296212D01*
X91419525Y-64294954D01*
X91409628Y-64296212D01*
X91399654Y-64296212D01*
X91395238Y-64298041D01*
X91390495Y-64298644D01*
X91381830Y-64303594D01*
X91372618Y-64307411D01*
X91369239Y-64310789D01*
X91365086Y-64313163D01*
X91358976Y-64321052D01*
X91351926Y-64328103D01*
X91350096Y-64332519D01*
X91347169Y-64336300D01*
X91344544Y-64345923D01*
X91340727Y-64355139D01*
X91339990Y-64362621D01*
X91339469Y-64364532D01*
X91339656Y-64366007D01*
X91339286Y-64369771D01*
X91196586Y-64369771D01*
X91193729Y-64361200D01*
X91174555Y-64339093D01*
X91162112Y-64331260D01*
X91104970Y-64302689D01*
X91091238Y-64297434D01*
X91088550Y-64297243D01*
X91086061Y-64296212D01*
X91071429Y-64294771D01*
X90985714Y-64294771D01*
X90978308Y-64295500D01*
X90976334Y-64295360D01*
X90973736Y-64295950D01*
X90971082Y-64296212D01*
X90969250Y-64296970D01*
X90961997Y-64298620D01*
X90876283Y-64327191D01*
X90862858Y-64333185D01*
X90860822Y-64334950D01*
X90858332Y-64335982D01*
X90846967Y-64345309D01*
X90789824Y-64402452D01*
X90785105Y-64408201D01*
X90783607Y-64409501D01*
X90782185Y-64411760D01*
X90780497Y-64413817D01*
X90779739Y-64415644D01*
X90775775Y-64421944D01*
X90747204Y-64479087D01*
X90746794Y-64480156D01*
X90746472Y-64480592D01*
X90744276Y-64486737D01*
X90741949Y-64492819D01*
X90741910Y-64493358D01*
X90741525Y-64494438D01*
X90712953Y-64608724D01*
X90712577Y-64611260D01*
X90712155Y-64612282D01*
X90711612Y-64617794D01*
X90710803Y-64623268D01*
X90710965Y-64624360D01*
X90710714Y-64626914D01*
X90635714Y-64626914D01*
X90635714Y-64219771D01*
X100020839Y-64219771D01*
X100020839Y-65119771D01*
G37*
X111633333Y-60439580D02*
X111585714Y-60487200D01*
X111585714Y-60487200D02*
X111442857Y-60534819D01*
X111442857Y-60534819D02*
X111347619Y-60534819D01*
X111347619Y-60534819D02*
X111204762Y-60487200D01*
X111204762Y-60487200D02*
X111109524Y-60391961D01*
X111109524Y-60391961D02*
X111061905Y-60296723D01*
X111061905Y-60296723D02*
X111014286Y-60106247D01*
X111014286Y-60106247D02*
X111014286Y-59963390D01*
X111014286Y-59963390D02*
X111061905Y-59772914D01*
X111061905Y-59772914D02*
X111109524Y-59677676D01*
X111109524Y-59677676D02*
X111204762Y-59582438D01*
X111204762Y-59582438D02*
X111347619Y-59534819D01*
X111347619Y-59534819D02*
X111442857Y-59534819D01*
X111442857Y-59534819D02*
X111585714Y-59582438D01*
X111585714Y-59582438D02*
X111633333Y-59630057D01*
X111966667Y-59534819D02*
X112633333Y-59534819D01*
X112633333Y-59534819D02*
X112204762Y-60534819D01*
X91157142Y-63759580D02*
X91109523Y-63807200D01*
X91109523Y-63807200D02*
X90966666Y-63854819D01*
X90966666Y-63854819D02*
X90871428Y-63854819D01*
X90871428Y-63854819D02*
X90728571Y-63807200D01*
X90728571Y-63807200D02*
X90633333Y-63711961D01*
X90633333Y-63711961D02*
X90585714Y-63616723D01*
X90585714Y-63616723D02*
X90538095Y-63426247D01*
X90538095Y-63426247D02*
X90538095Y-63283390D01*
X90538095Y-63283390D02*
X90585714Y-63092914D01*
X90585714Y-63092914D02*
X90633333Y-62997676D01*
X90633333Y-62997676D02*
X90728571Y-62902438D01*
X90728571Y-62902438D02*
X90871428Y-62854819D01*
X90871428Y-62854819D02*
X90966666Y-62854819D01*
X90966666Y-62854819D02*
X91109523Y-62902438D01*
X91109523Y-62902438D02*
X91157142Y-62950057D01*
X92109523Y-63854819D02*
X91538095Y-63854819D01*
X91823809Y-63854819D02*
X91823809Y-62854819D01*
X91823809Y-62854819D02*
X91728571Y-62997676D01*
X91728571Y-62997676D02*
X91633333Y-63092914D01*
X91633333Y-63092914D02*
X91538095Y-63140533D01*
X93061904Y-63854819D02*
X92490476Y-63854819D01*
X92776190Y-63854819D02*
X92776190Y-62854819D01*
X92776190Y-62854819D02*
X92680952Y-62997676D01*
X92680952Y-62997676D02*
X92585714Y-63092914D01*
X92585714Y-63092914D02*
X92490476Y-63140533D01*
X101459580Y-63842857D02*
X101507200Y-63890476D01*
X101507200Y-63890476D02*
X101554819Y-64033333D01*
X101554819Y-64033333D02*
X101554819Y-64128571D01*
X101554819Y-64128571D02*
X101507200Y-64271428D01*
X101507200Y-64271428D02*
X101411961Y-64366666D01*
X101411961Y-64366666D02*
X101316723Y-64414285D01*
X101316723Y-64414285D02*
X101126247Y-64461904D01*
X101126247Y-64461904D02*
X100983390Y-64461904D01*
X100983390Y-64461904D02*
X100792914Y-64414285D01*
X100792914Y-64414285D02*
X100697676Y-64366666D01*
X100697676Y-64366666D02*
X100602438Y-64271428D01*
X100602438Y-64271428D02*
X100554819Y-64128571D01*
X100554819Y-64128571D02*
X100554819Y-64033333D01*
X100554819Y-64033333D02*
X100602438Y-63890476D01*
X100602438Y-63890476D02*
X100650057Y-63842857D01*
X101554819Y-62890476D02*
X101554819Y-63461904D01*
X101554819Y-63176190D02*
X100554819Y-63176190D01*
X100554819Y-63176190D02*
X100697676Y-63271428D01*
X100697676Y-63271428D02*
X100792914Y-63366666D01*
X100792914Y-63366666D02*
X100840533Y-63461904D01*
X100888152Y-62033333D02*
X101554819Y-62033333D01*
X100507200Y-62271428D02*
X101221485Y-62509523D01*
X101221485Y-62509523D02*
X101221485Y-61890476D01*
X103254819Y-63842857D02*
X102778628Y-64176190D01*
X103254819Y-64414285D02*
X102254819Y-64414285D01*
X102254819Y-64414285D02*
X102254819Y-64033333D01*
X102254819Y-64033333D02*
X102302438Y-63938095D01*
X102302438Y-63938095D02*
X102350057Y-63890476D01*
X102350057Y-63890476D02*
X102445295Y-63842857D01*
X102445295Y-63842857D02*
X102588152Y-63842857D01*
X102588152Y-63842857D02*
X102683390Y-63890476D01*
X102683390Y-63890476D02*
X102731009Y-63938095D01*
X102731009Y-63938095D02*
X102778628Y-64033333D01*
X102778628Y-64033333D02*
X102778628Y-64414285D01*
X103254819Y-62890476D02*
X103254819Y-63461904D01*
X103254819Y-63176190D02*
X102254819Y-63176190D01*
X102254819Y-63176190D02*
X102397676Y-63271428D01*
X102397676Y-63271428D02*
X102492914Y-63366666D01*
X102492914Y-63366666D02*
X102540533Y-63461904D01*
X102254819Y-61985714D02*
X102254819Y-62461904D01*
X102254819Y-62461904D02*
X102731009Y-62509523D01*
X102731009Y-62509523D02*
X102683390Y-62461904D01*
X102683390Y-62461904D02*
X102635771Y-62366666D01*
X102635771Y-62366666D02*
X102635771Y-62128571D01*
X102635771Y-62128571D02*
X102683390Y-62033333D01*
X102683390Y-62033333D02*
X102731009Y-61985714D01*
X102731009Y-61985714D02*
X102826247Y-61938095D01*
X102826247Y-61938095D02*
X103064342Y-61938095D01*
X103064342Y-61938095D02*
X103159580Y-61985714D01*
X103159580Y-61985714D02*
X103207200Y-62033333D01*
X103207200Y-62033333D02*
X103254819Y-62128571D01*
X103254819Y-62128571D02*
X103254819Y-62366666D01*
X103254819Y-62366666D02*
X103207200Y-62461904D01*
X103207200Y-62461904D02*
X103159580Y-62509523D01*
X108733333Y-50859580D02*
X108685714Y-50907200D01*
X108685714Y-50907200D02*
X108542857Y-50954819D01*
X108542857Y-50954819D02*
X108447619Y-50954819D01*
X108447619Y-50954819D02*
X108304762Y-50907200D01*
X108304762Y-50907200D02*
X108209524Y-50811961D01*
X108209524Y-50811961D02*
X108161905Y-50716723D01*
X108161905Y-50716723D02*
X108114286Y-50526247D01*
X108114286Y-50526247D02*
X108114286Y-50383390D01*
X108114286Y-50383390D02*
X108161905Y-50192914D01*
X108161905Y-50192914D02*
X108209524Y-50097676D01*
X108209524Y-50097676D02*
X108304762Y-50002438D01*
X108304762Y-50002438D02*
X108447619Y-49954819D01*
X108447619Y-49954819D02*
X108542857Y-49954819D01*
X108542857Y-49954819D02*
X108685714Y-50002438D01*
X108685714Y-50002438D02*
X108733333Y-50050057D01*
X109066667Y-49954819D02*
X109685714Y-49954819D01*
X109685714Y-49954819D02*
X109352381Y-50335771D01*
X109352381Y-50335771D02*
X109495238Y-50335771D01*
X109495238Y-50335771D02*
X109590476Y-50383390D01*
X109590476Y-50383390D02*
X109638095Y-50431009D01*
X109638095Y-50431009D02*
X109685714Y-50526247D01*
X109685714Y-50526247D02*
X109685714Y-50764342D01*
X109685714Y-50764342D02*
X109638095Y-50859580D01*
X109638095Y-50859580D02*
X109590476Y-50907200D01*
X109590476Y-50907200D02*
X109495238Y-50954819D01*
X109495238Y-50954819D02*
X109209524Y-50954819D01*
X109209524Y-50954819D02*
X109114286Y-50907200D01*
X109114286Y-50907200D02*
X109066667Y-50859580D01*
X107454819Y-65442857D02*
X106978628Y-65776190D01*
X107454819Y-66014285D02*
X106454819Y-66014285D01*
X106454819Y-66014285D02*
X106454819Y-65633333D01*
X106454819Y-65633333D02*
X106502438Y-65538095D01*
X106502438Y-65538095D02*
X106550057Y-65490476D01*
X106550057Y-65490476D02*
X106645295Y-65442857D01*
X106645295Y-65442857D02*
X106788152Y-65442857D01*
X106788152Y-65442857D02*
X106883390Y-65490476D01*
X106883390Y-65490476D02*
X106931009Y-65538095D01*
X106931009Y-65538095D02*
X106978628Y-65633333D01*
X106978628Y-65633333D02*
X106978628Y-66014285D01*
X107454819Y-64490476D02*
X107454819Y-65061904D01*
X107454819Y-64776190D02*
X106454819Y-64776190D01*
X106454819Y-64776190D02*
X106597676Y-64871428D01*
X106597676Y-64871428D02*
X106692914Y-64966666D01*
X106692914Y-64966666D02*
X106740533Y-65061904D01*
X106788152Y-63633333D02*
X107454819Y-63633333D01*
X106407200Y-63871428D02*
X107121485Y-64109523D01*
X107121485Y-64109523D02*
X107121485Y-63490476D01*
X91157142Y-62559580D02*
X91109523Y-62607200D01*
X91109523Y-62607200D02*
X90966666Y-62654819D01*
X90966666Y-62654819D02*
X90871428Y-62654819D01*
X90871428Y-62654819D02*
X90728571Y-62607200D01*
X90728571Y-62607200D02*
X90633333Y-62511961D01*
X90633333Y-62511961D02*
X90585714Y-62416723D01*
X90585714Y-62416723D02*
X90538095Y-62226247D01*
X90538095Y-62226247D02*
X90538095Y-62083390D01*
X90538095Y-62083390D02*
X90585714Y-61892914D01*
X90585714Y-61892914D02*
X90633333Y-61797676D01*
X90633333Y-61797676D02*
X90728571Y-61702438D01*
X90728571Y-61702438D02*
X90871428Y-61654819D01*
X90871428Y-61654819D02*
X90966666Y-61654819D01*
X90966666Y-61654819D02*
X91109523Y-61702438D01*
X91109523Y-61702438D02*
X91157142Y-61750057D01*
X92109523Y-62654819D02*
X91538095Y-62654819D01*
X91823809Y-62654819D02*
X91823809Y-61654819D01*
X91823809Y-61654819D02*
X91728571Y-61797676D01*
X91728571Y-61797676D02*
X91633333Y-61892914D01*
X91633333Y-61892914D02*
X91538095Y-61940533D01*
X92442857Y-61654819D02*
X93061904Y-61654819D01*
X93061904Y-61654819D02*
X92728571Y-62035771D01*
X92728571Y-62035771D02*
X92871428Y-62035771D01*
X92871428Y-62035771D02*
X92966666Y-62083390D01*
X92966666Y-62083390D02*
X93014285Y-62131009D01*
X93014285Y-62131009D02*
X93061904Y-62226247D01*
X93061904Y-62226247D02*
X93061904Y-62464342D01*
X93061904Y-62464342D02*
X93014285Y-62559580D01*
X93014285Y-62559580D02*
X92966666Y-62607200D01*
X92966666Y-62607200D02*
X92871428Y-62654819D01*
X92871428Y-62654819D02*
X92585714Y-62654819D01*
X92585714Y-62654819D02*
X92490476Y-62607200D01*
X92490476Y-62607200D02*
X92442857Y-62559580D01*
X98488094Y-54654819D02*
X98488094Y-55464342D01*
X98488094Y-55464342D02*
X98535713Y-55559580D01*
X98535713Y-55559580D02*
X98583332Y-55607200D01*
X98583332Y-55607200D02*
X98678570Y-55654819D01*
X98678570Y-55654819D02*
X98869046Y-55654819D01*
X98869046Y-55654819D02*
X98964284Y-55607200D01*
X98964284Y-55607200D02*
X99011903Y-55559580D01*
X99011903Y-55559580D02*
X99059522Y-55464342D01*
X99059522Y-55464342D02*
X99059522Y-54654819D01*
X99440475Y-54654819D02*
X100059522Y-54654819D01*
X100059522Y-54654819D02*
X99726189Y-55035771D01*
X99726189Y-55035771D02*
X99869046Y-55035771D01*
X99869046Y-55035771D02*
X99964284Y-55083390D01*
X99964284Y-55083390D02*
X100011903Y-55131009D01*
X100011903Y-55131009D02*
X100059522Y-55226247D01*
X100059522Y-55226247D02*
X100059522Y-55464342D01*
X100059522Y-55464342D02*
X100011903Y-55559580D01*
X100011903Y-55559580D02*
X99964284Y-55607200D01*
X99964284Y-55607200D02*
X99869046Y-55654819D01*
X99869046Y-55654819D02*
X99583332Y-55654819D01*
X99583332Y-55654819D02*
X99488094Y-55607200D01*
X99488094Y-55607200D02*
X99440475Y-55559580D01*
X102238095Y-50004818D02*
X102238095Y-50814341D01*
X102238095Y-50814341D02*
X102285714Y-50909579D01*
X102285714Y-50909579D02*
X102333333Y-50957199D01*
X102333333Y-50957199D02*
X102428571Y-51004818D01*
X102428571Y-51004818D02*
X102619047Y-51004818D01*
X102619047Y-51004818D02*
X102714285Y-50957199D01*
X102714285Y-50957199D02*
X102761904Y-50909579D01*
X102761904Y-50909579D02*
X102809523Y-50814341D01*
X102809523Y-50814341D02*
X102809523Y-50004818D01*
X103809523Y-51004818D02*
X103238095Y-51004818D01*
X103523809Y-51004818D02*
X103523809Y-50004818D01*
X103523809Y-50004818D02*
X103428571Y-50147675D01*
X103428571Y-50147675D02*
X103333333Y-50242913D01*
X103333333Y-50242913D02*
X103238095Y-50290532D01*
X95516666Y-66704819D02*
X95516666Y-67419104D01*
X95516666Y-67419104D02*
X95469047Y-67561961D01*
X95469047Y-67561961D02*
X95373809Y-67657200D01*
X95373809Y-67657200D02*
X95230952Y-67704819D01*
X95230952Y-67704819D02*
X95135714Y-67704819D01*
X95897619Y-66704819D02*
X96516666Y-66704819D01*
X96516666Y-66704819D02*
X96183333Y-67085771D01*
X96183333Y-67085771D02*
X96326190Y-67085771D01*
X96326190Y-67085771D02*
X96421428Y-67133390D01*
X96421428Y-67133390D02*
X96469047Y-67181009D01*
X96469047Y-67181009D02*
X96516666Y-67276247D01*
X96516666Y-67276247D02*
X96516666Y-67514342D01*
X96516666Y-67514342D02*
X96469047Y-67609580D01*
X96469047Y-67609580D02*
X96421428Y-67657200D01*
X96421428Y-67657200D02*
X96326190Y-67704819D01*
X96326190Y-67704819D02*
X96040476Y-67704819D01*
X96040476Y-67704819D02*
X95945238Y-67657200D01*
X95945238Y-67657200D02*
X95897619Y-67609580D01*
X97145359Y-57894792D02*
X96812026Y-57418601D01*
X96573931Y-57894792D02*
X96573931Y-56894792D01*
X96573931Y-56894792D02*
X96954883Y-56894792D01*
X96954883Y-56894792D02*
X97050121Y-56942411D01*
X97050121Y-56942411D02*
X97097740Y-56990030D01*
X97097740Y-56990030D02*
X97145359Y-57085268D01*
X97145359Y-57085268D02*
X97145359Y-57228125D01*
X97145359Y-57228125D02*
X97097740Y-57323363D01*
X97097740Y-57323363D02*
X97050121Y-57370982D01*
X97050121Y-57370982D02*
X96954883Y-57418601D01*
X96954883Y-57418601D02*
X96573931Y-57418601D01*
X97716788Y-57323363D02*
X97621550Y-57275744D01*
X97621550Y-57275744D02*
X97573931Y-57228125D01*
X97573931Y-57228125D02*
X97526312Y-57132887D01*
X97526312Y-57132887D02*
X97526312Y-57085268D01*
X97526312Y-57085268D02*
X97573931Y-56990030D01*
X97573931Y-56990030D02*
X97621550Y-56942411D01*
X97621550Y-56942411D02*
X97716788Y-56894792D01*
X97716788Y-56894792D02*
X97907264Y-56894792D01*
X97907264Y-56894792D02*
X98002502Y-56942411D01*
X98002502Y-56942411D02*
X98050121Y-56990030D01*
X98050121Y-56990030D02*
X98097740Y-57085268D01*
X98097740Y-57085268D02*
X98097740Y-57132887D01*
X98097740Y-57132887D02*
X98050121Y-57228125D01*
X98050121Y-57228125D02*
X98002502Y-57275744D01*
X98002502Y-57275744D02*
X97907264Y-57323363D01*
X97907264Y-57323363D02*
X97716788Y-57323363D01*
X97716788Y-57323363D02*
X97621550Y-57370982D01*
X97621550Y-57370982D02*
X97573931Y-57418601D01*
X97573931Y-57418601D02*
X97526312Y-57513839D01*
X97526312Y-57513839D02*
X97526312Y-57704315D01*
X97526312Y-57704315D02*
X97573931Y-57799553D01*
X97573931Y-57799553D02*
X97621550Y-57847173D01*
X97621550Y-57847173D02*
X97716788Y-57894792D01*
X97716788Y-57894792D02*
X97907264Y-57894792D01*
X97907264Y-57894792D02*
X98002502Y-57847173D01*
X98002502Y-57847173D02*
X98050121Y-57799553D01*
X98050121Y-57799553D02*
X98097740Y-57704315D01*
X98097740Y-57704315D02*
X98097740Y-57513839D01*
X98097740Y-57513839D02*
X98050121Y-57418601D01*
X98050121Y-57418601D02*
X98002502Y-57370982D01*
X98002502Y-57370982D02*
X97907264Y-57323363D01*
X109554819Y-47466666D02*
X109078628Y-47799999D01*
X109554819Y-48038094D02*
X108554819Y-48038094D01*
X108554819Y-48038094D02*
X108554819Y-47657142D01*
X108554819Y-47657142D02*
X108602438Y-47561904D01*
X108602438Y-47561904D02*
X108650057Y-47514285D01*
X108650057Y-47514285D02*
X108745295Y-47466666D01*
X108745295Y-47466666D02*
X108888152Y-47466666D01*
X108888152Y-47466666D02*
X108983390Y-47514285D01*
X108983390Y-47514285D02*
X109031009Y-47561904D01*
X109031009Y-47561904D02*
X109078628Y-47657142D01*
X109078628Y-47657142D02*
X109078628Y-48038094D01*
X109554819Y-46514285D02*
X109554819Y-47085713D01*
X109554819Y-46799999D02*
X108554819Y-46799999D01*
X108554819Y-46799999D02*
X108697676Y-46895237D01*
X108697676Y-46895237D02*
X108792914Y-46990475D01*
X108792914Y-46990475D02*
X108840533Y-47085713D01*
X106054819Y-47466666D02*
X105578628Y-47799999D01*
X106054819Y-48038094D02*
X105054819Y-48038094D01*
X105054819Y-48038094D02*
X105054819Y-47657142D01*
X105054819Y-47657142D02*
X105102438Y-47561904D01*
X105102438Y-47561904D02*
X105150057Y-47514285D01*
X105150057Y-47514285D02*
X105245295Y-47466666D01*
X105245295Y-47466666D02*
X105388152Y-47466666D01*
X105388152Y-47466666D02*
X105483390Y-47514285D01*
X105483390Y-47514285D02*
X105531009Y-47561904D01*
X105531009Y-47561904D02*
X105578628Y-47657142D01*
X105578628Y-47657142D02*
X105578628Y-48038094D01*
X105054819Y-47133332D02*
X105054819Y-46514285D01*
X105054819Y-46514285D02*
X105435771Y-46847618D01*
X105435771Y-46847618D02*
X105435771Y-46704761D01*
X105435771Y-46704761D02*
X105483390Y-46609523D01*
X105483390Y-46609523D02*
X105531009Y-46561904D01*
X105531009Y-46561904D02*
X105626247Y-46514285D01*
X105626247Y-46514285D02*
X105864342Y-46514285D01*
X105864342Y-46514285D02*
X105959580Y-46561904D01*
X105959580Y-46561904D02*
X106007200Y-46609523D01*
X106007200Y-46609523D02*
X106054819Y-46704761D01*
X106054819Y-46704761D02*
X106054819Y-46990475D01*
X106054819Y-46990475D02*
X106007200Y-47085713D01*
X106007200Y-47085713D02*
X105959580Y-47133332D01*
X98233333Y-43259580D02*
X98185714Y-43307200D01*
X98185714Y-43307200D02*
X98042857Y-43354819D01*
X98042857Y-43354819D02*
X97947619Y-43354819D01*
X97947619Y-43354819D02*
X97804762Y-43307200D01*
X97804762Y-43307200D02*
X97709524Y-43211961D01*
X97709524Y-43211961D02*
X97661905Y-43116723D01*
X97661905Y-43116723D02*
X97614286Y-42926247D01*
X97614286Y-42926247D02*
X97614286Y-42783390D01*
X97614286Y-42783390D02*
X97661905Y-42592914D01*
X97661905Y-42592914D02*
X97709524Y-42497676D01*
X97709524Y-42497676D02*
X97804762Y-42402438D01*
X97804762Y-42402438D02*
X97947619Y-42354819D01*
X97947619Y-42354819D02*
X98042857Y-42354819D01*
X98042857Y-42354819D02*
X98185714Y-42402438D01*
X98185714Y-42402438D02*
X98233333Y-42450057D01*
X98804762Y-42783390D02*
X98709524Y-42735771D01*
X98709524Y-42735771D02*
X98661905Y-42688152D01*
X98661905Y-42688152D02*
X98614286Y-42592914D01*
X98614286Y-42592914D02*
X98614286Y-42545295D01*
X98614286Y-42545295D02*
X98661905Y-42450057D01*
X98661905Y-42450057D02*
X98709524Y-42402438D01*
X98709524Y-42402438D02*
X98804762Y-42354819D01*
X98804762Y-42354819D02*
X98995238Y-42354819D01*
X98995238Y-42354819D02*
X99090476Y-42402438D01*
X99090476Y-42402438D02*
X99138095Y-42450057D01*
X99138095Y-42450057D02*
X99185714Y-42545295D01*
X99185714Y-42545295D02*
X99185714Y-42592914D01*
X99185714Y-42592914D02*
X99138095Y-42688152D01*
X99138095Y-42688152D02*
X99090476Y-42735771D01*
X99090476Y-42735771D02*
X98995238Y-42783390D01*
X98995238Y-42783390D02*
X98804762Y-42783390D01*
X98804762Y-42783390D02*
X98709524Y-42831009D01*
X98709524Y-42831009D02*
X98661905Y-42878628D01*
X98661905Y-42878628D02*
X98614286Y-42973866D01*
X98614286Y-42973866D02*
X98614286Y-43164342D01*
X98614286Y-43164342D02*
X98661905Y-43259580D01*
X98661905Y-43259580D02*
X98709524Y-43307200D01*
X98709524Y-43307200D02*
X98804762Y-43354819D01*
X98804762Y-43354819D02*
X98995238Y-43354819D01*
X98995238Y-43354819D02*
X99090476Y-43307200D01*
X99090476Y-43307200D02*
X99138095Y-43259580D01*
X99138095Y-43259580D02*
X99185714Y-43164342D01*
X99185714Y-43164342D02*
X99185714Y-42973866D01*
X99185714Y-42973866D02*
X99138095Y-42878628D01*
X99138095Y-42878628D02*
X99090476Y-42831009D01*
X99090476Y-42831009D02*
X98995238Y-42783390D01*
X96574168Y-62644792D02*
X96240835Y-62168601D01*
X96002740Y-62644792D02*
X96002740Y-61644792D01*
X96002740Y-61644792D02*
X96383692Y-61644792D01*
X96383692Y-61644792D02*
X96478930Y-61692411D01*
X96478930Y-61692411D02*
X96526549Y-61740030D01*
X96526549Y-61740030D02*
X96574168Y-61835268D01*
X96574168Y-61835268D02*
X96574168Y-61978125D01*
X96574168Y-61978125D02*
X96526549Y-62073363D01*
X96526549Y-62073363D02*
X96478930Y-62120982D01*
X96478930Y-62120982D02*
X96383692Y-62168601D01*
X96383692Y-62168601D02*
X96002740Y-62168601D01*
X97526549Y-62644792D02*
X96955121Y-62644792D01*
X97240835Y-62644792D02*
X97240835Y-61644792D01*
X97240835Y-61644792D02*
X97145597Y-61787649D01*
X97145597Y-61787649D02*
X97050359Y-61882887D01*
X97050359Y-61882887D02*
X96955121Y-61930506D01*
X97907502Y-61740030D02*
X97955121Y-61692411D01*
X97955121Y-61692411D02*
X98050359Y-61644792D01*
X98050359Y-61644792D02*
X98288454Y-61644792D01*
X98288454Y-61644792D02*
X98383692Y-61692411D01*
X98383692Y-61692411D02*
X98431311Y-61740030D01*
X98431311Y-61740030D02*
X98478930Y-61835268D01*
X98478930Y-61835268D02*
X98478930Y-61930506D01*
X98478930Y-61930506D02*
X98431311Y-62073363D01*
X98431311Y-62073363D02*
X97859883Y-62644792D01*
X97859883Y-62644792D02*
X98478930Y-62644792D01*
X104666666Y-43254819D02*
X104666666Y-43969104D01*
X104666666Y-43969104D02*
X104619047Y-44111961D01*
X104619047Y-44111961D02*
X104523809Y-44207200D01*
X104523809Y-44207200D02*
X104380952Y-44254819D01*
X104380952Y-44254819D02*
X104285714Y-44254819D01*
X105666666Y-44254819D02*
X105095238Y-44254819D01*
X105380952Y-44254819D02*
X105380952Y-43254819D01*
X105380952Y-43254819D02*
X105285714Y-43397676D01*
X105285714Y-43397676D02*
X105190476Y-43492914D01*
X105190476Y-43492914D02*
X105095238Y-43540533D01*
X114343333Y-57169580D02*
X114295714Y-57217200D01*
X114295714Y-57217200D02*
X114152857Y-57264819D01*
X114152857Y-57264819D02*
X114057619Y-57264819D01*
X114057619Y-57264819D02*
X113914762Y-57217200D01*
X113914762Y-57217200D02*
X113819524Y-57121961D01*
X113819524Y-57121961D02*
X113771905Y-57026723D01*
X113771905Y-57026723D02*
X113724286Y-56836247D01*
X113724286Y-56836247D02*
X113724286Y-56693390D01*
X113724286Y-56693390D02*
X113771905Y-56502914D01*
X113771905Y-56502914D02*
X113819524Y-56407676D01*
X113819524Y-56407676D02*
X113914762Y-56312438D01*
X113914762Y-56312438D02*
X114057619Y-56264819D01*
X114057619Y-56264819D02*
X114152857Y-56264819D01*
X114152857Y-56264819D02*
X114295714Y-56312438D01*
X114295714Y-56312438D02*
X114343333Y-56360057D01*
X114819524Y-57264819D02*
X115010000Y-57264819D01*
X115010000Y-57264819D02*
X115105238Y-57217200D01*
X115105238Y-57217200D02*
X115152857Y-57169580D01*
X115152857Y-57169580D02*
X115248095Y-57026723D01*
X115248095Y-57026723D02*
X115295714Y-56836247D01*
X115295714Y-56836247D02*
X115295714Y-56455295D01*
X115295714Y-56455295D02*
X115248095Y-56360057D01*
X115248095Y-56360057D02*
X115200476Y-56312438D01*
X115200476Y-56312438D02*
X115105238Y-56264819D01*
X115105238Y-56264819D02*
X114914762Y-56264819D01*
X114914762Y-56264819D02*
X114819524Y-56312438D01*
X114819524Y-56312438D02*
X114771905Y-56360057D01*
X114771905Y-56360057D02*
X114724286Y-56455295D01*
X114724286Y-56455295D02*
X114724286Y-56693390D01*
X114724286Y-56693390D02*
X114771905Y-56788628D01*
X114771905Y-56788628D02*
X114819524Y-56836247D01*
X114819524Y-56836247D02*
X114914762Y-56883866D01*
X114914762Y-56883866D02*
X115105238Y-56883866D01*
X115105238Y-56883866D02*
X115200476Y-56836247D01*
X115200476Y-56836247D02*
X115248095Y-56788628D01*
X115248095Y-56788628D02*
X115295714Y-56693390D01*
X96569168Y-60144792D02*
X96235835Y-59668601D01*
X95997740Y-60144792D02*
X95997740Y-59144792D01*
X95997740Y-59144792D02*
X96378692Y-59144792D01*
X96378692Y-59144792D02*
X96473930Y-59192411D01*
X96473930Y-59192411D02*
X96521549Y-59240030D01*
X96521549Y-59240030D02*
X96569168Y-59335268D01*
X96569168Y-59335268D02*
X96569168Y-59478125D01*
X96569168Y-59478125D02*
X96521549Y-59573363D01*
X96521549Y-59573363D02*
X96473930Y-59620982D01*
X96473930Y-59620982D02*
X96378692Y-59668601D01*
X96378692Y-59668601D02*
X95997740Y-59668601D01*
X97521549Y-60144792D02*
X96950121Y-60144792D01*
X97235835Y-60144792D02*
X97235835Y-59144792D01*
X97235835Y-59144792D02*
X97140597Y-59287649D01*
X97140597Y-59287649D02*
X97045359Y-59382887D01*
X97045359Y-59382887D02*
X96950121Y-59430506D01*
X98140597Y-59144792D02*
X98235835Y-59144792D01*
X98235835Y-59144792D02*
X98331073Y-59192411D01*
X98331073Y-59192411D02*
X98378692Y-59240030D01*
X98378692Y-59240030D02*
X98426311Y-59335268D01*
X98426311Y-59335268D02*
X98473930Y-59525744D01*
X98473930Y-59525744D02*
X98473930Y-59763839D01*
X98473930Y-59763839D02*
X98426311Y-59954315D01*
X98426311Y-59954315D02*
X98378692Y-60049553D01*
X98378692Y-60049553D02*
X98331073Y-60097173D01*
X98331073Y-60097173D02*
X98235835Y-60144792D01*
X98235835Y-60144792D02*
X98140597Y-60144792D01*
X98140597Y-60144792D02*
X98045359Y-60097173D01*
X98045359Y-60097173D02*
X97997740Y-60049553D01*
X97997740Y-60049553D02*
X97950121Y-59954315D01*
X97950121Y-59954315D02*
X97902502Y-59763839D01*
X97902502Y-59763839D02*
X97902502Y-59525744D01*
X97902502Y-59525744D02*
X97950121Y-59335268D01*
X97950121Y-59335268D02*
X97997740Y-59240030D01*
X97997740Y-59240030D02*
X98045359Y-59192411D01*
X98045359Y-59192411D02*
X98140597Y-59144792D01*
X108933333Y-64209580D02*
X108885714Y-64257200D01*
X108885714Y-64257200D02*
X108742857Y-64304819D01*
X108742857Y-64304819D02*
X108647619Y-64304819D01*
X108647619Y-64304819D02*
X108504762Y-64257200D01*
X108504762Y-64257200D02*
X108409524Y-64161961D01*
X108409524Y-64161961D02*
X108361905Y-64066723D01*
X108361905Y-64066723D02*
X108314286Y-63876247D01*
X108314286Y-63876247D02*
X108314286Y-63733390D01*
X108314286Y-63733390D02*
X108361905Y-63542914D01*
X108361905Y-63542914D02*
X108409524Y-63447676D01*
X108409524Y-63447676D02*
X108504762Y-63352438D01*
X108504762Y-63352438D02*
X108647619Y-63304819D01*
X108647619Y-63304819D02*
X108742857Y-63304819D01*
X108742857Y-63304819D02*
X108885714Y-63352438D01*
X108885714Y-63352438D02*
X108933333Y-63400057D01*
X109838095Y-63304819D02*
X109361905Y-63304819D01*
X109361905Y-63304819D02*
X109314286Y-63781009D01*
X109314286Y-63781009D02*
X109361905Y-63733390D01*
X109361905Y-63733390D02*
X109457143Y-63685771D01*
X109457143Y-63685771D02*
X109695238Y-63685771D01*
X109695238Y-63685771D02*
X109790476Y-63733390D01*
X109790476Y-63733390D02*
X109838095Y-63781009D01*
X109838095Y-63781009D02*
X109885714Y-63876247D01*
X109885714Y-63876247D02*
X109885714Y-64114342D01*
X109885714Y-64114342D02*
X109838095Y-64209580D01*
X109838095Y-64209580D02*
X109790476Y-64257200D01*
X109790476Y-64257200D02*
X109695238Y-64304819D01*
X109695238Y-64304819D02*
X109457143Y-64304819D01*
X109457143Y-64304819D02*
X109361905Y-64257200D01*
X109361905Y-64257200D02*
X109314286Y-64209580D01*
X114216666Y-67104819D02*
X114216666Y-67819104D01*
X114216666Y-67819104D02*
X114169047Y-67961961D01*
X114169047Y-67961961D02*
X114073809Y-68057200D01*
X114073809Y-68057200D02*
X113930952Y-68104819D01*
X113930952Y-68104819D02*
X113835714Y-68104819D01*
X115121428Y-67438152D02*
X115121428Y-68104819D01*
X114883333Y-67057200D02*
X114645238Y-67771485D01*
X114645238Y-67771485D02*
X115264285Y-67771485D01*
X106833333Y-50859580D02*
X106785714Y-50907200D01*
X106785714Y-50907200D02*
X106642857Y-50954819D01*
X106642857Y-50954819D02*
X106547619Y-50954819D01*
X106547619Y-50954819D02*
X106404762Y-50907200D01*
X106404762Y-50907200D02*
X106309524Y-50811961D01*
X106309524Y-50811961D02*
X106261905Y-50716723D01*
X106261905Y-50716723D02*
X106214286Y-50526247D01*
X106214286Y-50526247D02*
X106214286Y-50383390D01*
X106214286Y-50383390D02*
X106261905Y-50192914D01*
X106261905Y-50192914D02*
X106309524Y-50097676D01*
X106309524Y-50097676D02*
X106404762Y-50002438D01*
X106404762Y-50002438D02*
X106547619Y-49954819D01*
X106547619Y-49954819D02*
X106642857Y-49954819D01*
X106642857Y-49954819D02*
X106785714Y-50002438D01*
X106785714Y-50002438D02*
X106833333Y-50050057D01*
X107214286Y-50050057D02*
X107261905Y-50002438D01*
X107261905Y-50002438D02*
X107357143Y-49954819D01*
X107357143Y-49954819D02*
X107595238Y-49954819D01*
X107595238Y-49954819D02*
X107690476Y-50002438D01*
X107690476Y-50002438D02*
X107738095Y-50050057D01*
X107738095Y-50050057D02*
X107785714Y-50145295D01*
X107785714Y-50145295D02*
X107785714Y-50240533D01*
X107785714Y-50240533D02*
X107738095Y-50383390D01*
X107738095Y-50383390D02*
X107166667Y-50954819D01*
X107166667Y-50954819D02*
X107785714Y-50954819D01*
X107133333Y-55454819D02*
X106800000Y-54978628D01*
X106561905Y-55454819D02*
X106561905Y-54454819D01*
X106561905Y-54454819D02*
X106942857Y-54454819D01*
X106942857Y-54454819D02*
X107038095Y-54502438D01*
X107038095Y-54502438D02*
X107085714Y-54550057D01*
X107085714Y-54550057D02*
X107133333Y-54645295D01*
X107133333Y-54645295D02*
X107133333Y-54788152D01*
X107133333Y-54788152D02*
X107085714Y-54883390D01*
X107085714Y-54883390D02*
X107038095Y-54931009D01*
X107038095Y-54931009D02*
X106942857Y-54978628D01*
X106942857Y-54978628D02*
X106561905Y-54978628D01*
X107990476Y-54788152D02*
X107990476Y-55454819D01*
X107752381Y-54407200D02*
X107514286Y-55121485D01*
X107514286Y-55121485D02*
X108133333Y-55121485D01*
X97150359Y-56644792D02*
X96817026Y-56168601D01*
X96578931Y-56644792D02*
X96578931Y-55644792D01*
X96578931Y-55644792D02*
X96959883Y-55644792D01*
X96959883Y-55644792D02*
X97055121Y-55692411D01*
X97055121Y-55692411D02*
X97102740Y-55740030D01*
X97102740Y-55740030D02*
X97150359Y-55835268D01*
X97150359Y-55835268D02*
X97150359Y-55978125D01*
X97150359Y-55978125D02*
X97102740Y-56073363D01*
X97102740Y-56073363D02*
X97055121Y-56120982D01*
X97055121Y-56120982D02*
X96959883Y-56168601D01*
X96959883Y-56168601D02*
X96578931Y-56168601D01*
X97483693Y-55644792D02*
X98150359Y-55644792D01*
X98150359Y-55644792D02*
X97721788Y-56644792D01*
X114343333Y-60829580D02*
X114295714Y-60877200D01*
X114295714Y-60877200D02*
X114152857Y-60924819D01*
X114152857Y-60924819D02*
X114057619Y-60924819D01*
X114057619Y-60924819D02*
X113914762Y-60877200D01*
X113914762Y-60877200D02*
X113819524Y-60781961D01*
X113819524Y-60781961D02*
X113771905Y-60686723D01*
X113771905Y-60686723D02*
X113724286Y-60496247D01*
X113724286Y-60496247D02*
X113724286Y-60353390D01*
X113724286Y-60353390D02*
X113771905Y-60162914D01*
X113771905Y-60162914D02*
X113819524Y-60067676D01*
X113819524Y-60067676D02*
X113914762Y-59972438D01*
X113914762Y-59972438D02*
X114057619Y-59924819D01*
X114057619Y-59924819D02*
X114152857Y-59924819D01*
X114152857Y-59924819D02*
X114295714Y-59972438D01*
X114295714Y-59972438D02*
X114343333Y-60020057D01*
X115200476Y-59924819D02*
X115010000Y-59924819D01*
X115010000Y-59924819D02*
X114914762Y-59972438D01*
X114914762Y-59972438D02*
X114867143Y-60020057D01*
X114867143Y-60020057D02*
X114771905Y-60162914D01*
X114771905Y-60162914D02*
X114724286Y-60353390D01*
X114724286Y-60353390D02*
X114724286Y-60734342D01*
X114724286Y-60734342D02*
X114771905Y-60829580D01*
X114771905Y-60829580D02*
X114819524Y-60877200D01*
X114819524Y-60877200D02*
X114914762Y-60924819D01*
X114914762Y-60924819D02*
X115105238Y-60924819D01*
X115105238Y-60924819D02*
X115200476Y-60877200D01*
X115200476Y-60877200D02*
X115248095Y-60829580D01*
X115248095Y-60829580D02*
X115295714Y-60734342D01*
X115295714Y-60734342D02*
X115295714Y-60496247D01*
X115295714Y-60496247D02*
X115248095Y-60401009D01*
X115248095Y-60401009D02*
X115200476Y-60353390D01*
X115200476Y-60353390D02*
X115105238Y-60305771D01*
X115105238Y-60305771D02*
X114914762Y-60305771D01*
X114914762Y-60305771D02*
X114819524Y-60353390D01*
X114819524Y-60353390D02*
X114771905Y-60401009D01*
X114771905Y-60401009D02*
X114724286Y-60496247D01*
X101457142Y-47059580D02*
X101409523Y-47107200D01*
X101409523Y-47107200D02*
X101266666Y-47154819D01*
X101266666Y-47154819D02*
X101171428Y-47154819D01*
X101171428Y-47154819D02*
X101028571Y-47107200D01*
X101028571Y-47107200D02*
X100933333Y-47011961D01*
X100933333Y-47011961D02*
X100885714Y-46916723D01*
X100885714Y-46916723D02*
X100838095Y-46726247D01*
X100838095Y-46726247D02*
X100838095Y-46583390D01*
X100838095Y-46583390D02*
X100885714Y-46392914D01*
X100885714Y-46392914D02*
X100933333Y-46297676D01*
X100933333Y-46297676D02*
X101028571Y-46202438D01*
X101028571Y-46202438D02*
X101171428Y-46154819D01*
X101171428Y-46154819D02*
X101266666Y-46154819D01*
X101266666Y-46154819D02*
X101409523Y-46202438D01*
X101409523Y-46202438D02*
X101457142Y-46250057D01*
X102409523Y-47154819D02*
X101838095Y-47154819D01*
X102123809Y-47154819D02*
X102123809Y-46154819D01*
X102123809Y-46154819D02*
X102028571Y-46297676D01*
X102028571Y-46297676D02*
X101933333Y-46392914D01*
X101933333Y-46392914D02*
X101838095Y-46440533D01*
X103028571Y-46154819D02*
X103123809Y-46154819D01*
X103123809Y-46154819D02*
X103219047Y-46202438D01*
X103219047Y-46202438D02*
X103266666Y-46250057D01*
X103266666Y-46250057D02*
X103314285Y-46345295D01*
X103314285Y-46345295D02*
X103361904Y-46535771D01*
X103361904Y-46535771D02*
X103361904Y-46773866D01*
X103361904Y-46773866D02*
X103314285Y-46964342D01*
X103314285Y-46964342D02*
X103266666Y-47059580D01*
X103266666Y-47059580D02*
X103219047Y-47107200D01*
X103219047Y-47107200D02*
X103123809Y-47154819D01*
X103123809Y-47154819D02*
X103028571Y-47154819D01*
X103028571Y-47154819D02*
X102933333Y-47107200D01*
X102933333Y-47107200D02*
X102885714Y-47059580D01*
X102885714Y-47059580D02*
X102838095Y-46964342D01*
X102838095Y-46964342D02*
X102790476Y-46773866D01*
X102790476Y-46773866D02*
X102790476Y-46535771D01*
X102790476Y-46535771D02*
X102838095Y-46345295D01*
X102838095Y-46345295D02*
X102885714Y-46250057D01*
X102885714Y-46250057D02*
X102933333Y-46202438D01*
X102933333Y-46202438D02*
X103028571Y-46154819D01*
X96554168Y-61444792D02*
X96220835Y-60968601D01*
X95982740Y-61444792D02*
X95982740Y-60444792D01*
X95982740Y-60444792D02*
X96363692Y-60444792D01*
X96363692Y-60444792D02*
X96458930Y-60492411D01*
X96458930Y-60492411D02*
X96506549Y-60540030D01*
X96506549Y-60540030D02*
X96554168Y-60635268D01*
X96554168Y-60635268D02*
X96554168Y-60778125D01*
X96554168Y-60778125D02*
X96506549Y-60873363D01*
X96506549Y-60873363D02*
X96458930Y-60920982D01*
X96458930Y-60920982D02*
X96363692Y-60968601D01*
X96363692Y-60968601D02*
X95982740Y-60968601D01*
X97506549Y-61444792D02*
X96935121Y-61444792D01*
X97220835Y-61444792D02*
X97220835Y-60444792D01*
X97220835Y-60444792D02*
X97125597Y-60587649D01*
X97125597Y-60587649D02*
X97030359Y-60682887D01*
X97030359Y-60682887D02*
X96935121Y-60730506D01*
X98458930Y-61444792D02*
X97887502Y-61444792D01*
X98173216Y-61444792D02*
X98173216Y-60444792D01*
X98173216Y-60444792D02*
X98077978Y-60587649D01*
X98077978Y-60587649D02*
X97982740Y-60682887D01*
X97982740Y-60682887D02*
X97887502Y-60730506D01*
X97045359Y-59204792D02*
X96712026Y-58728601D01*
X96473931Y-59204792D02*
X96473931Y-58204792D01*
X96473931Y-58204792D02*
X96854883Y-58204792D01*
X96854883Y-58204792D02*
X96950121Y-58252411D01*
X96950121Y-58252411D02*
X96997740Y-58300030D01*
X96997740Y-58300030D02*
X97045359Y-58395268D01*
X97045359Y-58395268D02*
X97045359Y-58538125D01*
X97045359Y-58538125D02*
X96997740Y-58633363D01*
X96997740Y-58633363D02*
X96950121Y-58680982D01*
X96950121Y-58680982D02*
X96854883Y-58728601D01*
X96854883Y-58728601D02*
X96473931Y-58728601D01*
X97521550Y-59204792D02*
X97712026Y-59204792D01*
X97712026Y-59204792D02*
X97807264Y-59157173D01*
X97807264Y-59157173D02*
X97854883Y-59109553D01*
X97854883Y-59109553D02*
X97950121Y-58966696D01*
X97950121Y-58966696D02*
X97997740Y-58776220D01*
X97997740Y-58776220D02*
X97997740Y-58395268D01*
X97997740Y-58395268D02*
X97950121Y-58300030D01*
X97950121Y-58300030D02*
X97902502Y-58252411D01*
X97902502Y-58252411D02*
X97807264Y-58204792D01*
X97807264Y-58204792D02*
X97616788Y-58204792D01*
X97616788Y-58204792D02*
X97521550Y-58252411D01*
X97521550Y-58252411D02*
X97473931Y-58300030D01*
X97473931Y-58300030D02*
X97426312Y-58395268D01*
X97426312Y-58395268D02*
X97426312Y-58633363D01*
X97426312Y-58633363D02*
X97473931Y-58728601D01*
X97473931Y-58728601D02*
X97521550Y-58776220D01*
X97521550Y-58776220D02*
X97616788Y-58823839D01*
X97616788Y-58823839D02*
X97807264Y-58823839D01*
X97807264Y-58823839D02*
X97902502Y-58776220D01*
X97902502Y-58776220D02*
X97950121Y-58728601D01*
X97950121Y-58728601D02*
X97997740Y-58633363D01*
X104754819Y-47466666D02*
X104278628Y-47799999D01*
X104754819Y-48038094D02*
X103754819Y-48038094D01*
X103754819Y-48038094D02*
X103754819Y-47657142D01*
X103754819Y-47657142D02*
X103802438Y-47561904D01*
X103802438Y-47561904D02*
X103850057Y-47514285D01*
X103850057Y-47514285D02*
X103945295Y-47466666D01*
X103945295Y-47466666D02*
X104088152Y-47466666D01*
X104088152Y-47466666D02*
X104183390Y-47514285D01*
X104183390Y-47514285D02*
X104231009Y-47561904D01*
X104231009Y-47561904D02*
X104278628Y-47657142D01*
X104278628Y-47657142D02*
X104278628Y-48038094D01*
X103850057Y-47085713D02*
X103802438Y-47038094D01*
X103802438Y-47038094D02*
X103754819Y-46942856D01*
X103754819Y-46942856D02*
X103754819Y-46704761D01*
X103754819Y-46704761D02*
X103802438Y-46609523D01*
X103802438Y-46609523D02*
X103850057Y-46561904D01*
X103850057Y-46561904D02*
X103945295Y-46514285D01*
X103945295Y-46514285D02*
X104040533Y-46514285D01*
X104040533Y-46514285D02*
X104183390Y-46561904D01*
X104183390Y-46561904D02*
X104754819Y-47133332D01*
X104754819Y-47133332D02*
X104754819Y-46514285D01*
X111359580Y-42666666D02*
X111407200Y-42714285D01*
X111407200Y-42714285D02*
X111454819Y-42857142D01*
X111454819Y-42857142D02*
X111454819Y-42952380D01*
X111454819Y-42952380D02*
X111407200Y-43095237D01*
X111407200Y-43095237D02*
X111311961Y-43190475D01*
X111311961Y-43190475D02*
X111216723Y-43238094D01*
X111216723Y-43238094D02*
X111026247Y-43285713D01*
X111026247Y-43285713D02*
X110883390Y-43285713D01*
X110883390Y-43285713D02*
X110692914Y-43238094D01*
X110692914Y-43238094D02*
X110597676Y-43190475D01*
X110597676Y-43190475D02*
X110502438Y-43095237D01*
X110502438Y-43095237D02*
X110454819Y-42952380D01*
X110454819Y-42952380D02*
X110454819Y-42857142D01*
X110454819Y-42857142D02*
X110502438Y-42714285D01*
X110502438Y-42714285D02*
X110550057Y-42666666D01*
X111454819Y-41714285D02*
X111454819Y-42285713D01*
X111454819Y-41999999D02*
X110454819Y-41999999D01*
X110454819Y-41999999D02*
X110597676Y-42095237D01*
X110597676Y-42095237D02*
X110692914Y-42190475D01*
X110692914Y-42190475D02*
X110740533Y-42285713D01*
X91157142Y-61159580D02*
X91109523Y-61207200D01*
X91109523Y-61207200D02*
X90966666Y-61254819D01*
X90966666Y-61254819D02*
X90871428Y-61254819D01*
X90871428Y-61254819D02*
X90728571Y-61207200D01*
X90728571Y-61207200D02*
X90633333Y-61111961D01*
X90633333Y-61111961D02*
X90585714Y-61016723D01*
X90585714Y-61016723D02*
X90538095Y-60826247D01*
X90538095Y-60826247D02*
X90538095Y-60683390D01*
X90538095Y-60683390D02*
X90585714Y-60492914D01*
X90585714Y-60492914D02*
X90633333Y-60397676D01*
X90633333Y-60397676D02*
X90728571Y-60302438D01*
X90728571Y-60302438D02*
X90871428Y-60254819D01*
X90871428Y-60254819D02*
X90966666Y-60254819D01*
X90966666Y-60254819D02*
X91109523Y-60302438D01*
X91109523Y-60302438D02*
X91157142Y-60350057D01*
X92109523Y-61254819D02*
X91538095Y-61254819D01*
X91823809Y-61254819D02*
X91823809Y-60254819D01*
X91823809Y-60254819D02*
X91728571Y-60397676D01*
X91728571Y-60397676D02*
X91633333Y-60492914D01*
X91633333Y-60492914D02*
X91538095Y-60540533D01*
X92490476Y-60350057D02*
X92538095Y-60302438D01*
X92538095Y-60302438D02*
X92633333Y-60254819D01*
X92633333Y-60254819D02*
X92871428Y-60254819D01*
X92871428Y-60254819D02*
X92966666Y-60302438D01*
X92966666Y-60302438D02*
X93014285Y-60350057D01*
X93014285Y-60350057D02*
X93061904Y-60445295D01*
X93061904Y-60445295D02*
X93061904Y-60540533D01*
X93061904Y-60540533D02*
X93014285Y-60683390D01*
X93014285Y-60683390D02*
X92442857Y-61254819D01*
X92442857Y-61254819D02*
X93061904Y-61254819D01*
X100238095Y-54954819D02*
X100238095Y-55764342D01*
X100238095Y-55764342D02*
X100285714Y-55859580D01*
X100285714Y-55859580D02*
X100333333Y-55907200D01*
X100333333Y-55907200D02*
X100428571Y-55954819D01*
X100428571Y-55954819D02*
X100619047Y-55954819D01*
X100619047Y-55954819D02*
X100714285Y-55907200D01*
X100714285Y-55907200D02*
X100761904Y-55859580D01*
X100761904Y-55859580D02*
X100809523Y-55764342D01*
X100809523Y-55764342D02*
X100809523Y-54954819D01*
X101238095Y-55050057D02*
X101285714Y-55002438D01*
X101285714Y-55002438D02*
X101380952Y-54954819D01*
X101380952Y-54954819D02*
X101619047Y-54954819D01*
X101619047Y-54954819D02*
X101714285Y-55002438D01*
X101714285Y-55002438D02*
X101761904Y-55050057D01*
X101761904Y-55050057D02*
X101809523Y-55145295D01*
X101809523Y-55145295D02*
X101809523Y-55240533D01*
X101809523Y-55240533D02*
X101761904Y-55383390D01*
X101761904Y-55383390D02*
X101190476Y-55954819D01*
X101190476Y-55954819D02*
X101809523Y-55954819D01*
X104754819Y-65542857D02*
X104278628Y-65876190D01*
X104754819Y-66114285D02*
X103754819Y-66114285D01*
X103754819Y-66114285D02*
X103754819Y-65733333D01*
X103754819Y-65733333D02*
X103802438Y-65638095D01*
X103802438Y-65638095D02*
X103850057Y-65590476D01*
X103850057Y-65590476D02*
X103945295Y-65542857D01*
X103945295Y-65542857D02*
X104088152Y-65542857D01*
X104088152Y-65542857D02*
X104183390Y-65590476D01*
X104183390Y-65590476D02*
X104231009Y-65638095D01*
X104231009Y-65638095D02*
X104278628Y-65733333D01*
X104278628Y-65733333D02*
X104278628Y-66114285D01*
X104754819Y-64590476D02*
X104754819Y-65161904D01*
X104754819Y-64876190D02*
X103754819Y-64876190D01*
X103754819Y-64876190D02*
X103897676Y-64971428D01*
X103897676Y-64971428D02*
X103992914Y-65066666D01*
X103992914Y-65066666D02*
X104040533Y-65161904D01*
X103754819Y-64257142D02*
X103754819Y-63638095D01*
X103754819Y-63638095D02*
X104135771Y-63971428D01*
X104135771Y-63971428D02*
X104135771Y-63828571D01*
X104135771Y-63828571D02*
X104183390Y-63733333D01*
X104183390Y-63733333D02*
X104231009Y-63685714D01*
X104231009Y-63685714D02*
X104326247Y-63638095D01*
X104326247Y-63638095D02*
X104564342Y-63638095D01*
X104564342Y-63638095D02*
X104659580Y-63685714D01*
X104659580Y-63685714D02*
X104707200Y-63733333D01*
X104707200Y-63733333D02*
X104754819Y-63828571D01*
X104754819Y-63828571D02*
X104754819Y-64114285D01*
X104754819Y-64114285D02*
X104707200Y-64209523D01*
X104707200Y-64209523D02*
X104659580Y-64257142D01*
X114403333Y-62749580D02*
X114355714Y-62797200D01*
X114355714Y-62797200D02*
X114212857Y-62844819D01*
X114212857Y-62844819D02*
X114117619Y-62844819D01*
X114117619Y-62844819D02*
X113974762Y-62797200D01*
X113974762Y-62797200D02*
X113879524Y-62701961D01*
X113879524Y-62701961D02*
X113831905Y-62606723D01*
X113831905Y-62606723D02*
X113784286Y-62416247D01*
X113784286Y-62416247D02*
X113784286Y-62273390D01*
X113784286Y-62273390D02*
X113831905Y-62082914D01*
X113831905Y-62082914D02*
X113879524Y-61987676D01*
X113879524Y-61987676D02*
X113974762Y-61892438D01*
X113974762Y-61892438D02*
X114117619Y-61844819D01*
X114117619Y-61844819D02*
X114212857Y-61844819D01*
X114212857Y-61844819D02*
X114355714Y-61892438D01*
X114355714Y-61892438D02*
X114403333Y-61940057D01*
X115260476Y-62178152D02*
X115260476Y-62844819D01*
X115022381Y-61797200D02*
X114784286Y-62511485D01*
X114784286Y-62511485D02*
X115403333Y-62511485D01*
X102354819Y-44466666D02*
X101878628Y-44799999D01*
X102354819Y-45038094D02*
X101354819Y-45038094D01*
X101354819Y-45038094D02*
X101354819Y-44657142D01*
X101354819Y-44657142D02*
X101402438Y-44561904D01*
X101402438Y-44561904D02*
X101450057Y-44514285D01*
X101450057Y-44514285D02*
X101545295Y-44466666D01*
X101545295Y-44466666D02*
X101688152Y-44466666D01*
X101688152Y-44466666D02*
X101783390Y-44514285D01*
X101783390Y-44514285D02*
X101831009Y-44561904D01*
X101831009Y-44561904D02*
X101878628Y-44657142D01*
X101878628Y-44657142D02*
X101878628Y-45038094D01*
X101354819Y-43561904D02*
X101354819Y-44038094D01*
X101354819Y-44038094D02*
X101831009Y-44085713D01*
X101831009Y-44085713D02*
X101783390Y-44038094D01*
X101783390Y-44038094D02*
X101735771Y-43942856D01*
X101735771Y-43942856D02*
X101735771Y-43704761D01*
X101735771Y-43704761D02*
X101783390Y-43609523D01*
X101783390Y-43609523D02*
X101831009Y-43561904D01*
X101831009Y-43561904D02*
X101926247Y-43514285D01*
X101926247Y-43514285D02*
X102164342Y-43514285D01*
X102164342Y-43514285D02*
X102259580Y-43561904D01*
X102259580Y-43561904D02*
X102307200Y-43609523D01*
X102307200Y-43609523D02*
X102354819Y-43704761D01*
X102354819Y-43704761D02*
X102354819Y-43942856D01*
X102354819Y-43942856D02*
X102307200Y-44038094D01*
X102307200Y-44038094D02*
X102259580Y-44085713D01*
X113361905Y-52154819D02*
X113361905Y-51154819D01*
X113361905Y-51154819D02*
X113600000Y-51154819D01*
X113600000Y-51154819D02*
X113742857Y-51202438D01*
X113742857Y-51202438D02*
X113838095Y-51297676D01*
X113838095Y-51297676D02*
X113885714Y-51392914D01*
X113885714Y-51392914D02*
X113933333Y-51583390D01*
X113933333Y-51583390D02*
X113933333Y-51726247D01*
X113933333Y-51726247D02*
X113885714Y-51916723D01*
X113885714Y-51916723D02*
X113838095Y-52011961D01*
X113838095Y-52011961D02*
X113742857Y-52107200D01*
X113742857Y-52107200D02*
X113600000Y-52154819D01*
X113600000Y-52154819D02*
X113361905Y-52154819D01*
X114885714Y-52154819D02*
X114314286Y-52154819D01*
X114600000Y-52154819D02*
X114600000Y-51154819D01*
X114600000Y-51154819D02*
X114504762Y-51297676D01*
X114504762Y-51297676D02*
X114409524Y-51392914D01*
X114409524Y-51392914D02*
X114314286Y-51440533D01*
X112237583Y-57002943D02*
X111900865Y-57339661D01*
X112372270Y-56396852D02*
X112237583Y-57002943D01*
X112237583Y-57002943D02*
X112843674Y-56868256D01*
X112742659Y-58181454D02*
X112338598Y-57777393D01*
X112540629Y-57979424D02*
X113247735Y-57272317D01*
X113247735Y-57272317D02*
X113079377Y-57305989D01*
X113079377Y-57305989D02*
X112944690Y-57305989D01*
X112944690Y-57305989D02*
X112843674Y-57272317D01*
X95666666Y-72004819D02*
X95666666Y-72719104D01*
X95666666Y-72719104D02*
X95619047Y-72861961D01*
X95619047Y-72861961D02*
X95523809Y-72957200D01*
X95523809Y-72957200D02*
X95380952Y-73004819D01*
X95380952Y-73004819D02*
X95285714Y-73004819D01*
X96095238Y-72100057D02*
X96142857Y-72052438D01*
X96142857Y-72052438D02*
X96238095Y-72004819D01*
X96238095Y-72004819D02*
X96476190Y-72004819D01*
X96476190Y-72004819D02*
X96571428Y-72052438D01*
X96571428Y-72052438D02*
X96619047Y-72100057D01*
X96619047Y-72100057D02*
X96666666Y-72195295D01*
X96666666Y-72195295D02*
X96666666Y-72290533D01*
X96666666Y-72290533D02*
X96619047Y-72433390D01*
X96619047Y-72433390D02*
X96047619Y-73004819D01*
X96047619Y-73004819D02*
X96666666Y-73004819D01*
X107754819Y-46766666D02*
X107278628Y-47099999D01*
X107754819Y-47338094D02*
X106754819Y-47338094D01*
X106754819Y-47338094D02*
X106754819Y-46957142D01*
X106754819Y-46957142D02*
X106802438Y-46861904D01*
X106802438Y-46861904D02*
X106850057Y-46814285D01*
X106850057Y-46814285D02*
X106945295Y-46766666D01*
X106945295Y-46766666D02*
X107088152Y-46766666D01*
X107088152Y-46766666D02*
X107183390Y-46814285D01*
X107183390Y-46814285D02*
X107231009Y-46861904D01*
X107231009Y-46861904D02*
X107278628Y-46957142D01*
X107278628Y-46957142D02*
X107278628Y-47338094D01*
X106754819Y-45909523D02*
X106754819Y-46099999D01*
X106754819Y-46099999D02*
X106802438Y-46195237D01*
X106802438Y-46195237D02*
X106850057Y-46242856D01*
X106850057Y-46242856D02*
X106992914Y-46338094D01*
X106992914Y-46338094D02*
X107183390Y-46385713D01*
X107183390Y-46385713D02*
X107564342Y-46385713D01*
X107564342Y-46385713D02*
X107659580Y-46338094D01*
X107659580Y-46338094D02*
X107707200Y-46290475D01*
X107707200Y-46290475D02*
X107754819Y-46195237D01*
X107754819Y-46195237D02*
X107754819Y-46004761D01*
X107754819Y-46004761D02*
X107707200Y-45909523D01*
X107707200Y-45909523D02*
X107659580Y-45861904D01*
X107659580Y-45861904D02*
X107564342Y-45814285D01*
X107564342Y-45814285D02*
X107326247Y-45814285D01*
X107326247Y-45814285D02*
X107231009Y-45861904D01*
X107231009Y-45861904D02*
X107183390Y-45909523D01*
X107183390Y-45909523D02*
X107135771Y-46004761D01*
X107135771Y-46004761D02*
X107135771Y-46195237D01*
X107135771Y-46195237D02*
X107183390Y-46290475D01*
X107183390Y-46290475D02*
X107231009Y-46338094D01*
X107231009Y-46338094D02*
X107326247Y-46385713D01*
D12*
%TO.C,C7*%
X112061252Y-59135000D02*
X111538748Y-59135000D01*
X112061252Y-57665000D02*
X111538748Y-57665000D01*
%TO.C,C11*%
X91859420Y-58890000D02*
X92140580Y-58890000D01*
X91859420Y-59910000D02*
X92140580Y-59910000D01*
%TO.C,C14*%
X100115000Y-66511253D02*
X100115000Y-65988747D01*
X101585000Y-66511253D02*
X101585000Y-65988747D01*
%TO.C,R15*%
X102127500Y-66687258D02*
X102127500Y-66212742D01*
X103172500Y-66687258D02*
X103172500Y-66212742D01*
%TO.C,C3*%
X107740000Y-52172164D02*
X107740000Y-52387836D01*
X108460000Y-52172164D02*
X108460000Y-52387836D01*
%TO.C,R14*%
X105720000Y-67046359D02*
X105720000Y-67353641D01*
X106480000Y-67046359D02*
X106480000Y-67353641D01*
%TO.C,C13*%
X91938748Y-56865000D02*
X92461252Y-56865000D01*
X91938748Y-58335000D02*
X92461252Y-58335000D01*
%TO.C,U3*%
X92939999Y-47590000D02*
X92939999Y-48849999D01*
X92939999Y-54410000D02*
X92939999Y-53150001D01*
X96699999Y-47589999D02*
X92939999Y-47590000D01*
X96699999Y-54410001D02*
X92939999Y-54410000D01*
X98219999Y-54640000D02*
X97739999Y-54640000D01*
X97979999Y-54310000D01*
X98219999Y-54640000D01*
G36*
X98219999Y-54640000D02*
G01*
X97739999Y-54640000D01*
X97979999Y-54310000D01*
X98219999Y-54640000D01*
G37*
%TO.C,U1*%
X103000000Y-51390000D02*
X101500000Y-51390000D01*
X103000000Y-51390000D02*
X104500000Y-51390000D01*
X103000000Y-54610000D02*
X101500000Y-54610000D01*
X103000000Y-54610000D02*
X104500000Y-54610000D01*
X100787500Y-51590000D02*
X100547500Y-51260000D01*
X101027500Y-51260000D01*
X100787500Y-51590000D01*
G36*
X100787500Y-51590000D02*
G01*
X100547500Y-51260000D01*
X101027500Y-51260000D01*
X100787500Y-51590000D01*
G37*
%TO.C,J5*%
X101490000Y-69690000D02*
X102540000Y-69690000D01*
X101490000Y-70840000D02*
X101490000Y-69690000D01*
X107540000Y-72810000D02*
X102660000Y-72810000D01*
X107660000Y-69690000D02*
X107660000Y-68700000D01*
X108710000Y-69690000D02*
X107660000Y-69690000D01*
X108710000Y-70840000D02*
X108710000Y-69690000D01*
%TO.C,J3*%
X93360000Y-65325000D02*
X93360000Y-65625507D01*
X93360000Y-66414493D02*
X93360000Y-66715000D01*
X97235000Y-65325000D02*
X93360000Y-65325000D01*
X97235000Y-65325000D02*
X97235000Y-65411724D01*
X97235000Y-66628276D02*
X97235000Y-66715000D01*
X97235000Y-66715000D02*
X93360000Y-66715000D01*
X97920000Y-65325000D02*
X98605000Y-65325000D01*
X98605000Y-65325000D02*
X98605000Y-66020000D01*
%TO.C,R8*%
X99073385Y-57109973D02*
X99380667Y-57109973D01*
X99073385Y-57869973D02*
X99380667Y-57869973D01*
%TO.C,R1*%
X108577500Y-44762742D02*
X108577500Y-45237258D01*
X109622500Y-44762742D02*
X109622500Y-45237258D01*
%TO.C,R3*%
X105120000Y-45046359D02*
X105120000Y-45353641D01*
X105880000Y-45046359D02*
X105880000Y-45353641D01*
%TO.C,C8*%
X98738748Y-43765000D02*
X99261252Y-43765000D01*
X98738748Y-45235000D02*
X99261252Y-45235000D01*
%TO.C,R12*%
X99073385Y-61619973D02*
X99380667Y-61619973D01*
X99073385Y-62379973D02*
X99380667Y-62379973D01*
%TO.C,J1*%
X100420000Y-34115000D02*
X109580000Y-34115000D01*
X100420000Y-35820000D02*
X100420000Y-34115000D01*
X100420000Y-37830000D02*
X100420000Y-39750000D01*
X109580000Y-34115000D02*
X109580000Y-35820000D01*
X109580000Y-39750000D02*
X109580000Y-37830000D01*
%TO.C,C9*%
X111207836Y-56540000D02*
X110992164Y-56540000D01*
X111207836Y-57260000D02*
X110992164Y-57260000D01*
%TO.C,R10*%
X99073385Y-59339973D02*
X99380667Y-59339973D01*
X99073385Y-60099973D02*
X99380667Y-60099973D01*
%TO.C,C5*%
X111137836Y-63540000D02*
X110922164Y-63540000D01*
X111137836Y-64260000D02*
X110922164Y-64260000D01*
%TO.C,J4*%
X111805000Y-66835000D02*
X111805000Y-66140000D01*
X112490000Y-66835000D02*
X111805000Y-66835000D01*
X113175000Y-65445000D02*
X117050000Y-65445000D01*
X113175000Y-65531724D02*
X113175000Y-65445000D01*
X113175000Y-66835000D02*
X113175000Y-66748276D01*
X113175000Y-66835000D02*
X117050000Y-66835000D01*
X117050000Y-65745507D02*
X117050000Y-65445000D01*
X117050000Y-66835000D02*
X117050000Y-66534493D01*
%TO.C,C2*%
X106740000Y-52172164D02*
X106740000Y-52387836D01*
X107460000Y-52172164D02*
X107460000Y-52387836D01*
%TO.C,R4*%
X107353641Y-53420000D02*
X107046359Y-53420000D01*
X107353641Y-54180000D02*
X107046359Y-54180000D01*
%TO.C,R7*%
X99380667Y-56109973D02*
X99073385Y-56109973D01*
X99380667Y-56869973D02*
X99073385Y-56869973D01*
%TO.C,C6*%
X112061253Y-59665000D02*
X111538747Y-59665000D01*
X112061253Y-61135000D02*
X111538747Y-61135000D01*
%TO.C,C10*%
X98859420Y-45990000D02*
X99140580Y-45990000D01*
X98859420Y-47010000D02*
X99140580Y-47010000D01*
%TO.C,R11*%
X99380667Y-60609973D02*
X99073385Y-60609973D01*
X99380667Y-61369973D02*
X99073385Y-61369973D01*
%TO.C,R9*%
X99073385Y-58309973D02*
X99380667Y-58309973D01*
X99073385Y-59069973D02*
X99380667Y-59069973D01*
%TO.C,R2*%
X104120000Y-45046359D02*
X104120000Y-45353641D01*
X104880000Y-45046359D02*
X104880000Y-45353641D01*
%TO.C,C1*%
X110265000Y-44838748D02*
X110265000Y-45361252D01*
X111735000Y-44838748D02*
X111735000Y-45361252D01*
%TO.C,C12*%
X91938748Y-54865000D02*
X92461252Y-54865000D01*
X91938748Y-56335000D02*
X92461252Y-56335000D01*
%TO.C,U2*%
X105417026Y-55807473D02*
X103467026Y-55807473D01*
X105417026Y-55807473D02*
X107367026Y-55807473D01*
X105417026Y-61172473D02*
X103467026Y-61172473D01*
X105417026Y-61172473D02*
X107367026Y-61172473D01*
X101707026Y-56267473D02*
X101377026Y-56507473D01*
X101377026Y-56027473D01*
X101707026Y-56267473D01*
G36*
X101707026Y-56267473D02*
G01*
X101377026Y-56507473D01*
X101377026Y-56027473D01*
X101707026Y-56267473D01*
G37*
%TO.C,R13*%
X104720000Y-67046359D02*
X104720000Y-67353641D01*
X105480000Y-67046359D02*
X105480000Y-67353641D01*
%TO.C,C4*%
X112051253Y-61665000D02*
X111528747Y-61665000D01*
X112051253Y-63135000D02*
X111528747Y-63135000D01*
%TO.C,R5*%
X102620000Y-44146359D02*
X102620000Y-44453641D01*
X103380000Y-44146359D02*
X103380000Y-44453641D01*
%TO.C,D1*%
X117610000Y-47550000D02*
X112100000Y-47550000D01*
X117610000Y-50850000D02*
X112100000Y-50850000D01*
X117610000Y-50850000D02*
X117610000Y-47550000D01*
%TO.C,Y1*%
X109850000Y-56000000D02*
X113150000Y-56000000D01*
X113150000Y-56000000D02*
X113150000Y-52000000D01*
%TO.C,J2*%
X93340000Y-70495000D02*
X93340000Y-70795507D01*
X93340000Y-71584493D02*
X93340000Y-71885000D01*
X97215000Y-70495000D02*
X93340000Y-70495000D01*
X97215000Y-70495000D02*
X97215000Y-70581724D01*
X97215000Y-71798276D02*
X97215000Y-71885000D01*
X97215000Y-71885000D02*
X93340000Y-71885000D01*
X97900000Y-70495000D02*
X98585000Y-70495000D01*
X98585000Y-70495000D02*
X98585000Y-71190000D01*
%TO.C,R6*%
X106920000Y-44546359D02*
X106920000Y-44853641D01*
X107680000Y-44546359D02*
X107680000Y-44853641D01*
%TD*%
%LPC*%
D13*
%TO.C,C7*%
X112750000Y-58400000D03*
X110850000Y-58400000D03*
%TD*%
D14*
%TO.C,C11*%
X91225000Y-59400000D03*
X92775000Y-59400000D03*
%TD*%
D15*
%TO.C,C14*%
X100850000Y-67199999D03*
X100850000Y-65300001D03*
%TD*%
D16*
%TO.C,R15*%
X102650000Y-67275000D03*
X102650000Y-65625000D03*
%TD*%
D17*
%TO.C,C3*%
X108100000Y-51800000D03*
X108100000Y-52760000D03*
%TD*%
D18*
%TO.C,H3*%
X94000000Y-101000000D03*
%TD*%
D19*
%TO.C,R14*%
X106100000Y-66690001D03*
X106100000Y-67709999D03*
%TD*%
D20*
%TO.C,C13*%
X91250000Y-57600000D03*
X93150000Y-57600000D03*
%TD*%
D18*
%TO.C,H4*%
X116000000Y-101000000D03*
%TD*%
D21*
%TO.C,U3*%
X97999999Y-53300000D03*
X97999998Y-51000000D03*
D22*
X91700000Y-51000000D03*
D21*
X97999999Y-48700000D03*
%TD*%
D23*
%TO.C,U1*%
X100800000Y-52000000D03*
X100800000Y-52500001D03*
X100800000Y-53000000D03*
X100800000Y-53499999D03*
X100800000Y-54000000D03*
X105200000Y-54000000D03*
X105200000Y-53499999D03*
X105200000Y-53000000D03*
X105200000Y-52500001D03*
X105200000Y-52000000D03*
%TD*%
D24*
%TO.C,J5*%
X107100000Y-69475000D03*
X106100000Y-69475000D03*
X105100000Y-69475001D03*
X104100000Y-69475000D03*
X103100000Y-69475000D03*
D25*
X108400000Y-72000001D03*
X101800000Y-72000001D03*
%TD*%
D26*
%TO.C,J3*%
X97920000Y-66020000D03*
D27*
X96920000Y-66020000D03*
X95919999Y-66020000D03*
X94920000Y-66020000D03*
X93920000Y-66020000D03*
%TD*%
D28*
%TO.C,R8*%
X98717026Y-57489973D03*
X99737026Y-57489973D03*
%TD*%
D18*
%TO.C,H1*%
X94000000Y-44000000D03*
%TD*%
D29*
%TO.C,R1*%
X109100000Y-44175000D03*
X109100000Y-45825000D03*
%TD*%
D19*
%TO.C,R3*%
X105500000Y-44690001D03*
X105500000Y-45709999D03*
%TD*%
D20*
%TO.C,C8*%
X98050000Y-44500000D03*
X99950000Y-44500000D03*
%TD*%
D28*
%TO.C,R12*%
X98717026Y-61999973D03*
X99737026Y-61999973D03*
%TD*%
D30*
%TO.C,J1*%
X107890000Y-40505000D03*
X102110000Y-40505000D03*
D31*
X108200000Y-41625000D03*
X107400000Y-41625000D03*
D32*
X106250000Y-41625000D03*
X105250000Y-41625000D03*
X104750000Y-41625000D03*
X103750000Y-41625000D03*
D31*
X102600000Y-41625000D03*
X101800000Y-41625000D03*
X101800000Y-41625000D03*
X102600000Y-41625000D03*
D32*
X103250000Y-41625000D03*
X104250000Y-41625000D03*
X105750000Y-41625000D03*
X106750000Y-41625000D03*
D31*
X107400000Y-41625000D03*
X108200000Y-41625000D03*
D33*
X109320000Y-41025000D03*
D34*
X109320000Y-36825000D03*
D33*
X100680000Y-41025000D03*
D34*
X100680000Y-36825000D03*
%TD*%
D35*
%TO.C,C9*%
X111580000Y-56900000D03*
X110620000Y-56900000D03*
%TD*%
D28*
%TO.C,R10*%
X98717026Y-59719973D03*
X99737026Y-59719973D03*
%TD*%
D35*
%TO.C,C5*%
X111510000Y-63900000D03*
X110550000Y-63900000D03*
%TD*%
D26*
%TO.C,J4*%
X112490000Y-66140000D03*
D27*
X113490000Y-66140000D03*
X114490001Y-66140000D03*
X115490000Y-66140000D03*
X116490000Y-66140000D03*
%TD*%
D17*
%TO.C,C2*%
X107100000Y-51800000D03*
X107100000Y-52760000D03*
%TD*%
D36*
%TO.C,R4*%
X107709999Y-53800000D03*
X106690001Y-53800000D03*
%TD*%
%TO.C,R7*%
X99737025Y-56489973D03*
X98717027Y-56489973D03*
%TD*%
D13*
%TO.C,C6*%
X112749999Y-60400000D03*
X110850001Y-60400000D03*
%TD*%
D14*
%TO.C,C10*%
X98225000Y-46500000D03*
X99775000Y-46500000D03*
%TD*%
D36*
%TO.C,R11*%
X99737025Y-60989973D03*
X98717027Y-60989973D03*
%TD*%
D28*
%TO.C,R9*%
X98717026Y-58689973D03*
X99737026Y-58689973D03*
%TD*%
D19*
%TO.C,R2*%
X104500000Y-44690001D03*
X104500000Y-45709999D03*
%TD*%
D37*
%TO.C,C1*%
X111000000Y-44150000D03*
X111000000Y-46050000D03*
%TD*%
D20*
%TO.C,C12*%
X91250000Y-55600000D03*
X93150000Y-55600000D03*
%TD*%
D38*
%TO.C,U2*%
X102779526Y-56267473D03*
X102779526Y-56902473D03*
X102779526Y-57537473D03*
X102779526Y-58172473D03*
X102779526Y-58807473D03*
X102779526Y-59442473D03*
X102779526Y-60077473D03*
X102779526Y-60712473D03*
X108054526Y-60712473D03*
X108054526Y-60077473D03*
X108054526Y-59442473D03*
X108054526Y-58807473D03*
X108054526Y-58172473D03*
X108054526Y-57537473D03*
X108054526Y-56902473D03*
X108054526Y-56267473D03*
%TD*%
D19*
%TO.C,R13*%
X105100000Y-66690001D03*
X105100000Y-67709999D03*
%TD*%
D18*
%TO.C,H2*%
X116000000Y-44000000D03*
%TD*%
D13*
%TO.C,C4*%
X112739999Y-62400000D03*
X110840001Y-62400000D03*
%TD*%
D19*
%TO.C,R5*%
X103000000Y-43790001D03*
X103000000Y-44809999D03*
%TD*%
D39*
%TO.C,D1*%
X116100001Y-49200000D03*
X112099999Y-49200000D03*
%TD*%
D40*
%TO.C,Y1*%
X112350000Y-55100000D03*
X112350000Y-52900000D03*
X110650000Y-52900000D03*
X110650000Y-55100000D03*
%TD*%
D26*
%TO.C,J2*%
X97900000Y-71190000D03*
D27*
X96900000Y-71190000D03*
X95899999Y-71190000D03*
X94900000Y-71190000D03*
X93900000Y-71190000D03*
%TD*%
D19*
%TO.C,R6*%
X107300000Y-44190001D03*
X107300000Y-45209999D03*
%TD*%
%LPD*%
M02*
