M48
; DRILL file {KiCad 8.0.7-8.0.7-0~ubuntu22.04.1} date 2025-01-11T21:05:42+0100
; FORMAT={-:-/ absolute / inch / decimal}
; #@! TF.CreationDate,2025-01-11T21:05:42+01:00
; #@! TF.GenerationSoftware,Kicad,Pcbnew,8.0.7-8.0.7-0~ubuntu22.04.1
; #@! TF.FileFunction,Plated,1,2,PTH
FMAT,2
INCH
; #@! TA.AperFunction,Plated,PTH,ViaDrill
T1C0.0138
; #@! TA.AperFunction,Plated,PTH,ComponentDrill
T2C0.0236
; #@! TA.AperFunction,Plated,PTH,ComponentDrill
T3C0.1260
%
G90
G05
T1
X3.6335Y-1.6087
X3.6335Y-2.3961
X3.6335Y-2.4748
X3.6335Y-2.5535
X3.6335Y-2.9472
X3.6335Y-3.026
X3.6335Y-3.1047
X3.6335Y-3.1835
X3.6335Y-3.2622
X3.6335Y-3.3409
X3.6335Y-3.4197
X3.6335Y-3.4984
X3.6335Y-3.5772
X3.6335Y-3.6559
X3.6335Y-3.7346
X3.6335Y-3.8134
X3.7122Y-1.5299
X3.7122Y-2.1598
X3.7122Y-2.711
X3.7122Y-3.026
X3.7122Y-3.1047
X3.7122Y-3.1835
X3.7122Y-3.2622
X3.7122Y-3.3409
X3.7122Y-3.4197
X3.7122Y-3.4984
X3.7122Y-3.5772
X3.7122Y-3.6559
X3.7122Y-3.7346
X3.7122Y-3.8134
X3.7909Y-1.5299
X3.7909Y-1.6087
X3.7909Y-2.0811
X3.7909Y-2.1598
X3.7909Y-2.5535
X3.7909Y-2.711
X3.7909Y-3.6559
X3.7909Y-3.7346
X3.7909Y-3.8134
X3.8492Y-2.2815
X3.8697Y-1.4512
X3.8697Y-1.5299
X3.8697Y-1.6087
X3.8697Y-1.6874
X3.8697Y-2.3961
X3.8697Y-2.4748
X3.8697Y-2.7898
X3.8697Y-3.6559
X3.8697Y-3.7346
X3.8697Y-3.8134
X3.8697Y-3.8921
X3.8697Y-3.9709
X3.8697Y-4.0496
X3.9213Y-1.8898
X3.9213Y-1.9213
X3.9228Y-2.0484
X3.9484Y-1.6874
X3.9484Y-2.3961
X3.9484Y-3.6559
X3.9484Y-3.7346
X3.9484Y-3.8134
X3.9484Y-3.8921
X3.9484Y-3.9709
X3.9484Y-4.0496
X3.9524Y-1.9902
X3.9634Y-2.2906
X3.9685Y-1.8898
X3.9685Y-1.9213
X3.9807Y-1.9902
X3.9961Y-1.7953
X4.0117Y-2.0189
X4.0118Y-2.1417
X4.012Y-1.9615
X4.0272Y-3.6559
X4.0272Y-3.7346
X4.0272Y-3.8134
X4.0272Y-3.8921
X4.0272Y-3.9709
X4.0272Y-4.0496
X4.0394Y-2.0906
X4.0472Y-2.0591
X4.0685Y-2.0954
X4.078Y-1.9615
X4.078Y-2.0189
X4.1004Y-2.1827
X4.1059Y-3.6559
X4.1059Y-3.7346
X4.1059Y-3.8134
X4.1059Y-3.8921
X4.1059Y-3.9709
X4.1059Y-4.0496
X4.1063Y-2.2165
X4.122Y-2.1654
X4.1398Y-1.9902
X4.1512Y-2.1605
X4.1626Y-2.5606
X4.1665Y-1.9898
X4.1712Y-2.4535
X4.172Y-2.5166
X4.1846Y-1.8449
X4.1846Y-1.9236
X4.1846Y-3.6559
X4.1846Y-3.7346
X4.1846Y-3.8134
X4.1846Y-3.8921
X4.1846Y-3.9709
X4.1846Y-4.0496
X4.1925Y-2.561
X4.1929Y-2.2913
X4.2005Y-2.23
X4.2009Y-2.2577
X4.2047Y-2.2008
X4.2228Y-2.5583
X4.2394Y-2.4535
X4.2394Y-2.5166
X4.2522Y-2.5613
X4.2634Y-1.6874
X4.2634Y-1.8449
X4.2634Y-1.9236
X4.2634Y-2.1598
X4.2634Y-2.6323
X4.2634Y-3.6559
X4.2634Y-3.7346
X4.2634Y-3.8134
X4.2634Y-3.8921
X4.2634Y-3.9709
X4.2634Y-4.0496
X4.315Y-2.2598
X4.3421Y-1.9236
X4.3421Y-2.0024
X4.3421Y-3.6559
X4.3421Y-3.7346
X4.3421Y-3.8134
X4.3421Y-3.8921
X4.3421Y-3.9709
X4.3421Y-4.0496
X4.3563Y-2.1693
X4.3638Y-2.4567
X4.3984Y-2.8484
X4.3992Y-2.8146
X4.4004Y-2.8768
X4.4209Y-1.4512
X4.4209Y-1.5299
X4.4209Y-2.0024
X4.4209Y-3.6559
X4.4209Y-3.7346
X4.4209Y-3.8134
X4.4209Y-3.8921
X4.4209Y-3.9709
X4.4209Y-4.0496
X4.4252Y-2.0827
X4.4996Y-1.5299
X4.4996Y-1.6087
X4.4996Y-2.0811
X4.4996Y-2.1598
X4.4996Y-2.2386
X4.4996Y-2.3173
X4.4996Y-2.3961
X4.4996Y-2.6323
X4.4996Y-3.6559
X4.4996Y-3.7346
X4.4996Y-3.8134
X4.5354Y-1.9882
X4.5748Y-1.9882
X4.5783Y-2.0811
X4.5783Y-2.1598
X4.5783Y-2.2386
X4.5783Y-2.3173
X4.5783Y-2.3961
X4.5783Y-2.5535
X4.5783Y-2.9472
X4.5783Y-3.026
X4.5783Y-3.1047
X4.5783Y-3.1835
X4.5783Y-3.2622
X4.5783Y-3.3409
X4.5783Y-3.4197
X4.5783Y-3.4984
X4.5783Y-3.5772
X4.5783Y-3.6559
X4.5783Y-3.7346
X4.5783Y-3.8134
X4.6142Y-1.9882
X4.6571Y-1.6087
X4.6571Y-1.8449
X4.6571Y-2.9472
X4.6571Y-3.026
X4.6571Y-3.1047
X4.6571Y-3.1835
X4.6571Y-3.2622
X4.6571Y-3.3409
X4.6571Y-3.4197
X4.6571Y-3.4984
X4.6571Y-3.5772
X4.6571Y-3.6559
X4.6571Y-3.7346
X4.6571Y-3.8134
T3
X3.7008Y-1.7323
X3.7008Y-3.9764
X4.5669Y-1.7323
X4.5669Y-3.9764
T2
G00X3.9638Y-1.4656
M15
G01X3.9638Y-1.4341
M16
G05
G00X3.9638Y-1.6368
M15
G01X3.9638Y-1.5935
M16
G05
G00X4.3039Y-1.4656
M15
G01X4.3039Y-1.4341
M16
G05
G00X4.3039Y-1.6368
M15
G01X4.3039Y-1.5935
M16
G05
M30
